<svg width="24" height="24" viewBox="0 0 24 24" fill="none" xmlns="http://www.w3.org/2000/svg">
<path fill-rule="evenodd" clip-rule="evenodd" d="M3.89286 10.0306C3.1236 10.0306 2.5 10.6885 2.5 11.5C2.5 12.3115 3.1236 12.9694 3.89286 12.9694H20.6071C21.3764 12.9694 22 12.3115 22 11.5C22 10.6885 21.3764 10.0306 20.6071 10.0306H3.89286Z" fill="black"/>
<path fill-rule="evenodd" clip-rule="evenodd" d="M12.4877 5.62889C13.1112 5.08336 13.1744 4.13572 12.6288 3.51226C12.0833 2.88881 11.1357 2.82563 10.5122 3.37116L2.51222 10.3712C2.1867 10.656 1.99998 11.0675 1.99998 11.5C1.99998 11.9326 2.1867 12.3441 2.51222 12.6289L10.5122 19.6289C11.1357 20.1744 12.0833 20.1112 12.6288 19.4878C13.1744 18.8643 13.1112 17.9167 12.4877 17.3712L5.77787 11.5L12.4877 5.62889Z" fill="black"/>
</svg>
