<svg xmlns="http://www.w3.org/2000/svg" width="54" height="32" fill="none" viewBox="0 0 54 32">
    <path fill="#252F3E" d="M15.08 11.622c0 .658.071 1.192.196 1.584.142.391.32.818.57 1.281a.774.774 0 0 1 .124.41c0 .178-.107.355-.338.533l-1.121.748a.853.853 0 0 1-.463.16c-.178 0-.356-.089-.534-.249a5.517 5.517 0 0 1-.64-.836c-.179-.303-.357-.641-.552-1.05-1.389 1.637-3.133 2.456-5.233 2.456-1.495 0-2.687-.428-3.56-1.282-.871-.854-1.316-1.993-1.316-3.417 0-1.513.534-2.74 1.62-3.666 1.085-.926 2.526-1.389 4.36-1.389.605 0 1.228.054 1.886.143.659.089 1.335.231 2.047.391V6.14c0-1.352-.285-2.296-.837-2.847-.57-.552-1.53-.82-2.9-.82-.624 0-1.264.072-1.923.232-.658.16-1.299.356-1.922.605a5.108 5.108 0 0 1-.623.232 1.092 1.092 0 0 1-.285.053c-.249 0-.373-.178-.373-.552v-.872c0-.284.035-.498.124-.623.09-.124.25-.249.499-.373.622-.32 1.37-.588 2.242-.801A10.79 10.79 0 0 1 8.904.036c2.118 0 3.667.48 4.663 1.441.98.961 1.478 2.42 1.478 4.378v5.767h.035zm-7.226 2.705c.588 0 1.193-.107 1.834-.32.64-.214 1.21-.605 1.69-1.14.285-.338.499-.711.605-1.138a6.39 6.39 0 0 0 .178-1.549v-.747a14.862 14.862 0 0 0-1.637-.303 13.41 13.41 0 0 0-1.673-.107c-1.192 0-2.064.232-2.652.712-.587.48-.872 1.157-.872 2.047 0 .836.214 1.46.659 1.886.427.445 1.05.659 1.868.659zm14.292 1.922c-.32 0-.534-.053-.677-.178-.142-.107-.267-.356-.373-.694L16.913 1.62c-.106-.356-.16-.588-.16-.712 0-.285.142-.445.427-.445h1.744c.339 0 .57.053.695.178.142.106.249.356.355.694l2.99 11.782 2.777-11.782c.089-.356.196-.588.338-.694.142-.107.392-.178.712-.178h1.424c.338 0 .57.053.712.178.142.106.267.356.338.694l2.812 11.924 3.079-11.924c.107-.356.231-.588.356-.694.142-.107.373-.178.694-.178h1.655c.285 0 .445.142.445.445 0 .089-.018.178-.036.284-.017.107-.053.25-.124.445l-4.29 13.758c-.106.356-.23.587-.373.694-.142.107-.374.178-.676.178h-1.531c-.338 0-.57-.053-.712-.178-.142-.125-.267-.356-.338-.712l-2.759-11.48-2.74 11.462c-.09.356-.196.588-.339.712-.142.125-.391.178-.712.178h-1.53zm22.87.48c-.926 0-1.851-.106-2.741-.32-.89-.213-1.584-.445-2.047-.712-.285-.16-.48-.338-.552-.498a1.256 1.256 0 0 1-.106-.498v-.908c0-.374.142-.552.409-.552.107 0 .214.018.32.054.107.035.267.107.445.178.605.267 1.264.48 1.958.623.712.142 1.406.213 2.118.213 1.121 0 1.993-.196 2.598-.587.605-.392.926-.961.926-1.69 0-.5-.16-.909-.48-1.247-.321-.338-.926-.64-1.798-.925l-2.58-.801c-1.3-.41-2.261-1.015-2.849-1.815-.587-.784-.89-1.656-.89-2.581 0-.748.16-1.406.481-1.976.32-.57.748-1.067 1.282-1.459a5.649 5.649 0 0 1 1.85-.925C44.073.089 44.82 0 45.604 0c.392 0 .8.018 1.192.071.41.054.783.125 1.157.196.356.089.694.178 1.015.285.32.107.57.213.747.32.25.142.427.285.534.445.107.142.16.338.16.587v.837c0 .374-.142.57-.41.57-.141 0-.373-.072-.675-.214-1.015-.463-2.154-.694-3.417-.694-1.015 0-1.816.16-2.368.498-.551.338-.836.854-.836 1.584 0 .498.178.925.534 1.264.356.338 1.014.676 1.958.978l2.527.801c1.281.41 2.207.98 2.759 1.709.551.73.818 1.566.818 2.492 0 .765-.16 1.459-.463 2.064a4.787 4.787 0 0 1-1.299 1.566c-.552.445-1.21.766-1.975.997-.801.25-1.638.374-2.545.374z"/>
    <path fill="#F90" fill-rule="evenodd" d="M48.38 25.38C42.523 29.703 34.016 32 26.701 32 16.451 32 7.214 28.21.237 21.909c-.552-.498-.053-1.175.605-.783 7.546 4.378 16.854 7.03 26.483 7.03 6.496 0 13.633-1.353 20.2-4.13.979-.444 1.815.641.854 1.353z" clip-rule="evenodd"/>
    <path fill="#F90" fill-rule="evenodd" d="M50.818 22.603c-.748-.961-4.948-.463-6.852-.232-.57.072-.659-.427-.143-.8 3.346-2.35 8.846-1.673 9.486-.89.641.8-.178 6.3-3.31 8.934-.48.41-.943.196-.73-.338.712-1.762 2.296-5.73 1.549-6.674z" clip-rule="evenodd"/>
</svg>
