<svg width="24" height="24" viewBox="0 0 24 24" fill="none" xmlns="http://www.w3.org/2000/svg">
<path d="M11.3135 23.8873C10.3759 23.6032 9.77924 22.694 9.77924 21.728V20.9893C9.77924 20.9893 9.77924 20.9609 9.80765 20.9609H14.2967V21.7564C14.2683 23.2338 12.8477 24.3703 11.3135 23.8873Z" fill="black"/>
<path d="M21.5702 22.0229H2.47741C1.65347 22.0229 1 21.3694 1 20.5454V20.2897C1 19.892 1.14206 19.5226 1.42618 19.2385L3.415 17.3065V11.0275C3.415 7.22031 5.8016 4.00977 9.38148 2.8733C9.40989 2.8733 9.40989 2.84489 9.40989 2.81648V2.58918C9.40989 1.73683 9.80766 0.912887 10.518 0.458298C12.45 -0.791821 14.5808 0.714005 14.5808 2.58918V2.81648C18.1891 3.95295 20.6041 7.16349 20.6041 10.9991V17.3065L22.593 19.2669C22.8771 19.551 23.0192 19.9204 23.0192 20.3182V20.5739C23.0476 21.3694 22.3941 22.0229 21.5702 22.0229Z" fill="black"/>
</svg>
