<svg xmlns="http://www.w3.org/2000/svg" viewBox="0 0 25 25">
    <path fill-rule="evenodd" d="M12.453 2.075c-5.731 0-10.378 4.647-10.378 10.378 0 5.73 4.647 10.377 10.378 10.377 5.73 0 10.377-4.646 10.377-10.377 0-5.731-4.646-10.378-10.377-10.378zM0 12.453C0 5.575 5.575 0 12.453 0c6.877 0 12.453 5.575 12.453 12.453 0 6.877-5.576 12.453-12.453 12.453C5.575 24.906 0 19.33 0 12.453zm16.121-3.67a1.038 1.038 0 0 1 0 1.468l-2.2 2.202 2.2 2.201a1.038 1.038 0 0 1-1.467 1.468l-2.201-2.201-2.2 2.2a1.038 1.038 0 0 1-1.469-1.467l2.201-2.201-2.2-2.202a1.038 1.038 0 1 1 1.467-1.467l2.2 2.201 2.202-2.201a1.038 1.038 0 0 1 1.467 0z" clip-rule="evenodd"/>
</svg>
