<svg width="25" height="25" viewBox="0 0 25 25" fill="none" xmlns="http://www.w3.org/2000/svg">
<path fill-rule="evenodd" clip-rule="evenodd" d="M0.909119 12.9091C0.909119 6.2818 6.28183 0.909088 12.9091 0.909088C19.5364 0.909088 24.9091 6.2818 24.9091 12.9091C24.9091 19.5364 19.5364 24.9091 12.9091 24.9091C6.28183 24.9091 0.909119 19.5364 0.909119 12.9091ZM10.7882 9.37346C10.3977 8.9829 9.76454 8.98285 9.37398 9.37334C8.98342 9.76383 8.98337 10.397 9.37385 10.7875L11.495 12.9091L9.37407 15.0305C8.98358 15.421 8.98363 16.0542 9.37419 16.4447C9.76475 16.8352 10.3979 16.8351 10.7884 16.4445L12.9091 14.3234L15.0299 16.4445C15.4203 16.8351 16.0535 16.8352 16.4441 16.4447C16.8346 16.0542 16.8347 15.421 16.4442 15.0305L14.3232 12.9091L16.4444 10.7875C16.8349 10.397 16.8348 9.76383 16.4443 9.37334C16.0537 8.98285 15.4206 8.9829 15.0301 9.37346L12.9091 11.4948L10.7882 9.37346Z" fill="#242A35"/>
</svg>
