<svg width="25" height="25" viewBox="0 0 25 25" fill="none" xmlns="http://www.w3.org/2000/svg">
<path fill-rule="evenodd" clip-rule="evenodd" d="M2.90912 12.9091C2.90912 7.38634 7.3864 2.90906 12.9091 2.90906C18.4318 2.90906 22.9091 7.38634 22.9091 12.9091C22.9091 18.4318 18.4318 22.9091 12.9091 22.9091C7.3864 22.9091 2.90912 18.4318 2.90912 12.9091ZM12.9091 0.909058C6.28183 0.909058 0.909119 6.28177 0.909119 12.9091C0.909119 19.5363 6.28183 24.9091 12.9091 24.9091C19.5364 24.9091 24.9091 19.5363 24.9091 12.9091C24.9091 6.28177 19.5364 0.909058 12.9091 0.909058ZM17.2412 10.4638C17.5475 10.0042 17.4233 9.38336 16.9638 9.07701C16.5043 8.77066 15.8834 8.89483 15.5771 9.35436L12.1318 14.5223L9.96382 13.077C9.50429 12.7707 8.88342 12.8948 8.57707 13.3544C8.27072 13.8139 8.39489 14.4348 8.85442 14.7411L11.8544 16.7411C12.3139 17.0475 12.9348 16.9233 13.2412 16.4638L17.2412 10.4638Z" fill="black"/>
</svg>
