<svg xmlns="http://www.w3.org/2000/svg" viewBox="0 0 25 25">
    <path fill-rule="evenodd" d="M2.075 12.453c0-5.731 4.647-10.378 10.378-10.378 5.73 0 10.377 4.647 10.377 10.378 0 5.73-4.646 10.377-10.377 10.377-5.731 0-10.378-4.646-10.378-10.377zM12.453 0C5.575 0 0 5.575 0 12.453c0 6.877 5.575 12.453 12.453 12.453 6.877 0 12.453-5.576 12.453-12.453C24.906 5.575 19.33 0 12.453 0zm4.495 9.915a1.038 1.038 0 0 0-1.726-1.151l-3.576 5.363-2.25-1.5a1.038 1.038 0 0 0-1.15 1.727l3.112 2.076a1.038 1.038 0 0 0 1.44-.288l4.15-6.227z" clip-rule="evenodd"/>
</svg>
