<svg xmlns="http://www.w3.org/2000/svg" fill="none" viewBox="0 0 24 24">
    <path fill-rule="evenodd" d="M20.486 3.514c4.685 4.687 4.685 12.285 0 16.972-4.687 4.685-12.285 4.685-16.972 0-4.685-4.687-4.685-12.285 0-16.972 4.687-4.685 12.285-4.685 16.972 0z" clip-rule="evenodd"/>
    <path fill="#fff" d="M11.023 14c0-.592.077-1.064.23-1.416.154-.352.456-.737.908-1.156.455-.423.744-.723.865-.901a1.53 1.53 0 0 0 .279-.882c0-.419-.11-.737-.328-.955-.214-.223-.53-.334-.95-.334-.4 0-.722.109-.969.327a1.09 1.09 0 0 0-.096.096c-.307.35-.644.78-1.11.78-.469 0-.867-.394-.72-.84.133-.406.368-.75.705-1.031.554-.459 1.284-.688 2.19-.688.936 0 1.664.227 2.185.681.525.455.788 1.089.788 1.904 0 .726-.354 1.44-1.06 2.144l-.859.808c-.307.334-.465.822-.474 1.463h-1.584z"/>
    <circle cx="12" cy="17" r="1" fill="#fff"/>
</svg>
