<svg xmlns="http://www.w3.org/2000/svg" viewBox="0 0 16 16" >
  <path fill-rule="evenodd" d="M2.2 1.467a.734.734 0 0 0-.733.733v7.333c0 .405.328.734.733.734h7.333a.734.734 0 0 0 .734-.734V2.2a.734.734 0 0 0-.734-.733H2.2zM0 2.2A2.2 2.2 0 0 1 2.2 0h7.333a2.2 2.2 0 0 1 2.2 2.2v7.333a2.2 2.2 0 0 1-2.2 2.2H2.2a2.2 2.2 0 0 1-2.2-2.2V2.2z" clip-rule="evenodd" />
  <path d="M13 4.267h.8a2.2 2.2 0 0 1 2.2 2.2V13.8a2.2 2.2 0 0 1-2.2 2.2H6.467a2.2 2.2 0 0 1-2.2-2.2V13h1.466v.8c0 .405.329.733.734.733H13.8a.734.734 0 0 0 .733-.733V6.467a.734.734 0 0 0-.733-.734H13V4.267z" />
</svg>
