<svg width="25" height="26" viewBox="0 0 25 26" fill="none" xmlns="http://www.w3.org/2000/svg">
<path fill-rule="evenodd" clip-rule="evenodd" d="M3.38585 3.1385C2.77731 3.1365 2.28124 3.62934 2.27925 4.23787L2.24314 15.2677C2.24115 15.8763 2.73399 16.3723 3.34252 16.3743L14.3724 16.4104C14.9809 16.4124 15.477 15.9196 15.479 15.3111L15.5151 4.2812C15.5171 3.67266 15.0242 3.17659 14.4157 3.1746L3.38585 3.1385ZM0.0732752 4.23065C0.0792551 2.40379 1.56621 0.926543 3.39307 0.932523L14.4229 0.968627C16.2498 0.974607 17.727 2.46156 17.7211 4.28842L17.685 15.3183C17.679 17.1451 16.192 18.6224 14.3652 18.6164L3.3353 18.5803C1.50844 18.5743 0.031191 17.0874 0.0371709 15.2605L0.0732752 4.23065Z" fill="black"/>
<path d="M19.6165 7.40396L20.8202 7.4079C22.6471 7.41388 24.1243 8.90083 24.1183 10.7277L24.0822 21.7576C24.0763 23.5844 22.5893 25.0617 20.7624 25.0557L9.73258 25.0196C7.90572 25.0136 6.42847 23.5266 6.43445 21.6998L6.43839 20.4965L8.64436 20.5038L8.64042 21.707C8.63843 22.3155 9.13126 22.8116 9.7398 22.8136L20.7697 22.8497C21.3782 22.8517 21.8743 22.3589 21.8763 21.7503L21.9124 10.7205C21.9144 10.1119 21.4215 9.61586 20.813 9.61387L19.6093 9.60993L19.6165 7.40396Z" fill="black"/>
</svg>
