<svg xmlns="http://www.w3.org/2000/svg" width="24" height="18" fill="none" viewBox="0 0 24 18">
    <path fill="#E0EEFB" d="M2 1h21v16H2z"/>
    <path fill="#0788FF" fill-rule="evenodd" d="M0 7a1 1 0 0 1 1-1h22a1 1 0 1 1 0 2H1a1 1 0 0 1-1-1z" clip-rule="evenodd"/>
    <path fill="#0788FF" fill-rule="evenodd" d="M3 2a1 1 0 0 0-1 1v12a1 1 0 0 0 1 1h18a1 1 0 0 0 1-1V3a1 1 0 0 0-1-1H3zM0 3a3 3 0 0 1 3-3h18a3 3 0 0 1 3 3v12a3 3 0 0 1-3 3H3a3 3 0 0 1-3-3V3z" clip-rule="evenodd"/>
    <path fill="#0788FF" fill-rule="evenodd" d="M8 11.99a1 1 0 0 1 1 1V13a1 1 0 1 1-2 0v-.01a1 1 0 0 1 1-1zM5 11.99a1 1 0 0 1 1 1V13a1 1 0 1 1-2 0v-.01a1 1 0 0 1 1-1z" clip-rule="evenodd"/>
</svg>
