<svg width="28" height="28" viewBox="0 0 28 28" fill="none" xmlns="http://www.w3.org/2000/svg">
<rect x="2.33298" y="4.16675" width="24.5" height="18.6667" fill="#E1ECFF"/>
<path fill-rule="evenodd" clip-rule="evenodd" d="M0 11.1667C0 10.5223 0.522334 10 1.16667 10H26.8333C27.4777 10 28 10.5223 28 11.1667C28 11.811 27.4777 12.3333 26.8333 12.3333H1.16667C0.522334 12.3333 0 11.811 0 11.1667Z" fill="#0055FF"/>
<path fill-rule="evenodd" clip-rule="evenodd" d="M3.5 5.33333C2.85633 5.33333 2.33333 5.85633 2.33333 6.5V20.5C2.33333 21.1437 2.85633 21.6667 3.5 21.6667H24.5C25.1437 21.6667 25.6667 21.1437 25.6667 20.5V6.5C25.6667 5.85633 25.1437 5.33333 24.5 5.33333H3.5ZM0 6.5C0 4.56767 1.56767 3 3.5 3H24.5C26.4323 3 28 4.56767 28 6.5V20.5C28 22.4323 26.4323 24 24.5 24H3.5C1.56767 24 0 22.4323 0 20.5V6.5Z" fill="#0055FF"/>
<path fill-rule="evenodd" clip-rule="evenodd" d="M9.33334 16.9883C9.97767 16.9883 10.5 17.5106 10.5 18.1549V18.1666C10.5 18.8109 9.97767 19.3333 9.33334 19.3333C8.68901 19.3333 8.16667 18.8109 8.16667 18.1666V18.1549C8.16667 17.5106 8.68901 16.9883 9.33334 16.9883Z" fill="#0055FF"/>
<path fill-rule="evenodd" clip-rule="evenodd" d="M5.83334 16.9883C6.47767 16.9883 7 17.5106 7 18.1549V18.1666C7 18.8109 6.47767 19.3333 5.83334 19.3333C5.18901 19.3333 4.66667 18.8109 4.66667 18.1666V18.1549C4.66667 17.5106 5.18901 16.9883 5.83334 16.9883Z" fill="#0055FF"/>
</svg>
