<svg width="24" height="24" viewBox="0 0 24 24" fill="none" xmlns="http://www.w3.org/2000/svg">
<path fill-rule="evenodd" clip-rule="evenodd" d="M11.9988 0C12.8273 0 13.4989 0.67161 13.4989 1.50008V12.8794L18.4403 7.93804C19.0261 7.35222 19.9759 7.35222 20.5617 7.93804C21.1476 8.52386 21.1476 9.47366 20.5617 10.0595L13.0613 17.5599L13.0503 17.5708C12.7796 17.8369 12.4084 18.001 11.9988 18.001C11.5534 18.001 11.1533 17.8069 10.8786 17.4986L3.43946 10.0595C2.85364 9.47366 2.85364 8.52386 3.43946 7.93804C4.02528 7.35222 4.97508 7.35222 5.5609 7.93804L10.4987 12.8759V1.50008C10.4987 0.67161 11.1703 0 11.9988 0ZM4.50008 20.9998C3.67161 20.9998 3 21.6714 3 22.4999C3 23.3284 3.67161 24 4.50008 24H19.5009C20.3294 24 21.001 23.3284 21.001 22.4999C21.001 21.6714 20.3294 20.9998 19.5009 20.9998L4.50008 20.9998Z" fill="black"/>
</svg>
