<svg xmlns="http://www.w3.org/2000/svg" viewBox="0 0 24 24">
    <path fill-rule="evenodd" d="M12 22.154c5.608 0 10.154-4.546 10.154-10.154S17.608 1.846 12 1.846 1.846 6.392 1.846 12 6.392 22.154 12 22.154zM24 12c0 6.627-5.373 12-12 12S0 18.627 0 12 5.373 0 12 0s12 5.373 12 12z" clip-rule="evenodd"/>
    <path fill-rule="evenodd" d="M12 13.93a.923.923 0 0 1-.923-.923V5.958a.923.923 0 0 1 1.846 0v7.049c0 .51-.413.923-.923.923zM12 17.968a.923.923 0 0 1-.923-.923v-.01a.923.923 0 0 1 1.846 0v.01c0 .51-.413.923-.923.923z" clip-rule="evenodd"/>
</svg>
