<svg width="24" height="24" viewBox="0 0 24 24" fill="none" xmlns="http://www.w3.org/2000/svg">
<path fill-rule="evenodd" clip-rule="evenodd" d="M11.7994 3.05903C12.0631 3.03193 12.374 3 12.6967 3C15.8893 3 18.7 4.78172 20.6635 6.63194C21.6549 7.56614 22.4622 8.54684 23.0278 9.39161C23.3102 9.81327 23.5408 10.2136 23.7046 10.5679C23.8523 10.8875 24 11.282 24 11.6532C24 11.9092 23.931 12.16 23.8587 12.363C23.7813 12.5803 23.6742 12.8131 23.5472 13.0521C23.2926 13.5309 22.9319 14.0833 22.4877 14.6606C22.1906 15.0467 21.644 15.1133 21.2666 14.8094C20.8893 14.5055 20.8242 13.9462 21.1213 13.5601C21.5193 13.0428 21.8217 12.5742 22.0195 12.202C22.1187 12.0155 22.1852 11.8652 22.2248 11.7539C22.2422 11.7052 22.2515 11.6718 22.2564 11.6521C22.2471 11.6177 22.2187 11.5149 22.1325 11.3285C22.0183 11.0814 21.8389 10.764 21.5933 10.3972C21.103 9.66498 20.3822 8.78563 19.4854 7.94063C17.6726 6.23244 15.2663 4.77916 12.6967 4.77916C12.4684 4.77916 12.2374 4.80215 11.9564 4.831C11.4786 4.88006 11.0524 4.52353 11.0044 4.03469C10.9565 3.54584 11.3049 3.10979 11.7827 3.06073C11.7883 3.06017 11.7938 3.0596 11.7994 3.05903Z" fill="black"/>
<path fill-rule="evenodd" clip-rule="evenodd" d="M2.73198 9.19059C3.10942 9.49447 3.17457 10.0538 2.87752 10.4399C2.48004 10.9565 2.17817 11.425 1.98058 11.7972C1.88155 11.9838 1.81515 12.1341 1.77555 12.2454C1.75823 12.2941 1.74889 12.3275 1.74396 12.3472C1.75333 12.3817 1.78175 12.4845 1.86791 12.6708C1.98216 12.918 2.16158 13.2354 2.40727 13.6022C2.89767 14.3345 3.61861 15.2139 4.51556 16.059C6.32877 17.7673 8.73558 19.2207 11.3058 19.2207C11.532 19.2207 11.7631 19.1977 12.0431 19.1689C12.521 19.1197 12.9474 19.4761 12.9956 19.9649C13.0437 20.4538 12.6953 20.89 12.2174 20.9392L12.2029 20.9407C11.9395 20.9679 11.6277 21 11.3058 21C8.11244 21 5.30119 19.2181 3.33723 17.3678C2.34559 16.4335 1.53817 15.4527 0.972367 14.6079C0.689947 14.1862 0.459301 13.7858 0.295503 13.4315C0.147737 13.1118 0 12.7173 0 12.3461C0 12.0905 0.0689264 11.8398 0.141014 11.6371C0.218255 11.4199 0.325174 11.1871 0.452064 10.9481C0.706312 10.4692 1.06666 9.91664 1.51072 9.33947C1.80777 8.95337 2.35455 8.88671 2.73198 9.19059Z" fill="black"/>
<path fill-rule="evenodd" clip-rule="evenodd" d="M0.270363 0.270363C0.630847 -0.090121 1.21531 -0.090121 1.57579 0.270363L23.7296 22.4242C24.0901 22.7847 24.0901 23.3692 23.7296 23.7296C23.3692 24.0901 22.7847 24.0901 22.4242 23.7296L0.270363 1.57579C-0.090121 1.21531 -0.090121 0.630847 0.270363 0.270363Z" fill="black"/>
</svg>
