<svg xmlns="http://www.w3.org/2000/svg" viewBox="0 0 26 26">
    <path fill-rule="evenodd" d="M11.967 3.337c.304-.03.661-.066 1.032-.066 3.672 0 6.905 2.003 9.163 4.083 1.14 1.05 2.069 2.152 2.72 3.102.324.474.59.924.778 1.322.17.36.34.803.34 1.22 0 .288-.08.57-.163.798a5.84 5.84 0 0 1-.358.775c-.293.538-.708 1.159-1.219 1.808a1 1 0 1 1-1.571-1.237c.457-.582.805-1.108 1.033-1.527.114-.21.19-.379.236-.504.02-.054.03-.092.036-.114a2.228 2.228 0 0 0-.142-.364 7.926 7.926 0 0 0-.62-1.047c-.564-.823-1.393-1.811-2.425-2.761C18.722 6.905 15.955 5.27 13 5.27a8.59 8.59 0 0 0-.851.058 1 1 0 1 1-.2-1.99l.02-.002zM3.142 9.452a1 1 0 0 1 .167 1.404c-.457.58-.804 1.107-1.031 1.526-.114.21-.19.378-.236.504-.02.054-.03.092-.036.114.01.039.043.154.142.364.132.277.338.634.62 1.047.564.823 1.393 1.811 2.425 2.761 2.085 1.92 4.852 3.554 7.808 3.554.26 0 .525-.026.847-.058a1 1 0 0 1 .2 1.99l-.016.001c-.303.03-.661.067-1.031.067-3.672 0-6.905-2.003-9.163-4.083-1.14-1.05-2.069-2.152-2.72-3.102a9.887 9.887 0 0 1-.778-1.322c-.17-.36-.34-.803-.34-1.22 0-.288.08-.57.163-.797a5.84 5.84 0 0 1 .357-.775c.293-.538.707-1.16 1.218-1.808a1 1 0 0 1 1.404-.167zM.293.293a1 1 0 0 1 1.414 0l24 24a1 1 0 0 1-1.414 1.414l-24-24a1 1 0 0 1 0-1.414z" clip-rule="evenodd"/>
</svg>
