<svg xmlns="http://www.w3.org/2000/svg" viewBox="0 0 26 20">
    <path fill-rule="evenodd" d="M3.838 4.083C6.096 2.003 9.328 0 13 0c3.671 0 6.904 2.003 9.162 4.083 1.14 1.05 2.07 2.152 2.72 3.102.324.474.59.924.778 1.322.17.36.34.803.34 1.22 0 .418-.17.861-.34 1.22a9.878 9.878 0 0 1-.778 1.323c-.65.95-1.58 2.052-2.72 3.102-2.258 2.08-5.49 4.082-9.162 4.082-3.671 0-6.904-2.002-9.162-4.082-1.14-1.05-2.069-2.153-2.72-3.102a9.888 9.888 0 0 1-.778-1.323c-.17-.359-.34-.802-.34-1.22 0-.417.17-.86.34-1.22.188-.398.453-.848.778-1.322.65-.95 1.58-2.052 2.72-3.102zM2.005 9.727c.01.038.043.153.143.365.131.278.338.635.62 1.047.564.823 1.393 1.812 2.425 2.762 2.085 1.92 4.852 3.553 7.807 3.553s5.722-1.633 7.807-3.553c1.032-.95 1.86-1.939 2.425-2.762.282-.412.489-.769.62-1.047.1-.212.133-.327.143-.365-.01-.037-.043-.153-.143-.365a7.936 7.936 0 0 0-.62-1.047c-.564-.823-1.393-1.811-2.425-2.761C18.722 3.634 15.955 2 13 2S7.278 3.634 5.193 5.554c-1.032.95-1.86 1.938-2.425 2.761a7.93 7.93 0 0 0-.62 1.047 2.21 2.21 0 0 0-.143.365z" clip-rule="evenodd"/>
    <path fill-rule="evenodd" d="M13 7.455A2.273 2.273 0 1 0 13 12a2.273 2.273 0 0 0 0-4.545zM8.727 9.727a4.273 4.273 0 1 1 8.545 0 4.273 4.273 0 0 1-8.545 0z" clip-rule="evenodd"/>
</svg>
