<svg width="24" height="24" viewBox="0 0 24 24" fill="none" xmlns="http://www.w3.org/2000/svg">
<path fill-rule="evenodd" clip-rule="evenodd" d="M3.54254 6.77748C5.62718 4.85315 8.61104 3 12 3C15.389 3 18.3728 4.85315 20.4575 6.77748C21.51 7.74911 22.3671 8.76911 22.9678 9.64772C23.2676 10.0863 23.5124 10.5026 23.6863 10.8712C23.8431 11.2036 24 11.6139 24 12C24 12.3861 23.8431 12.7964 23.6863 13.1288C23.5124 13.4974 23.2676 13.9137 22.9678 14.3523C22.3671 15.2309 21.51 16.2509 20.4575 17.2225C18.3728 19.1468 15.389 21 12 21C8.61104 21 5.62718 19.1468 3.54254 17.2225C2.48996 16.2509 1.63287 15.2309 1.03225 14.3523C0.732448 13.9137 0.487601 13.4974 0.313715 13.1288C0.156854 12.7964 0 12.3861 0 12C0 11.6139 0.156854 11.2036 0.313715 10.8712C0.487601 10.5026 0.732448 10.0863 1.03225 9.64772C1.63287 8.76911 2.48996 7.74911 3.54254 6.77748ZM1.85072 12C1.86033 12.0346 1.89015 12.1417 1.98262 12.3377C2.1039 12.5947 2.29437 12.9248 2.55519 13.3063C3.07578 14.0679 3.84109 14.9825 4.79318 15.8613C6.71789 17.638 9.27248 19.1495 12 19.1495C14.7275 19.1495 17.2821 17.638 19.2068 15.8613C20.1589 14.9825 20.9242 14.0679 21.4448 13.3063C21.7056 12.9248 21.8961 12.5947 22.0174 12.3377C22.1098 12.1417 22.1397 12.0346 22.1493 12C22.1397 11.9654 22.1098 11.8583 22.0174 11.6623C21.8961 11.4053 21.7056 11.0752 21.4448 10.6937C20.9242 9.93214 20.1589 9.01754 19.2068 8.13866C17.2821 6.36197 14.7275 4.85047 12 4.85047C9.27248 4.85047 6.71789 6.36197 4.79318 8.13866C3.84109 9.01754 3.07578 9.93214 2.55519 10.6937C2.29437 11.0752 2.1039 11.4053 1.98262 11.6623C1.89015 11.8583 1.86033 11.9654 1.85072 12Z" fill="#242A35"/>
<path fill-rule="evenodd" clip-rule="evenodd" d="M12 9.74766C10.8412 9.74766 9.90212 10.6367 9.90212 11.7336C9.90212 12.8306 10.8412 13.7196 12 13.7196C13.1588 13.7196 14.0979 12.8306 14.0979 11.7336C14.0979 10.6367 13.1588 9.74766 12 9.74766ZM8.05597 11.7336C8.05597 9.67147 9.82164 8 12 8C14.1784 8 15.9441 9.67147 15.9441 11.7336C15.9441 13.7958 14.1784 15.4673 12 15.4673C9.82164 15.4673 8.05597 13.7958 8.05597 11.7336Z" fill="#242A35"/>
</svg>
