<svg xmlns="http://www.w3.org/2000/svg" width="55" height="44" fill="none" viewBox="0 0 55 44">
    <path fill="#EA4335" d="M34.9 12.003h1.677l4.78-4.708.235-2c-8.897-7.733-22.476-6.898-30.33 1.864a21.056 21.056 0 0 0-4.63 8.462 2.625 2.625 0 0 1 1.678-.098l9.561-1.553s.485-.794.74-.745c4.252-4.6 11.41-5.137 16.322-1.222H34.9z"/>
    <path fill="#4285F4" d="M48.169 15.621a21.146 21.146 0 0 0-6.49-10.306l-6.71 6.606a11.675 11.675 0 0 1 4.378 9.318v1.173c3.298 0 5.973 2.634 5.973 5.882 0 3.247-2.675 5.88-5.973 5.88H27.403l-1.192 1.19v7.055l1.192 1.174h11.944c8.578.065 15.587-6.73 15.652-15.176.04-5.13-2.525-9.929-6.83-12.796z"/>
    <path fill="#34A853" d="M15.441 43.518h11.945v-9.415H15.442c-.852 0-1.69-.182-2.467-.53l-1.677.514-4.813 4.707-.42 1.652a15.574 15.574 0 0 0 9.377 3.072z"/>
    <path fill="#FBBC05" d="M15.441 12.978c-8.58.049-15.49 6.938-15.44 15.387.029 4.717 2.264 9.158 6.064 12.032l6.926-6.82c-3.004-1.337-4.34-4.822-2.984-7.78 1.357-2.959 4.896-4.275 7.9-2.94a5.942 5.942 0 0 1 2.985 2.94l6.926-6.82c-2.945-3.798-7.527-6.018-12.377-5.999z"/>
</svg>
