<svg width="24" height="24" viewBox="0 0 24 24" fill="none" xmlns="http://www.w3.org/2000/svg">
<path d="M22.5941 9.82783L21.1325 9.51512C20.9205 8.74453 20.6081 7.99628 20.2064 7.29269L21.0209 6.04188C21.3668 5.51698 21.2887 4.74639 20.8424 4.28851L19.7043 3.14937C19.258 2.71382 18.477 2.63564 17.9637 2.97068L16.7141 3.78595C16.0112 3.3839 15.2636 3.0712 14.4937 2.859L14.1702 1.38483C14.0363 0.759423 13.4338 0.2792 12.7978 0.2792H11.1911C10.5551 0.2792 9.95258 0.770591 9.81869 1.38483L9.50628 2.83667C8.72524 3.04886 7.98884 3.36156 7.27476 3.76361L6.0251 2.95952C5.5007 2.62448 4.70851 2.70265 4.27336 3.1382L3.13529 4.27734C2.68898 4.72406 2.61088 5.49465 2.95676 6.03071L3.77127 7.28153C3.3696 7.98511 3.05718 8.73337 2.84519 9.51512L1.3947 9.82783C0.769874 9.96184 0.290098 10.5537 0.290098 11.2015V12.8097C0.290098 13.4463 0.781032 14.0382 1.3947 14.1722L2.84519 14.4849C3.05718 15.2666 3.3696 16.0149 3.77127 16.7073L2.95676 17.9581C2.61088 18.483 2.68898 19.2536 3.13529 19.7115L4.27336 20.8506C4.70851 21.2862 5.5007 21.3644 6.01395 21.0293L7.2636 20.2141C7.96653 20.6161 8.71409 20.9288 9.49512 21.141L9.80753 22.5928C9.93026 23.2182 10.5328 23.6985 11.1799 23.7096H12.7866C13.4226 23.7096 14.0139 23.2182 14.1478 22.604L14.4603 21.141C15.2301 20.9288 15.9777 20.6161 16.6806 20.2141L17.9303 21.0293C18.1423 21.1745 18.41 21.2415 18.6778 21.2415C19.0572 21.2415 19.4254 21.0963 19.682 20.8395L20.8201 19.7003C21.2664 19.2536 21.3445 18.483 20.9986 17.947L20.1841 16.6961C20.5858 15.9926 20.8982 15.2443 21.1102 14.4737L22.5607 14.161C23.1855 14.027 23.6653 13.4351 23.6653 12.7873V11.168C23.6987 10.5537 23.2078 9.95068 22.5941 9.82783ZM22.583 12.7985C22.583 12.9102 22.4714 13.0554 22.3598 13.0777L20.5635 13.4574C20.3515 13.5021 20.1841 13.6696 20.1395 13.8818C19.9275 14.7864 19.5816 15.6352 19.0907 16.4281C18.9791 16.618 18.9791 16.8525 19.0907 17.0312L20.0948 18.5835C20.1618 18.6729 20.1395 18.8627 20.0614 18.9409L18.9233 20.08C18.8452 20.1582 18.6555 20.1694 18.5662 20.1135L17.0265 19.1084C16.848 18.9967 16.6137 18.9856 16.4351 19.1084C15.643 19.5998 14.795 19.9572 13.8912 20.1582C13.6792 20.2141 13.5119 20.3704 13.4672 20.5826L13.0879 22.3806C13.0655 22.4923 12.9205 22.604 12.8089 22.604H11.2022C11.0907 22.604 10.9456 22.4923 10.9233 22.3806L10.5439 20.5826C10.4993 20.3704 10.3319 20.2029 10.1199 20.1582C9.21618 19.946 8.3682 19.5998 7.57601 19.1084C7.48675 19.0526 7.38633 19.0191 7.27476 19.0191C7.17434 19.0191 7.06276 19.0526 6.9735 19.1084L5.42259 20.1024C5.33333 20.1582 5.14365 20.1359 5.06555 20.0689L3.92748 18.9297C3.84937 18.8516 3.82706 18.6617 3.894 18.5724L4.89819 17.0312C5.02092 16.8525 5.02092 16.618 4.89819 16.4281C4.40725 15.6463 4.05021 14.7864 3.83821 13.8818C3.79358 13.6696 3.62622 13.5021 3.41423 13.4574L1.61785 13.0665C1.50628 13.0442 1.3947 12.899 1.3947 12.7873V11.1792C1.3947 11.0675 1.50628 10.9223 1.61785 10.9L3.41423 10.5202C3.62622 10.4867 3.79358 10.3192 3.84937 10.107C4.06137 9.20242 4.40725 8.35365 4.90935 7.56073C5.02092 7.38204 5.02092 7.14751 4.90935 6.95765L3.90516 5.4053C3.83821 5.32713 3.84937 5.14844 3.92748 5.07027L5.06555 3.93113C5.14365 3.85295 5.33333 3.84179 5.42259 3.89763L6.9735 4.90275C7.15202 5.02559 7.38633 5.02559 7.56485 4.90275C8.35704 4.41135 9.21618 4.05398 10.1088 3.85295C10.3096 3.79712 10.477 3.6296 10.5216 3.4174L10.901 1.61936C10.9233 1.50768 11.0683 1.396 11.1799 1.396H12.7866C12.8982 1.396 13.0432 1.50768 13.0656 1.61936L13.4449 3.4174C13.4895 3.6296 13.6569 3.79712 13.8689 3.84179C14.7615 4.04281 15.6206 4.40019 16.4128 4.89158C16.5914 5.00326 16.8257 5.00326 17.0042 4.89158L18.5551 3.88646C18.6332 3.83062 18.834 3.85295 18.901 3.91996L20.0391 5.0591C20.1172 5.13727 20.1395 5.32713 20.0725 5.41647L19.0683 6.95765C18.9679 7.14751 18.9679 7.38204 19.0795 7.57189C19.5704 8.36482 19.9275 9.21359 20.1283 10.1182C20.1729 10.3304 20.3403 10.4979 20.5523 10.5426L22.3487 10.9335C22.4603 10.9558 22.5718 11.101 22.5718 11.2127L22.583 12.7985Z" fill="#242A35"/>
<path d="M12.7978 24H11.1799C10.41 24 9.69596 23.4081 9.53975 22.671L9.26081 21.3867C8.5802 21.1857 7.9219 20.9176 7.28591 20.5603L6.17015 21.2862C5.54533 21.6882 4.60809 21.5877 4.07252 21.074L2.93445 19.9349C2.39888 19.3876 2.29847 18.4607 2.72245 17.8353L3.43654 16.7296C3.09066 16.1042 2.81172 15.4342 2.61088 14.7529L1.3166 14.4737C0.591353 14.2839 0 13.5691 0 12.8097V11.1903C0 10.4309 0.580195 9.70498 1.32775 9.54863L2.62204 9.26943C2.82287 8.57701 3.10181 7.9181 3.4477 7.29269L2.72245 6.1759C2.30962 5.53932 2.41004 4.61238 2.94561 4.07631L4.08368 2.93718C4.60809 2.40112 5.55649 2.30061 6.18131 2.71382L7.28591 3.42857C7.9219 3.09353 8.59135 2.81433 9.27197 2.61331L9.55091 1.31782C9.70711 0.580735 10.4324 0 11.1911 0H12.7978C13.5565 0 14.2817 0.580735 14.4379 1.32899L14.7169 2.62448C15.3975 2.8255 16.0558 3.09353 16.6918 3.45091L17.8075 2.72499C18.4324 2.32294 19.3696 2.41228 19.9052 2.93718L21.0432 4.08748C21.5788 4.63471 21.6792 5.55049 21.2664 6.18706L20.5523 7.29269C20.8982 7.9181 21.1771 8.58818 21.378 9.26943L22.6722 9.54863C23.4086 9.70498 23.9888 10.4197 24 11.1792V12.7985C24 13.5579 23.4086 14.2839 22.6722 14.4402L21.3891 14.7194C21.1883 15.4007 20.9093 16.0707 20.5635 16.6961L21.2775 17.8129C21.6904 18.4495 21.59 19.3653 21.0655 19.9125L19.9163 21.0517C19.3808 21.5765 18.4435 21.6771 17.8187 21.275L16.7141 20.5603C16.0781 20.9065 15.4198 21.1857 14.7392 21.3867L14.4603 22.6822C14.2817 23.4081 13.5565 23.9888 12.7978 24ZM7.27476 19.9014L7.4198 19.9907C8.11158 20.3816 8.83682 20.6831 9.58438 20.8841L9.75174 20.9288L10.0976 22.5482C10.198 23.0396 10.689 23.4304 11.1911 23.4416H12.7978C13.2999 23.4416 13.7908 23.0396 13.8912 22.5593L14.2371 20.9288L14.4045 20.8841C15.152 20.6831 15.8773 20.3816 16.569 19.9907L16.7141 19.9014L18.1088 20.806C18.5216 21.074 19.1688 21.007 19.5146 20.6608L20.6527 19.5216C20.9986 19.1643 21.0655 18.5389 20.7978 18.1256L19.894 16.7296L19.9833 16.5845C20.3738 15.9032 20.675 15.1773 20.8759 14.4179L20.9205 14.2503L22.5384 13.9041C23.0293 13.8036 23.4198 13.3122 23.431 12.8097V11.1903C23.431 10.6989 23.0293 10.2075 22.5495 10.107L20.9205 9.76082L20.8647 9.58213C20.6639 8.83388 20.3626 8.09679 19.9721 7.41554L19.8828 7.27036L20.7866 5.87436C21.0655 5.46114 20.9986 4.82457 20.6416 4.46719L19.5035 3.32806C19.1576 2.99302 18.5105 2.92601 18.1088 3.18288L16.7141 4.08748L16.569 3.99814C15.8773 3.60726 15.152 3.30572 14.4156 3.1047L14.2483 3.06003L13.9024 1.4295C13.7908 0.938111 13.2999 0.547231 12.8089 0.547231H11.2022C10.7001 0.547231 10.2092 0.949279 10.1088 1.4295L9.74059 3.0712L9.58438 3.11587C8.83682 3.31689 8.11158 3.61843 7.4198 4.00931L7.27476 4.09865L5.88006 3.19404C5.46722 2.92601 4.82008 2.99302 4.4742 3.33923L3.33612 4.47836C2.99024 4.83574 2.92329 5.46114 3.19107 5.87436L4.09484 7.27036L4.00558 7.42671C3.61506 8.10796 3.31381 8.83388 3.11297 9.5933L3.06834 9.74965L1.45049 10.0959C0.948396 10.1964 0.55788 10.6766 0.55788 11.1903V12.8097C0.55788 13.3122 0.948396 13.7925 1.45049 13.9041L3.06834 14.2503L3.11297 14.4179C3.32497 15.1773 3.62622 15.9032 4.01674 16.5845L4.106 16.7296L3.20223 18.1256C2.92329 18.55 2.99024 19.1643 3.34728 19.5328L4.48536 20.6719C4.83124 21.0181 5.47838 21.0852 5.88006 20.8171L7.27476 19.9014ZM11.1911 22.8832C10.9456 22.8832 10.689 22.671 10.6444 22.4365L10.265 20.6384C10.2315 20.5268 10.1534 20.4486 10.0418 20.4262C9.11576 20.2141 8.23431 19.8455 7.4198 19.3318C7.33054 19.2759 7.20781 19.2759 7.11855 19.3318L5.5788 20.3369C5.37796 20.4597 5.04324 20.4262 4.87587 20.2699L3.7378 19.1308C3.55927 18.9521 3.5258 18.6282 3.65969 18.4272L4.66388 16.886C4.71967 16.7966 4.71967 16.6738 4.66388 16.5845C4.15063 15.7692 3.79358 14.8869 3.57043 13.96C3.54812 13.8595 3.45886 13.7701 3.35844 13.7478L1.56206 13.3457C1.32775 13.3011 1.11576 13.0554 1.11576 12.8097V11.1903C1.11576 10.9446 1.32775 10.6878 1.56206 10.6431L3.35844 10.2634C3.45886 10.2299 3.54812 10.1517 3.57043 10.0512C3.78243 9.12424 4.15063 8.24197 4.66388 7.42671C4.71967 7.33737 4.71967 7.21452 4.66388 7.12517L3.65969 5.57282C3.5258 5.3718 3.55927 5.04793 3.72664 4.86924L4.86471 3.73011C5.04324 3.56259 5.36681 3.52908 5.56764 3.6631L7.10739 4.66822C7.19665 4.72406 7.30823 4.72406 7.40865 4.66822C8.23431 4.15449 9.11576 3.78595 10.0418 3.57376C10.1534 3.55142 10.2315 3.46208 10.2538 3.36156L10.6332 1.56352C10.689 1.32899 10.9456 1.1168 11.1799 1.1168H12.7866C13.0321 1.1168 13.2887 1.32899 13.3333 1.56352L13.7127 3.36156C13.735 3.46208 13.8243 3.55142 13.9247 3.57376C14.8508 3.78595 15.7322 4.15449 16.5467 4.65705C16.636 4.71289 16.7476 4.71289 16.848 4.65705L18.3989 3.65193C18.5774 3.52908 18.9233 3.56259 19.0907 3.71894L20.2287 4.85807C20.4184 5.04793 20.4519 5.3718 20.318 5.58399L19.325 7.12517C19.2692 7.21452 19.2692 7.33737 19.325 7.42671C19.8271 8.24197 20.1953 9.12424 20.4073 10.0512C20.4296 10.1517 20.5188 10.241 20.6192 10.2634L22.4156 10.6543C22.6499 10.7101 22.8619 10.9558 22.8619 11.2015V12.8097C22.8619 13.0554 22.6499 13.3122 22.4156 13.3569L20.6192 13.7366C20.5077 13.759 20.4296 13.8371 20.4073 13.9488C20.1953 14.8758 19.8271 15.758 19.3138 16.5733C19.258 16.6626 19.258 16.7855 19.3138 16.8748L20.318 18.4272C20.4519 18.6282 20.4184 18.9521 20.251 19.1308L19.113 20.2699C18.9456 20.4374 18.6109 20.4709 18.41 20.3481L16.8703 19.343C16.781 19.2871 16.6583 19.2871 16.569 19.343C15.7545 19.8567 14.8619 20.2252 13.947 20.4374C13.8466 20.4597 13.7573 20.5491 13.735 20.6496L13.3556 22.4477C13.2999 22.6822 13.0432 22.8944 12.8089 22.8944H11.1911V22.8832ZM7.27476 18.7287C7.43096 18.7287 7.58717 18.7734 7.72106 18.8516C8.47978 19.3318 9.30544 19.6668 10.1757 19.8678C10.4881 19.946 10.7336 20.1917 10.8006 20.5044L11.1799 22.3025H12.7866L13.1771 20.5044C13.2441 20.1917 13.4895 19.9349 13.802 19.8678C14.6611 19.6668 15.4867 19.3318 16.2566 18.8516C16.5356 18.684 16.8815 18.684 17.1492 18.8627L18.689 19.8678L19.8382 18.7287L18.834 17.1764C18.6555 16.9083 18.6555 16.551 18.8229 16.2829C19.3027 15.5235 19.6374 14.6971 19.8382 13.826C19.9052 13.5133 20.1618 13.2676 20.4742 13.1894L22.2706 12.8097L22.5495 12.7985H22.2706V11.1903L20.463 10.7994C20.1506 10.7324 19.894 10.4867 19.8271 10.174C19.6262 9.3141 19.2915 8.48767 18.8117 7.71708C18.6444 7.43788 18.6444 7.09167 18.8229 6.81247L19.8159 5.27129L18.6778 4.12099L17.1269 5.12611C16.848 5.30479 16.5021 5.30479 16.2343 5.12611C15.4756 4.65705 14.6499 4.31084 13.7796 4.10982C13.4672 4.03164 13.2218 3.78595 13.1437 3.47324L12.7978 1.6752H11.1799L10.8006 3.47324C10.7336 3.78595 10.477 4.04281 10.1646 4.12099C9.29428 4.32201 8.46862 4.65705 7.7099 5.13727C7.43096 5.30479 7.08508 5.30479 6.81729 5.12611L5.26639 4.13215L4.12831 5.27129L5.1325 6.81247C5.29986 7.09167 5.31102 7.43788 5.1325 7.71708C4.65272 8.4765 4.31799 9.30293 4.11715 10.174C4.03905 10.4867 3.79358 10.7324 3.48117 10.7994L1.6848 11.1792L1.67364 12.7985L3.47001 13.1894C3.78243 13.2564 4.03905 13.5021 4.106 13.8148C4.30683 14.6859 4.65272 15.5123 5.12134 16.2718C5.2887 16.5398 5.2887 16.8972 5.11018 17.1764L4.106 18.7175L5.24407 19.8678L6.79498 18.8627C6.95119 18.7734 7.10739 18.7287 7.27476 18.7287Z" fill="#242A35"/>
<path d="M11.9944 7.06933C9.28312 7.06933 7.07392 9.2806 7.07392 11.9944C7.07392 14.7082 9.28312 16.9195 11.9944 16.9195C14.7057 16.9195 16.9149 14.7082 16.9149 11.9944C16.9149 9.2806 14.7057 7.06933 11.9944 7.06933ZM11.9944 15.8027C9.89679 15.8027 8.18968 14.094 8.18968 11.9944C8.18968 9.89483 9.89679 8.18613 11.9944 8.18613C14.092 8.18613 15.7992 9.89483 15.7992 11.9944C15.7992 14.094 14.092 15.8027 11.9944 15.8027Z" fill="#242A35"/>
<path d="M11.9944 17.1987C9.12691 17.1987 6.79497 14.8646 6.79497 11.9944C6.79497 9.12424 9.12691 6.79013 11.9944 6.79013C14.8619 6.79013 17.1939 9.12424 17.1939 11.9944C17.1939 14.8646 14.8508 17.1987 11.9944 17.1987ZM11.9944 7.34853C9.43933 7.34853 7.35285 9.43695 7.35285 11.9944C7.35285 14.5519 9.42817 16.6403 11.9944 16.6403C14.5495 16.6403 16.636 14.5519 16.636 11.9944C16.636 9.43695 14.5495 7.34853 11.9944 7.34853ZM11.9944 16.0819C9.74058 16.0819 7.91074 14.2503 7.91074 11.9944C7.91074 9.73848 9.74058 7.90693 11.9944 7.90693C14.2483 7.90693 16.0781 9.73848 16.0781 11.9944C16.0781 14.2503 14.2371 16.0819 11.9944 16.0819ZM11.9944 8.46533C10.053 8.46533 8.46861 10.0512 8.46861 11.9944C8.46861 13.9376 10.053 15.5235 11.9944 15.5235C13.9358 15.5235 15.5202 13.9376 15.5202 11.9944C15.5202 10.0512 13.9358 8.46533 11.9944 8.46533Z" fill="#242A35"/>
</svg>
