<svg width="48" height="48" viewBox="0 0 48 48" fill="none" xmlns="http://www.w3.org/2000/svg">
<path opacity="0.15" fill-rule="evenodd" clip-rule="evenodd" d="M7.2 24C7.2 14.7218 14.7218 7.19995 24 7.19995C33.2782 7.19995 40.8 14.7218 40.8 24C40.8 33.2781 33.2782 40.8 24 40.8C14.7218 40.8 7.2 33.2781 7.2 24Z" fill="#7E89A9"/>
<path fill-rule="evenodd" clip-rule="evenodd" d="M23.9956 2.18185C23.284 2.18338 22.4656 2.57761 21.5845 3.60246C20.7048 4.62576 19.863 6.17032 19.1345 8.17376C18.282 10.5181 17.6129 13.4118 17.2052 16.6612H30.7944C30.3867 13.4118 29.7175 10.5181 28.865 8.17376C28.1365 6.17032 27.2948 4.62576 26.415 3.60246C25.5322 2.5756 24.7123 2.18185 23.9998 2.18185C23.9984 2.18185 23.997 2.18185 23.9956 2.18185ZM3.4469 16.6612C5.97711 9.57602 12.067 4.1821 19.5627 2.63341C18.6055 3.88417 17.776 5.52523 17.084 7.42812C16.1445 10.0119 15.4283 13.1627 15.0069 16.6612H3.4469ZM2.79491 18.843C2.3942 20.4964 2.18185 22.2234 2.18185 24C2.18185 25.7766 2.3942 27.5036 2.79491 29.157H14.7865C14.65 27.4945 14.5783 25.7685 14.5783 24C14.5783 22.2315 14.65 20.5055 14.7865 18.843H2.79491ZM3.4469 31.3388C5.97711 38.424 12.067 43.8179 19.5627 45.3666C18.6055 44.1158 17.776 42.4748 17.084 40.5719C16.1445 37.9881 15.4283 34.8374 15.0069 31.3388H3.4469ZM23.9998 48C23.9998 48 23.9999 48 24 48C37.2546 48 48 37.2546 48 24C48 10.7454 37.2546 0 24 0C10.7454 0 0 10.7454 0 24C0 37.2529 10.7428 47.9974 23.9951 48M28.4368 45.3667C29.3939 44.1159 30.2235 42.4748 30.9155 40.5719C31.8551 37.9881 32.5712 34.8374 32.9926 31.3388H44.5531C42.0228 38.4242 35.9327 43.8182 28.4368 45.3667ZM45.2051 29.157C45.6058 27.5036 45.8182 25.7766 45.8182 24C45.8182 22.2234 45.6058 20.4964 45.2051 18.843H33.2131C33.3496 20.5055 33.4213 22.2315 33.4213 24C33.4213 25.7685 33.3496 27.4945 33.2131 29.157H45.2051ZM44.5531 16.6612C42.0228 9.57585 35.9327 4.18184 28.4368 2.63329C29.3939 3.88407 30.2235 5.52517 30.9155 7.42812C31.8551 10.0119 32.5712 13.1627 32.9926 16.6612H44.5531ZM19.1345 39.8262C18.282 37.4819 17.6129 34.5882 17.2052 31.3388H30.7944C30.3867 34.5882 29.7175 37.4819 28.865 39.8262C28.1365 41.8297 27.2948 43.3742 26.415 44.3975C25.5322 45.4244 24.7123 45.8182 23.9998 45.8182C23.2872 45.8182 22.4673 45.4244 21.5845 44.3975C20.7048 43.3742 19.863 41.8297 19.1345 39.8262ZM16.7601 24C16.7601 25.7783 16.8351 27.5048 16.9759 29.157H31.0236C31.1645 27.5048 31.2394 25.7783 31.2394 24C31.2394 22.2217 31.1645 20.4952 31.0236 18.843H16.9759C16.8351 20.4952 16.7601 22.2217 16.7601 24Z" fill="#7E89A9"/>
<path opacity="0.45" fill-rule="evenodd" clip-rule="evenodd" d="M24 0C10.7454 0 0 10.7454 0 24C0 37.2546 10.7454 48 24 48C25.2235 48 26.4257 47.9084 27.6 47.7318C16.0532 45.9948 7.2 36.031 7.2 24C7.2 11.969 16.0532 2.00523 27.6 0.268217C26.4257 0.0915653 25.2235 0 24 0Z" fill="#7E89A9"/>
</svg>
