<svg width="24" height="24" viewBox="0 0 24 24" fill="none" xmlns="http://www.w3.org/2000/svg">
<path fill-rule="evenodd" clip-rule="evenodd" d="M20.4858 3.51417C25.1714 8.20082 25.1714 15.7992 20.4858 20.4858C15.7992 25.1714 8.20082 25.1714 3.51417 20.4858C-1.17139 15.7992 -1.17139 8.20082 3.51417 3.51417C8.20082 -1.17139 15.7992 -1.17139 20.4858 3.51417Z" fill="black"/>
<path d="M11.0233 14C11.0233 13.4078 11.1 12.9358 11.2535 12.584C11.407 12.2322 11.7093 11.847 12.1605 11.4284C12.6163 11.0054 12.9047 10.7048 13.0256 10.5267C13.2116 10.2551 13.3047 9.9612 13.3047 9.64504C13.3047 9.22646 13.1953 8.90808 12.9767 8.68989C12.7628 8.46724 12.4465 8.35592 12.0279 8.35592C11.6279 8.35592 11.3047 8.46501 11.0581 8.68321C11.0238 8.71356 10.9919 8.74548 10.9624 8.77897C10.655 9.12839 10.3181 9.55821 9.85268 9.55821C9.38339 9.55821 8.98465 9.16477 9.1314 8.71903C9.26499 8.31324 9.50026 7.96956 9.83721 7.68798C10.3907 7.22933 11.1209 7 12.0279 7C12.9628 7 13.6907 7.2271 14.2116 7.6813C14.7372 8.1355 15 8.77004 15 9.58492C15 10.3108 14.6465 11.0254 13.9395 11.729L13.0814 12.5372C12.7744 12.8712 12.6163 13.3588 12.607 14H11.0233Z" fill="white"/>
<circle cx="12" cy="17" r="1" fill="white"/>
</svg>
