<svg width="24" height="24" viewBox="0 0 24 24" fill="none" xmlns="http://www.w3.org/2000/svg">
<path fill-rule="evenodd" clip-rule="evenodd" d="M20.4858 20.4858C25.1714 15.7992 25.1714 8.20082 20.4858 3.51417C15.7992 -1.17139 8.20082 -1.17139 3.51417 3.51417C-1.17139 8.20082 -1.17139 15.7992 3.51417 20.4858C8.20082 25.1714 15.7992 25.1714 20.4858 20.4858ZM11.0232 14C11.0232 13.4078 11.0999 12.9358 11.2534 12.584C11.4069 12.2322 11.7092 11.847 12.1604 11.4284C12.6162 11.0054 12.9046 10.7048 13.0255 10.5267C13.2116 10.2551 13.3046 9.9612 13.3046 9.64504C13.3046 9.22646 13.1953 8.90808 12.9767 8.68989C12.7627 8.46724 12.4465 8.35592 12.0279 8.35592C11.6279 8.35592 11.3046 8.46501 11.0581 8.68321C11.0237 8.71356 10.9918 8.74548 10.9624 8.77897C10.9395 8.80502 10.9164 8.83152 10.8931 8.85826C10.604 9.19009 10.2833 9.55821 9.85262 9.55821C9.38334 9.55821 8.9846 9.16477 9.13134 8.71903C9.26493 8.31324 9.50021 7.96956 9.83716 7.68798C10.3906 7.22933 11.1209 7 12.0279 7C12.9627 7 13.6906 7.2271 14.2116 7.6813C14.7372 8.1355 14.9999 8.77004 14.9999 9.58492C14.9999 10.3108 14.6465 11.0254 13.9395 11.729L13.0813 12.5372C12.7744 12.8712 12.6162 13.3588 12.6069 14H11.0232ZM12.9999 17C12.9999 17.5523 12.5522 18 11.9999 18C11.4477 18 10.9999 17.5523 10.9999 17C10.9999 16.4477 11.4477 16 11.9999 16C12.5522 16 12.9999 16.4477 12.9999 17Z" fill="black"/>
</svg>
