<svg width="28" height="28" viewBox="0 0 28 28" fill="none" xmlns="http://www.w3.org/2000/svg">
<mask id="mask0" mask-type="alpha" maskUnits="userSpaceOnUse" x="0" y="4" width="28" height="20">
<path d="M26 4H2C0.89543 4 0 4.89543 0 6V22C0 23.1046 0.89543 24 2 24H26C27.1046 24 28 23.1046 28 22V6C28 4.89543 27.1046 4 26 4Z" fill="white"/>
</mask>
<g mask="url(#mask0)">
<path d="M26 4H2C0.89543 4 0 4.89543 0 6V22C0 23.1046 0.89543 24 2 24H26C27.1046 24 28 23.1046 28 22V6C28 4.89543 27.1046 4 26 4Z" fill="white"/>
<path d="M28 4H0V24H28V4Z" fill="#F0371D"/>
<path fill-rule="evenodd" clip-rule="evenodd" d="M17.5662 16.5999C18.0213 18.0006 17.5387 19.4128 16.4882 19.7541C16.0972 18.5509 15.4241 18.6367 15.2361 18.058C15.0054 17.348 14.9468 17.1678 15.2521 15.9499C15.5574 14.732 14.3221 14.8501 14.8401 14.6818C15.8906 14.3405 17.1111 15.1992 17.5662 16.5999ZM13.8525 15.185C14.5018 16.0786 14.0622 17.5048 12.8707 18.3704C11.6792 19.2361 10.187 19.2134 9.53778 18.3198C10.5613 17.5762 10.2717 16.9626 10.764 16.6049C11.3679 16.1661 11.5212 16.0547 12.7738 15.9687C14.0265 15.8827 13.5324 14.7443 13.8525 15.185ZM11.5747 17.1537C11.4258 17.2619 11.3927 17.4704 11.5009 17.6193C11.6092 17.7682 11.8176 17.8012 11.9665 17.693C12.1155 17.5848 12.1485 17.3764 12.0403 17.2274C11.9321 17.0785 11.7236 17.0455 11.5747 17.1537ZM16.2226 17.0365C16.0475 17.0934 15.9517 17.2814 16.0085 17.4565C16.0654 17.6316 16.2535 17.7274 16.4286 17.6705C16.6037 17.6137 16.6995 17.4256 16.6426 17.2505C16.5857 17.0754 16.3976 16.9796 16.2226 17.0365ZM8.75407 11.2664C9.77758 12.01 10.2717 11.545 10.764 11.9026C11.3679 12.3414 11.5212 12.4528 11.9901 13.6175C12.459 14.7823 13.389 13.9606 13.0688 14.4013C12.4196 15.2949 10.9274 15.3175 9.73587 14.4519C8.54439 13.5862 8.10482 12.16 8.75407 11.2664ZM17.3334 11.5871C18.8061 11.5871 20 12.4825 20 13.5871C18.7349 13.5871 18.6085 14.2538 18 14.2538C17.2535 14.2538 17.064 14.2538 16 13.5871C14.9361 12.9204 14.6667 14.1318 14.6667 13.5871C14.6667 12.4825 15.8606 11.5871 17.3334 11.5871ZM10.027 12.917C9.91876 13.0659 9.95178 13.2744 10.1007 13.3826C10.2496 13.4908 10.4581 13.4578 10.5663 13.3089C10.6745 13.1599 10.6415 12.9515 10.4926 12.8433C10.3436 12.7351 10.1352 12.7681 10.027 12.917ZM15.2201 8.34143C14.8291 9.54464 15.4241 9.87085 15.2361 10.4495C15.0054 11.1595 14.9468 11.3398 13.984 12.1457C13.0212 12.9515 14.09 13.582 13.572 13.4137C12.5215 13.0724 12.0388 11.6602 12.4939 10.2595C12.949 8.85886 14.1696 8.00009 15.2201 8.34143ZM17.6667 12.6666C17.4826 12.6666 17.3334 12.8158 17.3334 12.9999C17.3334 13.184 17.4826 13.3333 17.6667 13.3333C17.8508 13.3333 18 13.184 18 12.9999C18 12.8158 17.8508 12.6666 17.6667 12.6666ZM13.6236 10.2761C13.5667 10.4512 13.6625 10.6392 13.8376 10.6961C14.0127 10.753 14.2007 10.6572 14.2576 10.4821C14.3145 10.307 14.2187 10.119 14.0436 10.0621C13.8685 10.0052 13.6805 10.101 13.6236 10.2761Z" fill="white"/>
</g>
</svg>
