<svg width="28" height="28" viewBox="0 0 28 28" fill="none" xmlns="http://www.w3.org/2000/svg">
<mask id="mask0" mask-type="alpha" maskUnits="userSpaceOnUse" x="0" y="4" width="28" height="20">
<path d="M26 4H2C0.89543 4 0 4.89543 0 6V22C0 23.1046 0.89543 24 2 24H26C27.1046 24 28 23.1046 28 22V6C28 4.89543 27.1046 4 26 4Z" fill="white"/>
</mask>
<g mask="url(#mask0)">
<path d="M25.75 4.25H2.25C1.14543 4.25 0.25 5.14543 0.25 6.25V21.75C0.25 22.8546 1.14543 23.75 2.25 23.75H25.75C26.8546 23.75 27.75 22.8546 27.75 21.75V6.25C27.75 5.14543 26.8546 4.25 25.75 4.25Z" stroke="#F5F5F5" stroke-width="0.5"/>
<path d="M28 4H0V10.6667H28V4Z" fill="#FFA44A"/>
<path d="M28 17.3333H0V23.9999H28V17.3333Z" fill="#1A9F0B"/>
<path d="M14 16.3334C15.2887 16.3334 16.3333 15.2887 16.3333 14.0001C16.3333 12.7114 15.2887 11.6667 14 11.6667C12.7113 11.6667 11.6667 12.7114 11.6667 14.0001C11.6667 15.2887 12.7113 16.3334 14 16.3334Z" fill="#181A93" fill-opacity="0.15" stroke="#181A93" stroke-width="0.666667"/>
<path d="M14 15C14.5523 15 15 14.5523 15 14C15 13.4477 14.5523 13 14 13C13.4477 13 13 13.4477 13 14C13 14.5523 13.4477 15 14 15Z" fill="#181A93"/>
</g>
</svg>
