<svg width="24" height="24" viewBox="0 0 24 24" fill="none" xmlns="http://www.w3.org/2000/svg">
<path fill-rule="evenodd" clip-rule="evenodd" d="M12 22.1538C17.6077 22.1538 22.1538 17.6077 22.1538 12C22.1538 6.39232 17.6077 1.84615 12 1.84615C6.39232 1.84615 1.84615 6.39232 1.84615 12C1.84615 17.6077 6.39232 22.1538 12 22.1538ZM24 12C24 18.6273 18.6273 24 12 24C5.37271 24 -4.69698e-07 18.6273 -1.04907e-06 12C-1.62845e-06 5.37272 5.37271 1.62845e-06 12 1.04907e-06C18.6273 4.69698e-07 24 5.37271 24 12Z" fill="black"/>
<rect x="13" y="18" width="2" height="8" rx="1" transform="rotate(180 13 18)" fill="black"/>
<circle cx="12" cy="7" r="1" transform="rotate(180 12 7)" fill="black"/>
</svg>
