<svg width="24" height="24" viewBox="0 0 24 24" fill="none" xmlns="http://www.w3.org/2000/svg">
<path fill-rule="evenodd" clip-rule="evenodd" d="M12 0C5.37272 0 0 5.37272 0 12C0 18.6273 5.37272 24 12 24C18.6273 24 24 18.6273 24 12C24 5.37272 18.6273 0 12 0ZM13 17C13 17.5523 12.5523 18 12 18C11.4477 18 11 17.5523 11 17L11 11C11 10.4477 11.4477 10 12 10C12.5523 10 13 10.4477 13 11L13 17ZM11 7C11 6.44772 11.4477 6 12 6C12.5523 6 13 6.44772 13 7C13 7.55229 12.5523 8 12 8C11.4477 8 11 7.55229 11 7Z" fill="black"/>
</svg>
