<svg width="24" height="24" viewBox="0 0 24 24" fill="none" xmlns="http://www.w3.org/2000/svg">
<path fill-rule="evenodd" clip-rule="evenodd" d="M2 3C2 2.44772 2.59695 2 3.33333 2H20.6667C21.403 2 22 2.44772 22 3C22 3.55228 21.403 4 20.6667 4H3.33333C2.59695 4 2 3.55228 2 3ZM3.33333 8C2.59695 8 2 8.44772 2 9C2 9.55228 2.59695 10 3.33333 10H20.6667C21.403 10 22 9.55228 22 9C22 8.44772 21.403 8 20.6667 8H3.33333ZM3.33333 20C2.59695 20 2 20.4477 2 21C2 21.5523 2.59695 22 3.33333 22H20.6667C21.403 22 22 21.5523 22 21C22 20.4477 21.403 20 20.6667 20H3.33333ZM3.33333 14C2.59695 14 2 14.4477 2 15C2 15.5523 2.59695 16 3.33333 16H20.6667C21.403 16 22 15.5523 22 15C22 14.4477 21.403 14 20.6667 14H3.33333Z" fill="#242A35"/>
</svg>
