<svg width="24" height="24" viewBox="0 0 24 24" fill="none" xmlns="http://www.w3.org/2000/svg">
<path fill-rule="evenodd" clip-rule="evenodd" d="M8.58828 6.32559C8.58828 4.3385 10.1152 2.72868 12 2.72868C13.8849 2.72868 15.4118 4.3385 15.4118 6.32559V7.99999H8.58828V6.32559ZM6.00004 7.99999V6.32559C6.00004 2.83149 8.68579 0 12 0C15.3143 0 18.0001 2.83149 18.0001 6.32559V7.99999H18.747C20.543 7.99999 22 9.44391 22 11.2239V20.7761C22 22.5561 20.543 24 18.747 24H5.25301C3.45697 24 2 22.5561 2 20.7761V11.2239C2 9.44391 3.45697 7.99999 5.25301 7.99999H6.00004ZM4.6506 11.2239C4.6506 10.8947 4.92086 10.6269 5.25301 10.6269H18.747C19.0792 10.6269 19.3494 10.8947 19.3494 11.2239V20.7761C19.3494 21.1053 19.0792 21.3731 18.747 21.3731H5.25301C4.92086 21.3731 4.6506 21.1053 4.6506 20.7761V11.2239Z" fill="black"/>
</svg>
