<svg width="24" height="24" viewBox="0 0 24 24" fill="none" xmlns="http://www.w3.org/2000/svg">
<path fill-rule="evenodd" clip-rule="evenodd" d="M2 12C2 6.47728 6.47728 2 12 2C17.5227 2 22 6.47728 22 12C22 17.5227 17.5227 22 12 22C6.47728 22 2 17.5227 2 12ZM12 0C5.37272 0 0 5.37272 0 12C0 18.6273 5.37272 24 12 24C18.6273 24 24 18.6273 24 12C24 5.37272 18.6273 0 12 0ZM8.0007 11C7.44842 11 7.0007 11.4477 7.0007 12C7.0007 12.5522 7.44842 13 8.0007 13H16.0007C16.553 13 17.0007 12.5522 17.0007 12C17.0007 11.4477 16.553 11 16.0007 11H8.0007Z" fill="#242A35"/>
</svg>
