<svg width="24" height="24" viewBox="0 0 24 24" fill="none" xmlns="http://www.w3.org/2000/svg">
<path fill-rule="evenodd" clip-rule="evenodd" d="M11.0076 0C10.4051 0 9.91665 0.488417 9.91665 1.09091V22.9091C9.91665 23.5115 10.4051 24 11.0076 24H22.9084C23.5109 24 23.9993 23.5115 23.9993 22.9091V1.09091C23.9993 0.488417 23.5109 0 22.9084 0H11.0076ZM12.0985 21.8181V2.18182H21.8175V21.8181H12.0985ZM0 8.03308C0 7.43059 0.488417 6.94217 1.09091 6.94217H7.04131C7.64381 6.94217 8.13222 7.43059 8.13222 8.03308C8.13222 8.63557 7.64381 9.12399 7.04131 9.12399H2.18182V21.8182H7.04131C7.64381 21.8182 8.13222 22.3066 8.13222 22.9091C8.13222 23.5116 7.64381 24 7.04131 24H1.09091C0.488417 24 0 23.5116 0 22.9091V8.03308ZM6.14937 12.9819C6.14937 12.3794 5.66096 11.891 5.05847 11.891C4.45597 11.891 3.96756 12.3794 3.96756 12.9819V12.9918C3.96756 13.5943 4.45597 14.0828 5.05847 14.0828C5.66096 14.0828 6.14937 13.5943 6.14937 12.9918V12.9819ZM6.14937 16.9489C6.14937 16.3464 5.66096 15.858 5.05847 15.858C4.45597 15.858 3.96756 16.3464 3.96756 16.9489V16.9589C3.96756 17.5614 4.45597 18.0498 5.05847 18.0498C5.66096 18.0498 6.14937 17.5614 6.14937 16.9589V16.9489ZM14.9706 4.9584C15.5731 4.9584 16.0615 5.44682 16.0615 6.04931V6.05923C16.0615 6.66172 15.5731 7.15014 14.9706 7.15014C14.3681 7.15014 13.8797 6.66172 13.8797 6.05923V6.04931C13.8797 5.44682 14.3681 4.9584 14.9706 4.9584ZM20.0325 6.04931C20.0325 5.44682 19.544 4.9584 18.9415 4.9584C18.3391 4.9584 17.8506 5.44682 17.8506 6.04931V6.05923C17.8506 6.66172 18.3391 7.15014 18.9415 7.15014C19.544 7.15014 20.0325 6.66172 20.0325 6.05923V6.04931ZM14.9706 8.91592C15.5731 8.91592 16.0615 9.40434 16.0615 10.0068V10.0168C16.0615 10.6192 15.5731 11.1077 14.9706 11.1077C14.3681 11.1077 13.8797 10.6192 13.8797 10.0168V10.0068C13.8797 9.40434 14.3681 8.91592 14.9706 8.91592ZM20.0325 10.0068C20.0325 9.40434 19.544 8.91592 18.9415 8.91592C18.3391 8.91592 17.8506 9.40434 17.8506 10.0068V10.0168C17.8506 10.6192 18.3391 11.1077 18.9415 11.1077C19.544 11.1077 20.0325 10.6192 20.0325 10.0168V10.0068ZM14.9706 12.8828C15.5731 12.8828 16.0615 13.3713 16.0615 13.9738V13.9837C16.0615 14.5862 15.5731 15.0746 14.9706 15.0746C14.3681 15.0746 13.8797 14.5862 13.8797 13.9837V13.9738C13.8797 13.3713 14.3681 12.8828 14.9706 12.8828ZM20.0325 13.9738C20.0325 13.3713 19.544 12.8828 18.9415 12.8828C18.3391 12.8828 17.8506 13.3713 17.8506 13.9738V13.9837C17.8506 14.5862 18.3391 15.0746 18.9415 15.0746C19.544 15.0746 20.0325 14.5862 20.0325 13.9837V13.9738Z" fill="black"/>
</svg>
