<svg xmlns="http://www.w3.org/2000/svg" fill="none" viewBox="0 0 24 24">
    <path fill-rule="evenodd" d="M11.008 0a1.09 1.09 0 0 0-1.091 1.09v21.82c0 .602.488 1.09 1.09 1.09h11.901A1.09 1.09 0 0 0 24 22.91V1.09A1.09 1.09 0 0 0 22.91 0H11.007zm1.09 21.818V2.182h9.72v19.636h-9.72zM0 8.033c0-.602.488-1.09 1.09-1.09h5.951a1.09 1.09 0 1 1 0 2.181h-4.86v12.694h4.86a1.09 1.09 0 1 1 0 2.182h-5.95A1.09 1.09 0 0 1 0 22.91V8.032zm6.15 4.949a1.09 1.09 0 1 0-2.182 0v.01a1.091 1.091 0 1 0 2.181 0v-.01zm0 3.967a1.09 1.09 0 1 0-2.182 0v.01a1.09 1.09 0 1 0 2.181 0v-.01zm8.82-11.99c.603 0 1.091.488 1.091 1.09v.01a1.09 1.09 0 1 1-2.181 0v-.01c0-.602.488-1.09 1.09-1.09zm5.062 1.09a1.091 1.091 0 0 0-2.181 0v.01a1.091 1.091 0 0 0 2.181 0v-.01zm-5.061 2.867c.602 0 1.09.488 1.09 1.09v.01a1.09 1.09 0 0 1-2.181 0v-.01c0-.602.488-1.09 1.09-1.09zm5.061 1.09a1.091 1.091 0 0 0-2.181 0v.01a1.091 1.091 0 0 0 2.181 0v-.01zm-5.061 2.877c.602 0 1.09.488 1.09 1.09v.01a1.09 1.09 0 1 1-2.181 0v-.01c0-.602.488-1.09 1.09-1.09zm5.061 1.09a1.091 1.091 0 0 0-2.181 0v.01a1.09 1.09 0 0 0 2.181 0v-.01z" clip-rule="evenodd"/>
</svg>
