<svg xmlns="http://www.w3.org/2000/svg" viewBox="0 0 24 24">
    <path fill-rule="evenodd" d="M22.582 1.418a4.841 4.841 0 0 0-6.847 0L12.86 4.296a1.362 1.362 0 0 0-.125.125L2.34 14.814a1.333 1.333 0 0 0-.34.58l-1.95 6.91a1.333 1.333 0 0 0 1.645 1.646L8.606 22c.22-.061.42-.178.581-.34L22.583 8.265a4.843 4.843 0 0 0 0-6.847zM13.74 7.186l-9.267 9.267-1.209 4.284 4.285-1.208 9.267-9.267-3.076-3.076zm4.961 1.19l1.997-1.996a2.174 2.174 0 1 0-3.075-3.076L15.625 5.3 18.7 8.376z" clip-rule="evenodd"/>
</svg>
