<svg width="28" height="28" viewBox="0 0 28 28" fill="none" xmlns="http://www.w3.org/2000/svg">
<mask id="mask0" mask-type="alpha" maskUnits="userSpaceOnUse" x="0" y="4" width="28" height="20">
<path d="M26 4H2C0.89543 4 0 4.89543 0 6V22C0 23.1046 0.89543 24 2 24H26C27.1046 24 28 23.1046 28 22V6C28 4.89543 27.1046 4 26 4Z" fill="white"/>
</mask>
<g mask="url(#mask0)">
<path d="M25.75 4.25H2.25C1.14543 4.25 0.25 5.14543 0.25 6.25V21.75C0.25 22.8546 1.14543 23.75 2.25 23.75H25.75C26.8546 23.75 27.75 22.8546 27.75 21.75V6.25C27.75 5.14543 26.8546 4.25 25.75 4.25Z" stroke="#F5F5F5" stroke-width="0.5"/>
<path d="M28 4H0V14.6667H28V4Z" fill="#E12237"/>
<path fill-rule="evenodd" clip-rule="evenodd" d="M9.16484 6.20911C8.80223 6.07385 8.40974 5.99992 7.99999 5.99992C6.15904 5.99992 4.66666 7.4923 4.66666 9.33325C4.66666 11.1742 6.15904 12.6666 7.99999 12.6666C8.40974 12.6666 8.80223 12.5927 9.16484 12.4574C8.48032 13.0055 7.61176 13.3333 6.66666 13.3333C4.45752 13.3333 2.66666 11.5424 2.66666 9.33325C2.66666 7.12411 4.45752 5.33325 6.66666 5.33325C7.61176 5.33325 8.48032 5.66103 9.16484 6.20911ZM7.33332 9.33325C6.96513 9.33325 6.66666 9.03477 6.66666 8.66658C6.66666 8.2984 6.96513 7.99992 7.33332 7.99992C7.70151 7.99992 7.99999 8.2984 7.99999 8.66658C7.99999 9.03477 7.70151 9.33325 7.33332 9.33325ZM8.66666 11.9999C8.29847 11.9999 7.99999 11.7014 7.99999 11.3333C7.99999 10.9651 8.29847 10.6666 8.66666 10.6666C9.03485 10.6666 9.33332 10.9651 9.33332 11.3333C9.33332 11.7014 9.03485 11.9999 8.66666 11.9999ZM11.3333 11.9999C10.9651 11.9999 10.6667 11.7014 10.6667 11.3333C10.6667 10.9651 10.9651 10.6666 11.3333 10.6666C11.7015 10.6666 12 10.9651 12 11.3333C12 11.7014 11.7015 11.9999 11.3333 11.9999ZM12.6667 9.33325C12.2985 9.33325 12 9.03477 12 8.66658C12 8.2984 12.2985 7.99992 12.6667 7.99992C13.0348 7.99992 13.3333 8.2984 13.3333 8.66658C13.3333 9.03477 13.0348 9.33325 12.6667 9.33325ZM9.99999 7.33325C9.6318 7.33325 9.33332 7.03478 9.33332 6.66659C9.33332 6.2984 9.6318 5.99992 9.99999 5.99992C10.3682 5.99992 10.6667 6.2984 10.6667 6.66659C10.6667 7.03478 10.3682 7.33325 9.99999 7.33325Z" fill="white"/>
</g>
</svg>
