<svg width="24" height="24" viewBox="0 0 24 24" fill="none" xmlns="http://www.w3.org/2000/svg">
<path fill-rule="evenodd" clip-rule="evenodd" d="M1.06223 18.7443C1.25951 18.161 1.86677 17.8572 2.41857 18.0658L12.0005 21.6872L21.5814 18.0658C22.1332 17.8572 22.7405 18.161 22.9378 18.7443C23.1351 19.3276 22.8477 19.9695 22.2959 20.1781L12.3577 23.9345C12.1267 24.0218 11.8743 24.0218 11.6433 23.9345L1.70413 20.1781C1.15233 19.9696 0.864942 19.3276 1.06223 18.7443Z" fill="black"/>
<path fill-rule="evenodd" clip-rule="evenodd" d="M11.5733 0.0863688C11.8462 -0.0287947 12.1546 -0.0287894 12.4276 0.0863836L22.7062 4.42408C24.4925 5.1784 24.4079 7.70181 22.5838 8.34447L12.365 11.9378C12.1291 12.0207 11.8717 12.0207 11.6359 11.9378L1.41671 8.3447C-0.407443 7.70204 -0.492893 5.1785 1.29335 4.42418L11.5733 0.0863688ZM2.28932 6.35559L12.0004 9.77005L21.7105 6.35559L12.0004 2.25783L2.28932 6.35559Z" fill="black"/>
<path fill-rule="evenodd" clip-rule="evenodd" d="M1.06094 12.7535C1.25623 12.1653 1.86244 11.857 2.41495 12.0649L12.0005 15.6721L21.585 12.0649C22.1375 11.857 22.7437 12.1653 22.939 12.7535C23.1344 13.3417 22.8448 13.9872 22.2923 14.1951L12.3541 17.9354C12.1253 18.0215 11.8757 18.0215 11.6469 17.9354L1.70775 14.1951C1.15524 13.9872 0.865654 13.3418 1.06094 12.7535Z" fill="black"/>
</svg>
