<svg width="24" height="24" viewBox="0 0 24 24" fill="none" xmlns="http://www.w3.org/2000/svg">
<path fill-rule="evenodd" clip-rule="evenodd" d="M4.68311 7.95465C5.10913 7.52863 5.79986 7.52863 6.22589 7.95465L9.49861 11.2274C9.92464 11.6534 9.92464 12.3441 9.49861 12.7702L6.22589 16.0429C5.79986 16.4689 5.10913 16.4689 4.68311 16.0429C4.25708 15.6169 4.25708 14.9261 4.68311 14.5001L7.18444 11.9988L4.68311 9.49743C4.25708 9.0714 4.25708 8.38068 4.68311 7.95465Z" fill="black"/>
<path fill-rule="evenodd" clip-rule="evenodd" d="M12 15.2734C12 14.6709 12.4884 14.1825 13.0909 14.1825H18.5455C19.1479 14.1825 19.6364 14.6709 19.6364 15.2734C19.6364 15.8759 19.1479 16.3643 18.5455 16.3643H13.0909C12.4884 16.3643 12 15.8759 12 15.2734Z" fill="black"/>
<path fill-rule="evenodd" clip-rule="evenodd" d="M4.36364 2.18182C3.15849 2.18182 2.18182 3.15849 2.18182 4.36364V19.6364C2.18182 20.8415 3.15849 21.8182 4.36364 21.8182H19.6364C20.8415 21.8182 21.8182 20.8415 21.8182 19.6364V4.36364C21.8182 3.15849 20.8415 2.18182 19.6364 2.18182H4.36364ZM0 4.36364C0 1.95351 1.95351 0 4.36364 0H19.6364C22.0465 0 24 1.95351 24 4.36364V19.6364C24 22.0465 22.0465 24 19.6364 24H4.36364C1.95351 24 0 22.0465 0 19.6364V4.36364Z" fill="black"/>
</svg>
