<svg xmlns="http://www.w3.org/2000/svg" viewBox="0 0 16 16">
    <path fill-rule="evenodd" d="M3.122 5.303a.727.727 0 0 1 1.029 0l2.181 2.182a.727.727 0 0 1 0 1.028l-2.181 2.182a.727.727 0 1 1-1.029-1.028L4.79 7.999 3.122 6.332a.727.727 0 0 1 0-1.029zM8 10.182c0-.401.326-.727.727-.727h3.637a.727.727 0 1 1 0 1.454H8.727A.727.727 0 0 1 8 10.182z" clip-rule="evenodd"/>
    <path fill-rule="evenodd" d="M2.91 1.455c-.804 0-1.455.65-1.455 1.454v10.182c0 .803.65 1.455 1.454 1.455h10.182c.803 0 1.455-.652 1.455-1.455V2.909c0-.803-.652-1.454-1.455-1.454H2.909zM0 2.909A2.909 2.909 0 0 1 2.91 0h10.18A2.909 2.909 0 0 1 16 2.91v10.18A2.909 2.909 0 0 1 13.09 16H2.91A2.909 2.909 0 0 1 0 13.09V2.91z" clip-rule="evenodd"/>
</svg>
