<svg width="24" height="24" viewBox="0 0 24 24" fill="none" xmlns="http://www.w3.org/2000/svg">
<path fill-rule="evenodd" clip-rule="evenodd" d="M2.00031 12C2.00031 6.47728 6.47759 2 12.0003 2C17.523 2 22.0003 6.47728 22.0003 12C22.0003 17.5227 17.523 22 12.0003 22C6.47759 22 2.00031 17.5227 2.00031 12ZM12.0003 0C5.37302 0 0.000305176 5.37272 0.000305176 12C0.000305176 18.6273 5.37302 24 12.0003 24C18.6276 24 24.0003 18.6273 24.0003 12C24.0003 5.37272 18.6276 0 12.0003 0ZM13.0003 7C13.0003 6.44772 12.5526 6 12.0003 6C11.448 6 11.0003 6.44772 11.0003 7V12H8.00031C7.44802 12 7.00031 12.4477 7.00031 13C7.00031 13.5523 7.44802 14 8.00031 14H12.0003C12.5526 14 13.0003 13.5523 13.0003 13V7Z" fill="black"/>
</svg>
