<svg width="20" height="24" viewBox="0 0 20 24" fill="none" xmlns="http://www.w3.org/2000/svg">
<path fill-rule="evenodd" clip-rule="evenodd" d="M4 6C4 2.68658 6.68785 0 10 0C13.3122 0 16 2.68658 16 6C16 9.31341 13.3122 12 10 12C6.68785 12 4 9.31341 4 6ZM10 2C7.79215 2 6 3.79141 6 6C6 8.20858 7.79215 10 10 10C12.2078 10 14 8.20858 14 6C14 3.79141 12.2078 2 10 2Z" fill="black"/>
<path fill-rule="evenodd" clip-rule="evenodd" d="M3.13995 15.6778C4.94839 14.6231 7.37836 14 10 14C12.6216 14 15.0516 14.6231 16.86 15.6778C18.6419 16.717 20 18.2996 20 20.25V23C20 23.5523 19.5523 24 19 24C18.4477 24 18 23.5523 18 23V20.25C18 19.3114 17.3331 18.269 15.8525 17.4054C14.3984 16.5574 12.3284 16 10 16C7.67164 16 5.60161 16.5574 4.14755 17.4054C2.6669 18.269 2 19.3114 2 20.25V23C2 23.5523 1.55228 24 1 24C0.447715 24 0 23.5523 0 23V20.25C0 18.2996 1.3581 16.717 3.13995 15.6778Z" fill="black"/>
</svg>
