<svg xmlns="http://www.w3.org/2000/svg" viewBox="0 0 20 24">
    <path fill-rule="evenodd" d="M4 6a6.001 6.001 0 0 1 12 0A6.001 6.001 0 0 1 4 6zm6-4a4.001 4.001 0 0 0 0 8 4.001 4.001 0 0 0 0-8zM3.14 15.678C4.948 14.623 7.378 14 10 14s5.052.623 6.86 1.678C18.642 16.717 20 18.3 20 20.25V23a1 1 0 1 1-2 0v-2.75c0-.939-.667-1.981-2.148-2.845C14.398 16.557 12.328 16 10 16c-2.328 0-4.398.557-5.852 1.405C2.667 18.27 2 19.311 2 20.25V23a1 1 0 1 1-2 0v-2.75c0-1.95 1.358-3.533 3.14-4.572z" clip-rule="evenodd"/>
</svg>
