<svg xmlns="http://www.w3.org/2000/svg" width="35" height="24" fill="none" viewBox="0 0 35 24">
    <g clip-path="url(#a)">
        <path fill="#0066B2" d="M30.924 0H3.157A3.157 3.157 0 0 0 0 3.157v17.686A3.157 3.157 0 0 0 3.157 24h27.767a3.157 3.157 0 0 0 3.157-3.157V3.157A3.157 3.157 0 0 0 30.924 0z"/>
        <path fill="#fff" d="M15.594 15.76h-1.775l1.11-6.82h1.774l-1.11 6.82zM12.326 8.942l-1.691 4.688-.2-1.009-.597-3.064s-.073-.614-.845-.614H6.196l-.033.115a6.624 6.624 0 0 1 1.856.779l1.543 5.924h1.85l2.825-6.818-1.911-.001zM26.288 15.76h1.63l-1.422-6.818h-1.427c-.659 0-.82.507-.82.507l-2.641 6.31h1.85l.37-1.013h2.252l.208 1.013zm-1.954-2.413l.933-2.55.528 2.55h-1.461zM21.74 10.58l.254-1.464a5.13 5.13 0 0 0-1.6-.297c-.88 0-2.972.386-2.972 2.257 0 1.762 2.455 1.784 2.455 2.709 0 .924-2.203.76-2.928.176l-.265 1.53s.793.386 2.008.386c1.215 0 3.04-.628 3.04-2.334 0-1.773-2.478-1.938-2.478-2.708 0-.77 1.727-.673 2.487-.254z"/>
        <path fill="#F9A533" d="M10.433 12.621l-.597-3.064s-.073-.614-.845-.614H6.196l-.033.115a6.886 6.886 0 0 1 2.635 1.322 5.321 5.321 0 0 1 1.635 2.241z"/>
    </g>
    <defs>
        <clipPath id="a">
            <path fill="#fff" d="M0 0h34.081v24H0z"/>
        </clipPath>
    </defs>
</svg>
