<svg width="28" height="28" viewBox="0 0 28 28" fill="none" xmlns="http://www.w3.org/2000/svg">
<path d="M25.4059 4H2.59407C1.16141 4 0 5.16141 0 6.59407V21.1237C0 22.5563 1.16141 23.7177 2.59407 23.7177H25.4059C26.8386 23.7177 28 22.5563 28 21.1237V6.59407C28 5.16141 26.8386 4 25.4059 4Z" fill="#0066B2"/>
<path d="M12.8115 16.948H11.353L12.2645 11.3457H13.723L12.8115 16.948Z" fill="white"/>
<path d="M10.1263 11.3462L8.73726 15.1982L8.57318 14.3691L8.08266 11.8515C8.08266 11.8515 8.02276 11.3471 7.38813 11.3471H5.0901L5.06319 11.4417C5.60128 11.576 6.11567 11.7918 6.58855 12.0815L7.85607 16.9484H9.37623L11.6968 11.3471L10.1263 11.3462Z" fill="white"/>
<path d="M21.5973 16.9476H22.936L21.7683 11.3462H20.5963C20.0546 11.3462 19.9226 11.7629 19.9226 11.7629L17.7522 16.9476H19.2724L19.5762 16.115H21.4263L21.5973 16.9476ZM19.9921 14.9656L20.7587 12.8698L21.1927 14.9656H19.9921Z" fill="white"/>
<path d="M17.8616 12.6931L18.0699 11.4898C17.6476 11.3391 17.2039 11.2567 16.7555 11.2458C16.0315 11.2458 14.3134 11.5627 14.3134 13.1002C14.3134 14.5475 16.3301 14.5657 16.3301 15.3254C16.3301 16.085 14.5209 15.9496 13.9245 15.4703L13.7074 16.7274C13.7074 16.7274 14.3585 17.0443 15.3569 17.0443C16.3553 17.0443 17.8538 16.5286 17.8538 15.1265C17.8538 13.6698 15.8188 13.5343 15.8188 12.9014C15.8188 12.2685 17.2374 12.3493 17.8616 12.6931Z" fill="white"/>
<path d="M8.57143 14.3695L8.08092 11.8518C8.08092 11.8518 8.02102 11.3474 7.38639 11.3474H5.0901L5.06319 11.442C5.85487 11.6435 6.59354 12.014 7.22839 12.5281C7.83102 13.0123 8.29446 13.6477 8.57143 14.3695Z" fill="#F9A533"/>
</svg>
