<svg xmlns="http://www.w3.org/2000/svg" viewBox="0 0 24 24">
    <path fill-rule="evenodd" d="M2.458 9C3.732 4.943 7.522 2 12 2c1.422 0 2.775.297 4 .832v3.55a.619.619 0 0 1-.896.552l-1.315-.657-.001-.001A2.619 2.619 0 0 0 10 8.618v1.764A2.619 2.619 0 0 0 12.618 13h2.715a1.666 1.666 0 0 1 1 3 8.333 8.333 0 0 0-3.302 5.948c-.339.034-.683.052-1.031.052a9.966 9.966 0 0 1-4-.832V12a3 3 0 0 0-3-3H2.458zm-.409 2A9.985 9.985 0 0 0 6 20v-8a1 1 0 0 0-.999-1H2.05zm13.058 10.508C19.109 20.2 22 16.438 22 12a9.985 9.985 0 0 0-4-8v2.382a2.619 2.619 0 0 1-3.788 2.342l-1.316-.658a.619.619 0 0 0-.896.552v1.764c0 .34.277.618.618.618h2.715a3.666 3.666 0 0 1 2.202 6.6 6.335 6.335 0 0 0-2.428 3.908zM12 0C5.373 0 0 5.373 0 12s5.373 12 12 12 12-5.373 12-12S18.627 0 12 0z" clip-rule="evenodd"/>
</svg>
