<svg width="28" height="28" viewBox="0 0 28 28" fill="none" xmlns="http://www.w3.org/2000/svg">
<path fill-rule="evenodd" clip-rule="evenodd" d="M0 5.5C0 4.11929 1.11929 3 2.5 3H25.5C26.8807 3 28 4.11929 28 5.5V21.5C28 22.8807 26.8807 24 25.5 24H2.5C1.11929 24 0 22.8807 0 21.5V5.5Z" fill="url(#paint0_radial)"/>
<mask id="path-2-outside-1" maskUnits="userSpaceOnUse" x="1" y="10" width="25" height="7" fill="black">
<rect fill="white" x="1" y="10" width="25" height="7"/>
<path fill-rule="evenodd" clip-rule="evenodd" d="M4.82844 14.0672L5.49528 12.2325H5.50962L6.15495 14.0672H4.82844ZM4.93599 11L3 16H4.13291L4.53445 14.8866H6.44893L6.83613 16H8.00489L6.09041 11H4.93599ZM8.44945 11V16H9.50349V12.4916H9.51783L10.7726 16H11.6403L12.8951 12.4566H12.9094V16H13.9634V11H12.3788L11.2459 14.4384H11.2315L10.0341 11H8.44945ZM14.9529 11V16H18.8393V15.0756H16.0787V13.8501H18.5596V12.9958H16.0787V11.9244H18.7819V11H14.9529ZM20.8541 13.381L19.0687 16H20.3307L21.4708 14.2703L22.5894 16H23.9302L22.1448 13.388L23.7868 11H22.5535L21.5138 12.5966L20.51 11H19.205L20.8541 13.381Z"/>
</mask>
<path fill-rule="evenodd" clip-rule="evenodd" d="M4.82844 14.0672L5.49528 12.2325H5.50962L6.15495 14.0672H4.82844ZM4.93599 11L3 16H4.13291L4.53445 14.8866H6.44893L6.83613 16H8.00489L6.09041 11H4.93599ZM8.44945 11V16H9.50349V12.4916H9.51783L10.7726 16H11.6403L12.8951 12.4566H12.9094V16H13.9634V11H12.3788L11.2459 14.4384H11.2315L10.0341 11H8.44945ZM14.9529 11V16H18.8393V15.0756H16.0787V13.8501H18.5596V12.9958H16.0787V11.9244H18.7819V11H14.9529ZM20.8541 13.381L19.0687 16H20.3307L21.4708 14.2703L22.5894 16H23.9302L22.1448 13.388L23.7868 11H22.5535L21.5138 12.5966L20.51 11H19.205L20.8541 13.381Z" fill="#1793C0" fill-opacity="0.01"/>
<path d="M4.82844 14.0672L3.88859 13.7256L3.40098 15.0672H4.82844V14.0672ZM5.49528 12.2325V11.2325H4.79473L4.55543 11.8909L5.49528 12.2325ZM5.50962 12.2325L6.45297 11.9007L6.21794 11.2325H5.50962V12.2325ZM6.15495 14.0672V15.0672H7.56673L7.0983 13.7354L6.15495 14.0672ZM4.93599 11V10H4.25084L4.00345 10.6389L4.93599 11ZM3 16L2.06746 15.6389L1.54046 17H3V16ZM4.13291 16V17H4.83532L5.07361 16.3392L4.13291 16ZM4.53445 14.8866V13.8866H3.83204L3.59375 14.5473L4.53445 14.8866ZM6.44893 14.8866L7.39345 14.5581L7.15992 13.8866H6.44893V14.8866ZM6.83613 16L5.89161 16.3285L6.12514 17H6.83613V16ZM8.00489 16V17H9.45859L8.93878 15.6424L8.00489 16ZM6.09041 11L7.0243 10.6424L6.77832 10H6.09041V11ZM8.44945 11V10H7.44945V11H8.44945ZM8.44945 16H7.44945V17H8.44945V16ZM9.50349 16V17H10.5035V16H9.50349ZM9.50349 12.4916V11.4916H8.50349V12.4916H9.50349ZM9.51783 12.4916L10.4594 12.1548L10.2222 11.4916H9.51783V12.4916ZM10.7726 16L9.83105 16.3368L10.0683 17H10.7726V16ZM11.6403 16V17H12.347L12.5829 16.3338L11.6403 16ZM12.8951 12.4566V11.4566H12.1883L11.9524 12.1228L12.8951 12.4566ZM12.9094 12.4566H13.9094V11.4566H12.9094V12.4566ZM12.9094 16H11.9094V17H12.9094V16ZM13.9634 16V17H14.9634V16H13.9634ZM13.9634 11H14.9634V10H13.9634V11ZM12.3788 11V10H11.6554L11.429 10.6871L12.3788 11ZM11.2459 14.4384V15.4384H11.9693L12.1957 14.7513L11.2459 14.4384ZM11.2315 14.4384L10.2872 14.7673L10.5209 15.4384H11.2315V14.4384ZM10.0341 11L10.9785 10.6711L10.7447 10H10.0341V11ZM14.9529 11V10H13.9529V11H14.9529ZM14.9529 16H13.9529V17H14.9529V16ZM18.8393 16V17H19.8393V16H18.8393ZM18.8393 15.0756H19.8393V14.0756H18.8393V15.0756ZM16.0787 15.0756H15.0787V16.0756H16.0787V15.0756ZM16.0787 13.8501V12.8501H15.0787V13.8501H16.0787ZM18.5596 13.8501V14.8501H19.5596V13.8501H18.5596ZM18.5596 12.9958H19.5596V11.9958H18.5596V12.9958ZM16.0787 12.9958H15.0787V13.9958H16.0787V12.9958ZM16.0787 11.9244V10.9244H15.0787V11.9244H16.0787ZM18.7819 11.9244V12.9244H19.7819V11.9244H18.7819ZM18.7819 11H19.7819V10H18.7819V11ZM20.8541 13.381L21.6804 13.9442L22.0675 13.3764L21.6762 12.8115L20.8541 13.381ZM19.0687 16L18.2424 15.4367L17.1768 17H19.0687V16ZM20.3307 16V17H20.8693L21.1656 16.5503L20.3307 16ZM21.4708 14.2703L22.3105 13.7273L21.4788 12.4411L20.6358 13.72L21.4708 14.2703ZM22.5894 16L21.7496 16.543L22.0452 17H22.5894V16ZM23.9302 16V17H25.825L24.7558 15.4357L23.9302 16ZM22.1448 13.388L21.3208 12.8214L20.9324 13.3863L21.3192 13.9523L22.1448 13.388ZM23.7868 11L24.6108 11.5666L25.688 10H23.7868V11ZM22.5535 11V10H22.0114L21.7155 10.4543L22.5535 11ZM21.5138 12.5966L20.6672 13.1289L21.499 14.4519L22.3518 13.1423L21.5138 12.5966ZM20.51 11L21.3565 10.4677L21.0625 10H20.51V11ZM19.205 11V10H17.2958L18.3829 11.5694L19.205 11ZM5.76828 14.4088L6.43512 12.5741L4.55543 11.8909L3.88859 13.7256L5.76828 14.4088ZM5.49528 13.2325H5.50962V11.2325H5.49528V13.2325ZM4.56627 12.5643L5.2116 14.399L7.0983 13.7354L6.45297 11.9007L4.56627 12.5643ZM6.15495 13.0672H4.82844V15.0672H6.15495V13.0672ZM4.00345 10.6389L2.06746 15.6389L3.93254 16.3611L5.86853 11.3611L4.00345 10.6389ZM3 17H4.13291V15H3V17ZM5.07361 16.3392L5.47515 15.2258L3.59375 14.5473L3.19221 15.6608L5.07361 16.3392ZM4.53445 15.8866H6.44893V13.8866H4.53445V15.8866ZM5.50441 15.215L5.89161 16.3285L7.78065 15.6715L7.39345 14.5581L5.50441 15.215ZM6.83613 17H8.00489V15H6.83613V17ZM8.93878 15.6424L7.0243 10.6424L5.15653 11.3576L7.07101 16.3576L8.93878 15.6424ZM6.09041 10H4.93599V12H6.09041V10ZM7.44945 11V16H9.44945V11H7.44945ZM8.44945 17H9.50349V15H8.44945V17ZM10.5035 16V12.4916H8.50349V16H10.5035ZM9.50349 13.4916H9.51783V11.4916H9.50349V13.4916ZM8.57624 12.8284L9.83105 16.3368L11.7142 15.6632L10.4594 12.1548L8.57624 12.8284ZM10.7726 17H11.6403V15H10.7726V17ZM12.5829 16.3338L13.8377 12.7904L11.9524 12.1228L10.6976 15.6662L12.5829 16.3338ZM12.8951 13.4566H12.9094V11.4566H12.8951V13.4566ZM11.9094 12.4566V16H13.9094V12.4566H11.9094ZM12.9094 17H13.9634V15H12.9094V17ZM14.9634 16V11H12.9634V16H14.9634ZM13.9634 10H12.3788V12H13.9634V10ZM11.429 10.6871L10.2961 14.1254L12.1957 14.7513L13.3286 11.3129L11.429 10.6871ZM11.2459 13.4384H11.2315V15.4384H11.2459V13.4384ZM12.1759 14.1095L10.9785 10.6711L9.08973 11.3289L10.2872 14.7673L12.1759 14.1095ZM10.0341 10H8.44945V12H10.0341V10ZM13.9529 11V16H15.9529V11H13.9529ZM14.9529 17H18.8393V15H14.9529V17ZM19.8393 16V15.0756H17.8393V16H19.8393ZM18.8393 14.0756H16.0787V16.0756H18.8393V14.0756ZM17.0787 15.0756V13.8501H15.0787V15.0756H17.0787ZM16.0787 14.8501H18.5596V12.8501H16.0787V14.8501ZM19.5596 13.8501V12.9958H17.5596V13.8501H19.5596ZM18.5596 11.9958H16.0787V13.9958H18.5596V11.9958ZM17.0787 12.9958V11.9244H15.0787V12.9958H17.0787ZM16.0787 12.9244H18.7819V10.9244H16.0787V12.9244ZM19.7819 11.9244V11H17.7819V11.9244H19.7819ZM18.7819 10H14.9529V12H18.7819V10ZM20.0279 12.8177L18.2424 15.4367L19.895 16.5633L21.6804 13.9442L20.0279 12.8177ZM19.0687 17H20.3307V15H19.0687V17ZM21.1656 16.5503L22.3057 14.8206L20.6358 13.72L19.4958 15.4497L21.1656 16.5503ZM20.6311 14.8133L21.7496 16.543L23.4291 15.457L22.3105 13.7273L20.6311 14.8133ZM22.5894 17H23.9302V15H22.5894V17ZM24.7558 15.4357L22.9704 12.8237L21.3192 13.9523L23.1046 16.5643L24.7558 15.4357ZM22.9688 13.9546L24.6108 11.5666L22.9628 10.4334L21.3208 12.8214L22.9688 13.9546ZM23.7868 10H22.5535V12H23.7868V10ZM21.7155 10.4543L20.6758 12.051L22.3518 13.1423L23.3915 11.5457L21.7155 10.4543ZM22.3604 12.0644L21.3565 10.4677L19.6634 11.5323L20.6672 13.1289L22.3604 12.0644ZM20.51 10H19.205V12H20.51V10ZM18.3829 11.5694L20.0321 13.9504L21.6762 12.8115L20.027 10.4306L18.3829 11.5694Z" fill="white" mask="url(#path-2-outside-1)"/>
<defs>
<radialGradient id="paint0_radial" cx="0" cy="0" r="1" gradientUnits="userSpaceOnUse" gradientTransform="translate(9.40283 6.98047) rotate(90) scale(21 28)">
<stop stop-color="#71C8F2"/>
<stop offset="1" stop-color="#0071BD"/>
</radialGradient>
</defs>
</svg>
