<svg width="48" height="48" viewBox="0 0 48 48" fill="none" xmlns="http://www.w3.org/2000/svg">
<path d="M13.5269 20.7104C13.5269 21.3011 13.5907 21.7801 13.7025 22.1313C13.8302 22.4825 13.9898 22.8656 14.2133 23.2807C14.2932 23.4084 14.3251 23.5361 14.3251 23.6479C14.3251 23.8075 14.2293 23.9672 14.0218 24.1268L13.016 24.7973C12.8723 24.8931 12.7287 24.941 12.6009 24.941C12.4413 24.941 12.2817 24.8612 12.122 24.7175C11.8985 24.478 11.7069 24.2226 11.5473 23.9672C11.3877 23.6958 11.228 23.3924 11.0524 23.0253C9.80719 24.494 8.24269 25.2283 6.3589 25.2283C5.0179 25.2283 3.94829 24.8452 3.16604 24.0789C2.38379 23.3126 1.98468 22.2909 1.98468 21.0138C1.98468 19.6568 2.46361 18.5553 3.43744 17.7251C4.41126 16.895 5.70436 16.4799 7.34869 16.4799C7.89147 16.4799 8.45022 16.5278 9.0409 16.6076C9.63158 16.6874 10.2382 16.8152 10.8768 16.9588V15.7934C10.8768 14.5802 10.6214 13.7341 10.1265 13.2392C9.61562 12.7443 8.75355 12.5048 7.52429 12.5048C6.96554 12.5048 6.39083 12.5687 5.80015 12.7123C5.20947 12.856 4.63476 13.0316 4.07601 13.2551C3.82058 13.3669 3.62901 13.4307 3.51726 13.4627C3.40551 13.4946 3.32568 13.5106 3.26183 13.5106C3.03833 13.5106 2.92658 13.3509 2.92658 13.0157V12.2334C2.92658 11.978 2.95851 11.7864 3.03833 11.6747C3.11815 11.5629 3.26183 11.4512 3.48533 11.3394C4.04408 11.0521 4.71458 10.8126 5.49683 10.621C6.27908 10.4135 7.10922 10.3177 7.98726 10.3177C9.88701 10.3177 11.2759 10.7487 12.1699 11.6108C13.0479 12.4729 13.4949 13.7819 13.4949 15.538V20.7104H13.5269ZM7.04537 23.137C7.57219 23.137 8.11497 23.0412 8.68969 22.8497C9.2644 22.6581 9.77526 22.3069 10.2063 21.8279C10.4617 21.5246 10.6533 21.1894 10.7491 20.8062C10.8449 20.4231 10.9087 19.9601 10.9087 19.4173V18.7468C10.4458 18.6351 9.95087 18.5393 9.44001 18.4754C8.92915 18.4116 8.43426 18.3797 7.93937 18.3797C6.86976 18.3797 6.08751 18.5872 5.56069 19.0182C5.03386 19.4493 4.77844 20.0559 4.77844 20.8541C4.77844 21.6044 4.97001 22.1632 5.36911 22.5463C5.75226 22.9454 6.31101 23.137 7.04537 23.137ZM19.8647 24.8612C19.5773 24.8612 19.3858 24.8133 19.2581 24.7015C19.1303 24.6057 19.0186 24.3822 18.9228 24.0789L15.1712 11.7385C15.0754 11.4192 15.0275 11.2117 15.0275 11.0999C15.0275 10.8445 15.1552 10.7008 15.4107 10.7008H16.9752C17.2785 10.7008 17.486 10.7487 17.5978 10.8605C17.7255 10.9563 17.8213 11.1798 17.9171 11.4831L20.5991 22.0514L23.0895 11.4831C23.1693 11.1638 23.2651 10.9563 23.3928 10.8605C23.5205 10.7647 23.744 10.7008 24.0314 10.7008H25.3085C25.6118 10.7008 25.8194 10.7487 25.9471 10.8605C26.0748 10.9563 26.1866 11.1798 26.2504 11.4831L28.7728 22.1792L31.5346 11.4831C31.6304 11.1638 31.7421 10.9563 31.8539 10.8605C31.9816 10.7647 32.1891 10.7008 32.4765 10.7008H33.9612C34.2166 10.7008 34.3603 10.8286 34.3603 11.0999C34.3603 11.1798 34.3443 11.2596 34.3283 11.3554C34.3124 11.4512 34.2805 11.5789 34.2166 11.7545L30.3692 24.0949C30.2734 24.4142 30.1617 24.6217 30.034 24.7175C29.9062 24.8133 29.6987 24.8771 29.4273 24.8771H28.0544C27.7511 24.8771 27.5435 24.8292 27.4158 24.7175C27.2881 24.6057 27.1763 24.3982 27.1125 24.0789L24.638 13.7819L22.1795 24.0629C22.0997 24.3822 22.0039 24.5898 21.8762 24.7015C21.7485 24.8133 21.525 24.8612 21.2376 24.8612H19.8647ZM40.3788 25.2922C39.5487 25.2922 38.7185 25.1964 37.9203 25.0048C37.1221 24.8133 36.4995 24.6057 36.0844 24.3663C35.829 24.2226 35.6534 24.0629 35.5895 23.9193C35.5257 23.7756 35.4937 23.6159 35.4937 23.4723V22.6581C35.4937 22.3228 35.6215 22.1632 35.8609 22.1632C35.9567 22.1632 36.0525 22.1792 36.1483 22.2111C36.2441 22.243 36.3877 22.3069 36.5474 22.3707C37.0902 22.6102 37.6809 22.8018 38.3035 22.9295C38.942 23.0572 39.5646 23.1211 40.2032 23.1211C41.209 23.1211 41.9912 22.9454 42.534 22.5942C43.0768 22.243 43.3641 21.7322 43.3641 21.0776C43.3641 20.6306 43.2205 20.2634 42.9331 19.9601C42.6457 19.6568 42.103 19.3854 41.3207 19.13L39.0059 18.4116C37.8405 18.0444 36.9784 17.5016 36.4516 16.7832C35.9248 16.0808 35.6534 15.2986 35.6534 14.4684C35.6534 13.7979 35.7971 13.2072 36.0844 12.6964C36.3718 12.1855 36.7549 11.7385 37.2338 11.3873C37.7128 11.0201 38.2556 10.7487 38.8941 10.5572C39.5327 10.3656 40.2032 10.2858 40.9056 10.2858C41.2569 10.2858 41.624 10.3017 41.9752 10.3496C42.3424 10.3975 42.6777 10.4614 43.0129 10.5252C43.3322 10.6051 43.6355 10.6849 43.9229 10.7807C44.2102 10.8764 44.4337 10.9722 44.5934 11.068C44.8169 11.1957 44.9765 11.3234 45.0723 11.4671C45.1681 11.5948 45.216 11.7704 45.216 11.9939V12.7443C45.216 13.0795 45.0883 13.2551 44.8488 13.2551C44.7211 13.2551 44.5136 13.1913 44.2422 13.0636C43.3322 12.6485 42.3105 12.4409 41.177 12.4409C40.2671 12.4409 39.5487 12.5846 39.0538 12.8879C38.5589 13.1913 38.3035 13.6542 38.3035 14.3088C38.3035 14.7558 38.4631 15.1389 38.7824 15.4422C39.1017 15.7456 39.6924 16.0489 40.5385 16.3203L42.8054 17.0387C43.9548 17.4058 44.785 17.9167 45.2799 18.5712C45.7747 19.2258 46.0142 19.9761 46.0142 20.8062C46.0142 21.4927 45.8705 22.1153 45.5991 22.6581C45.3118 23.2009 44.9286 23.6798 44.4337 24.0629C43.9389 24.4621 43.3482 24.7494 42.6617 24.9569C41.9433 25.1804 41.193 25.2922 40.3788 25.2922Z" fill="#252F3E"/>
<path fill-rule="evenodd" clip-rule="evenodd" d="M43.396 33.0507C38.1438 36.93 30.5129 38.9894 23.9515 38.9894C14.7561 38.9894 6.47065 35.589 0.212647 29.9377C-0.282246 29.4907 0.164754 28.884 0.755433 29.2353C7.52429 33.1625 15.8736 35.5412 24.5103 35.5412C30.3373 35.5412 36.7389 34.3279 42.6298 31.8374C43.5078 31.4383 44.2581 32.4122 43.396 33.0507Z" fill="#FF9900"/>
<path fill-rule="evenodd" clip-rule="evenodd" d="M45.5832 30.5603C44.9127 29.6983 41.1451 30.1453 39.4369 30.3528C38.9261 30.4167 38.8462 29.9697 39.3092 29.6344C42.3105 27.5271 47.2435 28.1338 47.8182 28.8362C48.3929 29.5546 47.6585 34.4876 44.8488 36.8503C44.4178 37.2174 44.0027 37.0259 44.1943 36.5469C44.8329 34.9665 46.2537 31.4064 45.5832 30.5603Z" fill="#FF9900"/>
</svg>
