<svg width="24" height="24" viewBox="0 0 24 24" fill="none" xmlns="http://www.w3.org/2000/svg">
<path d="M8.00092 1.00027H15.1027L7.73036 22.8438C7.65459 23.0683 7.51033 23.2633 7.3179 23.4015C7.12546 23.5397 6.89454 23.614 6.65764 23.6141H1.13067C0.951179 23.6141 0.77426 23.5714 0.614552 23.4895C0.454844 23.4075 0.316937 23.2888 0.212241 23.143C0.107545 22.9972 0.0390681 22.8286 0.0124759 22.651C-0.0141162 22.4735 0.00194065 22.2922 0.059318 22.1222L6.92793 1.77051C7.00367 1.54596 7.14795 1.35083 7.34044 1.2126C7.53294 1.07437 7.76394 1.00001 8.00092 1V1.00027Z" fill="url(#paint0_linear_11109_22292)"/>
<path d="M18.3209 15.6515H7.05912C6.95442 15.6514 6.85211 15.6828 6.76552 15.7417C6.67894 15.8005 6.61208 15.8841 6.57367 15.9815C6.53526 16.0789 6.52707 16.1856 6.55017 16.2877C6.57327 16.3898 6.62659 16.4826 6.70318 16.554L13.9397 23.3083C14.1504 23.5049 14.4278 23.6142 14.716 23.6141H21.0928L18.3209 15.6515Z" fill="#0078D4"/>
<path d="M8.00101 1.00025C7.76144 0.999333 7.52785 1.07504 7.33437 1.21631C7.14088 1.35759 6.99764 1.55702 6.92556 1.78549L0.0678548 22.1036C0.00661725 22.2743 -0.0126081 22.4572 0.011805 22.6369C0.0362182 22.8166 0.103552 22.9878 0.208109 23.1359C0.312667 23.2841 0.451373 23.4049 0.612494 23.4881C0.773614 23.5714 0.95241 23.6146 1.13375 23.6141H6.80337C7.01453 23.5763 7.21189 23.4832 7.37529 23.3443C7.5387 23.2053 7.66229 23.0255 7.73344 22.8231L9.101 18.7927L13.9859 23.349C14.1906 23.5183 14.4474 23.6119 14.7131 23.6141H21.0662L18.2798 15.6515L10.1571 15.6534L15.1285 1.00025H8.00101Z" fill="url(#paint1_linear_11109_22292)"/>
<path d="M17.0717 1.76952C16.9961 1.54533 16.852 1.35052 16.6598 1.21253C16.4676 1.07454 16.237 1.00034 16.0004 1.00037H8.08548C8.32207 1.00038 8.5527 1.0746 8.7449 1.21258C8.93709 1.35056 9.08117 1.54535 9.15683 1.76952L16.0257 22.122C16.0831 22.2921 16.0992 22.4734 16.0727 22.651C16.0461 22.8285 15.9776 22.9972 15.8729 23.1431C15.7682 23.2889 15.6303 23.4077 15.4706 23.4897C15.3109 23.5717 15.1339 23.6144 14.9544 23.6145H22.8695C23.049 23.6144 23.226 23.5716 23.3856 23.4896C23.5453 23.4076 23.6832 23.2888 23.7879 23.143C23.8926 22.9971 23.961 22.8284 23.9876 22.6509C24.0141 22.4734 23.998 22.2921 23.9406 22.122L17.0717 1.76952Z" fill="url(#paint2_linear_11109_22292)"/>
<defs>
<linearGradient id="paint0_linear_11109_22292" x1="10.5893" y1="2.67604" x2="3.21392" y2="24.4648" gradientUnits="userSpaceOnUse">
<stop stop-color="#114A8B"/>
<stop offset="1" stop-color="#0669BC"/>
</linearGradient>
<linearGradient id="paint1_linear_11109_22292" x1="12.8933" y1="12.8302" x2="11.1872" y2="13.407" gradientUnits="userSpaceOnUse">
<stop stop-opacity="0.3"/>
<stop offset="0.071" stop-opacity="0.2"/>
<stop offset="0.321" stop-opacity="0.1"/>
<stop offset="0.623" stop-opacity="0.05"/>
<stop offset="1" stop-opacity="0"/>
</linearGradient>
<linearGradient id="paint2_linear_11109_22292" x1="11.955" y1="2.04063" x2="20.0509" y2="23.6098" gradientUnits="userSpaceOnUse">
<stop stop-color="#3CCBF4"/>
<stop offset="1" stop-color="#2892DF"/>
</linearGradient>
</defs>
</svg>
