<svg width="28" height="28" viewBox="0 0 28 28" fill="none" xmlns="http://www.w3.org/2000/svg">
<mask id="mask0" mask-type="alpha" maskUnits="userSpaceOnUse" x="0" y="4" width="28" height="20">
<path d="M26 4H2C0.89543 4 0 4.89543 0 6V22C0 23.1046 0.89543 24 2 24H26C27.1046 24 28 23.1046 28 22V6C28 4.89543 27.1046 4 26 4Z" fill="white"/>
</mask>
<g mask="url(#mask0)">
<path d="M26 4H2C0.89543 4 0 4.89543 0 6V22C0 23.1046 0.89543 24 2 24H26C27.1046 24 28 23.1046 28 22V6C28 4.89543 27.1046 4 26 4Z" fill="white"/>
<path d="M28 4H0V24H28V4Z" fill="#05AB41"/>
<path fill-rule="evenodd" clip-rule="evenodd" d="M3.22869 14.3638C2.91829 14.1629 2.92467 13.8332 3.22869 13.6364L13.438 7.03044C13.7484 6.82959 14.258 6.83372 14.562 7.03044L24.7713 13.6364C25.0817 13.8373 25.0753 14.1671 24.7713 14.3638L14.562 20.9698C14.2516 21.1706 13.742 21.1665 13.438 20.9698L3.22869 14.3638Z" fill="#FDD216"/>
<mask id="mask1" mask-type="alpha" maskUnits="userSpaceOnUse" x="9" y="9" width="10" height="10">
<path d="M14 18.6666C16.5773 18.6666 18.6667 16.5772 18.6667 13.9999C18.6667 11.4226 16.5773 9.33325 14 9.33325C11.4227 9.33325 9.33334 11.4226 9.33334 13.9999C9.33334 16.5772 11.4227 18.6666 14 18.6666Z" fill="white"/>
</mask>
<g mask="url(#mask1)">
<path d="M14 18.6666C16.5773 18.6666 18.6667 16.5772 18.6667 13.9999C18.6667 11.4226 16.5773 9.33325 14 9.33325C11.4227 9.33325 9.33334 11.4226 9.33334 13.9999C9.33334 16.5772 11.4227 18.6666 14 18.6666Z" fill="#053087"/>
<path d="M8.77995 12.7801C9.51265 12.1868 11.877 12.7488 14.0841 13.3376C16.2911 13.9263 18.593 15.1603 19.1791 15.8841" stroke="white" stroke-width="1.33333" stroke-linecap="square"/>
</g>
</g>
</svg>
