<svg width="28" height="28" viewBox="0 0 28 28" fill="none" xmlns="http://www.w3.org/2000/svg">
<mask id="mask0" mask-type="alpha" maskUnits="userSpaceOnUse" x="0" y="4" width="28" height="20">
<path d="M26 4H2C0.89543 4 0 4.89543 0 6V22C0 23.1046 0.89543 24 2 24H26C27.1046 24 28 23.1046 28 22V6C28 4.89543 27.1046 4 26 4Z" fill="white"/>
</mask>
<g mask="url(#mask0)">
<path d="M25.75 4.25H2.25C1.14543 4.25 0.25 5.14543 0.25 6.25V21.75C0.25 22.8546 1.14543 23.75 2.25 23.75H25.75C26.8546 23.75 27.75 22.8546 27.75 21.75V6.25C27.75 5.14543 26.8546 4.25 25.75 4.25Z" fill="white" stroke="#F5F5F5" stroke-width="0.5"/>
<path d="M28 4H20V24H28V4Z" fill="#FF3131"/>
<path d="M8 4H0V24H8V4Z" fill="#FF3131"/>
<path fill-rule="evenodd" clip-rule="evenodd" d="M15.5656 13.7677C15.4373 13.8959 15.362 13.8567 15.3997 13.6681L16 10.6666L14.6667 11.3333L14 9.33325L13.3333 11.3333L12 10.6666L12.6003 13.6681C12.637 13.8514 12.562 13.8953 12.4344 13.7677L11.5656 12.8988C11.4373 12.7706 11.2292 12.7708 11.0927 12.9073L10.6667 13.3333L9.33333 12.6666L10 13.9999L9.57402 14.4259C9.44109 14.5588 9.44086 14.7741 9.56276 14.896L11.3333 16.6666H13.3333L13.6667 18.6666H14.3333L14.6667 16.6666H16.6667L18.4372 14.896C18.5639 14.7693 18.5625 14.5624 18.426 14.4259L18 13.9999L18.6667 12.6666L17.3333 13.3333L16.9073 12.9073C16.7744 12.7743 16.562 12.7712 16.4344 12.8988L15.5656 13.7677Z" fill="#FF3131"/>
</g>
</svg>
