<svg width="217" height="36" viewBox="0 0 217 36" fill="none" xmlns="http://www.w3.org/2000/svg">
<g clip-path="url(#clip0_6367_1928)">
<path d="M22.4551 23.9678C23.3385 20.3906 23.1869 16.6333 22.0183 13.1402C20.8496 9.647 18.7129 6.56394 15.8605 4.25534C18.4651 2.74631 21.4183 1.95505 24.4229 1.9612C25.562 1.96058 26.6984 2.07313 27.8157 2.29723L28.2857 0.394102C27.0145 0.132112 25.7204 8.7917e-05 24.4229 3.57098e-05C20.7812 -0.00704256 17.2141 1.03829 14.1444 3.01204C11.0744 1.0386 7.50735 -0.00670023 3.86582 3.57098e-05C2.56733 9.03323e-05 1.27217 0.132114 0 0.394102L0.469962 2.29723C1.58819 2.07297 2.72565 1.96042 3.86582 1.9612C6.87098 1.95488 9.8249 2.74501 12.4312 4.25229C10.1003 6.13861 8.23989 8.54833 6.99879 11.2888C5.7577 14.0292 5.17038 17.0242 5.28383 20.0343C5.39728 23.0443 6.20833 25.9858 7.65213 28.6235C9.09589 31.2612 11.1323 33.5219 13.5986 35.2247L14.1504 35.6065L14.6992 35.2247C18.5638 32.553 21.3246 28.549 22.4611 23.9678H22.4551ZM13.1711 32.4234C10.6313 30.2135 8.78818 27.3037 7.86863 24.0521C6.94906 20.8006 6.99313 17.349 7.99542 14.1223C8.97772 15.7667 10.1967 17.2554 11.6126 18.5395C12.1039 18.9856 12.4966 19.5308 12.765 20.1397C13.0335 20.7486 13.1719 21.4075 13.1711 22.0739V32.4234ZM14.1444 18.0965C12.8395 17.1214 11.6779 15.9655 10.6939 14.663C10.0639 13.8287 9.72277 12.8092 9.72277 11.761C9.72277 10.7126 10.0639 9.69321 10.6939 8.85885C11.677 7.54563 12.8409 6.38024 14.1504 5.39782C15.4745 6.39344 16.6497 7.57549 17.6403 8.90774C18.2497 9.72821 18.579 10.7255 18.579 11.7502C18.579 12.775 18.2497 13.7723 17.6403 14.5927C16.6459 15.922 15.4688 17.1017 14.1444 18.0965ZM15.1146 32.4234V22.0739C15.1142 21.4074 15.253 20.7481 15.522 20.1392C15.791 19.5303 16.1842 18.9852 16.6761 18.5395C18.0917 17.256 19.3098 15.7672 20.2902 14.1223C20.8129 15.8029 21.0777 17.5542 21.0755 19.3154C21.0729 21.8031 20.5392 24.2612 19.5107 26.5229C18.4822 28.7846 16.983 30.7969 15.1146 32.4234Z" fill="url(#paint0_linear_6367_1928)"/>
<path d="M71.1024 20.097C71.1024 25.0302 67.927 28.4248 63.3782 28.4248C58.8292 28.4248 55.6215 25.0302 55.6215 20.097C55.6215 15.1639 58.8009 11.7693 63.3782 11.7693C67.9553 11.7693 71.1024 15.1639 71.1024 20.097ZM58.4212 20.097C58.4212 23.6545 60.3603 26.117 63.3782 26.117C66.3959 26.117 68.3068 23.6748 68.3068 20.097C68.3068 16.5193 66.4 14.0771 63.3782 14.0771C60.3562 14.0771 58.4373 16.5437 58.4373 20.097H58.4212Z" fill="#190F33"/>
<path d="M113.033 14.8382C112.362 14.6306 111.666 14.5196 110.964 14.5085C108.864 14.5085 107.308 16.336 107.308 19.5352V27.9769H104.573V12.2169H107.15V14.5899C107.882 13.0513 109.17 11.9605 111.029 11.9605C111.723 11.9294 112.415 12.0618 113.049 12.3471L113.033 14.8382Z" fill="#190F33"/>
<path d="M129.403 20.097C129.403 25.0302 126.223 28.4248 121.678 28.4248C117.134 28.4248 113.925 25.0139 113.925 20.097C113.925 15.1802 117.105 11.7693 121.682 11.7693C126.259 11.7693 129.403 15.1639 129.403 20.097ZM116.721 20.097C116.721 23.6545 118.66 26.117 121.678 26.117C124.696 26.117 126.607 23.6748 126.607 20.097C126.607 16.5193 124.7 14.0771 121.678 14.0771C118.656 14.0771 116.721 16.5437 116.721 20.097Z" fill="#190F33"/>
<path d="M138.852 11.7693C136.472 11.7693 134.384 12.7299 132.522 14.1382V16.9874C133.802 15.9414 136.206 14.0406 138.949 14.0406C139.467 14.0102 139.985 14.0835 140.475 14.2561C140.964 14.4286 141.415 14.697 141.801 15.0459C142.037 15.2785 142.226 15.555 142.359 15.8599C142.459 16.0972 142.506 16.3544 142.494 16.6122C142.482 16.8701 142.413 17.1219 142.291 17.3491C142.17 17.5763 142 17.7731 141.792 17.9246C141.585 18.0762 141.346 18.1788 141.094 18.2248L139.11 18.587C135.2 19.2911 131.839 20.382 131.839 24.0655C131.839 27.2037 134.384 28.4858 137.434 28.4858C139.785 28.4858 141.692 27.6188 142.742 26.0193V27.973H145.223V17.024C145.21 13.9469 142.985 11.7693 138.852 11.7693ZM142.609 19.865V22.0834C142.609 24.676 140.412 26.235 137.708 26.235C135.688 26.235 134.497 25.4209 134.497 23.9923C134.487 23.6806 134.54 23.3702 134.654 23.0802C134.768 22.7904 134.94 22.5272 135.159 22.3072C136.719 20.7157 141.317 20.7443 142.609 19.865Z" fill="#190F33"/>
<path d="M176.487 17.1827V27.977H173.757V18.0496C173.757 15.4528 172.485 14.1096 170.165 14.1096C169.63 14.103 169.1 14.2047 168.605 14.4087C168.109 14.6127 167.661 14.9147 167.283 15.2971C166.907 15.6794 166.61 16.1341 166.411 16.6342C166.212 17.1344 166.115 17.6697 166.125 18.2083V27.977H163.395V7.10474H166.125V14.0241C167.175 12.5507 168.892 11.7814 170.897 11.7814C174.677 11.7693 176.487 14.2358 176.487 17.1827Z" fill="#190F33"/>
<path d="M85.1695 24.5459C85.1695 24.5459 83.2549 25.9053 81.0931 25.9053C76.9967 25.9053 76.2978 21.6071 76.2978 20.0563C76.2978 19.2057 76.5805 14.2481 81.2062 14.2481C82.5866 14.289 83.9405 14.6395 85.1695 15.2739V12.8032C83.9189 12.104 82.5115 11.7371 81.081 11.7368C76.2574 11.7368 73.4819 15.6972 73.4819 19.9343C73.4819 27.3055 78.948 28.433 80.9518 28.433C82.432 28.4492 83.8889 28.0625 85.1695 27.3136V24.5459Z" fill="#190F33"/>
<path d="M159.981 24.5459C159.981 24.5459 158.07 25.9053 155.904 25.9053C151.808 25.9053 151.109 21.6071 151.109 20.0563C151.109 19.2057 151.396 14.2481 156.021 14.2481C157.401 14.2897 158.753 14.6401 159.981 15.2739V12.8032C158.73 12.1035 157.323 11.7366 155.893 11.7368C151.073 11.7368 148.293 15.6972 148.293 19.9343C148.293 27.3055 153.763 28.433 155.763 28.433C157.245 28.4431 158.702 28.0493 159.981 27.2933V24.5459Z" fill="#190F33"/>
<path d="M99.3815 27.977H102.432L96.1499 18.5014C97.7238 16.5968 99.0267 14.4802 100.021 12.2129H97.0424C95.6405 15.0237 93.7035 17.5297 91.3427 19.5882V7.10474H88.6072V27.977H91.3427V23.0479C92.4271 22.2501 93.4509 21.3711 94.4049 20.4185L99.3815 27.977Z" fill="#190F33"/>
<path d="M46.5883 25.7546C39.5912 25.7546 39.6841 18.3753 39.6841 17.5246C39.6841 9.66089 45.5864 9.43702 46.8307 9.43702C49.2546 9.43702 51.2302 10.3447 53.04 11.9281V8.73284C51.2347 7.41241 49.0616 6.70017 46.8307 6.69775C43.1058 6.69775 36.8036 8.98116 36.8036 17.549C36.8188 19.78 37.3853 21.972 38.4519 23.9271C40.1487 26.8821 42.9645 28.441 46.5883 28.441C49.493 28.441 51.2463 27.4804 53.0521 26.1576V22.9421C50.6968 24.7778 49.4405 25.7546 46.5883 25.7546Z" fill="#190F33"/>
<path d="M188.418 7.10474H180.645V27.977H188.418C194.073 27.977 197.601 23.9759 197.601 17.5327C197.601 11.0895 194.081 7.10474 188.418 7.10474ZM194.639 17.553C194.639 22.6083 192.215 25.5063 187.981 25.5063H183.537V9.57536H187.981C192.15 9.57536 194.639 12.5507 194.639 17.5327V17.553Z" fill="#190F33"/>
<path d="M213.259 16.9384C214.15 16.5908 214.912 15.9737 215.441 15.172C215.97 14.3704 216.239 13.4233 216.212 12.4612C216.212 9.13984 213.865 7.10474 210.075 7.10474H200.929V27.977H210.516C214.414 27.977 216.931 25.6569 216.931 22.0669C216.943 19.6167 215.598 17.7647 213.259 16.9384ZM214.026 21.9204C214.026 24.2405 212.443 25.5836 209.68 25.5836H203.834V18.2572H209.671C212.362 18.2369 214.026 19.6492 214.026 21.9204ZM203.834 15.8354V9.48988H209.567C212.015 9.48988 213.364 10.5929 213.364 12.5914C213.364 14.5899 211.971 15.8476 209.534 15.8476L203.834 15.8354Z" fill="#190F33"/>
</g>
<defs>
<linearGradient id="paint0_linear_6367_1928" x1="0" y1="10.0885" x2="28.2857" y2="10.0885" gradientUnits="userSpaceOnUse">
<stop stop-color="#0037A5"/>
<stop offset="0.503789" stop-color="#6933FF"/>
<stop offset="1" stop-color="#00FCED"/>
</linearGradient>
<clipPath id="clip0_6367_1928">
<rect width="216.857" height="36" fill="white"/>
</clipPath>
</defs>
</svg>
