<svg width="256" height="36" viewBox="0 0 256 36" fill="none" xmlns="http://www.w3.org/2000/svg">
<path d="M72.8161 20.5266C72.8161 25.5038 69.5628 28.932 64.9043 28.932C60.2458 28.932 56.9669 25.5038 56.9669 20.5266C56.9669 15.5494 60.2202 12.1128 64.9043 12.1128C69.5884 12.1128 72.8161 15.541 72.8161 20.5266ZM59.8285 20.5266C59.8285 24.1156 61.8128 26.6042 64.9384 26.6042C68.0639 26.6042 69.9887 24.1156 69.9887 20.5266C69.9887 16.9376 68.0299 14.4406 64.9384 14.4406C61.8469 14.4406 59.8285 16.9292 59.8285 20.5266Z" fill="white"/>
<path d="M115.731 15.2363C115.042 15.0301 114.329 14.919 113.61 14.9061C111.464 14.9061 109.863 16.7514 109.863 19.9849V28.4834H107.069V12.5614H109.701V14.9569C110.026 14.175 110.576 13.5057 111.282 13.0329C111.988 12.5602 112.819 12.3049 113.67 12.299C114.376 12.2698 115.079 12.4061 115.722 12.6969L115.731 15.2363Z" fill="white"/>
<path d="M132.491 20.5266C132.491 25.5038 129.238 28.932 124.579 28.932C119.921 28.932 116.676 25.5038 116.676 20.5266C116.676 15.5494 119.929 12.1128 124.614 12.1128C129.298 12.1128 132.491 15.541 132.491 20.5266ZM119.504 20.5266C119.504 24.1156 121.488 26.6042 124.614 26.6042C127.739 26.6042 129.655 24.1156 129.655 20.5266C129.655 16.9376 127.705 14.4406 124.614 14.4406C121.522 14.4406 119.504 16.9292 119.504 20.5266Z" fill="white"/>
<path d="M142.166 12.1128C139.796 12.1787 137.515 13.0208 135.676 14.5083V17.3862C136.988 16.3282 139.449 14.3898 142.226 14.3898C143.296 14.3302 144.347 14.6955 145.147 15.4055C145.39 15.6472 145.581 15.9351 145.709 16.252C145.817 16.4876 145.869 16.7447 145.861 17.0036C145.854 17.2624 145.787 17.516 145.665 17.7449C145.543 17.9738 145.37 18.1719 145.159 18.324C144.948 18.4761 144.705 18.5781 144.448 18.6221L142.422 18.9861C138.419 19.6971 134.97 20.7975 134.97 24.5134C134.97 27.6877 137.576 28.9828 140.701 28.9828C143.103 28.9828 145.062 28.1363 146.135 26.4942V28.4664H148.69V17.4201C148.673 14.3136 146.39 12.1128 142.166 12.1128ZM146.007 20.315V22.5497C146.007 25.1737 143.759 26.7227 140.991 26.7227C138.938 26.7227 137.703 25.9186 137.703 24.4627C137.692 24.1489 137.747 23.8363 137.865 23.5449C137.982 23.2534 138.159 22.9894 138.385 22.7697C139.977 21.1615 144.687 21.1615 146.007 20.315Z" fill="white"/>
<path d="M180.695 17.581V28.4834H177.901V18.4528C177.901 15.8288 176.598 14.4744 174.222 14.4744C173.674 14.4675 173.13 14.5703 172.622 14.7767C172.114 14.9831 171.654 15.2889 171.268 15.6759C170.882 16.0629 170.578 16.5232 170.374 17.0293C170.171 17.5355 170.072 18.0772 170.083 18.6221V28.4834H167.29V7.3811H170.083V14.3898C170.654 13.6495 171.397 13.0573 172.248 12.6638C173.1 12.2703 174.034 12.0871 174.972 12.1297C178.847 12.1128 180.695 14.6014 180.695 17.581Z" fill="white"/>
<path d="M195.539 25.9609H204.907V28.5003H192.541V7.3811H195.539V25.9609Z" fill="white"/>
<path d="M239.97 20.5266C239.97 25.6054 236.972 28.8981 232.909 28.8981C231.827 28.9684 230.746 28.7438 229.782 28.2486C228.819 27.7534 228.01 27.0064 227.442 26.0879V28.4834H224.836V7.3811H227.638V14.7961C228.212 13.9322 229.004 13.233 229.935 12.7681C230.866 12.3033 231.903 12.089 232.943 12.1467C237.04 12.1467 239.97 15.4733 239.97 20.5266ZM237.108 20.5266C237.108 16.9292 235.285 14.5083 232.484 14.5083C229.682 14.5083 227.501 16.7345 227.501 20.5266C227.501 24.3188 229.622 26.5111 232.484 26.5111C235.345 26.5111 237.108 24.1156 237.108 20.5266Z" fill="white"/>
<path d="M87.2006 25.0129C85.9617 25.8414 84.5189 26.3184 83.0275 26.3926C78.8288 26.3926 78.1134 22.0503 78.1134 20.4674C78.1134 19.6209 78.403 14.5929 83.1467 14.5929C84.5593 14.6347 85.9445 14.9905 87.2006 15.6341V13.0947C85.9188 12.3865 84.477 12.0136 83.0104 12.0112C78.0794 12.0112 75.2349 16.015 75.2349 20.2981C75.2349 27.7385 80.8302 28.8812 82.8997 28.8812C84.4154 28.8953 85.9069 28.5035 87.2176 27.7469L87.2006 25.0129Z" fill="white"/>
<path d="M163.798 25.0129C162.559 25.8414 161.116 26.3184 159.625 26.3926C155.435 26.3926 154.719 22.0503 154.719 20.4674C154.719 19.6209 155.009 14.5929 159.744 14.5929C161.157 14.6347 162.542 14.9905 163.798 15.6341V13.0947C162.519 12.3868 161.08 12.014 159.616 12.0112C154.677 12.0112 151.832 16.015 151.832 20.2981C151.832 27.7385 157.428 28.8812 159.497 28.8812C161.013 28.8953 162.504 28.5035 163.815 27.7469L163.798 25.0129Z" fill="white"/>
<path d="M101.73 28.4834H104.855L98.4253 18.9184C100.04 16.9938 101.376 14.8541 102.394 12.5614H99.3451C97.9103 15.4003 95.9281 17.9312 93.5113 20.0103V7.3811H90.7008V28.4834H93.5027V23.5062C94.6122 22.6986 95.6598 21.8102 96.6368 20.8483L101.73 28.4834Z" fill="white"/>
<path d="M214.616 12.1128C212.249 12.1793 209.97 13.0215 208.135 14.5083V17.3862C209.506 16.3282 211.925 14.3898 214.735 14.3898C215.264 14.3595 215.794 14.4337 216.294 14.608C216.794 14.7824 217.254 15.0534 217.648 15.4055C217.892 15.6476 218.086 15.9353 218.218 16.252C218.327 16.49 218.378 16.7497 218.368 17.0106C218.359 17.2716 218.288 17.5268 218.163 17.7563C218.038 17.9859 217.861 18.1834 217.646 18.3336C217.431 18.4838 217.184 18.5825 216.924 18.6221L214.897 18.9861C210.894 19.6971 207.445 20.7975 207.445 24.5134C207.445 27.6877 210.051 28.9828 213.168 28.9828C215.578 28.9828 217.537 28.1363 218.61 26.4942V28.4664H221.165V17.4201C221.148 14.3136 218.874 12.1128 214.616 12.1128ZM218.474 20.315V22.5497C218.474 25.1737 216.234 26.7227 213.466 26.7227C211.414 26.7227 210.179 25.9186 210.179 24.4627C210.168 24.1497 210.223 23.838 210.338 23.5467C210.454 23.2555 210.629 22.9911 210.852 22.7697C212.453 21.1615 217.171 21.1615 218.474 20.315Z" fill="white"/>
<path d="M249.44 19.0961C246.51 18.4528 245.182 18.1312 245.182 16.7345C245.182 15.3378 246.476 14.3898 248.682 14.3898C250.615 14.3898 251.91 14.8977 254.524 16.8276V13.8904C252.835 12.659 250.775 12.0325 248.682 12.1128C244.977 12.1128 242.473 14.0512 242.473 16.8361C242.473 19.4855 244.032 20.4251 248.299 21.3308C250.854 21.881 252.787 22.3635 252.787 24.1156C252.787 25.6985 251.228 26.655 249.142 26.655C247.055 26.655 245.854 26.0371 242.72 23.7009V26.7651C244.515 28.2248 246.781 28.9886 249.099 28.9151C252.974 28.9151 255.512 26.909 255.512 23.9633C255.495 21.1615 253.604 20.0357 249.44 19.0961Z" fill="white"/>
<path d="M47.6924 26.2403C40.513 26.2403 40.6237 18.783 40.6237 17.9196C40.6237 9.97983 46.6619 9.75129 47.9394 9.75129C50.3066 9.76843 52.5796 10.6757 54.3012 12.2907V9.0318C52.4541 7.69751 50.2313 6.97491 47.9479 6.96643C44.1325 6.96643 37.677 9.2688 37.677 17.9196C37.6982 20.1767 38.2835 22.3932 39.3803 24.3697C40.209 25.8164 41.4238 27.0073 42.8906 27.8109C44.3575 28.6146 46.0192 28.9996 47.6924 28.9236C50.0994 28.9537 52.4398 28.1383 54.3012 26.6212V23.3962C51.9507 25.25 50.6221 26.2403 47.6924 26.2403Z" fill="white"/>
<path d="M22.9946 24.2088C23.9025 20.5959 23.7488 16.8 22.5517 13.2712C21.3547 9.74252 19.1645 6.62903 16.241 4.30005C18.9061 2.77434 21.9289 1.97433 25.0045 1.98075C26.171 1.98231 27.3346 2.0957 28.4792 2.31934L28.9561 0.39787C23.9681 -0.617952 18.7781 0.328763 14.4781 3.03883C11.3361 1.04808 7.68622 -0.00644094 3.96018 3.33533e-05C2.63001 -0.000125893 1.30323 0.133162 0 0.39787L0.485441 2.31934C1.62998 2.09528 2.79365 1.98189 3.96018 1.98075C7.03573 1.97433 10.0586 2.77434 12.7237 4.30005C10.3246 6.20111 8.40835 8.63572 7.12942 11.4077C5.85049 14.1797 5.24462 17.2115 5.36063 20.2589C5.47664 23.3063 6.31129 26.2839 7.79732 28.9519C9.28335 31.6199 11.3792 33.9037 13.916 35.6191L14.4781 36L15.0401 35.6191C19.0122 32.9163 21.8438 28.8545 22.9946 24.2088ZM13.4816 32.7496C10.8848 30.5145 9.00051 27.575 8.05959 24.2913C7.11867 21.0076 7.16203 17.5224 8.18436 14.2629C9.20125 15.9258 10.4613 17.4292 11.9231 18.7237C12.4262 19.1745 12.828 19.7256 13.1024 20.3411C13.3768 20.9566 13.5176 21.6226 13.5157 22.2958L13.4816 32.7496ZM14.4781 18.2751C13.1432 17.287 11.9561 16.1157 10.9522 14.7962C10.3085 13.9539 9.95994 12.9252 9.95994 11.8674C9.95994 10.8096 10.3085 9.78097 10.9522 8.93866C11.9562 7.6143 13.1432 6.4374 14.4781 5.44277C15.8392 6.45004 17.0468 7.64745 18.0635 8.99791C18.6882 9.82574 19.0259 10.8326 19.0259 11.8674C19.0259 12.9022 18.6882 13.9091 18.0635 14.7369C17.0446 16.0805 15.8372 17.272 14.4781 18.2751ZM15.4745 32.7496V22.2958C15.4703 21.6255 15.6068 20.9616 15.8751 20.3466C16.1435 19.7316 16.5378 19.1789 17.033 18.7237C18.4851 17.4291 19.7339 15.9254 20.7377 14.2629C21.7678 17.5218 21.8151 21.0092 20.8737 24.2945C19.9323 27.5798 18.0435 30.5191 15.4404 32.7496H15.4745Z" fill="white"/>
</svg>
