<svg width="256" height="36" viewBox="0 0 256 36" fill="none" xmlns="http://www.w3.org/2000/svg">
<path d="M72.8161 20.5267C72.8161 25.5039 69.5628 28.932 64.9043 28.932C60.2458 28.932 56.9669 25.5039 56.9669 20.5267C56.9669 15.5495 60.2202 12.1129 64.9043 12.1129C69.5884 12.1129 72.8161 15.541 72.8161 20.5267ZM59.8285 20.5267C59.8285 24.1157 61.8128 26.6043 64.9384 26.6043C68.0639 26.6043 69.9887 24.1157 69.9887 20.5267C69.9887 16.9377 68.0299 14.4406 64.9384 14.4406C61.8469 14.4406 59.8285 16.9292 59.8285 20.5267Z" fill="#242A35"/>
<path d="M115.731 15.2363C115.042 15.0301 114.329 14.919 113.61 14.9061C111.464 14.9061 109.863 16.7514 109.863 19.9849V28.4834H107.069V12.5614H109.701V14.9569C110.026 14.175 110.576 13.5057 111.282 13.0329C111.988 12.5602 112.819 12.3049 113.67 12.299C114.376 12.2698 115.079 12.4061 115.722 12.6969L115.731 15.2363Z" fill="#242A35"/>
<path d="M132.491 20.5267C132.491 25.5039 129.238 28.932 124.579 28.932C119.921 28.932 116.676 25.5039 116.676 20.5267C116.676 15.5495 119.929 12.1129 124.614 12.1129C129.298 12.1129 132.491 15.541 132.491 20.5267ZM119.504 20.5267C119.504 24.1157 121.488 26.6043 124.614 26.6043C127.739 26.6043 129.655 24.1157 129.655 20.5267C129.655 16.9377 127.705 14.4406 124.614 14.4406C121.522 14.4406 119.504 16.9292 119.504 20.5267Z" fill="#242A35"/>
<path d="M142.166 12.1129C139.796 12.1788 137.515 13.0209 135.676 14.5083V17.3863C136.988 16.3282 139.449 14.3898 142.226 14.3898C143.296 14.3302 144.347 14.6956 145.147 15.4056C145.39 15.6473 145.581 15.9352 145.709 16.252C145.817 16.4877 145.869 16.7448 145.861 17.0036C145.854 17.2624 145.787 17.5161 145.665 17.745C145.543 17.9739 145.37 18.172 145.159 18.3241C144.948 18.4761 144.705 18.5781 144.448 18.6221L142.422 18.9861C138.419 19.6971 134.97 20.7975 134.97 24.5135C134.97 27.6877 137.576 28.9828 140.701 28.9828C143.103 28.9828 145.062 28.1364 146.135 26.4942V28.4665H148.69V17.4202C148.673 14.3137 146.39 12.1129 142.166 12.1129ZM146.007 20.3151V22.5497C146.007 25.1737 143.759 26.7228 140.991 26.7228C138.938 26.7228 137.703 25.9186 137.703 24.4627C137.692 24.149 137.747 23.8364 137.865 23.5449C137.982 23.2535 138.159 22.9895 138.385 22.7698C139.977 21.1615 144.687 21.1615 146.007 20.3151Z" fill="#242A35"/>
<path d="M180.695 17.581V28.4834H177.901V18.4529C177.901 15.8288 176.598 14.4745 174.222 14.4745C173.674 14.4676 173.13 14.5704 172.622 14.7768C172.114 14.9832 171.654 15.289 171.268 15.676C170.882 16.063 170.578 16.5233 170.374 17.0294C170.171 17.5355 170.072 18.0772 170.083 18.6222V28.4834H167.29V7.38116H170.083V14.3899C170.654 13.6495 171.397 13.0574 172.248 12.6639C173.1 12.2704 174.034 12.0872 174.972 12.1298C178.847 12.1129 180.695 14.6015 180.695 17.581Z" fill="#242A35"/>
<path d="M195.539 25.961H204.907V28.5004H192.541V7.38116H195.539V25.961Z" fill="#242A35"/>
<path d="M239.97 20.5267C239.97 25.6055 236.972 28.8982 232.909 28.8982C231.827 28.9685 230.746 28.7439 229.782 28.2487C228.819 27.7535 228.01 27.0064 227.442 26.0879V28.4834H224.836V7.38116H227.638V14.7962C228.212 13.9323 229.004 13.233 229.935 12.7682C230.866 12.3033 231.903 12.0891 232.943 12.1467C237.04 12.1467 239.97 15.4733 239.97 20.5267ZM237.108 20.5267C237.108 16.9292 235.285 14.5084 232.484 14.5084C229.682 14.5084 227.501 16.7346 227.501 20.5267C227.501 24.3188 229.622 26.5112 232.484 26.5112C235.345 26.5112 237.108 24.1157 237.108 20.5267Z" fill="#242A35"/>
<path d="M87.2006 25.0129C85.9617 25.8415 84.5189 26.3185 83.0275 26.3927C78.8288 26.3927 78.1134 22.0503 78.1134 20.4674C78.1134 19.621 78.403 14.593 83.1467 14.593C84.5593 14.6348 85.9445 14.9906 87.2006 15.6341V13.0948C85.9188 12.3865 84.477 12.0137 83.0104 12.0113C78.0794 12.0113 75.2349 16.015 75.2349 20.2981C75.2349 27.7385 80.8302 28.8813 82.8997 28.8813C84.4154 28.8954 85.9069 28.5036 87.2176 27.747L87.2006 25.0129Z" fill="#242A35"/>
<path d="M163.798 25.0129C162.559 25.8415 161.116 26.3185 159.625 26.3927C155.435 26.3927 154.719 22.0503 154.719 20.4674C154.719 19.621 155.009 14.593 159.744 14.593C161.157 14.6348 162.542 14.9906 163.798 15.6341V13.0948C162.519 12.3869 161.08 12.014 159.616 12.0113C154.677 12.0113 151.832 16.015 151.832 20.2981C151.832 27.7385 157.428 28.8813 159.497 28.8813C161.013 28.8954 162.504 28.5036 163.815 27.747L163.798 25.0129Z" fill="#242A35"/>
<path d="M101.73 28.4834H104.855L98.4253 18.9184C100.04 16.9938 101.376 14.8541 102.394 12.5615H99.3451C97.9103 15.4004 95.9281 17.9313 93.5113 20.0104V7.38116H90.7008V28.4834H93.5027V23.5062C94.6122 22.6987 95.6598 21.8103 96.6368 20.8484L101.73 28.4834Z" fill="#242A35"/>
<path d="M214.616 12.1129C212.249 12.1794 209.97 13.0215 208.135 14.5083V17.3863C209.506 16.3282 211.925 14.3898 214.735 14.3898C215.264 14.3596 215.794 14.4338 216.294 14.6081C216.794 14.7824 217.254 15.0535 217.648 15.4056C217.892 15.6477 218.086 15.9353 218.218 16.252C218.327 16.4901 218.378 16.7497 218.368 17.0107C218.359 17.2717 218.288 17.5269 218.163 17.7564C218.038 17.9859 217.861 18.1835 217.646 18.3337C217.431 18.4839 217.184 18.5826 216.924 18.6221L214.897 18.9861C210.894 19.6971 207.445 20.7975 207.445 24.5135C207.445 27.6877 210.051 28.9828 213.168 28.9828C215.578 28.9828 217.537 28.1364 218.61 26.4942V28.4665H221.165V17.4202C221.148 14.3137 218.874 12.1129 214.616 12.1129ZM218.474 20.3151V22.5497C218.474 25.1737 216.234 26.7228 213.466 26.7228C211.414 26.7228 210.179 25.9186 210.179 24.4627C210.168 24.1498 210.223 23.838 210.338 23.5468C210.454 23.2556 210.629 22.9911 210.852 22.7698C212.453 21.1615 217.171 21.1615 218.474 20.3151Z" fill="#242A35"/>
<path d="M249.44 19.0961C246.51 18.4528 245.182 18.1312 245.182 16.7345C245.182 15.3378 246.476 14.3898 248.682 14.3898C250.615 14.3898 251.91 14.8977 254.524 16.8276V13.8904C252.835 12.659 250.775 12.0325 248.682 12.1128C244.977 12.1128 242.473 14.0512 242.473 16.8361C242.473 19.4855 244.032 20.4251 248.299 21.3308C250.854 21.881 252.787 22.3635 252.787 24.1156C252.787 25.6985 251.228 26.655 249.142 26.655C247.055 26.655 245.854 26.0371 242.72 23.7009V26.7651C244.515 28.2248 246.781 28.9886 249.099 28.9151C252.974 28.9151 255.512 26.909 255.512 23.9633C255.495 21.1615 253.604 20.0357 249.44 19.0961Z" fill="#242A35"/>
<path d="M47.6924 26.2403C40.513 26.2403 40.6237 18.783 40.6237 17.9196C40.6237 9.97977 46.6619 9.75123 47.9394 9.75123C50.3066 9.76837 52.5796 10.6756 54.3012 12.2906V9.03173C52.4541 7.69745 50.2313 6.97485 47.9479 6.96637C44.1325 6.96637 37.677 9.26874 37.677 17.9196C37.6982 20.1766 38.2835 22.3931 39.3803 24.3696C40.209 25.8163 41.4238 27.0073 42.8906 27.8109C44.3575 28.6145 46.0192 28.9996 47.6924 28.9236C50.0994 28.9536 52.4398 28.1383 54.3012 26.6212V23.3962C51.9507 25.2499 50.6221 26.2403 47.6924 26.2403Z" fill="#242A35"/>
<path d="M22.9946 24.2087C23.9025 20.5958 23.7488 16.7999 22.5517 13.2712C21.3547 9.74246 19.1645 6.62897 16.241 4.29999C18.9061 2.77428 21.9289 1.97427 25.0045 1.98069C26.171 1.98225 27.3346 2.09563 28.4792 2.31927L28.9561 0.397809C23.9681 -0.618013 18.7781 0.328701 14.4781 3.03877C11.3361 1.04802 7.68622 -0.00650197 3.96018 -2.76818e-05C2.63001 -0.000186928 1.30323 0.133101 0 0.397809L0.485441 2.31927C1.62998 2.09522 2.79365 1.98183 3.96018 1.98069C7.03573 1.97427 10.0586 2.77428 12.7237 4.29999C10.3246 6.20104 8.40835 8.63566 7.12942 11.4076C5.85049 14.1796 5.24462 17.2115 5.36063 20.2588C5.47664 23.3062 6.31129 26.2839 7.79732 28.9519C9.28335 31.6199 11.3792 33.9036 13.916 35.619L14.4781 35.9999L15.0401 35.619C19.0122 32.9162 21.8438 28.8544 22.9946 24.2087ZM13.4816 32.7495C10.8848 30.5144 9.00051 27.5749 8.05959 24.2912C7.11867 21.0076 7.16203 17.5224 8.18436 14.2628C9.20125 15.9258 10.4613 17.4291 11.9231 18.7237C12.4262 19.1745 12.828 19.7255 13.1024 20.341C13.3768 20.9565 13.5176 21.6225 13.5157 22.2957L13.4816 32.7495ZM14.4781 18.2751C13.1432 17.2869 11.9561 16.1156 10.9522 14.7961C10.3085 13.9538 9.95994 12.9251 9.95994 11.8673C9.95994 10.8096 10.3085 9.78091 10.9522 8.9386C11.9562 7.61424 13.1432 6.43734 14.4781 5.44271C15.8392 6.44998 17.0468 7.64739 18.0635 8.99785C18.6882 9.82568 19.0259 10.8326 19.0259 11.8673C19.0259 12.9021 18.6882 13.909 18.0635 14.7369C17.0446 16.0805 15.8372 17.272 14.4781 18.2751ZM15.4745 32.7495V22.2957C15.4703 21.6254 15.6068 20.9615 15.8751 20.3465C16.1435 19.7315 16.5378 19.1788 17.033 18.7237C18.4851 17.429 19.7339 15.9253 20.7377 14.2628C21.7678 17.5217 21.8151 21.0091 20.8737 24.2944C19.9323 27.5797 18.0435 30.5191 15.4404 32.7495H15.4745Z" fill="#242A35"/>
</svg>
