<svg width="218" height="36" viewBox="0 0 218 36" fill="none" xmlns="http://www.w3.org/2000/svg">
<g clip-path="url(#clip0_6367_1943)">
<path d="M22.5435 23.9678C23.4304 20.3906 23.2782 16.6333 22.105 13.1402C20.9317 9.647 18.7865 6.56394 15.9229 4.25534C18.5378 2.74631 21.5026 1.95505 24.519 1.9612C25.6626 1.96058 26.8035 2.07313 27.9252 2.29723L28.397 0.394102C27.1209 0.132112 25.8216 8.7917e-05 24.519 3.57098e-05C20.8631 -0.00704256 17.2818 1.03829 14.2001 3.01204C11.118 1.0386 7.53691 -0.00670023 3.88104 3.57098e-05C2.57744 9.03323e-05 1.27718 0.132114 0 0.394102L0.471812 2.29723C1.59445 2.07297 2.73638 1.96042 3.88104 1.9612C6.89803 1.95488 9.86358 2.74501 12.4802 4.25229C10.14 6.13861 8.27233 8.54833 7.02635 11.2888C5.78036 14.0292 5.19074 17.0242 5.30464 20.0343C5.41853 23.0443 6.23277 25.9858 7.68225 28.6235C9.1317 31.2612 11.1762 33.5219 13.6521 35.2247L14.2061 35.6065L14.7571 35.2247C18.6369 32.553 21.4086 28.549 22.5496 23.9678H22.5435ZM13.2229 32.4234C10.6731 30.2135 8.82278 27.3037 7.8996 24.0521C6.97642 20.8006 7.02066 17.349 8.02689 14.1223C9.01307 15.7667 10.2368 17.2554 11.6584 18.5395C12.1516 18.9856 12.5457 19.5308 12.8153 20.1397C13.0848 20.7486 13.2237 21.4075 13.2229 22.0739V32.4234ZM14.2001 18.0965C12.89 17.1214 11.7239 15.9655 10.736 14.663C10.1035 13.8287 9.76105 12.8092 9.76105 11.761C9.76105 10.7126 10.1035 9.69321 10.736 8.85885C11.723 7.54563 12.8915 6.38024 14.2061 5.39782C15.5354 6.39344 16.7153 7.57549 17.7097 8.90774C18.3215 9.72821 18.6522 10.7255 18.6522 11.7502C18.6522 12.775 18.3215 13.7723 17.7097 14.5927C16.7115 15.922 15.5297 17.1017 14.2001 18.0965ZM15.1741 32.4234V22.0739C15.1737 21.4074 15.313 20.7481 15.5831 20.1392C15.8532 19.5303 16.2479 18.9852 16.7417 18.5395C18.163 17.256 19.3859 15.7672 20.3701 14.1223C20.8948 15.8029 21.1607 17.5542 21.1585 19.3154C21.1559 21.8031 20.62 24.2612 19.5875 26.5229C18.555 28.7846 17.0498 30.7969 15.1741 32.4234Z" fill="url(#paint0_linear_6367_1943)"/>
<path d="M71.3824 20.0968C71.3824 25.0299 68.1945 28.4246 63.6276 28.4246C59.0608 28.4246 55.8405 25.0299 55.8405 20.0968C55.8405 15.1637 59.0324 11.769 63.6276 11.769C68.2229 11.769 71.3824 15.1637 71.3824 20.0968ZM58.6512 20.0968C58.6512 23.6542 60.598 26.1167 63.6276 26.1167C66.6573 26.1167 68.5757 23.6746 68.5757 20.0968C68.5757 16.519 66.6614 14.0769 63.6276 14.0769C60.5939 14.0769 58.6674 16.5435 58.6674 20.0968H58.6512Z" fill="white"/>
<path d="M113.478 14.8382C112.804 14.6306 112.105 14.5196 111.401 14.5085C109.292 14.5085 107.731 16.336 107.731 19.5352V27.9769H104.985V12.2169H107.572V14.5899C108.306 13.0513 109.6 11.9605 111.466 11.9605C112.163 11.9294 112.857 12.0618 113.494 12.3471L113.478 14.8382Z" fill="white"/>
<path d="M129.912 20.0968C129.912 25.0299 126.72 28.4246 122.157 28.4246C117.595 28.4246 114.374 25.0137 114.374 20.0968C114.374 15.1799 117.566 11.769 122.161 11.769C126.756 11.769 129.912 15.1637 129.912 20.0968ZM117.181 20.0968C117.181 23.6542 119.127 26.1167 122.157 26.1167C125.187 26.1167 127.105 23.6746 127.105 20.0968C127.105 16.519 125.191 14.0769 122.157 14.0769C119.123 14.0769 117.181 16.5435 117.181 20.0968Z" fill="white"/>
<path d="M139.398 11.769C137.009 11.769 134.913 12.7297 133.043 14.1379V16.9871C134.329 15.9411 136.742 14.0403 139.496 14.0403C140.016 14.01 140.536 14.0833 141.028 14.2558C141.519 14.4284 141.971 14.6968 142.359 15.0456C142.596 15.2783 142.786 15.5547 142.919 15.8596C143.02 16.097 143.067 16.3542 143.055 16.612C143.043 16.8698 142.974 17.1217 142.851 17.3489C142.73 17.5761 142.559 17.7728 142.35 17.9244C142.142 18.076 141.903 18.1785 141.649 18.2245L139.658 18.5868C135.732 19.2909 132.357 20.3817 132.357 24.0653C132.357 27.2034 134.913 28.4856 137.975 28.4856C140.335 28.4856 142.25 27.6186 143.304 26.019V27.9727H145.795V17.0238C145.782 13.9466 143.548 11.769 139.398 11.769ZM143.17 19.8648V22.0831C143.17 24.6758 140.964 26.2348 138.251 26.2348C136.222 26.2348 135.026 25.4207 135.026 23.992C135.016 23.6804 135.07 23.3699 135.184 23.08C135.298 22.7901 135.471 22.5269 135.691 22.3069C137.257 20.7155 141.873 20.744 143.17 19.8648Z" fill="white"/>
<path d="M177.182 17.1824V27.9767H174.441V18.0493C174.441 15.4526 173.164 14.1094 170.835 14.1094C170.298 14.1027 169.766 14.2045 169.269 14.4084C168.771 14.6124 168.321 14.9145 167.942 15.2969C167.564 15.6792 167.266 16.1339 167.066 16.634C166.867 17.1341 166.769 17.6694 166.779 18.2081V27.9767H164.038V7.10449H166.779V14.0239C167.834 12.5505 169.557 11.7812 171.569 11.7812C175.365 11.769 177.182 14.2355 177.182 17.1824Z" fill="white"/>
<path d="M85.5048 24.5459C85.5048 24.5459 83.5827 25.9053 81.4124 25.9053C77.2998 25.9053 76.5982 21.6071 76.5982 20.0563C76.5982 19.2057 76.882 14.2481 81.526 14.2481C82.9117 14.289 84.2709 14.6395 85.5048 15.2739V12.8032C84.2492 12.104 82.8364 11.7371 81.4003 11.7368C76.5576 11.7368 73.7712 15.6972 73.7712 19.9343C73.7712 27.3055 79.2588 28.433 81.2705 28.433C82.7566 28.4492 84.2192 28.0625 85.5048 27.3136V24.5459Z" fill="white"/>
<path d="M160.611 24.5459C160.611 24.5459 158.692 25.9053 156.518 25.9053C152.405 25.9053 151.704 21.6071 151.704 20.0563C151.704 19.2057 151.992 14.2481 156.636 14.2481C158.02 14.2897 159.378 14.6401 160.611 15.2739V12.8032C159.354 12.1035 157.942 11.7366 156.506 11.7368C151.668 11.7368 148.877 15.6972 148.877 19.9343C148.877 27.3055 154.368 28.433 156.376 28.433C157.864 28.4431 159.327 28.0493 160.611 27.2933V24.5459Z" fill="white"/>
<path d="M99.7728 27.9767H102.835L96.5285 18.5012C98.1085 16.5965 99.4166 14.48 100.414 12.2127H97.4244C96.0171 15.0235 94.0725 17.5294 91.7024 19.588V7.10449H88.9561V27.9767H91.7024V23.0477C92.7911 22.2499 93.8189 21.3709 94.7766 20.4182L99.7728 27.9767Z" fill="white"/>
<path d="M46.7717 25.7546C39.747 25.7546 39.8403 18.3753 39.8403 17.5246C39.8403 9.66089 45.7658 9.43702 47.015 9.43702C49.4485 9.43702 51.4318 10.3447 53.2488 11.9281V8.73284C51.4364 7.41241 49.2547 6.70017 47.015 6.69775C43.2755 6.69775 36.9485 8.98116 36.9485 17.549C36.9638 19.78 37.5325 21.972 38.6033 23.9271C40.3067 26.8821 43.1336 28.441 46.7717 28.441C49.6879 28.441 51.448 27.4804 53.261 26.1576V22.9421C50.8964 24.7778 49.6351 25.7546 46.7717 25.7546Z" fill="white"/>
<path d="M189.159 7.10449H181.356V27.9767H189.159C194.837 27.9767 198.379 23.9756 198.379 17.5325C198.379 11.0893 194.846 7.10449 189.159 7.10449ZM195.405 17.5528C195.405 22.608 192.972 25.506 188.721 25.506H184.26V9.57511H188.721C192.907 9.57511 195.405 12.5505 195.405 17.5325V17.5528Z" fill="white"/>
<path d="M214.098 16.9382C214.993 16.5905 215.758 15.9735 216.289 15.1718C216.82 14.3701 217.091 13.4231 217.063 12.461C217.063 9.1396 214.707 7.10449 210.902 7.10449H201.721V27.9767H211.344C215.259 27.9767 217.786 25.6566 217.786 22.0667C217.797 19.6164 216.447 17.7644 214.098 16.9382ZM214.869 21.9202C214.869 24.2403 213.279 25.5834 210.505 25.5834H204.636V18.257H210.497C213.198 18.2366 214.869 19.649 214.869 21.9202ZM204.636 15.8352V9.48963H210.392C212.849 9.48963 214.204 10.5927 214.204 12.5912C214.204 14.5897 212.805 15.8474 210.359 15.8474L204.636 15.8352Z" fill="white"/>
</g>
<defs>
<linearGradient id="paint0_linear_6367_1943" x1="0" y1="10.0885" x2="28.397" y2="10.0885" gradientUnits="userSpaceOnUse">
<stop stop-color="#6933FF"/>
<stop offset="1" stop-color="#00FCED"/>
</linearGradient>
<clipPath id="clip0_6367_1943">
<rect width="217.714" height="36" fill="white"/>
</clipPath>
</defs>
</svg>
