<svg width="86" height="86" viewBox="0 0 86 86" fill="none" xmlns="http://www.w3.org/2000/svg">
<path d="M63.1473 57.8892C65.2774 49.2492 64.9119 40.1744 62.094 31.7374C59.2761 23.3003 54.1235 15.8538 47.2453 10.2779C53.526 6.63312 60.6472 4.72202 67.8923 4.73687C70.6392 4.73536 73.3796 5.00721 76.0736 5.54847L77.2069 0.95187C74.1417 0.31909 71.021 0.000212345 67.8923 8.62496e-05C59.1112 -0.0170098 50.5094 2.50776 43.1071 7.27496C35.7045 2.50852 27.1029 -0.016183 18.3219 8.62496e-05C15.1908 0.000218178 12.0677 0.319094 9 0.95187L10.1332 5.54847C12.8297 5.00682 15.5725 4.73497 18.3219 4.73687C25.5684 4.72161 32.6915 6.62998 38.9762 10.2705C33.3555 14.8265 28.8693 20.6468 25.8766 27.2657C22.8839 33.8845 21.4677 41.1184 21.7412 48.3885C22.0148 55.6586 23.9705 62.7632 27.452 69.134C30.9335 75.5048 35.8441 80.965 41.7911 85.0777L43.1217 86L44.4451 85.0777C53.764 78.6247 60.4214 68.954 63.1619 57.8892H63.1473ZM40.7602 78.312C34.6359 72.9744 30.1915 65.9464 27.9741 58.0928C25.7567 50.2392 25.863 41.9028 28.2798 34.1094C30.6485 38.0813 33.5879 41.6767 37.0022 44.7782C38.1868 45.8555 39.1336 47.1723 39.7811 48.643C40.4285 50.1137 40.7621 51.7054 40.7602 53.3147V78.312ZM43.1071 43.7084C39.9606 41.3531 37.1595 38.5612 34.7869 35.4153C33.2677 33.4002 32.4451 30.938 32.4451 28.406C32.4451 25.874 33.2677 23.4119 34.7869 21.3968C37.1576 18.2249 39.9641 15.4101 43.1217 13.0373C46.3145 15.442 49.1486 18.297 51.537 21.5148C53.0066 23.4965 53.8008 25.9051 53.8008 28.3802C53.8008 30.8553 53.0066 33.2639 51.537 35.2456C49.1394 38.456 46.3009 41.3056 43.1071 43.7084ZM45.4467 78.312V53.3147C45.4457 51.7049 45.7805 50.1128 46.4292 48.6421C47.0779 47.1714 48.0261 45.8549 49.212 44.7782C52.6257 41.6782 55.5629 38.0825 57.9271 34.1094C59.1874 38.1686 59.826 42.3984 59.8207 46.6522C59.8143 52.6609 58.5275 58.5979 56.0474 64.0604C53.5673 69.523 49.952 74.3834 45.4467 78.312Z" fill="url(#paint0_linear_6144_15880)"/>
<defs>
<linearGradient id="paint0_linear_6144_15880" x1="9" y1="24.3667" x2="77.2069" y2="24.3667" gradientUnits="userSpaceOnUse">
<stop stop-color="#6933FF"/>
<stop offset="1" stop-color="#00FCED"/>
</linearGradient>
</defs>
</svg>
