<svg width="86" height="86" viewBox="0 0 86 86" fill="none" xmlns="http://www.w3.org/2000/svg">
<path d="M63.7769 57.8892C65.9318 49.2492 65.5621 40.1744 62.7114 31.7374C59.8607 23.3003 54.6482 15.8538 47.69 10.2779C54.0438 6.63312 61.2478 4.72202 68.5771 4.73687C71.356 4.73536 74.1282 5.00721 76.8536 5.54847L78 0.95187C74.8992 0.31909 71.7422 0.000212345 68.5771 8.62496e-05C59.6938 -0.0170098 50.992 2.50776 43.5037 7.27496C36.015 2.50852 27.3134 -0.016183 18.4303 8.62496e-05C15.2628 0.000218178 12.1033 0.319094 9 0.95187L10.1464 5.54847C12.8742 5.00682 15.649 4.73497 18.4303 4.73687C25.7611 4.72161 32.9669 6.62998 39.3248 10.2705C33.6387 14.8265 29.1004 20.6468 26.0729 27.2657C23.0453 33.8845 21.6126 41.1184 21.8894 48.3885C22.1661 55.6586 24.1446 62.7632 27.6666 69.134C31.1886 75.5048 36.1563 80.965 42.1724 85.0777L43.5185 86L44.8572 85.0777C54.2845 78.6247 61.0193 68.954 63.7917 57.8892H63.7769ZM41.1295 78.312C34.9339 72.9744 30.4379 65.9464 28.1947 58.0928C25.9515 50.2392 26.059 41.9028 28.504 34.1094C30.9002 38.0813 33.8739 41.6767 37.3278 44.7782C38.5262 45.8555 39.484 47.1723 40.139 48.643C40.7939 50.1137 41.1314 51.7054 41.1295 53.3147V78.312ZM43.5037 43.7084C40.3206 41.3531 37.4869 38.5612 35.0867 35.4153C33.5499 33.4002 32.7177 30.938 32.7177 28.406C32.7177 25.874 33.5499 23.4119 35.0867 21.3968C37.485 18.2249 40.3241 15.4101 43.5185 13.0373C46.7484 15.442 49.6154 18.297 52.0316 21.5148C53.5183 23.4965 54.3217 25.9051 54.3217 28.3802C54.3217 30.8553 53.5183 33.2639 52.0316 35.2456C49.6061 38.456 46.7346 41.3056 43.5037 43.7084ZM45.8705 78.312V53.3147C45.8695 51.7049 46.2081 50.1128 46.8644 48.6421C47.5207 47.1714 48.4798 45.8549 49.6796 44.7782C53.133 41.6782 56.1044 38.0825 58.496 34.1094C59.771 38.1686 60.417 42.3984 60.4116 46.6522C60.4052 52.6609 59.1034 58.5979 56.5944 64.0604C54.0855 69.523 50.4282 74.3834 45.8705 78.312Z" fill="#242A35"/>
</svg>
