<svg width="255" height="36" viewBox="0 0 255 36" fill="none" xmlns="http://www.w3.org/2000/svg">
<g clip-path="url(#clip0_6367_1866)">
<path d="M23.1394 24.2305C23.5295 22.688 23.728 21.1043 23.7306 19.5144C23.7319 16.5921 23.0693 13.7069 21.7917 11.0715C20.5141 8.43614 18.6542 6.11799 16.3491 4.28809C19.0337 2.77035 22.0743 1.9757 25.1669 1.98357C26.341 1.98353 27.5122 2.09655 28.6641 2.32102L29.1429 0.411554C27.8321 0.142071 26.4973 0.00419608 25.1586 3.22063e-05C21.4075 -0.00672565 17.7331 1.05015 14.5714 3.04529C11.4096 1.05015 7.73533 -0.00672565 3.98424 3.22063e-05C2.64551 0.00377348 1.3106 0.141653 0 0.411554L0.487102 2.32102C1.63896 2.09655 2.81021 1.98353 3.98424 1.98357C7.07944 1.97874 10.1216 2.77769 12.8062 4.30043C10.4033 6.20692 8.48534 8.643 7.20582 11.4136C5.9263 14.1843 5.32078 17.2126 5.43772 20.256C5.55467 23.2995 6.39083 26.2736 7.87928 28.9404C9.3677 31.607 11.4671 33.8923 14.0094 35.6132L14.5756 36L15.1418 35.6132C19.1254 32.9125 21.9705 28.8633 23.1394 24.2305ZM13.5639 32.7818C10.9446 30.5457 9.04425 27.601 8.0967 24.3106C7.1491 21.0204 7.19571 17.5279 8.23077 14.2634C9.24884 15.9271 10.5116 17.432 11.9777 18.7284C12.4836 19.1802 12.8877 19.732 13.1638 20.348C13.4399 20.9641 13.5819 21.6307 13.5806 22.3045L13.5639 32.7818ZM14.5714 18.2963C13.2271 17.3075 12.0315 16.1354 11.0202 14.8148C10.3738 13.9716 10.024 12.9427 10.024 11.8848C10.024 10.8269 10.3738 9.798 11.0202 8.95475C12.03 7.62688 13.2257 6.44772 14.5714 5.4527C15.9405 6.45969 17.1549 7.6573 18.1768 9.00825C18.8078 9.83914 19.1489 10.85 19.1489 11.8889C19.1489 12.9279 18.8078 13.9387 18.1768 14.7696C17.1516 16.1093 15.9375 17.297 14.5714 18.2963ZM15.5748 32.7818V22.321C15.5734 21.6472 15.7154 20.9806 15.9916 20.3644C16.2677 19.7484 16.6718 19.1966 17.1776 18.7448C18.6437 17.4484 19.9065 15.9436 20.9245 14.2798C21.9596 17.5444 22.0062 21.0368 21.0586 24.3271C20.111 27.6175 18.2106 30.5621 15.5914 32.7983L15.5748 32.7818Z" fill="white"/>
<path d="M71.1848 20.7945C71.1848 25.6102 68.0058 28.9239 63.4516 28.9239C58.8973 28.9239 55.6859 25.6102 55.6859 20.7945C55.6859 15.9788 58.8691 12.665 63.4516 12.665C68.0341 12.665 71.1848 15.9788 71.1848 20.7945ZM58.4889 20.7945C58.4889 24.2672 60.4303 26.671 63.4516 26.671C66.4729 26.671 68.386 24.287 68.386 20.7945C68.386 17.3019 66.4769 14.9179 63.4516 14.9179C60.4262 14.9179 58.505 17.3258 58.505 20.7945H58.4889Z" fill="white"/>
<path d="M113.164 15.6609C112.492 15.4583 111.795 15.35 111.093 15.339C108.99 15.339 107.432 17.1231 107.432 20.2461V28.4868H104.695V13.1021H107.274V15.4186C108.006 13.9166 109.297 12.8517 111.158 12.8517C111.853 12.8214 112.545 12.9506 113.179 13.2292L113.164 15.6609Z" fill="white"/>
<path d="M129.553 20.7945C129.553 25.6102 126.369 28.9239 121.819 28.9239C117.269 28.9239 114.057 25.5943 114.057 20.7945C114.057 15.9947 117.241 12.665 121.823 12.665C126.406 12.665 129.553 15.9788 129.553 20.7945ZM116.857 20.7945C116.857 24.2672 118.797 26.671 121.819 26.671C124.841 26.671 126.753 24.287 126.753 20.7945C126.753 17.3019 124.845 14.9179 121.819 14.9179C118.794 14.9179 116.857 17.3258 116.857 20.7945Z" fill="white"/>
<path d="M139.013 12.665C136.63 12.665 134.539 13.6028 132.675 14.9775V17.7589C133.957 16.7377 136.364 14.8821 139.11 14.8821C139.628 14.8526 140.147 14.9242 140.637 15.0926C141.127 15.261 141.578 15.5231 141.965 15.8636C142.201 16.0907 142.391 16.3605 142.523 16.6582C142.624 16.8899 142.671 17.1409 142.659 17.3927C142.647 17.6444 142.578 17.8902 142.456 18.112C142.335 18.3338 142.164 18.5259 141.956 18.6738C141.749 18.8218 141.51 18.9219 141.257 18.9667L139.271 19.3204C135.356 20.0078 131.991 21.0726 131.991 24.6685C131.991 27.7319 134.539 28.9835 137.593 28.9835C139.947 28.9835 141.856 28.1372 142.908 26.5757V28.4829H145.391V17.7946C145.379 14.7908 143.151 12.665 139.013 12.665ZM142.774 20.568V22.7335C142.774 25.2645 140.574 26.7863 137.868 26.7863C135.845 26.7863 134.652 25.9916 134.652 24.5969C134.642 24.2927 134.696 23.9897 134.81 23.7067C134.924 23.4237 135.096 23.1668 135.315 22.952C136.877 21.3984 141.48 21.4262 142.774 20.568Z" fill="white"/>
<path d="M176.692 17.9496V28.4868H173.958V18.7959C173.958 16.2608 172.684 14.9497 170.362 14.9497C169.827 14.9432 169.296 15.0424 168.8 15.2416C168.304 15.4407 167.855 15.7357 167.477 16.1089C167.1 16.4821 166.803 16.926 166.604 17.4142C166.405 17.9024 166.307 18.425 166.317 18.9508V28.4868H163.584V8.11157H166.317V14.8662C167.369 13.4279 169.088 12.6769 171.094 12.6769C174.88 12.665 176.692 15.0728 176.692 17.9496Z" fill="white"/>
<path d="M85.2681 25.1374C85.2681 25.1374 83.3513 26.4645 81.1871 26.4645C77.0858 26.4645 76.3861 22.2687 76.3861 20.7548C76.3861 19.9244 76.6692 15.0849 81.3003 15.0849C82.6822 15.1248 84.0376 15.4669 85.2681 16.0861V13.6743C84.016 12.9918 82.6071 12.6336 81.175 12.6333C76.3457 12.6333 73.567 16.4993 73.567 20.6357C73.567 27.8314 79.0394 28.932 81.0455 28.932C82.5275 28.9478 83.9861 28.5703 85.2681 27.8393V25.1374Z" fill="white"/>
<path d="M160.166 25.1374C160.166 25.1374 158.253 26.4646 156.085 26.4646C151.983 26.4646 151.284 22.2687 151.284 20.7548C151.284 19.9244 151.571 15.0849 156.202 15.0849C157.583 15.1254 158.937 15.4675 160.166 16.0861V13.6743C158.913 12.9913 157.505 12.6331 156.073 12.6333C151.248 12.6333 148.465 16.4993 148.465 20.6357C148.465 27.8314 153.941 28.932 155.943 28.932C157.427 28.9418 158.886 28.5574 160.166 27.8194V25.1374Z" fill="white"/>
<path d="M99.4966 28.4868H102.551L96.2612 19.2369C97.8369 17.3776 99.1413 15.3114 100.136 13.0981H97.1547C95.7512 15.8421 93.812 18.2883 91.4484 20.2978V8.11157H88.7097V28.4868H91.4484V23.6751C92.5341 22.8963 93.5591 22.0383 94.5141 21.1083L99.4966 28.4868Z" fill="white"/>
<path d="M46.6422 26.3175C39.637 26.3175 39.73 19.1139 39.73 18.2834C39.73 10.6069 45.6391 10.3884 46.8849 10.3884C49.3116 10.3884 51.2895 11.2745 53.1014 12.8201V9.70105C51.294 8.412 49.1184 7.71671 46.8849 7.71436C43.1558 7.71436 36.8462 9.94337 36.8462 18.3073C36.8614 20.4851 37.4285 22.625 38.4964 24.5335C40.1951 27.4181 43.0142 28.9399 46.6422 28.9399C49.5503 28.9399 51.3057 28.0022 53.1136 26.7108V23.5719C50.7556 25.3639 49.4977 26.3175 46.6422 26.3175Z" fill="white"/>
<path d="M221.356 20.7945C221.356 25.6102 218.173 28.9239 213.623 28.9239C209.073 28.9239 205.87 25.5943 205.87 20.7945C205.87 15.9947 209.053 12.665 213.635 12.665C218.218 12.665 221.356 15.9788 221.356 20.7945ZM208.66 20.7945C208.66 24.2672 210.602 26.671 213.623 26.671C216.644 26.671 218.558 24.287 218.558 20.7945C218.558 17.3019 216.649 14.9179 213.623 14.9179C210.598 14.9179 208.66 17.3258 208.66 20.7945Z" fill="white"/>
<path d="M190.654 26.3175C183.628 26.3175 183.738 19.1139 183.738 18.2834C183.738 10.6069 189.646 10.3884 190.893 10.3884C193.319 10.3884 195.297 11.2745 197.113 12.8201V9.70105C195.304 8.41267 193.127 7.71749 190.893 7.71436C187.163 7.71436 180.854 9.94337 180.854 18.3073C180.871 20.4848 181.438 22.6242 182.504 24.5335C184.203 27.4181 187.022 28.9399 190.654 28.9399C193.558 28.9399 195.314 28.0022 197.126 26.7108V23.5719C194.763 25.3639 193.505 26.3175 190.654 26.3175Z" fill="white"/>
<path d="M203.261 8.09155H200.522V28.4827H203.261V8.09155Z" fill="white"/>
<path d="M234.331 26.7863V28.475H237.066V13.1658H234.331V22.7017C234.342 23.2276 234.245 23.7501 234.045 24.2384C233.846 24.7265 233.549 25.1705 233.172 25.5437C232.795 25.9169 232.345 26.2119 231.849 26.411C231.354 26.6101 230.822 26.7093 230.287 26.7029C227.965 26.7029 226.692 25.3917 226.692 22.8567V13.1658H223.957V23.703C223.957 26.5797 225.769 28.9876 229.555 28.9876C231.561 28.9876 233.28 28.2366 234.331 26.7863Z" fill="white"/>
<path d="M251.759 8.11157V15.1841C250.68 13.6226 248.993 12.7166 246.636 12.7166C242.627 12.7166 239.667 15.9351 239.667 20.8143C239.667 25.6936 242.562 28.9119 246.575 28.9119C249.054 28.9119 250.838 27.8789 251.922 26.1307V28.5147H254.498V8.11157H251.759ZM246.987 26.6312C244.216 26.6312 242.465 24.2831 242.465 20.8143C242.465 17.3456 244.294 15.0093 246.987 15.0093C249.819 15.0093 251.841 17.135 251.841 20.7944C251.841 24.4539 249.819 26.6114 246.987 26.6114V26.6312Z" fill="white"/>
</g>
<defs>
<clipPath id="clip0_6367_1866">
<rect width="254.571" height="36" fill="white"/>
</clipPath>
</defs>
</svg>
