<svg width="256" height="36" viewBox="0 0 256 36" fill="none" xmlns="http://www.w3.org/2000/svg">
<path d="M23.0139 24.2327C23.9193 20.6159 23.7639 16.8172 22.5662 13.2854C21.3685 9.75363 19.1786 6.63647 16.2552 4.30237C18.9246 2.77666 21.9513 1.97666 25.0307 1.98288C26.1982 1.98224 27.3629 2.09604 28.5079 2.32261L28.9896 0.398457C27.6868 0.133573 26.3604 8.88887e-05 25.0307 3.61045e-05C21.2985 -0.00712038 17.6425 1.04976 14.4963 3.04533C11.3501 1.05008 7.69418 -0.00677427 3.96202 3.61045e-05C2.63123 9.13303e-05 1.30384 0.133574 0 0.398457L0.481658 2.32261C1.62771 2.09588 2.79348 1.98208 3.96202 1.98288C7.04198 1.97649 10.0694 2.77534 12.7406 4.29928C10.3517 6.20645 8.44495 8.64283 7.17297 11.4135C5.90099 14.1842 5.29906 17.2123 5.41533 20.2556C5.5316 23.2989 6.36284 26.273 7.84256 28.9398C9.32228 31.6067 11.4094 33.8923 13.937 35.6139L14.5026 36L15.065 35.6139C19.0258 32.9127 21.8553 28.8645 23.0201 24.2327H23.0139ZM13.4988 32.7817C10.8959 30.5474 9.00691 27.6055 8.06445 24.3179C7.122 21.0304 7.16717 17.5407 8.1944 14.2783C9.20114 15.941 10.4505 17.4461 11.9016 18.7444C12.4051 19.1953 12.8075 19.7466 13.0827 20.3622C13.3579 20.9778 13.4997 21.6441 13.4988 22.3178V32.7817ZM14.4963 18.2965C13.159 17.3106 11.9685 16.1419 10.96 14.825C10.3144 13.9815 9.96473 12.9508 9.96473 11.8909C9.96473 10.831 10.3144 9.80032 10.96 8.95679C11.9676 7.62902 13.1605 6.45074 14.5026 5.45748C15.8596 6.4641 17.0641 7.6592 18.0793 9.0062C18.7039 9.83574 19.0414 10.844 19.0414 11.8801C19.0414 12.9162 18.7039 13.9244 18.0793 14.754C17.0602 16.0979 15.8538 17.2907 14.4963 18.2965ZM15.4907 32.7817V22.3178C15.4903 21.6439 15.6326 20.9775 15.9083 20.3618C16.184 19.7462 16.587 19.1951 17.0911 18.7444C18.542 17.4467 19.7904 15.9415 20.7952 14.2783C21.3309 15.9776 21.6023 17.7482 21.6 19.5288C21.5973 22.0441 21.0504 24.5293 19.9963 26.816C18.9422 29.1027 17.4056 31.1372 15.4907 32.7817Z" fill="url(#paint0_linear_6144_15958)"/>
<path d="M72.8161 20.5267C72.8161 25.5039 69.5628 28.9321 64.9043 28.9321C60.2458 28.9321 56.9669 25.5039 56.9669 20.5267C56.9669 15.5495 60.2202 12.1129 64.9043 12.1129C69.5884 12.1129 72.8161 15.5411 72.8161 20.5267ZM59.8285 20.5267C59.8285 24.1157 61.8128 26.6043 64.9384 26.6043C68.0639 26.6043 69.9887 24.1157 69.9887 20.5267C69.9887 16.9377 68.0299 14.4407 64.9384 14.4407C61.8469 14.4407 59.8285 16.9293 59.8285 20.5267Z" fill="white"/>
<path d="M115.731 15.2363C115.042 15.0301 114.329 14.919 113.61 14.9061C111.464 14.9061 109.863 16.7514 109.863 19.9849V28.4834H107.069V12.5614H109.701V14.9569C110.026 14.175 110.576 13.5057 111.282 13.0329C111.988 12.5602 112.819 12.3049 113.67 12.299C114.376 12.2698 115.079 12.4061 115.722 12.6969L115.731 15.2363Z" fill="white"/>
<path d="M132.491 20.5267C132.491 25.5039 129.238 28.9321 124.579 28.9321C119.921 28.9321 116.676 25.5039 116.676 20.5267C116.676 15.5495 119.929 12.1129 124.614 12.1129C129.298 12.1129 132.491 15.5411 132.491 20.5267ZM119.504 20.5267C119.504 24.1157 121.488 26.6043 124.614 26.6043C127.739 26.6043 129.655 24.1157 129.655 20.5267C129.655 16.9377 127.705 14.4407 124.614 14.4407C121.522 14.4407 119.504 16.9293 119.504 20.5267Z" fill="white"/>
<path d="M142.166 12.1129C139.796 12.1788 137.515 13.021 135.676 14.5084V17.3864C136.988 16.3283 139.449 14.3899 142.226 14.3899C143.296 14.3303 144.347 14.6956 145.147 15.4056C145.389 15.6474 145.581 15.9353 145.709 16.2521C145.817 16.4877 145.869 16.7449 145.861 17.0037C145.854 17.2625 145.786 17.5161 145.665 17.745C145.543 17.974 145.37 18.1721 145.159 18.3241C144.948 18.4762 144.705 18.5782 144.448 18.6222L142.421 18.9862C138.419 19.6972 134.969 20.7976 134.969 24.5136C134.969 27.6878 137.576 28.9829 140.701 28.9829C143.103 28.9829 145.062 28.1364 146.135 26.4943V28.4665H148.69V17.4202C148.673 14.3137 146.39 12.1129 142.166 12.1129ZM146.007 20.3151V22.5498C146.007 25.1738 143.759 26.7228 140.991 26.7228C138.938 26.7228 137.703 25.9187 137.703 24.4628C137.692 24.149 137.747 23.8365 137.865 23.545C137.982 23.2535 138.159 22.9895 138.385 22.7699C139.977 21.1616 144.687 21.1616 146.007 20.3151Z" fill="white"/>
<path d="M180.695 17.581V28.4834H177.901V18.4528C177.901 15.8288 176.598 14.4744 174.222 14.4744C173.674 14.4675 173.13 14.5703 172.622 14.7767C172.114 14.9831 171.654 15.289 171.268 15.6759C170.882 16.0629 170.578 16.5232 170.374 17.0294C170.171 17.5355 170.072 18.0772 170.083 18.6221V28.4834H167.29V7.3811H170.083V14.3898C170.654 13.6495 171.397 13.0574 172.248 12.6638C173.1 12.2703 174.034 12.0871 174.972 12.1298C178.847 12.1128 180.695 14.6014 180.695 17.581Z" fill="white"/>
<path d="M195.539 25.9609H204.907V28.5003H192.541V7.3811H195.539V25.9609Z" fill="white"/>
<path d="M239.97 20.5266C239.97 25.6054 236.972 28.8981 232.909 28.8981C231.827 28.9684 230.746 28.7438 229.782 28.2486C228.819 27.7534 228.01 27.0064 227.442 26.0879V28.4834H224.836V7.3811H227.638V14.7961C228.212 13.9322 229.004 13.233 229.935 12.7681C230.866 12.3033 231.903 12.089 232.943 12.1467C237.04 12.1467 239.97 15.4733 239.97 20.5266ZM237.108 20.5266C237.108 16.9292 235.285 14.5083 232.484 14.5083C229.682 14.5083 227.501 16.7345 227.501 20.5266C227.501 24.3188 229.622 26.5111 232.484 26.5111C235.345 26.5111 237.108 24.1156 237.108 20.5266Z" fill="white"/>
<path d="M87.2004 25.0129C85.9615 25.8414 84.5187 26.3185 83.0273 26.3926C78.8287 26.3926 78.1133 22.0503 78.1133 20.4674C78.1133 19.6209 78.4029 14.5929 83.1466 14.5929C84.5591 14.6347 85.9443 14.9905 87.2004 15.6341V13.0947C85.9187 12.3865 84.4768 12.0136 83.0103 12.0112C78.0793 12.0112 75.2347 16.015 75.2347 20.2981C75.2347 27.7385 80.8301 28.8812 82.8996 28.8812C84.4153 28.8953 85.9068 28.5035 87.2175 27.7469L87.2004 25.0129Z" fill="white"/>
<path d="M163.798 25.0129C162.559 25.8414 161.116 26.3185 159.625 26.3926C155.435 26.3926 154.719 22.0503 154.719 20.4674C154.719 19.6209 155.009 14.5929 159.744 14.5929C161.157 14.6347 162.542 14.9905 163.798 15.6341V13.0947C162.519 12.3868 161.08 12.014 159.616 12.0112C154.677 12.0112 151.832 16.015 151.832 20.2981C151.832 27.7385 157.428 28.8812 159.497 28.8812C161.013 28.8953 162.504 28.5035 163.815 27.7469L163.798 25.0129Z" fill="white"/>
<path d="M101.73 28.4834H104.855L98.4253 18.9184C100.04 16.9938 101.376 14.8541 102.394 12.5614H99.3451C97.9103 15.4003 95.9281 17.9313 93.5113 20.0103V7.3811H90.7008V28.4834H93.5027V23.5062C94.6122 22.6986 95.6598 21.8102 96.6368 20.8483L101.73 28.4834Z" fill="white"/>
<path d="M214.616 12.1129C212.249 12.1794 209.97 13.0216 208.135 14.5084V17.3864C209.506 16.3283 211.925 14.3899 214.735 14.3899C215.264 14.3596 215.794 14.4338 216.294 14.6082C216.794 14.7825 217.254 15.0536 217.648 15.4056C217.892 15.6478 218.086 15.9354 218.218 16.2521C218.327 16.4901 218.378 16.7498 218.368 17.0108C218.359 17.2717 218.288 17.527 218.163 17.7565C218.038 17.986 217.861 18.1836 217.646 18.3338C217.431 18.4839 217.184 18.5827 216.924 18.6222L214.897 18.9862C210.894 19.6972 207.445 20.7976 207.445 24.5136C207.445 27.6878 210.051 28.9829 213.168 28.9829C215.578 28.9829 217.537 28.1364 218.61 26.4943V28.4665H221.165V17.4202C221.148 14.3137 218.874 12.1129 214.616 12.1129ZM218.474 20.3151V22.5498C218.474 25.1738 216.234 26.7228 213.466 26.7228C211.414 26.7228 210.179 25.9187 210.179 24.4628C210.168 24.1498 210.223 23.8381 210.338 23.5469C210.454 23.2557 210.629 22.9912 210.852 22.7699C212.453 21.1616 217.171 21.1616 218.474 20.3151Z" fill="white"/>
<path d="M249.44 19.096C246.51 18.4527 245.182 18.131 245.182 16.7344C245.182 15.3377 246.476 14.3897 248.682 14.3897C250.615 14.3897 251.91 14.8976 254.524 16.8275V13.8903C252.835 12.6589 250.775 12.0323 248.682 12.1127C244.977 12.1127 242.473 14.0511 242.473 16.836C242.473 19.4854 244.032 20.425 248.299 21.3307C250.854 21.8809 252.787 22.3634 252.787 24.1155C252.787 25.6984 251.228 26.6549 249.142 26.6549C247.055 26.6549 245.854 26.037 242.72 23.7008V26.765C244.515 28.2247 246.781 28.9885 249.099 28.915C252.974 28.915 255.512 26.9088 255.512 23.9632C255.495 21.1614 253.604 20.0356 249.44 19.096Z" fill="white"/>
<path d="M47.6924 26.2402C40.513 26.2402 40.6237 18.7829 40.6237 17.9195C40.6237 9.97971 46.6619 9.75117 47.9394 9.75117C50.3066 9.76831 52.5796 10.6756 54.3012 12.2906V9.03168C52.4541 7.69739 50.2313 6.97479 47.9479 6.96631C44.1325 6.96631 37.677 9.26868 37.677 17.9195C37.6982 20.1766 38.2835 22.393 39.3803 24.3696C40.209 25.8163 41.4238 27.0072 42.8906 27.8108C44.3575 28.6145 46.0192 28.9995 47.6924 28.9235C50.0994 28.9536 52.4398 28.1382 54.3012 26.6211V23.3961C51.9507 25.2499 50.6221 26.2402 47.6924 26.2402Z" fill="white"/>
<defs>
<linearGradient id="paint0_linear_6144_15958" x1="0" y1="10.2" x2="28.9896" y2="10.2" gradientUnits="userSpaceOnUse">
<stop stop-color="#6933FF"/>
<stop offset="1" stop-color="#00FCED"/>
</linearGradient>
</defs>
</svg>
