<svg width="255" height="36" viewBox="0 0 255 36" fill="none" xmlns="http://www.w3.org/2000/svg">
<path d="M22.4811 23.9678C23.3655 20.3906 23.2138 16.6333 22.0438 13.1402C20.8738 9.647 18.7345 6.56394 15.8789 4.25534C18.4865 2.74631 21.4431 1.95505 24.4512 1.9612C25.5916 1.96058 26.7293 2.07313 27.8479 2.29723L28.3184 0.394102C27.0458 0.132112 25.7501 8.7917e-05 24.4512 3.57098e-05C20.8053 -0.00704256 17.234 1.03829 14.1607 3.01204C11.0873 1.0386 7.51605 -0.00670023 3.87029 3.57098e-05C2.57031 9.03323e-05 1.27365 0.132114 0 0.394102L0.470506 2.29723C1.59003 2.07297 2.72881 1.96042 3.87029 1.9612C6.87894 1.95488 9.83627 2.74501 12.4456 4.25229C10.112 6.13861 8.24943 8.54833 7.0069 11.2888C5.76436 14.0292 5.17637 17.0242 5.28995 20.0343C5.40353 23.0443 6.21552 25.9858 7.66099 28.6235C9.10642 31.2612 11.1452 33.5219 13.6143 35.2247L14.1668 35.6065L14.7162 35.2247C18.5853 32.553 21.3493 28.549 22.4871 23.9678H22.4811ZM13.1863 32.4234C10.6436 30.2135 8.79835 27.3037 7.87774 24.0521C6.9571 20.8006 7.00123 17.349 8.00467 14.1223C8.98812 15.7667 10.2085 17.2554 11.6261 18.5395C12.1179 18.9856 12.511 19.5308 12.7798 20.1397C13.0486 20.7486 13.1871 21.4075 13.1863 22.0739V32.4234ZM14.1607 18.0965C12.8544 17.1214 11.6914 15.9655 10.7063 14.663C10.0755 13.8287 9.73403 12.8092 9.73403 11.761C9.73403 10.7126 10.0755 9.69321 10.7063 8.85885C11.6906 7.54563 12.8558 6.38024 14.1668 5.39782C15.4924 6.39344 16.669 7.57549 17.6607 8.90774C18.2708 9.72821 18.6005 10.7255 18.6005 11.7502C18.6005 12.775 18.2708 13.7723 17.6607 14.5927C16.6652 15.922 15.4868 17.1017 14.1607 18.0965ZM15.1321 32.4234V22.0739C15.1317 21.4074 15.2706 20.7481 15.54 20.1392C15.8093 19.5303 16.203 18.9852 16.6954 18.5395C18.1127 17.256 19.3322 15.7672 20.3137 14.1223C20.837 15.8029 21.1021 17.5542 21.0999 19.3154C21.0973 21.8031 20.563 24.2612 19.5333 26.5229C18.5036 28.7846 17.0026 30.7969 15.1321 32.4234Z" fill="url(#paint0_linear_6367_1861)"/>
<path d="M71.1848 20.097C71.1848 25.0302 68.0057 28.4248 63.4515 28.4248C58.8973 28.4248 55.6859 25.0302 55.6859 20.097C55.6859 15.1639 58.8691 11.7693 63.4515 11.7693C68.034 11.7693 71.1848 15.1639 71.1848 20.097ZM58.4889 20.097C58.4889 23.6545 60.4303 26.117 63.4515 26.117C66.4728 26.117 68.3859 23.6748 68.3859 20.097C68.3859 16.5193 66.4769 14.0771 63.4515 14.0771C60.4262 14.0771 58.505 16.5437 58.505 20.097H58.4889Z" fill="#190F33"/>
<path d="M113.164 14.8382C112.492 14.6306 111.795 14.5196 111.093 14.5085C108.99 14.5085 107.432 16.336 107.432 19.5352V27.9769H104.695V12.2169H107.274V14.5899C108.007 13.0513 109.297 11.9605 111.158 11.9605C111.853 11.9294 112.545 12.0618 113.179 12.3471L113.164 14.8382Z" fill="#190F33"/>
<path d="M129.553 20.097C129.553 25.0302 126.369 28.4248 121.819 28.4248C117.269 28.4248 114.057 25.0139 114.057 20.097C114.057 15.1802 117.241 11.7693 121.823 11.7693C126.406 11.7693 129.553 15.1639 129.553 20.097ZM116.857 20.097C116.857 23.6545 118.797 26.117 121.819 26.117C124.841 26.117 126.753 23.6748 126.753 20.097C126.753 16.5193 124.845 14.0771 121.819 14.0771C118.793 14.0771 116.857 16.5437 116.857 20.097Z" fill="#190F33"/>
<path d="M139.013 11.7693C136.63 11.7693 134.539 12.7299 132.675 14.1382V16.9874C133.957 15.9414 136.364 14.0406 139.11 14.0406C139.628 14.0102 140.147 14.0835 140.637 14.2561C141.127 14.4286 141.578 14.697 141.965 15.0459C142.201 15.2785 142.391 15.555 142.523 15.8599C142.624 16.0972 142.671 16.3544 142.659 16.6122C142.647 16.8701 142.578 17.1219 142.456 17.3491C142.335 17.5763 142.164 17.7731 141.956 17.9246C141.749 18.0762 141.51 18.1788 141.257 18.2248L139.271 18.587C135.356 19.2911 131.991 20.382 131.991 24.0655C131.991 27.2037 134.539 28.4858 137.593 28.4858C139.947 28.4858 141.856 27.6188 142.908 26.0193V27.973H145.391V17.024C145.379 13.9469 143.151 11.7693 139.013 11.7693ZM142.774 19.865V22.0834C142.774 24.676 140.574 26.235 137.868 26.235C135.845 26.235 134.652 25.4209 134.652 23.9923C134.642 23.6806 134.696 23.3702 134.81 23.0802C134.924 22.7904 135.096 22.5272 135.315 22.3072C136.877 20.7157 141.48 20.7443 142.774 19.865Z" fill="#190F33"/>
<path d="M176.692 17.1827V27.977H173.958V18.0496C173.958 15.4528 172.683 14.1096 170.362 14.1096C169.827 14.103 169.296 14.2047 168.8 14.4087C168.304 14.6127 167.855 14.9147 167.477 15.2971C167.1 15.6794 166.803 16.1341 166.604 16.6342C166.405 17.1344 166.307 17.6697 166.317 18.2083V27.977H163.584V7.10474H166.317V14.0241C167.369 12.5507 169.088 11.7814 171.094 11.7814C174.88 11.7693 176.692 14.2358 176.692 17.1827Z" fill="#190F33"/>
<path d="M85.2681 24.5459C85.2681 24.5459 83.3513 25.9053 81.187 25.9053C77.0858 25.9053 76.3861 21.6071 76.3861 20.0563C76.3861 19.2057 76.6692 14.2481 81.3003 14.2481C82.6822 14.289 84.0376 14.6395 85.2681 15.2739V12.8032C84.016 12.104 82.607 11.7371 81.1749 11.7368C76.3457 11.7368 73.567 15.6972 73.567 19.9343C73.567 27.3055 79.0394 28.433 81.0455 28.433C82.5274 28.4492 83.9861 28.0625 85.2681 27.3136V24.5459Z" fill="#190F33"/>
<path d="M160.166 24.5459C160.166 24.5459 158.253 25.9053 156.085 25.9053C151.983 25.9053 151.284 21.6071 151.284 20.0563C151.284 19.2057 151.571 14.2481 156.202 14.2481C157.583 14.2897 158.937 14.6401 160.166 15.2739V12.8032C158.913 12.1035 157.505 11.7366 156.073 11.7368C151.248 11.7368 148.465 15.6972 148.465 19.9343C148.465 27.3055 153.941 28.433 155.943 28.433C157.427 28.4431 158.886 28.0493 160.166 27.2933V24.5459Z" fill="#190F33"/>
<path d="M99.4967 27.977H102.551L96.2613 18.5014C97.837 16.5968 99.1414 14.4802 100.136 12.2129H97.1548C95.7513 15.0237 93.8121 17.5297 91.4486 19.5882V7.10474H88.7098V27.977H91.4486V23.0479C92.5342 22.2501 93.5592 21.3711 94.5142 20.4185L99.4967 27.977Z" fill="#190F33"/>
<path d="M46.6422 25.7546C39.637 25.7546 39.73 18.3753 39.73 17.5246C39.73 9.66089 45.6391 9.43702 46.8849 9.43702C49.3116 9.43702 51.2895 10.3447 53.1014 11.9281V8.73284C51.294 7.41241 49.1184 6.70017 46.8849 6.69775C43.1557 6.69775 36.8462 8.98116 36.8462 17.549C36.8614 19.78 37.4285 21.972 38.4964 23.9271C40.1951 26.8821 43.0142 28.441 46.6422 28.441C49.5503 28.441 51.3056 27.4804 53.1135 26.1576V22.9421C50.7555 24.7778 49.4977 25.7546 46.6422 25.7546Z" fill="#190F33"/>
<path d="M221.357 20.097C221.357 25.0302 218.174 28.4248 213.623 28.4248C209.073 28.4248 205.87 25.0139 205.87 20.097C205.87 15.1802 209.053 11.7693 213.635 11.7693C218.218 11.7693 221.357 15.1639 221.357 20.097ZM208.66 20.097C208.66 23.6545 210.602 26.117 213.623 26.117C216.644 26.117 218.558 23.6748 218.558 20.097C218.558 16.5193 216.649 14.0771 213.623 14.0771C210.598 14.0771 208.66 16.5437 208.66 20.097Z" fill="#190F33"/>
<path d="M190.654 25.7546C183.628 25.7546 183.737 18.3753 183.737 17.5246C183.737 9.66089 189.646 9.43702 190.893 9.43702C193.319 9.43702 195.297 10.3447 197.113 11.9281V8.73284C195.304 7.4131 193.127 6.70097 190.893 6.69775C187.163 6.69775 180.854 8.98116 180.854 17.549C180.871 19.7797 181.438 21.9713 182.504 23.9271C184.203 26.8821 187.022 28.441 190.654 28.441C193.558 28.441 195.314 27.4804 197.126 26.1576V22.9421C194.763 24.7778 193.505 25.7546 190.654 25.7546Z" fill="#190F33"/>
<path d="M203.261 7.08447H200.522V27.973H203.261V7.08447Z" fill="#190F33"/>
<path d="M234.331 26.2348V27.9647H237.066V12.282H234.331V22.0506C234.342 22.5893 234.245 23.1246 234.045 23.6247C233.846 24.1248 233.549 24.5795 233.172 24.9619C232.795 25.3442 232.345 25.6463 231.849 25.8503C231.354 26.0542 230.822 26.156 230.287 26.1493C227.965 26.1493 226.692 24.8061 226.692 22.2094V12.282H223.957V23.0763C223.957 26.0232 225.769 28.4897 229.555 28.4897C231.561 28.4897 233.28 27.7205 234.331 26.2348Z" fill="#190F33"/>
<path d="M251.759 7.10474V14.3498C250.68 12.7501 248.993 11.8222 246.636 11.8222C242.627 11.8222 239.667 15.119 239.667 20.1173C239.667 25.1156 242.562 28.4125 246.575 28.4125C249.054 28.4125 250.838 27.3542 251.922 25.5633V28.0054H254.498V7.10474H251.759ZM246.987 26.0762C244.216 26.0762 242.465 23.6706 242.465 20.1173C242.465 16.564 244.294 14.1707 246.987 14.1707C249.819 14.1707 251.84 16.3483 251.84 20.097C251.84 23.8457 249.819 26.0558 246.987 26.0558V26.0762Z" fill="#190F33"/>
<defs>
<linearGradient id="paint0_linear_6367_1861" x1="0" y1="10.0885" x2="28.3184" y2="10.0885" gradientUnits="userSpaceOnUse">
<stop stop-color="#0037A5"/>
<stop offset="0.503789" stop-color="#6933FF"/>
<stop offset="1" stop-color="#00FCED"/>
</linearGradient>
</defs>
</svg>
