<svg width="80" height="80" viewBox="0 0 80 80" fill="none" xmlns="http://www.w3.org/2000/svg">
<path d="M36.1 42.9998C33.9 40.9998 32 38.6998 30.4 36.0998L30.2 35.7998L30.1 36.0998C29.3 38.6998 28.9 41.4998 28.9 44.2998C28.9 52.1998 32.4 59.7998 38.4 64.9998L38.7 65.1998V48.5998C38.6 46.4998 37.7 44.3998 36.1 42.9998Z" fill="#242A35"/>
<path d="M43.9 42.9999C42.3 44.3999 41.4 46.4999 41.4 48.6999V65.2999L41.7 65.0999C47.7 59.8999 51.2 52.3999 51.2 44.3999C51.2 41.5999 50.8 38.8999 50 36.1999L49.9 35.8999L49.7 36.1999C48 38.6999 46.1 40.9999 43.9 42.9999Z" fill="#242A35"/>
<path d="M40 0C17.9 0 0 17.9 0 40C0 62.1 17.9 80 40 80C62.1 80 80 62.1 80 40C80 17.9 62.1 0 40 0ZM61.5 17.5C59.8 17.2 58 17 56.3 17C51.5 17 46.8 18.3 42.7 20.6L42.5 20.7L42.7 20.8C49.9 26.5 54 35.1 54 44.3C54 46.8 53.7 49.2 53.1 51.6C51.3 58.7 47 65 40.9 69.2L40 69.7L39.2 69.2C31 63.5 26.1 54.2 26.1 44.3C26.1 35.1 30.2 26.6 37.4 20.8L37.6 20.7L37.4 20.6C33.3 18.2 28.6 17 23.8 17C22 17 20.3 17.2 18.6 17.5L17.9 14.8C19.8 14.4 21.8 14.2 23.8 14.2C29.5 14.2 35.1 15.8 40 18.9L40.1 19L40.2 18.9C45 15.8 50.6 14.2 56.4 14.2C58.4 14.2 60.4 14.4 62.3 14.8L61.5 17.5Z" fill="#242A35"/>
<path d="M39.9999 22.2998C37.7999 23.8998 36 25.7998 34.4 27.7998C32.3 30.4998 32.3 34.2998 34.4 37.0998C36 39.1998 37.8 40.9998 39.9 42.4998L39.9999 42.5998L40.0999 42.4998C42.1999 40.8998 44.0999 39.0998 45.5999 36.9998C47.5999 34.2998 47.5999 30.5998 45.5999 27.8998C44.0999 25.7998 42.1999 23.8998 39.9999 22.2998Z" fill="#242A35"/>
</svg>
