<svg width="217" height="36" viewBox="0 0 217 36" fill="none" xmlns="http://www.w3.org/2000/svg">
<g clip-path="url(#clip0_6367_1900)">
<path d="M23.1394 24.2304C23.5295 22.688 23.728 21.1043 23.7306 19.5144C23.7319 16.5921 23.0693 13.7069 21.7917 11.0715C20.5141 8.43614 18.6541 6.11799 16.3491 4.28809C19.0337 2.77035 22.0743 1.9757 25.1669 1.98357C26.341 1.98353 27.5122 2.09654 28.6641 2.32102L29.1429 0.411554C27.8321 0.14207 26.4973 0.00419607 25.1586 3.22064e-05C21.4075 -0.00672565 17.7331 1.05015 14.5714 3.0453C11.4096 1.05015 7.73533 -0.00672565 3.98424 3.22064e-05C2.64551 0.00377348 1.3106 0.141652 0 0.411554L0.487102 2.32102C1.63896 2.09654 2.81021 1.98353 3.98424 1.98357C7.07943 1.97874 10.1216 2.77769 12.8062 4.30044C10.4033 6.20692 8.48533 8.64301 7.20582 11.4136C5.9263 14.1843 5.32078 17.2126 5.43772 20.256C5.55466 23.2995 6.39083 26.2736 7.87928 28.9404C9.3677 31.607 11.4671 33.8923 14.0094 35.6132L14.5756 36L15.1418 35.6132C19.1254 32.9125 21.9705 28.8632 23.1394 24.2304ZM13.5639 32.7818C10.9446 30.5456 9.04426 27.601 8.0967 24.3106C7.1491 21.0203 7.19571 17.5279 8.23077 14.2634C9.24884 15.9271 10.5116 17.432 11.9777 18.7284C12.4836 19.1801 12.8877 19.7319 13.1638 20.348C13.4399 20.9641 13.5819 21.6307 13.5806 22.3045L13.5639 32.7818ZM14.5714 18.2963C13.2271 17.3075 12.0315 16.1354 11.0202 14.8148C10.3738 13.9716 10.024 12.9427 10.024 11.8848C10.024 10.8269 10.3738 9.79792 11.0202 8.95476C12.03 7.62687 13.2257 6.44771 14.5714 5.4527C15.9405 6.45969 17.1549 7.65729 18.1768 9.00826C18.8078 9.83914 19.1489 10.85 19.1489 11.8889C19.1489 12.9278 18.8078 13.9387 18.1768 14.7695C17.1516 16.1093 15.9375 17.297 14.5714 18.2963ZM15.5748 32.7818V22.321C15.5734 21.6472 15.7154 20.9806 15.9916 20.3644C16.2677 19.7484 16.6718 19.1966 17.1776 18.7448C18.6437 17.4484 19.9065 15.9436 20.9245 14.2798C21.9596 17.5443 22.0062 21.0368 21.0586 24.3272C20.111 27.6175 18.2106 30.5621 15.5914 32.7984L15.5748 32.7818Z" fill="white"/>
<path d="M71.1024 20.7945C71.1024 25.6102 67.927 28.9239 63.3782 28.9239C58.8292 28.9239 55.6215 25.6102 55.6215 20.7945C55.6215 15.9788 58.8009 12.665 63.3782 12.665C67.9554 12.665 71.1024 15.9788 71.1024 20.7945ZM58.4212 20.7945C58.4212 24.2672 60.3603 26.6711 63.3782 26.6711C66.396 26.6711 68.3068 24.287 68.3068 20.7945C68.3068 17.3019 66.4 14.9179 63.3782 14.9179C60.3562 14.9179 58.4373 17.3258 58.4373 20.7945H58.4212Z" fill="white"/>
<path d="M113.033 15.6611C112.362 15.4585 111.666 15.3502 110.964 15.3393C108.864 15.3393 107.308 17.1233 107.308 20.2464V28.487H104.573V13.1023H107.15V15.4188C107.882 13.9168 109.17 12.852 111.029 12.852C111.723 12.8217 112.415 12.9509 113.049 13.2295L113.033 15.6611Z" fill="white"/>
<path d="M129.403 20.7945C129.403 25.6102 126.223 28.9239 121.678 28.9239C117.134 28.9239 113.925 25.5943 113.925 20.7945C113.925 15.9947 117.105 12.665 121.682 12.665C126.259 12.665 129.403 15.9788 129.403 20.7945ZM116.721 20.7945C116.721 24.2672 118.66 26.6711 121.678 26.6711C124.696 26.6711 126.607 24.287 126.607 20.7945C126.607 17.3019 124.7 14.9179 121.678 14.9179C118.656 14.9179 116.721 17.3258 116.721 20.7945Z" fill="white"/>
<path d="M138.852 12.665C136.472 12.665 134.384 13.6028 132.521 14.9775V17.7589C133.802 16.7377 136.206 14.8821 138.949 14.8821C139.467 14.8526 139.985 14.9242 140.475 15.0926C140.964 15.261 141.414 15.5231 141.801 15.8636C142.037 16.0907 142.226 16.3605 142.358 16.6582C142.459 16.8899 142.506 17.141 142.494 17.3927C142.482 17.6444 142.413 17.8902 142.291 18.112C142.17 18.3338 141.999 18.5259 141.792 18.6738C141.585 18.8218 141.346 18.9219 141.094 18.9668L139.11 19.3204C135.2 20.0078 131.838 21.0726 131.838 24.6685C131.838 27.7319 134.384 28.9836 137.434 28.9836C139.785 28.9836 141.692 28.1372 142.742 26.5757V28.4829H145.223V17.7947C145.21 14.7908 142.985 12.665 138.852 12.665ZM142.609 20.568V22.7335C142.609 25.2645 140.411 26.7863 137.708 26.7863C135.688 26.7863 134.497 25.9916 134.497 24.597C134.487 24.2927 134.54 23.9897 134.654 23.7067C134.768 23.4237 134.94 23.1668 135.159 22.952C136.719 21.3984 141.316 21.4262 142.609 20.568Z" fill="white"/>
<path d="M176.487 17.9498V28.4871H173.757V18.7961C173.757 16.2611 172.485 14.9499 170.165 14.9499C169.63 14.9434 169.1 15.0427 168.605 15.2419C168.109 15.441 167.661 15.7359 167.283 16.1091C166.907 16.4823 166.61 16.9262 166.411 17.4144C166.212 17.9026 166.115 18.4252 166.125 18.9511V28.4871H163.395V8.11182H166.125V14.8665C167.175 13.4282 168.892 12.6772 170.897 12.6772C174.677 12.6653 176.487 15.0731 176.487 17.9498Z" fill="white"/>
<path d="M85.1695 25.1374C85.1695 25.1374 83.2549 26.4645 81.0931 26.4645C76.9967 26.4645 76.2978 22.2687 76.2978 20.7548C76.2978 19.9244 76.5805 15.0849 81.2063 15.0849C82.5866 15.1248 83.9405 15.4669 85.1695 16.0861V13.6743C83.9189 12.9918 82.5116 12.6335 81.0811 12.6333C76.2574 12.6333 73.4819 16.4993 73.4819 20.6356C73.4819 27.8314 78.948 28.9319 80.9518 28.9319C82.4321 28.9478 83.8889 28.5703 85.1695 27.8393V25.1374Z" fill="white"/>
<path d="M159.981 25.1374C159.981 25.1374 158.07 26.4645 155.904 26.4645C151.808 26.4645 151.109 22.2687 151.109 20.7548C151.109 19.9244 151.396 15.0849 156.021 15.0849C157.401 15.1254 158.753 15.4674 159.981 16.0861V13.6743C158.73 12.9913 157.323 12.6331 155.893 12.6333C151.073 12.6333 148.293 16.4993 148.293 20.6356C148.293 27.8314 153.763 28.9319 155.763 28.9319C157.245 28.9418 158.702 28.5574 159.981 27.8194V25.1374Z" fill="white"/>
<path d="M99.3815 28.4871H102.432L96.1499 19.2371C97.7238 17.3778 99.0267 15.3117 100.021 13.0983H97.0424C95.6405 15.8423 93.7035 18.2885 91.3427 20.298V8.11182H88.6072V28.4871H91.3427V23.6753C92.4271 22.8966 93.4509 22.0386 94.4049 21.1086L99.3815 28.4871Z" fill="white"/>
<path d="M46.5883 26.3175C39.5912 26.3175 39.6841 19.1138 39.6841 18.2834C39.6841 10.607 45.5864 10.3884 46.8307 10.3884C49.2546 10.3884 51.2302 11.2744 53.04 12.8201V9.70102C51.2347 8.412 49.0616 7.71671 46.8307 7.71436C43.1059 7.71436 36.8036 9.94343 36.8036 18.3073C36.8188 20.4851 37.3853 22.6249 38.4519 24.5335C40.1487 27.4181 42.9645 28.9399 46.5883 28.9399C49.493 28.9399 51.2464 28.0022 53.0521 26.7109V23.5719C50.6969 25.3639 49.4405 26.3175 46.5883 26.3175Z" fill="white"/>
<path d="M188.418 8.11182H180.645V28.4871H188.418C194.073 28.4871 197.601 24.5813 197.601 18.2915C197.601 12.0017 194.081 8.11182 188.418 8.11182ZM194.639 18.3114C194.639 23.2463 192.215 26.0753 187.981 26.0753H183.537V10.5237H187.981C192.15 10.5237 194.639 13.4282 194.639 18.2915V18.3114Z" fill="white"/>
<path d="M213.259 17.7114C214.15 17.372 214.912 16.7697 215.441 15.9871C215.97 15.2044 216.239 14.28 216.212 13.3407C216.212 10.0985 213.865 8.11182 210.075 8.11182H200.93V28.4871H210.516C214.415 28.4871 216.932 26.2223 216.932 22.7178C216.943 20.3258 215.598 18.518 213.259 17.7114ZM214.026 22.5747C214.026 24.8396 212.443 26.1508 209.68 26.1508H203.834V18.9987H209.671C212.362 18.9789 214.026 20.3576 214.026 22.5747ZM203.834 16.6346V10.4402H209.567C212.015 10.4402 213.364 11.517 213.364 13.4679C213.364 15.4188 211.971 16.6465 209.534 16.6465L203.834 16.6346Z" fill="white"/>
</g>
<defs>
<clipPath id="clip0_6367_1900">
<rect width="216.857" height="36" fill="white"/>
</clipPath>
</defs>
</svg>
