<svg width="29" height="32" viewBox="0 0 29 32" fill="none" xmlns="http://www.w3.org/2000/svg">
<path d="M5.48655 10.9439C4.40369 10.9468 3.34431 10.6283 2.44253 10.0288C1.54075 9.4293 0.837129 8.57571 0.420731 7.5761C0.00433263 6.57649 -0.106114 5.4758 0.103372 4.41339C0.312858 3.35097 0.832857 2.3746 1.59754 1.60787C2.36222 0.841144 3.3372 0.318539 4.39906 0.106217C5.46091 -0.106105 6.56189 0.00140264 7.56261 0.41513C8.56333 0.828857 9.41879 1.5302 10.0207 2.43037C10.6226 3.33055 10.9439 4.38907 10.9439 5.47194C10.9439 6.92067 10.3694 8.31028 9.34638 9.33605C8.32335 10.3618 6.93528 10.94 5.48655 10.9439V10.9439ZM5.48655 1.45917C4.6929 1.45917 3.91707 1.69452 3.25718 2.13545C2.59728 2.57637 2.08295 3.20308 1.77924 3.93632C1.47552 4.66956 1.39605 5.47639 1.55089 6.25479C1.70572 7.0332 2.0879 7.7482 2.6491 8.3094C3.21029 8.87059 3.9253 9.25277 4.7037 9.40761C5.4821 9.56244 6.28894 9.48297 7.02217 9.17926C7.75541 8.87554 8.38212 8.36121 8.82305 7.70132C9.26398 7.04142 9.49932 6.26559 9.49932 5.47194C9.49164 4.41141 9.06595 3.39671 8.31465 2.64814C7.56335 1.89958 6.54711 1.47758 5.48655 1.47376V1.45917Z" fill="url(#paint0_linear)"/>
<path d="M5.48656 32.0002C4.40719 32.0002 3.35207 31.6801 2.45461 31.0805C1.55715 30.4808 0.857665 29.6285 0.44461 28.6313C0.0315547 27.6341 -0.0765194 26.5368 0.134054 25.4781C0.344628 24.4195 0.864392 23.4471 1.62762 22.6839C2.39084 21.9207 3.36325 21.4009 4.42188 21.1903C5.48051 20.9797 6.5778 21.0878 7.575 21.5009C8.57221 21.9139 9.42453 22.6134 10.0242 23.5109C10.6239 24.4083 10.9439 25.4635 10.9439 26.5428C10.9439 27.9902 10.369 29.3783 9.3455 30.4018C8.32205 31.4252 6.93394 32.0002 5.48656 32.0002V32.0002ZM5.48656 22.53C4.69291 22.53 3.91708 22.7654 3.25718 23.2063C2.59729 23.6473 2.08296 24.274 1.77924 25.0072C1.47553 25.7404 1.39606 26.5473 1.55089 27.3257C1.70573 28.1041 2.08791 28.8191 2.6491 29.3803C3.2103 29.9415 3.92531 30.3237 4.70371 30.4785C5.48211 30.6333 6.28894 30.5539 7.02218 30.2501C7.75542 29.9464 8.38213 29.4321 8.82306 28.7722C9.26398 28.1123 9.49933 27.3365 9.49933 26.5428C9.49548 25.4798 9.07148 24.4613 8.31977 23.7096C7.56806 22.9579 6.54963 22.5339 5.48656 22.53V22.53Z" fill="url(#paint1_linear)"/>
<path d="M26.9512 4.53783H15.4236C15.2016 4.50969 14.9975 4.40153 14.8495 4.23363C14.7016 4.06573 14.6199 3.84962 14.6199 3.62583C14.6199 3.40204 14.7016 3.18593 14.8495 3.01804C14.9975 2.85014 15.2016 2.74198 15.4236 2.71384H26.9512C27.0807 2.69743 27.2121 2.70877 27.3368 2.7471C27.4616 2.78543 27.5767 2.84987 27.6746 2.93614C27.7725 3.02241 27.8509 3.12853 27.9046 3.24745C27.9583 3.36636 27.9861 3.49535 27.9861 3.62583C27.9861 3.75631 27.9583 3.8853 27.9046 4.00422C27.8509 4.12313 27.7725 4.22926 27.6746 4.31552C27.5767 4.40179 27.4616 4.46624 27.3368 4.50456C27.2121 4.54289 27.0807 4.55423 26.9512 4.53783V4.53783Z" fill="#231F20"/>
<path d="M22.5736 7.45628H15.4236C15.2016 7.42814 14.9975 7.31998 14.8495 7.15209C14.7016 6.98419 14.6199 6.76808 14.6199 6.54429C14.6199 6.3205 14.7016 6.10439 14.8495 5.93649C14.9975 5.76859 15.2016 5.66044 15.4236 5.6323H22.5736C22.7031 5.61589 22.8345 5.62723 22.9593 5.66556C23.084 5.70389 23.1991 5.76833 23.297 5.8546C23.3949 5.94087 23.4733 6.04699 23.527 6.1659C23.5807 6.28482 23.6085 6.41381 23.6085 6.54429C23.6085 6.67477 23.5807 6.80376 23.527 6.92268C23.4733 7.04159 23.3949 7.14771 23.297 7.23398C23.1991 7.32025 23.084 7.38469 22.9593 7.42302C22.8345 7.46135 22.7031 7.47269 22.5736 7.45628V7.45628Z" fill="#231F20"/>
<path d="M14.6211 16.5036H5.4136C5.28416 16.5201 5.1527 16.5087 5.02797 16.4704C4.90325 16.4321 4.78811 16.3676 4.69022 16.2813C4.59232 16.1951 4.51392 16.089 4.46021 15.97C4.4065 15.8511 4.37872 15.7221 4.37872 15.5917C4.37872 15.4612 4.4065 15.3322 4.46021 15.2133C4.51392 15.0943 4.59232 14.9882 4.69022 14.902C4.78811 14.8157 4.90325 14.7512 5.02797 14.7129C5.1527 14.6746 5.28416 14.6633 5.4136 14.6797H14.6211C14.8431 14.7078 15.0472 14.816 15.1952 14.9839C15.3431 15.1518 15.4248 15.3679 15.4248 15.5917C15.4248 15.8154 15.3431 16.0315 15.1952 16.1994C15.0472 16.3673 14.8431 16.4755 14.6211 16.5036V16.5036Z" fill="#231F20"/>
<path d="M26.9512 26.426H15.4236C15.2016 26.3979 14.9975 26.2897 14.8495 26.1218C14.7016 25.9539 14.6199 25.7378 14.6199 25.514C14.6199 25.2902 14.7016 25.0741 14.8495 24.9062C14.9975 24.7383 15.2016 24.6302 15.4236 24.602H26.9512C27.0807 24.5856 27.2121 24.597 27.3368 24.6353C27.4616 24.6736 27.5767 24.7381 27.6746 24.8243C27.7725 24.9106 27.8509 25.0167 27.9046 25.1356C27.9583 25.2545 27.9861 25.3835 27.9861 25.514C27.9861 25.6445 27.9583 25.7735 27.9046 25.8924C27.8509 26.0113 27.7725 26.1174 27.6746 26.2037C27.5767 26.29 27.4616 26.3544 27.3368 26.3927C27.2121 26.4311 27.0807 26.4424 26.9512 26.426V26.426Z" fill="#231F20"/>
<path d="M22.5736 29.3445H15.4236C15.2016 29.3163 14.9975 29.2082 14.8495 29.0403C14.7016 28.8724 14.6199 28.6563 14.6199 28.4325C14.6199 28.2087 14.7016 27.9926 14.8495 27.8247C14.9975 27.6568 15.2016 27.5486 15.4236 27.5205H22.5736C22.7031 27.5041 22.8345 27.5154 22.9593 27.5537C23.084 27.5921 23.1991 27.6565 23.297 27.7428C23.3949 27.829 23.4733 27.9352 23.527 28.0541C23.5807 28.173 23.6085 28.302 23.6085 28.4325C23.6085 28.563 23.5807 28.6919 23.527 28.8109C23.4733 28.9298 23.3949 29.0359 23.297 29.1222C23.1991 29.2084 23.084 29.2729 22.9593 29.3112C22.8345 29.3495 22.7031 29.3609 22.5736 29.3445V29.3445Z" fill="#231F20"/>
<path d="M22.7779 20.8952C21.6986 20.8952 20.6435 20.5751 19.746 19.9755C18.8485 19.3758 18.149 18.5235 17.736 17.5263C17.3229 16.5291 17.2149 15.4318 17.4254 14.3732C17.636 13.3145 18.1558 12.3421 18.919 11.5789C19.6822 10.8157 20.6546 10.2959 21.7133 10.0853C22.7719 9.87476 23.8692 9.98283 24.8664 10.3959C25.8636 10.8089 26.7159 11.5084 27.3156 12.4059C27.9152 13.3033 28.2353 14.3585 28.2353 15.4378C28.2353 16.8852 27.6603 18.2733 26.6369 19.2968C25.6134 20.3202 24.2253 20.8952 22.7779 20.8952V20.8952ZM22.7779 11.4251C21.9843 11.4251 21.2085 11.6604 20.5486 12.1013C19.8887 12.5423 19.3743 13.169 19.0706 13.9022C18.7669 14.6355 18.6874 15.4423 18.8423 16.2207C18.9971 16.9991 19.3793 17.7141 19.9405 18.2753C20.5017 18.8365 21.2167 19.2187 21.9951 19.3735C22.7735 19.5283 23.5803 19.4489 24.3136 19.1452C25.0468 18.8414 25.6735 18.3271 26.1144 17.6672C26.5554 17.0073 26.7907 16.2315 26.7907 15.4378C26.7907 14.3736 26.3679 13.3529 25.6154 12.6004C24.8629 11.8478 23.8422 11.4251 22.7779 11.4251V11.4251Z" fill="url(#paint2_linear)"/>
<defs>
<linearGradient id="paint0_linear" x1="0.0291899" y1="0.0142501" x2="10.2435" y2="8.03979" gradientUnits="userSpaceOnUse">
<stop stop-color="#1BF8EC"/>
<stop offset="1" stop-color="#6933FF"/>
</linearGradient>
<linearGradient id="paint1_linear" x1="0.0291973" y1="20.4428" x2="10.2435" y2="32.1163" gradientUnits="userSpaceOnUse">
<stop stop-color="#1BF8EC"/>
<stop offset="1" stop-color="#6933FF"/>
</linearGradient>
<linearGradient id="paint2_linear" x1="17.5395" y1="10.2284" x2="28.4834" y2="17.5244" gradientUnits="userSpaceOnUse">
<stop stop-color="#1BF8EC"/>
<stop offset="1" stop-color="#6933FF"/>
</linearGradient>
</defs>
</svg>
