<svg width="48" height="48" viewBox="0 0 48 48" fill="none" xmlns="http://www.w3.org/2000/svg">
<path fill-rule="evenodd" clip-rule="evenodd" d="M40.1956 34.0749L35.9241 31.4426L32.3608 37.0036L28.2164 35.8714L24.5673 41.075L24.7544 42.713L44.5947 39.2976L43.4423 27.7156L40.1956 34.0749ZM21.6929 29.0813L24.8761 28.6724C25.3912 28.8886 25.7497 28.971 26.3673 29.1178C27.329 29.3519 28.4425 29.5766 30.0913 28.8001C30.4751 28.6225 31.2743 27.9397 31.5975 27.5503L44.6397 25.3398L45.9702 40.3843L23.6266 44.1466L21.6929 29.0813ZM45.9198 23.6604L44.6325 23.8895L42.1592 0.0152588L0.0166016 4.58082L5.20843 43.9443L10.1412 43.2755C9.74731 42.75 9.13393 42.1142 8.08645 41.3002C6.63365 40.1726 7.1475 38.2573 8.00431 37.0478C9.13813 35.0042 14.9799 32.4072 14.6489 29.1407C14.5302 27.9531 14.3282 26.407 13.1482 25.3477C13.1038 25.7874 13.1835 26.2109 13.1835 26.2109C13.1835 26.2109 12.6991 25.6334 12.4574 24.8457C12.2176 24.5438 12.0293 24.4474 11.7745 24.0441C11.5928 24.5107 11.6168 25.0519 11.6168 25.0519C11.6168 25.0519 11.2205 24.1769 11.1563 23.4385C10.9213 23.7691 10.8619 24.397 10.8619 24.397C10.8619 24.397 10.3469 23.0178 10.4644 22.275C10.2294 21.6286 9.53266 20.3457 9.72992 17.4299C11.016 18.2719 13.8473 18.0719 14.9505 16.5527C15.3169 16.0496 15.5675 14.676 14.7677 11.9697C14.2538 10.2343 12.9815 7.65011 12.4856 6.66977L12.4263 6.70955C12.6877 7.49942 13.2267 9.15534 13.4336 9.95809C14.0595 12.3932 14.2274 13.2408 13.9336 14.3634C13.6836 15.3393 13.084 15.9779 11.5641 16.6916C10.0441 17.4075 8.02709 15.6653 7.89938 15.569C6.4226 14.4699 5.28038 12.6767 5.15267 11.8056C5.02016 10.8522 5.74087 10.2796 6.10422 9.49986C5.58437 9.63879 5.00457 9.88527 5.00457 9.88527C5.00457 9.88527 5.6965 9.2164 6.54971 8.63772C6.90287 8.41925 7.11032 8.28032 7.48267 7.99126C6.94364 7.98286 6.50594 7.99742 6.50594 7.99742C6.50594 7.99742 7.40472 7.54367 8.33648 7.21316C7.65475 7.18515 7.0024 7.20868 7.0024 7.20868C7.0024 7.20868 9.00802 6.37063 10.5921 5.75554C11.6816 5.3382 12.7458 5.46144 13.3436 6.26924C14.1285 7.32744 14.9529 7.90219 16.7001 8.25847C17.7728 7.81424 18.099 7.58568 19.4468 7.24285C20.6334 6.02387 21.5652 5.8659 21.5652 5.8659C21.5652 5.8659 21.1029 6.26195 20.9794 6.88433C21.6521 6.38912 22.3896 5.97569 22.3896 5.97569C22.3896 5.97569 22.1042 6.30509 21.838 6.82831L21.8998 6.91402C22.6846 6.47427 23.6074 6.12751 23.6074 6.12751C23.6074 6.12751 23.3436 6.43897 23.0342 6.84231C23.626 6.83783 24.8263 6.86584 25.2922 6.91514C28.0425 6.97172 28.6133 4.17076 29.6686 3.81952C30.9901 3.37865 31.5807 3.112 33.8327 5.17854C35.7652 6.95267 37.275 10.1284 36.5255 10.8398C35.8971 11.4303 34.6572 10.6096 33.2829 9.00913C32.5568 8.16156 32.0076 7.15994 31.7504 5.88662C31.5333 4.81218 30.6885 4.18868 30.6885 4.18868C30.6885 4.18868 31.179 5.20711 31.179 6.10678C31.179 6.59807 31.2449 8.43493 32.0879 9.46569C32.0046 9.61638 31.9656 10.2113 31.8733 10.325C30.8924 9.21752 28.786 8.42485 28.4425 8.19125C29.6051 9.0814 32.2774 11.1261 33.3039 13.0856C34.2746 14.9388 33.7026 16.6373 34.1937 17.077C34.3334 17.2031 36.2815 19.4707 36.6562 20.6101C37.3098 22.596 36.6952 24.6827 35.8396 25.9773L33.4502 26.3252C33.1007 26.2345 32.865 26.1891 32.5514 26.0193C32.7241 25.7336 33.0677 25.0211 33.0713 24.8743L32.9364 24.653C32.1929 25.6373 30.9469 26.593 29.912 27.142C28.5576 27.859 26.9963 27.7487 25.9799 27.4546C23.0953 26.6232 20.3678 24.802 19.7101 24.3236C19.7101 24.3236 19.6897 24.7057 19.8138 24.7914C20.5411 25.5577 22.2073 26.9442 23.8178 27.9105L20.3846 28.2635L22.0077 40.0712C21.2882 40.1675 21.1761 40.2146 20.3882 40.3193C19.6939 38.0276 18.3658 36.5313 16.9142 35.6597C15.6341 34.8911 13.8683 34.718 12.178 35.0306L12.0695 35.1482C13.2447 35.0339 14.6322 35.193 16.0574 36.0361C17.4562 36.8624 18.5834 38.9967 18.9984 40.2818C19.5296 41.9243 19.8971 43.6811 18.4671 45.5431C17.4496 46.8669 14.4793 47.5985 12.0797 46.0159C12.7207 46.9789 13.5871 47.7665 14.7533 47.915C16.4849 48.1346 18.1283 47.8539 19.2598 46.7688C20.2257 45.8412 20.7378 43.9012 20.6028 41.8582L22.1312 41.6509L22.6828 45.3179L47.9842 42.4716L45.9198 23.6604ZM30.5266 13.7019C30.4559 13.8525 30.3449 13.9511 30.5116 14.4413L30.5218 14.4693L30.5482 14.5326L30.6178 14.6794C30.9182 15.253 31.2479 15.7942 31.7989 16.0703C31.9417 16.0479 32.0891 16.0328 32.242 16.0255C32.7595 16.0042 33.0863 16.081 33.2937 16.1852C33.3123 16.0888 33.3165 15.9477 33.3051 15.7398C33.2649 15.0133 33.4592 13.7775 31.9644 13.1271C31.4002 12.8823 30.6088 12.9579 30.3449 13.2632C30.3929 13.2688 30.4361 13.2783 30.4697 13.289C30.8684 13.4195 30.598 13.5478 30.5266 13.7019ZM34.7159 20.4813C34.5199 20.3805 33.6037 20.4202 32.9597 20.4919C31.733 20.6269 30.4085 21.0247 30.1183 21.2364C29.5907 21.6174 29.8305 22.2817 30.2202 22.5546C31.3133 23.3175 32.2714 23.829 33.2829 23.7046C33.9041 23.6284 34.4515 22.7097 34.8395 21.8762C35.1051 21.302 35.1051 20.6824 34.7159 20.4813ZM23.855 14.6015C24.201 14.2945 22.1318 13.8912 20.5261 14.9141C19.3419 15.6687 19.3041 17.2865 20.438 18.2036C20.5513 18.2943 20.6448 18.3587 20.7324 18.4114C21.0633 18.2657 21.4405 18.1184 21.8746 17.9868C22.6079 17.7644 23.2176 17.6495 23.7189 17.5885C23.9587 17.3381 24.2375 16.8972 24.168 16.0989C24.0733 15.0161 23.1949 15.188 23.855 14.6015Z" fill="#632CA6"/>
</svg>
