<svg width="28" height="28" viewBox="0 0 28 28" fill="none" xmlns="http://www.w3.org/2000/svg">
<path fill-rule="evenodd" clip-rule="evenodd" d="M0 5.5C0 4.11929 1.11929 3 2.5 3H25.5C26.8807 3 28 4.11929 28 5.5V21.5C28 22.8807 26.8807 24 25.5 24H2.5C1.11929 24 0 22.8807 0 21.5V5.5Z" fill="#F4F6F7"/>
<path fill-rule="evenodd" clip-rule="evenodd" d="M15.2017 19.1924C18.2331 19.207 21 16.6976 21 13.6448C21 10.3064 18.2331 7.99889 15.2017 8H12.5928C9.52505 7.99889 7 10.3071 7 13.6448C7 16.6983 9.52505 19.2071 12.5928 19.1924H15.2017Z" fill="url(#paint0_linear)"/>
<path fill-rule="evenodd" clip-rule="evenodd" d="M12.6036 8.46631C9.80035 8.4672 7.52882 10.7601 7.52816 13.59C7.52882 16.4194 9.80033 18.712 12.6036 18.7129C15.4074 18.712 17.6794 16.4194 17.6798 13.59C17.6794 10.7601 15.4074 8.4672 12.6036 8.46631ZM9.38641 13.5901C9.38905 12.2072 10.2449 11.028 11.4517 10.5594V16.62C10.2449 16.1517 9.38902 14.9731 9.38641 13.5901ZM13.755 16.6212V10.5592C14.9622 11.0266 15.8194 12.2065 15.8216 13.59C15.8194 14.9739 14.9622 16.1529 13.755 16.6212Z" fill="#F4F6F7"/>
<defs>
<linearGradient id="paint0_linear" x1="23.9053" y1="17.0505" x2="20.3148" y2="5.31696" gradientUnits="userSpaceOnUse">
<stop stop-color="#009BE0"/>
<stop offset="1" stop-color="#006BA8"/>
</linearGradient>
</defs>
</svg>
