<svg width="28" height="28" viewBox="0 0 28 28" fill="none" xmlns="http://www.w3.org/2000/svg">
<path fill-rule="evenodd" clip-rule="evenodd" d="M0 5.5C0 4.11929 1.11929 3 2.5 3H25.5C26.8807 3 28 4.11929 28 5.5V21.5C28 22.8807 26.8807 24 25.5 24H2.5C1.11929 24 0 22.8807 0 21.5V5.5Z" fill="url(#paint0_linear)"/>
<path fill-rule="evenodd" clip-rule="evenodd" d="M4.76632 14.6952C4.55583 14.8866 4.2823 14.97 3.84938 14.97H3.66955V12.6842H3.84938C4.2823 12.6842 4.54508 12.7622 4.76632 12.9638C4.99804 13.1714 5.13739 13.4932 5.13739 13.8242C5.13739 14.1561 4.99804 14.4877 4.76632 14.6952ZM3.98356 12.0986H3V15.5551H3.97838C4.49863 15.5551 4.87435 15.4317 5.20402 15.156C5.59593 14.8298 5.82765 14.338 5.82765 13.8293C5.82765 12.8092 5.07024 12.0986 3.98356 12.0986Z" fill="#212D34"/>
<path fill-rule="evenodd" clip-rule="evenodd" d="M6.13593 15.5552H6.80602V12.0986H6.13593V15.5552Z" fill="#212D34"/>
<path fill-rule="evenodd" clip-rule="evenodd" d="M8.44445 13.425C8.04232 13.2753 7.92434 13.1766 7.92434 12.9898C7.92434 12.7721 8.13469 12.6066 8.42348 12.6066C8.62415 12.6066 8.78925 12.6897 8.96377 12.8865L9.3144 12.4246C9.02628 12.171 8.68161 12.0415 8.30497 12.0415C7.69713 12.0415 7.23355 12.4662 7.23355 13.0318C7.23355 13.508 7.44935 13.7519 8.07869 13.9797C8.34107 14.0729 8.47458 14.1349 8.54186 14.1765C8.67578 14.2646 8.7428 14.3891 8.7428 14.5343C8.7428 14.8143 8.52156 15.0219 8.22255 15.0219C7.90297 15.0219 7.6455 14.8609 7.49128 14.5607L7.05836 14.9802C7.36706 15.4362 7.73787 15.6383 8.24777 15.6383C8.94399 15.6383 9.43252 15.1724 9.43252 14.5033C9.43252 13.9541 9.20664 13.7056 8.44445 13.425Z" fill="#212D34"/>
<path fill-rule="evenodd" clip-rule="evenodd" d="M9.64388 13.8293C9.64388 14.8453 10.4367 15.633 11.457 15.633C11.7454 15.633 11.9926 15.576 12.2971 15.4317V14.638C12.0293 14.9078 11.792 15.0166 11.4882 15.0166C10.8134 15.0166 10.3344 14.5243 10.3344 13.8242C10.3344 13.1607 10.8285 12.6372 11.457 12.6372C11.7766 12.6372 12.0186 12.7519 12.2971 13.0261V12.2328C12.003 12.0827 11.7612 12.0205 11.4728 12.0205C10.4577 12.0205 9.64388 12.8243 9.64388 13.8293Z" fill="#212D34"/>
<path fill-rule="evenodd" clip-rule="evenodd" d="M17.61 14.4204L16.694 12.0986H15.9619L17.4197 15.6439H17.7802L19.2643 12.0986H18.5379L17.61 14.4204Z" fill="#212D34"/>
<path fill-rule="evenodd" clip-rule="evenodd" d="M19.5673 15.5549H21.4675V14.9698H20.2368V14.0367H21.4222V13.4513H20.2368V12.6841H21.4675V12.0984H19.5673V15.5549Z" fill="#212D34"/>
<path fill-rule="evenodd" clip-rule="evenodd" d="M22.7763 13.6898H22.5805V12.643H22.7869C23.2043 12.643 23.4311 12.8188 23.4311 13.1552C23.4311 13.5027 23.2043 13.6898 22.7763 13.6898ZM24.1206 13.1189C24.1206 12.4718 23.6776 12.0984 22.9049 12.0984H21.9113V15.5549H22.5805V14.1664H22.668L23.5954 15.5549H24.4195L23.338 14.0988C23.8427 13.9955 24.1206 13.6481 24.1206 13.1189Z" fill="#212D34"/>
<g filter="url(#filter0_i)">
<path fill-rule="evenodd" clip-rule="evenodd" d="M16.1708 13.8387C16.1708 14.8543 15.3526 15.6776 14.3433 15.6776C13.334 15.6776 12.516 14.8543 12.516 13.8387C12.516 12.8231 13.334 12 14.3433 12C15.3526 12 16.1708 12.8231 16.1708 13.8387Z" fill="url(#paint1_linear)"/>
</g>
<defs>
<filter id="filter0_i" x="12.516" y="12" width="3.65487" height="3.67757" filterUnits="userSpaceOnUse" color-interpolation-filters="sRGB">
<feFlood flood-opacity="0" result="BackgroundImageFix"/>
<feBlend mode="normal" in="SourceGraphic" in2="BackgroundImageFix" result="shape"/>
<feColorMatrix in="SourceAlpha" type="matrix" values="0 0 0 0 0 0 0 0 0 0 0 0 0 0 0 0 0 0 127 0" result="hardAlpha"/>
<feOffset dx="1" dy="1"/>
<feComposite in2="hardAlpha" operator="arithmetic" k2="-1" k3="1"/>
<feColorMatrix type="matrix" values="0 0 0 0 0.314068 0 0 0 0 0.00146228 0 0 0 0 0.00146228 0 0 0 0.5 0"/>
<feBlend mode="normal" in2="shape" result="effect1_innerShadow"/>
</filter>
<linearGradient id="paint0_linear" x1="-14" y1="13.5" x2="6.16" y2="40.38" gradientUnits="userSpaceOnUse">
<stop stop-color="#EDF1F3"/>
<stop offset="1" stop-color="#D3DADF"/>
</linearGradient>
<linearGradient id="paint1_linear" x1="16.582" y1="14.1902" x2="14.4134" y2="11.6255" gradientUnits="userSpaceOnUse">
<stop stop-color="#FFA700"/>
<stop offset="1" stop-color="#E75A10"/>
</linearGradient>
</defs>
</svg>
