<svg width="27" height="32" viewBox="0 0 27 32" fill="none" xmlns="http://www.w3.org/2000/svg">
<path d="M23.9702 32H2.6545C1.95049 32 1.2753 31.7203 0.777485 31.2225C0.27967 30.7248 0 30.0495 0 29.3455V8.17587C0 7.96467 0.083901 7.7621 0.233246 7.61276C0.382591 7.46342 0.585145 7.37952 0.796351 7.37952C1.00756 7.37952 1.21011 7.46342 1.35945 7.61276C1.50881 7.7621 1.5927 7.96467 1.5927 8.17587V29.319C1.59619 29.6088 1.7138 29.8857 1.92001 30.0894C2.12623 30.2932 2.40443 30.4073 2.69432 30.4073H23.9303C24.2202 30.4073 24.4984 30.2932 24.7047 30.0894C24.9109 29.8857 25.0285 29.6088 25.032 29.319V2.69431C25.032 2.40216 24.916 2.12195 24.7093 1.91536C24.5026 1.70876 24.2225 1.59269 23.9303 1.59269H8.00332C7.79212 1.59269 7.58957 1.5088 7.44022 1.35946C7.29087 1.21011 7.20697 1.00756 7.20697 0.796351C7.20697 0.585145 7.29087 0.382591 7.44022 0.233246C7.58957 0.0839011 7.79212 0 8.00332 0H23.9303C24.6343 0 25.3095 0.279669 25.8073 0.777485C26.3052 1.2753 26.5848 1.95048 26.5848 2.6545V29.1995C26.6046 29.5569 26.5518 29.9145 26.4298 30.2509C26.3077 30.5874 26.1188 30.8957 25.8746 31.1573C25.6304 31.4189 25.3358 31.6284 25.0085 31.7732C24.6812 31.9181 24.328 31.9952 23.9702 32Z" fill="black"/>
<path d="M2.8005 5.9067H1.39361C1.1824 5.9067 0.97985 5.82281 0.830505 5.67345C0.68116 5.52411 0.59726 5.32156 0.59726 5.11035C0.59726 4.89914 0.68116 4.69659 0.830505 4.54725C0.97985 4.3979 1.1824 4.314 1.39361 4.314H2.8005C3.09037 4.31403 3.36859 4.19978 3.5748 3.99604C3.78102 3.79232 3.89863 3.51551 3.90212 3.22565V1.75241C3.90212 1.64783 3.92272 1.54427 3.96273 1.44766C4.00275 1.35104 4.06142 1.26325 4.13536 1.1893C4.20931 1.11535 4.2971 1.05669 4.39372 1.01667C4.49033 0.976652 4.59388 0.956055 4.69847 0.956055C4.80304 0.956055 4.9066 0.976652 5.00322 1.01667C5.09983 1.05669 5.18763 1.11535 5.26157 1.1893C5.33552 1.26325 5.39417 1.35104 5.43419 1.44766C5.47422 1.54427 5.49482 1.64783 5.49482 1.75241V3.22565C5.4984 3.57986 5.43106 3.93118 5.29675 4.25896C5.16245 4.58672 4.96391 4.88429 4.71283 5.13415C4.46174 5.38399 4.16319 5.58106 3.83476 5.71375C3.50633 5.84643 3.15468 5.91204 2.8005 5.9067Z" fill="black"/>
<path d="M15.2634 25.2577H6.70262C6.49141 25.2577 6.28885 25.1739 6.1395 25.0245C5.99016 24.8751 5.90627 24.6726 5.90627 24.4614C5.90627 24.2502 5.99016 24.0477 6.1395 23.8982C6.28885 23.7489 6.49141 23.665 6.70262 23.665H15.2634C15.4745 23.665 15.6771 23.7489 15.8265 23.8982C15.9759 24.0477 16.0597 24.2502 16.0597 24.4614C16.0597 24.6726 15.9759 24.8751 15.8265 25.0245C15.6771 25.1739 15.4745 25.2577 15.2634 25.2577Z" fill="url(#paint0_linear)"/>
<path d="M20.8246 21.2758H6.70262C6.49141 21.2758 6.28885 21.1919 6.1395 21.0426C5.99016 20.8932 5.90627 20.6906 5.90627 20.4795C5.90627 20.2683 5.99016 20.0658 6.1395 19.9163C6.28885 19.767 6.49141 19.6831 6.70262 19.6831H20.8246C21.0357 19.6831 21.2383 19.767 21.3877 19.9163C21.537 20.0658 21.6209 20.2683 21.6209 20.4795C21.6209 20.6906 21.537 20.8932 21.3877 21.0426C21.2383 21.1919 21.0357 21.2758 20.8246 21.2758Z" fill="url(#paint1_linear)"/>
<path d="M20.8246 17.2944H6.70262C6.49141 17.2944 6.28885 17.2105 6.1395 17.0612C5.99016 16.9117 5.90627 16.7092 5.90627 16.498C5.90627 16.2868 5.99016 16.0843 6.1395 15.9349C6.28885 15.7855 6.49141 15.7017 6.70262 15.7017H20.8246C21.0357 15.7017 21.2383 15.7855 21.3877 15.9349C21.537 16.0843 21.6209 16.2868 21.6209 16.498C21.6209 16.7092 21.537 16.9117 21.3877 17.0612C21.2383 17.2105 21.0357 17.2944 20.8246 17.2944Z" fill="url(#paint2_linear)"/>
<path d="M20.8246 13.5776H6.70262C6.49141 13.5776 6.28885 13.4937 6.1395 13.3444C5.99016 13.1949 5.90627 12.9924 5.90627 12.7812C5.90627 12.57 5.99016 12.3675 6.1395 12.2181C6.28885 12.0687 6.49141 11.9849 6.70262 11.9849H20.8246C21.0357 11.9849 21.2383 12.0687 21.3877 12.2181C21.537 12.3675 21.6209 12.57 21.6209 12.7812C21.6209 12.9924 21.537 13.1949 21.3877 13.3444C21.2383 13.4937 21.0357 13.5776 20.8246 13.5776Z" fill="url(#paint3_linear)"/>
<path d="M20.8246 9.59563H6.70262C6.49141 9.59563 6.28885 9.51175 6.1395 9.36243C5.99016 9.21299 5.90627 9.01045 5.90627 8.79928C5.90627 8.58812 5.99016 8.38558 6.1395 8.23613C6.28885 8.08681 6.49141 8.00293 6.70262 8.00293H20.8246C21.0357 8.00293 21.2383 8.08681 21.3877 8.23613C21.537 8.38558 21.6209 8.58812 21.6209 8.79928C21.6209 9.01045 21.537 9.21299 21.3877 9.36243C21.2383 9.51175 21.0357 9.59563 20.8246 9.59563Z" fill="url(#paint4_linear)"/>
<defs>
<linearGradient id="paint0_linear" x1="5.90627" y1="24.4747" x2="16.0597" y2="24.4747" gradientUnits="userSpaceOnUse">
<stop stop-color="#1BF8EC"/>
<stop offset="1" stop-color="#6933FF"/>
</linearGradient>
<linearGradient id="paint1_linear" x1="6.63626" y1="19.9482" x2="21.236" y2="19.9482" gradientUnits="userSpaceOnUse">
<stop stop-color="#1BF8EC"/>
<stop offset="1" stop-color="#6933FF"/>
</linearGradient>
<linearGradient id="paint2_linear" x1="6.63626" y1="15.9667" x2="21.236" y2="15.9667" gradientUnits="userSpaceOnUse">
<stop stop-color="#1BF8EC"/>
<stop offset="1" stop-color="#6933FF"/>
</linearGradient>
<linearGradient id="paint3_linear" x1="6.63626" y1="12.2499" x2="21.236" y2="12.2499" gradientUnits="userSpaceOnUse">
<stop stop-color="#1BF8EC"/>
<stop offset="1" stop-color="#6933FF"/>
</linearGradient>
<linearGradient id="paint4_linear" x1="6.63626" y1="8.26799" x2="21.236" y2="8.26799" gradientUnits="userSpaceOnUse">
<stop stop-color="#1BF8EC"/>
<stop offset="1" stop-color="#6933FF"/>
</linearGradient>
</defs>
</svg>
