<svg width="48" height="48" viewBox="0 0 48 48" fill="none" xmlns="http://www.w3.org/2000/svg">
<path d="M30.4582 15.6179H31.9219L36.094 11.5095L36.2985 9.76462C28.5335 3.01478 16.6828 3.74395 9.82828 11.3904C7.92376 13.5126 6.54364 16.0406 5.78874 18.7758C6.25263 18.5885 6.76837 18.5573 7.25243 18.6906L15.5966 17.3344C15.5966 17.3344 16.0201 16.6421 16.242 16.6847C19.9531 12.67 26.1997 12.2018 30.487 15.6179H30.4582Z" fill="#EA4335"/>
<path d="M42.0383 18.7758C41.0788 15.2974 39.1109 12.1707 36.3737 9.78174L30.5189 15.547C32.9911 17.536 34.4 20.5349 34.3395 23.6786V24.7029C37.2179 24.7029 39.5517 27.001 39.5517 29.8355C39.5517 32.6699 37.2179 34.9681 34.3395 34.9681H23.915L22.8749 36.0065V42.1633L23.915 43.1876H34.3395C41.825 43.2443 47.942 37.3145 47.9996 29.9433C48.0342 25.4661 45.7954 21.2783 42.0383 18.7758Z" fill="#4285F4"/>
<path d="M13.4762 43.1224H23.9007V34.9057H13.4762C12.7329 34.9057 12.001 34.7468 11.3239 34.4432L9.86025 34.8915L5.65936 38.9999L5.29344 40.4412C7.64744 42.1946 10.5229 43.1366 13.4762 43.1224Z" fill="#34A853"/>
<path d="M13.4759 16.4691C5.98751 16.5117 -0.0429882 22.5238 0.00023086 29.8978C0.0261623 34.0147 1.97678 37.8904 5.29313 40.3985L11.338 34.446C8.71608 33.2799 7.54916 30.2383 8.73336 27.6564C9.91757 25.0745 13.0063 23.9254 15.6282 25.0915C16.7836 25.6051 17.7085 26.5187 18.2329 27.6564L24.2778 21.7038C21.7077 18.3899 17.7085 16.4521 13.4759 16.4691Z" fill="#FBBC05"/>
</svg>
