<svg width="28" height="28" viewBox="0 0 28 28" fill="none" xmlns="http://www.w3.org/2000/svg">
<path fill-rule="evenodd" clip-rule="evenodd" d="M0 5.5C0 4.11929 1.11929 3 2.5 3H25.5C26.8807 3 28 4.11929 28 5.5V21.5C28 22.8807 26.8807 24 25.5 24H2.5C1.11929 24 0 22.8807 0 21.5V5.5Z" fill="#F4F6F7"/>
<path fill-rule="evenodd" clip-rule="evenodd" d="M19.4242 8C19.3081 8.00029 19.1923 8.00382 19.0783 8.01542C18.6325 8.06072 18.213 8.25966 17.9117 8.56661C17.6883 8.79432 17.5331 9.07632 17.4673 9.37785C17.4348 9.52671 17.4307 9.67595 17.4307 9.82679V10.828V11.3134V11.456C17.4307 11.4942 17.4208 11.4972 17.4664 11.4972H18.1798H18.8906H19.6057C19.8392 11.4972 20.0745 11.4891 20.3073 11.5086C20.5366 11.5279 20.7701 11.5883 20.9556 11.7186C21.2164 11.9019 21.3225 12.2182 21.2333 12.5091C21.1478 12.7883 20.8912 12.9755 20.598 13.0533C20.5656 13.0619 20.5327 13.0693 20.4996 13.0756C20.4805 13.0792 20.4546 13.0786 20.4371 13.0861C20.4285 13.0897 20.4066 13.0943 20.4227 13.1084C20.4267 13.112 20.4437 13.1119 20.4562 13.1118C20.4613 13.1118 20.4657 13.1118 20.4682 13.112C20.5602 13.1201 20.6518 13.1349 20.741 13.1574C21.0141 13.2263 21.2791 13.3743 21.4056 13.6173C21.5553 13.9048 21.479 14.261 21.2371 14.4841C21.0467 14.6598 20.7807 14.7495 20.5175 14.7792C20.3855 14.7941 20.2526 14.791 20.1199 14.791H19.4048H18.6896H17.9788H17.6212H17.5318C17.5115 14.791 17.4538 14.7817 17.4371 14.791C17.4273 14.7965 17.4307 14.8045 17.4307 14.819V15.4301V16.5083V17.5979V18.2428C17.4307 18.2493 17.4259 18.2776 17.4307 18.2828C17.4364 18.2889 17.4843 18.2835 17.4961 18.2835H17.5855H17.943H18.6539H19.369H20.0819C20.5065 18.2835 20.9109 18.1816 21.255 17.9435C21.7218 17.6207 21.9975 17.1074 21.9998 16.5686C21.9999 16.5478 22 16.5269 22 16.5061V16.4756C21.9999 16.4295 21.9998 16.3833 21.9998 16.3372V15.7692C21.9998 15.4943 21.9998 15.2194 21.9998 14.9445C21.9998 14.6068 21.9998 14.2691 21.9998 13.9314C21.9998 13.5587 21.9998 13.186 21.9998 12.8134C21.9998 12.4278 21.9998 12.0421 21.9998 11.6565C21.9998 11.2847 21.9998 10.9128 21.9998 10.541C21.9998 10.2093 21.9998 9.87779 21.9998 9.54619C21.9998 9.2772 21.9998 9.0082 21.9998 8.73921V8.20184C21.9998 8.13624 21.9998 8.07063 21.9998 8.00498H21.9925C21.7653 8.00532 21.538 8.00498 21.3108 8.00498H20.598H19.8828C19.7416 8.00498 19.598 8.00034 19.4548 8H19.4242ZM18.5738 12.1264C18.5692 12.1413 18.5738 12.1741 18.5738 12.19V12.7614V13.0284C18.5738 13.0507 18.5666 13.1273 18.5775 13.1387C18.5868 13.1483 18.6272 13.1387 18.6392 13.1387H18.7058H18.8341H19.0889C19.1726 13.1387 19.2564 13.1409 19.3401 13.1387C19.4437 13.1359 19.5441 13.0913 19.6177 12.9819C19.7011 12.8581 19.7309 12.676 19.7055 12.5088C19.694 12.4349 19.6717 12.3656 19.6388 12.3064C19.5757 12.1928 19.4818 12.1299 19.3822 12.1183C19.335 12.1127 19.2873 12.1153 19.2399 12.1153H18.9851H18.7253H18.5988C18.592 12.1153 18.5874 12.1144 18.5841 12.1144C18.5791 12.1144 18.5768 12.1164 18.5738 12.1264ZM19.0845 13.1433H18.5734C18.5734 13.1527 18.5734 13.1622 18.5734 13.1716V13.6829V13.9848V14.095C18.5734 14.1107 18.5689 14.144 18.5734 14.1584C18.5803 14.1803 18.6438 14.168 18.6642 14.168H18.7935H19.0491H19.306C19.3895 14.168 19.4696 14.1606 19.5436 14.0973C19.6336 14.0205 19.6948 13.8862 19.7102 13.7367C19.7278 13.5657 19.6878 13.3888 19.5986 13.2728C19.5263 13.1789 19.4367 13.1443 19.3415 13.1433C19.3129 13.143 19.2843 13.1429 19.2558 13.1429C19.1987 13.1429 19.1416 13.1433 19.0845 13.1433Z" fill="url(#paint0_linear)"/>
<mask id="mask0" mask-type="alpha" maskUnits="userSpaceOnUse" x="17" y="8" width="5" height="11">
<path fill-rule="evenodd" clip-rule="evenodd" d="M19.4242 8C19.3081 8.00029 19.1923 8.00382 19.0783 8.01542C18.6325 8.06072 18.213 8.25966 17.9117 8.56661C17.6883 8.79432 17.5331 9.07632 17.4673 9.37785C17.4348 9.52671 17.4307 9.67595 17.4307 9.82679V10.828V11.3134V11.456C17.4307 11.4942 17.4208 11.4972 17.4664 11.4972H18.1798H18.8906H19.6057C19.8392 11.4972 20.0745 11.4891 20.3073 11.5086C20.5366 11.5279 20.7701 11.5883 20.9556 11.7186C21.2164 11.9019 21.3225 12.2182 21.2333 12.5091C21.1478 12.7883 20.8912 12.9755 20.598 13.0533C20.5656 13.0619 20.5327 13.0693 20.4996 13.0756C20.4805 13.0792 20.4546 13.0786 20.4371 13.0861C20.4285 13.0897 20.4066 13.0943 20.4227 13.1084C20.4267 13.112 20.4437 13.1119 20.4562 13.1118C20.4613 13.1118 20.4657 13.1118 20.4682 13.112C20.5602 13.1201 20.6518 13.1349 20.741 13.1574C21.0141 13.2263 21.2791 13.3743 21.4056 13.6173C21.5553 13.9048 21.479 14.261 21.2371 14.4841C21.0467 14.6598 20.7807 14.7495 20.5175 14.7792C20.3855 14.7941 20.2526 14.791 20.1199 14.791H19.4048H18.6896H17.9788H17.6212H17.5318C17.5115 14.791 17.4538 14.7817 17.4371 14.791C17.4273 14.7965 17.4307 14.8045 17.4307 14.819V15.4301V16.5083V17.5979V18.2428C17.4307 18.2493 17.4259 18.2776 17.4307 18.2828C17.4364 18.2889 17.4843 18.2835 17.4961 18.2835H17.5855H17.943H18.6539H19.369H20.0819C20.5065 18.2835 20.9109 18.1816 21.255 17.9435C21.7218 17.6207 21.9975 17.1074 21.9998 16.5686C21.9999 16.5478 22 16.5269 22 16.5061V16.4756C21.9999 16.4295 21.9998 16.3833 21.9998 16.3372V15.7692C21.9998 15.4943 21.9998 15.2194 21.9998 14.9445C21.9998 14.6068 21.9998 14.2691 21.9998 13.9314C21.9998 13.5587 21.9998 13.186 21.9998 12.8134C21.9998 12.4278 21.9998 12.0421 21.9998 11.6565C21.9998 11.2847 21.9998 10.9128 21.9998 10.541C21.9998 10.2093 21.9998 9.87779 21.9998 9.54619C21.9998 9.2772 21.9998 9.0082 21.9998 8.73921V8.20184C21.9998 8.13624 21.9998 8.07063 21.9998 8.00498H21.9925C21.7653 8.00532 21.538 8.00498 21.3108 8.00498H20.598H19.8828C19.7416 8.00498 19.598 8.00034 19.4548 8H19.4242ZM18.5738 12.1264C18.5692 12.1413 18.5738 12.1741 18.5738 12.19V12.7614V13.0284C18.5738 13.0507 18.5666 13.1273 18.5775 13.1387C18.5868 13.1483 18.6272 13.1387 18.6392 13.1387H18.7058H18.8341H19.0889C19.1726 13.1387 19.2564 13.1409 19.3401 13.1387C19.4437 13.1359 19.5441 13.0913 19.6177 12.9819C19.7011 12.8581 19.7309 12.676 19.7055 12.5088C19.694 12.4349 19.6717 12.3656 19.6388 12.3064C19.5757 12.1928 19.4818 12.1299 19.3822 12.1183C19.335 12.1127 19.2873 12.1153 19.2399 12.1153H18.9851H18.7253H18.5988C18.592 12.1153 18.5874 12.1144 18.5841 12.1144C18.5791 12.1144 18.5768 12.1164 18.5738 12.1264ZM19.0845 13.1433H18.5734C18.5734 13.1527 18.5734 13.1622 18.5734 13.1716V13.6829V13.9848V14.095C18.5734 14.1107 18.5689 14.144 18.5734 14.1584C18.5803 14.1803 18.6438 14.168 18.6642 14.168H18.7935H19.0491H19.306C19.3895 14.168 19.4696 14.1606 19.5436 14.0973C19.6336 14.0205 19.6948 13.8862 19.7102 13.7367C19.7278 13.5657 19.6878 13.3888 19.5986 13.2728C19.5263 13.1789 19.4367 13.1443 19.3415 13.1433C19.3129 13.143 19.2843 13.1429 19.2558 13.1429C19.1987 13.1429 19.1416 13.1433 19.0845 13.1433Z" fill="white"/>
</mask>
<g mask="url(#mask0)">
</g>
<path fill-rule="evenodd" clip-rule="evenodd" d="M7.55279 8.02288C7.28973 8.06239 7.03724 8.15607 6.8166 8.29414C6.30822 8.61237 6.00401 9.15118 6.00177 9.71819C6.00114 9.8849 6.00177 10.0516 6.00177 10.2184V11.2802V12.5147V13.533V13.8403V13.9214C6.00177 13.9529 6.00145 13.9463 6.04009 13.9633C6.08307 13.9821 6.12626 14.0004 6.16966 14.0183C6.51611 14.1603 6.88148 14.2684 7.25857 14.311C7.52962 14.3416 7.81908 14.3501 8.07507 14.25C8.28014 14.1699 8.44359 14.022 8.52756 13.8303C8.58157 13.707 8.59705 13.5768 8.59705 13.445V11.9836V11.6545V11.5496C8.59705 11.5391 8.59062 11.5064 8.59705 11.4976C8.60505 11.4866 8.66842 11.4936 8.68667 11.4936H8.82481H9.09717H10.1904V11.5237V12.9664C10.1904 13.1358 10.1907 13.3052 10.1904 13.4746C10.19 13.6719 10.1587 13.87 10.0715 14.0513C9.98452 14.2321 9.84507 14.3847 9.67273 14.5009C9.25465 14.7829 8.70068 14.8564 8.19544 14.8775C7.83398 14.8926 7.47106 14.8796 7.11118 14.8463C6.73926 14.812 6.36301 14.7609 6.00177 14.6708V14.7878V15.59V16.7604V17.8176V18.154V18.2484C6.00177 18.2534 5.99779 18.2782 6.00177 18.2823C6.0093 18.2899 6.07779 18.2824 6.09133 18.2824H6.18289H6.37033H6.74094H7.48372H8.22681C8.54183 18.2824 8.86496 18.3024 9.17288 18.2304C9.71132 18.1046 10.1688 17.7523 10.4017 17.286C10.5295 17.03 10.5714 16.758 10.5714 16.4792V16.0199V15.2461V14.2433V13.102V11.8981V10.7215V9.66175V8.79567V8.21328V8.00015H10.3868H9.61485H8.84264H8.07277C8.03847 8.00015 8.00423 8 7.96998 8C7.83043 8 7.69124 8.00208 7.55279 8.02288Z" fill="url(#paint1_linear)"/>
<mask id="mask1" mask-type="alpha" maskUnits="userSpaceOnUse" x="6" y="8" width="5" height="11">
<path fill-rule="evenodd" clip-rule="evenodd" d="M7.55279 8.02288C7.28973 8.06239 7.03724 8.15607 6.8166 8.29414C6.30822 8.61237 6.00401 9.15118 6.00177 9.71819C6.00114 9.8849 6.00177 10.0516 6.00177 10.2184V11.2802V12.5147V13.533V13.8403V13.9214C6.00177 13.9529 6.00145 13.9463 6.04009 13.9633C6.08307 13.9821 6.12626 14.0004 6.16966 14.0183C6.51611 14.1603 6.88148 14.2684 7.25857 14.311C7.52962 14.3416 7.81908 14.3501 8.07507 14.25C8.28014 14.1699 8.44359 14.022 8.52756 13.8303C8.58157 13.707 8.59705 13.5768 8.59705 13.445V11.9836V11.6545V11.5496C8.59705 11.5391 8.59062 11.5064 8.59705 11.4976C8.60505 11.4866 8.66842 11.4936 8.68667 11.4936H8.82481H9.09717H10.1904V11.5237V12.9664C10.1904 13.1358 10.1907 13.3052 10.1904 13.4746C10.19 13.6719 10.1587 13.87 10.0715 14.0513C9.98452 14.2321 9.84507 14.3847 9.67273 14.5009C9.25465 14.7829 8.70068 14.8564 8.19544 14.8775C7.83398 14.8926 7.47106 14.8796 7.11118 14.8463C6.73926 14.812 6.36301 14.7609 6.00177 14.6708V14.7878V15.59V16.7604V17.8176V18.154V18.2484C6.00177 18.2534 5.99779 18.2782 6.00177 18.2823C6.0093 18.2899 6.07779 18.2824 6.09133 18.2824H6.18289H6.37033H6.74094H7.48372H8.22681C8.54183 18.2824 8.86496 18.3024 9.17288 18.2304C9.71132 18.1046 10.1688 17.7523 10.4017 17.286C10.5295 17.03 10.5714 16.758 10.5714 16.4792V16.0199V15.2461V14.2433V13.102V11.8981V10.7215V9.66175V8.79567V8.21328V8.00015H10.3868H9.61485H8.84264H8.07277C8.03847 8.00015 8.00423 8 7.96998 8C7.83043 8 7.69124 8.00208 7.55279 8.02288Z" fill="white"/>
</mask>
<g mask="url(#mask1)">
</g>
<path fill-rule="evenodd" clip-rule="evenodd" d="M13.4507 8.00426C13.2503 8.01601 13.052 8.05783 12.8663 8.12852C12.4568 8.28456 12.1164 8.5758 11.9158 8.94121C11.7844 9.18046 11.718 9.44641 11.7168 9.71448C11.7166 9.75785 11.7168 9.80123 11.7168 9.84465V10.6053V11.9574C11.7293 11.9475 11.7421 11.9376 11.7552 11.9279C11.801 11.8936 11.8488 11.8615 11.8979 11.8314C12.2041 11.6442 12.5614 11.5394 12.9199 11.4775C13.2117 11.4271 13.5088 11.4055 13.8053 11.4002C14.0971 11.3951 14.3896 11.4042 14.6798 11.4333C14.9759 11.4629 15.2702 11.5091 15.5613 11.5668C15.597 11.5739 15.6327 11.5812 15.6684 11.5887C15.6875 11.5928 15.7606 11.5983 15.7707 11.6118C15.778 11.6215 15.7707 11.6601 15.7707 11.6713V11.8107V12.3365C15.7294 12.3172 15.6878 12.2983 15.6459 12.28C15.3292 12.1414 14.9953 12.0386 14.6488 11.988C14.1832 11.9199 13.6564 11.9218 13.2543 12.1795C12.8663 12.4282 12.7305 12.8696 12.7724 13.2893C12.8132 13.6978 13.0574 14.0479 13.4685 14.2112C13.8747 14.3725 14.346 14.3508 14.7714 14.273C15.1203 14.2092 15.4531 14.0923 15.7707 13.9457V13.9977V14.6104C15.7707 14.6218 15.7781 14.6605 15.7707 14.6703C15.7608 14.6835 15.6866 14.6891 15.6684 14.693C15.5942 14.7086 15.5196 14.7233 15.445 14.7372C15.1517 14.7918 14.8553 14.8351 14.5572 14.8598C14.2654 14.884 13.9707 14.8887 13.678 14.8785C13.3793 14.8682 13.0802 14.8397 12.788 14.7798C12.4028 14.7009 12.0195 14.5651 11.7168 14.325V14.4379V15.227V16.4044V17.5507V18.2304C11.7168 18.2384 11.7111 18.272 11.7168 18.2785C11.7293 18.2925 11.8333 18.281 11.8576 18.281H12.237H12.9999H13.7587C14.0265 18.281 14.299 18.2942 14.5662 18.2765C15.0507 18.2446 15.5095 18.0327 15.8289 17.6941C16.1348 17.3697 16.2857 16.9593 16.2857 16.5314V16.1477V15.4142V14.4235V13.2674V12.0426V10.8309V9.73305V8.83188V8.22383V8.00077H16.1456H14.9677H13.7944C13.7389 8.00077 13.6833 8 13.6276 8C13.5686 8 13.5095 8.00087 13.4507 8.00426Z" fill="url(#paint2_linear)"/>
<mask id="mask2" mask-type="alpha" maskUnits="userSpaceOnUse" x="11" y="8" width="6" height="11">
<path fill-rule="evenodd" clip-rule="evenodd" d="M13.4507 8.00426C13.2503 8.01601 13.052 8.05783 12.8663 8.12852C12.4568 8.28456 12.1164 8.5758 11.9158 8.94121C11.7844 9.18046 11.718 9.44641 11.7168 9.71448C11.7166 9.75785 11.7168 9.80123 11.7168 9.84465V10.6053V11.9574C11.7293 11.9475 11.7421 11.9376 11.7552 11.9279C11.801 11.8936 11.8488 11.8615 11.8979 11.8314C12.2041 11.6442 12.5614 11.5394 12.9199 11.4775C13.2117 11.4271 13.5088 11.4055 13.8053 11.4002C14.0971 11.3951 14.3896 11.4042 14.6798 11.4333C14.9759 11.4629 15.2702 11.5091 15.5613 11.5668C15.597 11.5739 15.6327 11.5812 15.6684 11.5887C15.6875 11.5928 15.7606 11.5983 15.7707 11.6118C15.778 11.6215 15.7707 11.6601 15.7707 11.6713V11.8107V12.3365C15.7294 12.3172 15.6878 12.2983 15.6459 12.28C15.3292 12.1414 14.9953 12.0386 14.6488 11.988C14.1832 11.9199 13.6564 11.9218 13.2543 12.1795C12.8663 12.4282 12.7305 12.8696 12.7724 13.2893C12.8132 13.6978 13.0574 14.0479 13.4685 14.2112C13.8747 14.3725 14.346 14.3508 14.7714 14.273C15.1203 14.2092 15.4531 14.0923 15.7707 13.9457V13.9977V14.6104C15.7707 14.6218 15.7781 14.6605 15.7707 14.6703C15.7608 14.6835 15.6866 14.6891 15.6684 14.693C15.5942 14.7086 15.5196 14.7233 15.445 14.7372C15.1517 14.7918 14.8553 14.8351 14.5572 14.8598C14.2654 14.884 13.9707 14.8887 13.678 14.8785C13.3793 14.8682 13.0802 14.8397 12.788 14.7798C12.4028 14.7009 12.0195 14.5651 11.7168 14.325V14.4379V15.227V16.4044V17.5507V18.2304C11.7168 18.2384 11.7111 18.272 11.7168 18.2785C11.7293 18.2925 11.8333 18.281 11.8576 18.281H12.237H12.9999H13.7587C14.0265 18.281 14.299 18.2942 14.5662 18.2765C15.0507 18.2446 15.5095 18.0327 15.8289 17.6941C16.1348 17.3697 16.2857 16.9593 16.2857 16.5314V16.1477V15.4142V14.4235V13.2674V12.0426V10.8309V9.73305V8.83188V8.22383V8.00077H16.1456H14.9677H13.7944C13.7389 8.00077 13.6833 8 13.6276 8C13.5686 8 13.5095 8.00087 13.4507 8.00426Z" fill="white"/>
</mask>
<g mask="url(#mask2)">
</g>
<defs>
<linearGradient id="paint0_linear" x1="22" y1="7.55516" x2="17.5831" y2="7.55516" gradientUnits="userSpaceOnUse">
<stop stop-color="#43C311"/>
<stop offset="1" stop-color="#288C00"/>
</linearGradient>
<linearGradient id="paint1_linear" x1="6.01179" y1="18.3114" x2="10.6289" y2="18.3114" gradientUnits="userSpaceOnUse">
<stop stop-color="#21469E"/>
<stop offset="1" stop-color="#1E81EB"/>
</linearGradient>
<linearGradient id="paint2_linear" x1="16.2857" y1="8" x2="11.7143" y2="8" gradientUnits="userSpaceOnUse">
<stop stop-color="#F42D3E"/>
<stop offset="1" stop-color="#9C0017"/>
</linearGradient>
</defs>
</svg>
