<svg width="28" height="28" viewBox="0 0 28 28" fill="none" xmlns="http://www.w3.org/2000/svg">
<path d="M25.75 4.25H2.25C1.14543 4.25 0.25 5.14543 0.25 6.25V21.75C0.25 22.8546 1.14543 23.75 2.25 23.75H25.75C26.8546 23.75 27.75 22.8546 27.75 21.75V6.25C27.75 5.14543 26.8546 4.25 25.75 4.25Z" fill="white" stroke="#F5F5F5" stroke-width="0.5"/>
<mask id="mask0" mask-type="alpha" maskUnits="userSpaceOnUse" x="9" y="9" width="10" height="10">
<path d="M14 18.6666C16.5773 18.6666 18.6667 16.5772 18.6667 13.9999C18.6667 11.4226 16.5773 9.33325 14 9.33325C11.4227 9.33325 9.33333 11.4226 9.33333 13.9999C9.33333 16.5772 11.4227 18.6666 14 18.6666Z" fill="white"/>
</mask>
<g mask="url(#mask0)">
<path d="M14 18.6666C16.5773 18.6666 18.6667 16.5772 18.6667 13.9999C18.6667 11.4226 16.5773 9.33325 14 9.33325C11.4227 9.33325 9.33333 11.4226 9.33333 13.9999C9.33333 16.5772 11.4227 18.6666 14 18.6666Z" fill="#E01B41"/>
<path fill-rule="evenodd" clip-rule="evenodd" d="M9.33333 14.6665C10.6667 15.9165 12.6667 16.6665 14 14.6665C15.3333 12.6665 18 12.6665 18.6667 14.6665C19.3333 16.6665 18.6667 18.6665 18.6667 18.6665H9.33333C9.33333 18.6665 8 13.4165 9.33333 14.6665Z" fill="#0E4B9C"/>
</g>
<path opacity="0.75" fill-rule="evenodd" clip-rule="evenodd" d="M18.944 9.23005C18.8498 9.06694 18.8971 8.86336 19.0649 8.76648L19.6368 8.43627C19.7977 8.34336 20.0042 8.39961 20.0987 8.56339L21.7577 11.4368C21.8519 11.5999 21.8046 11.8035 21.6368 11.9004L21.0649 12.2306C20.904 12.3235 20.6975 12.2672 20.603 12.1035L18.944 9.23005ZM20.6761 8.23005C20.5819 8.06694 20.6291 7.86336 20.7969 7.76648L21.3689 7.43627C21.5298 7.34336 21.7362 7.39961 21.8308 7.56339L23.4897 10.4368C23.5839 10.5999 23.5367 10.8035 23.3689 10.9004L22.7969 11.2306C22.636 11.3235 22.4296 11.2672 22.335 11.1035L20.6761 8.23005ZM4.51026 17.5634C4.41609 17.4003 4.46332 17.1967 4.63112 17.0998L5.20307 16.7696C5.36399 16.6767 5.57041 16.7329 5.66496 16.8967L7.32393 19.7701C7.4181 19.9332 7.37087 20.1368 7.20307 20.2337L6.63112 20.5639C6.4702 20.6568 6.26379 20.6006 6.16923 20.4368L4.51026 17.5634ZM6.24232 16.5634C6.14814 16.4003 6.19537 16.1967 6.36318 16.0998L6.93512 15.7696C7.09604 15.6767 7.30246 15.7329 7.39702 15.8967L9.05598 18.7701C9.15015 18.9332 9.10292 19.1368 8.93512 19.2337L8.36318 19.5639C8.20225 19.6568 7.99584 19.6006 7.90128 19.4368L6.24232 16.5634ZM20.603 15.8967C20.6972 15.7336 20.8971 15.6727 21.0649 15.7696L21.6368 16.0998C21.7977 16.1927 21.8522 16.3996 21.7577 16.5634L20.0987 19.4368C20.0045 19.5999 19.8046 19.6608 19.6368 19.5639L19.0649 19.2337C18.904 19.1408 18.8495 18.9339 18.944 18.7701L20.603 15.8967ZM22.335 16.8967C22.4292 16.7336 22.6291 16.6727 22.7969 16.7696L23.3689 17.0998C23.5298 17.1927 23.5843 17.3996 23.4897 17.5634L21.8308 20.4368C21.7366 20.5999 21.5367 20.6608 21.3689 20.5639L20.7969 20.2337C20.636 20.1408 20.5815 19.9339 20.6761 19.7701L22.335 16.8967ZM6.16923 7.56339C6.2634 7.40027 6.46332 7.33938 6.63112 7.43627L7.20307 7.76648C7.36399 7.85939 7.41849 8.06627 7.32393 8.23005L5.66496 11.1035C5.57079 11.2666 5.37087 11.3275 5.20307 11.2306L4.63112 10.9004C4.4702 10.8075 4.41571 10.6006 4.51026 10.4368L6.16923 7.56339ZM7.90128 8.56339C7.99545 8.40027 8.19537 8.33938 8.36318 8.43627L8.93512 8.76648C9.09604 8.85939 9.15054 9.06627 9.05598 9.23005L7.39702 12.1035C7.30284 12.2666 7.10292 12.3275 6.93512 12.2306L6.36318 11.9004C6.20225 11.8075 6.14776 11.6006 6.24232 11.4368L7.90128 8.56339Z" fill="#262626"/>
</svg>
