<svg width="32" height="32" viewBox="0 0 32 32" fill="none" xmlns="http://www.w3.org/2000/svg">
<path d="M28.4413 31.9998H7.19663C6.49233 31.9998 5.81687 31.72 5.31885 31.222C4.82083 30.724 4.54105 30.0485 4.54105 29.3442V20.4347C4.54105 20.2235 4.62498 20.0208 4.77439 19.8714C4.92379 19.722 5.12643 19.6381 5.33772 19.6381C5.54901 19.6381 5.75165 19.722 5.90106 19.8714C6.05046 20.0208 6.1344 20.2235 6.1344 20.4347V29.3177C6.1344 29.6065 6.24911 29.8834 6.4533 30.0876C6.65749 30.2918 6.93442 30.4065 7.22319 30.4065H28.4679C28.7579 30.4065 29.0362 30.2922 29.2425 30.0884C29.4488 29.8846 29.5665 29.6077 29.57 29.3177V2.68214C29.5665 2.39216 29.4488 2.11525 29.2425 1.91143C29.0362 1.70762 28.7579 1.59333 28.4679 1.59335H12.5344C12.3231 1.59335 12.1204 1.50942 11.971 1.36001C11.8216 1.21061 11.7377 1.00797 11.7377 0.796676C11.7377 0.585385 11.8216 0.382747 11.971 0.233341C12.1204 0.0839353 12.3231 0 12.5344 0H28.4679C29.1722 0 29.8477 0.279784 30.3457 0.777804C30.8437 1.27582 31.1235 1.95128 31.1235 2.65559V29.2115C31.1416 29.5735 31.0855 29.9353 30.9585 30.2748C30.8315 30.6143 30.6364 30.9242 30.3851 31.1854C30.1338 31.4466 29.8318 31.6536 29.4975 31.7937C29.1632 31.9338 28.8038 32.0039 28.4413 31.9998Z" fill="black"/>
<path d="M24.2322 21.1518H17.9518C17.7405 21.1518 17.5378 21.0678 17.3884 20.9184C17.239 20.769 17.1551 20.5664 17.1551 20.3551C17.1551 20.1438 17.239 19.9411 17.3884 19.7917C17.5378 19.6423 17.7405 19.5584 17.9518 19.5584H24.2322C24.3637 19.5549 24.4887 19.5003 24.5805 19.406C24.6722 19.3118 24.7236 19.1854 24.7235 19.0538V7.18336C24.7253 7.1171 24.714 7.05113 24.6902 6.98924C24.6665 6.92735 24.6308 6.87074 24.5852 6.82265C24.5396 6.77456 24.4849 6.73593 24.4243 6.70897C24.3638 6.68201 24.2985 6.66725 24.2322 6.66552H2.08464C1.95313 6.66899 1.82818 6.72367 1.73641 6.81792C1.64464 6.91217 1.59331 7.03854 1.59335 7.17009V20.0497C1.59335 20.261 1.50942 20.4636 1.36001 20.613C1.21061 20.7624 1.00797 20.8464 0.796676 20.8464C0.585385 20.8464 0.382747 20.7624 0.233341 20.613C0.0839353 20.4636 4.21403e-10 20.261 4.21403e-10 20.0497L4.21403e-10 7.18336C-1.10978e-05 6.62925 0.219195 6.09764 0.609763 5.70459C1.00033 5.31153 1.53054 5.08896 2.08464 5.08545H24.2322C24.7863 5.08896 25.3165 5.31153 25.7071 5.70459C26.0977 6.09764 26.3169 6.62925 26.3169 7.18336V19.0538C26.3169 19.608 26.0977 20.1396 25.7071 20.5326C25.3165 20.9257 24.7863 21.1482 24.2322 21.1518Z" fill="url(#paint0_linear)"/>
<path d="M12.1095 17.2879C12.0032 17.2882 11.8979 17.2672 11.7998 17.2261C11.7018 17.1851 11.6129 17.1248 11.5385 17.0489C11.3917 16.8978 11.3096 16.6953 11.3096 16.4846C11.3096 16.2739 11.3917 16.0715 11.5385 15.9203L14.1941 13.2647L11.6315 10.649C11.5034 10.497 11.4367 10.3026 11.4446 10.104C11.4525 9.90541 11.5343 9.71692 11.674 9.57555C11.8137 9.43418 12.0012 9.35014 12.1997 9.33992C12.3982 9.3297 12.5933 9.39405 12.7468 9.52033L15.6812 12.5079C15.777 12.6154 15.849 12.742 15.8925 12.8792C15.936 13.0165 15.95 13.1615 15.9335 13.3045C15.9234 13.5795 15.8095 13.8404 15.6149 14.0348L12.6672 16.9825C12.6007 17.0696 12.5167 17.1417 12.4207 17.1943C12.3246 17.2469 12.2186 17.2788 12.1095 17.2879Z" fill="url(#paint1_linear)"/>
<path d="M25.2281 26.7149H11.034C10.8227 26.7149 10.6201 26.631 10.4706 26.4816C10.3212 26.3322 10.2373 26.1296 10.2373 25.9183C10.2373 25.707 10.3212 25.5043 10.4706 25.3549C10.6201 25.2055 10.8227 25.1216 11.034 25.1216H25.2281C25.4394 25.1216 25.642 25.2055 25.7914 25.3549C25.9408 25.5043 26.0248 25.707 26.0248 25.9183C26.0248 26.1296 25.9408 26.3322 25.7914 26.4816C25.642 26.631 25.4394 26.7149 25.2281 26.7149V26.7149Z" fill="black"/>
<defs>
<linearGradient id="paint0_linear" x1="4.21403e-10" y1="13.1186" x2="26.3169" y2="13.1186" gradientUnits="userSpaceOnUse">
<stop stop-color="#1BF8EC"/>
<stop offset="1" stop-color="#6933FF"/>
</linearGradient>
<linearGradient id="paint1_linear" x1="10.6223" y1="9.98526" x2="17.9252" y2="17.2881" gradientUnits="userSpaceOnUse">
<stop stop-color="#1BF8EC"/>
<stop offset="1" stop-color="#6933FF"/>
</linearGradient>
</defs>
</svg>
