<svg width="240" height="152" viewBox="0 0 240 152" fill="none" xmlns="http://www.w3.org/2000/svg">
<rect width="240" height="152" fill="#E5E5E5"/>
<rect width="1600" height="4290" transform="translate(-467 -3727)" fill="#F5F7FA"/>
<g filter="url(#filter0_d)">
<rect x="-367" y="-380" width="1400" height="624" rx="2" fill="white"/>
</g>
<path opacity="0.73" d="M126.593 81.9957C126.593 146.56 195.423 151.505 157.208 151.505C118.993 151.505 88.0139 120.385 88.0139 81.9957C88.0139 43.6069 118.993 12.4866 157.208 12.4866C195.423 12.4866 126.593 17.4316 126.593 81.9957Z" fill="#D6DBE7"/>
<g style="mix-blend-mode:hard-light" opacity="0.32">
<path d="M120.895 134.856C135.463 144.845 146.285 147.759 156.7 147.759C139.625 142.348 137.298 139.195 130.885 134.856C106.529 118.35 100.561 80.7524 116.475 49.3794C125.813 30.975 140.908 19.2873 156.699 16.0473C137.064 14.8937 116.657 27.419 105.087 50.2244C89.1824 81.5631 95.9219 114.045 120.895 134.856Z" fill="white"/>
</g>
<path d="M166.271 84.9735H172.261V88.0972H160.035L166.802 77.0324H161.172V73.9087H173L166.271 84.9735Z" fill="#C0C6D9"/>
<path d="M172.267 84.9121H166.307L167.811 82.4468H163.492L160 88.1093H172.267V84.9121Z" fill="#D6DBE7"/>
<path d="M219.068 58.3566H233.878V66.0797H203.65L220.381 38.7231H206.462V31H235.705L219.068 58.3566Z" fill="#C0C6D9"/>
<path d="M233.892 58.2044H219.158L222.877 52.1091H212.197L203.564 66.1091H233.892V58.2044Z" fill="#D6DBE7"/>
<path d="M188.088 74.5647H198.679V80.0881H177.061L189.027 60.5234H179.072V55H199.987L188.088 74.5647Z" fill="#C0C6D9"/>
<path d="M198.69 74.4558H188.152L190.812 70.0967H183.174L177 80.1091H198.69V74.4558Z" fill="#D6DBE7"/>
<path d="M154.527 31.7217C155.262 31.7209 155.984 31.923 156.617 32.3069C157.337 31.1535 158.398 30.2663 159.644 29.7746C160.89 29.2829 162.257 29.2123 163.545 29.5731C164.015 27.4121 165.187 25.4788 166.867 24.0891C168.547 22.6995 170.637 21.9357 172.795 21.9225C174.952 21.9094 177.051 22.6476 178.747 24.0166C180.443 25.3856 181.637 27.3044 182.133 29.4596C182.517 29.384 182.907 29.346 183.299 29.346C184.876 29.3429 186.397 29.9465 187.563 31.0379C188.728 32.1293 189.452 33.6291 189.592 35.2415H150.467C150.631 34.2577 151.128 33.3649 151.871 32.7209C152.614 32.0768 153.555 31.7229 154.527 31.7217Z" fill="#C0C6D9"/>
<path d="M5.60322 95.9789C6.61769 95.9779 7.61376 96.2662 8.48706 96.8137C9.48157 95.1684 10.9454 93.9028 12.6653 93.2014C14.3852 92.4999 16.2713 92.3992 18.0489 92.914C18.6989 89.8312 20.3154 87.0733 22.6343 85.091C24.9532 83.1086 27.8374 82.0191 30.8156 82.0002C33.7939 81.9814 36.6901 83.0345 39.0311 84.9874C41.3721 86.9404 43.0194 89.6776 43.7039 92.752C44.2343 92.6442 44.7732 92.59 45.3133 92.59C47.4905 92.5855 49.5903 93.4467 51.1984 95.0035C52.8065 96.5603 53.8061 98.6999 54 101H0C0.225783 99.5966 0.911931 98.3231 1.93723 97.4043C2.96252 96.4856 4.26099 95.9807 5.60322 95.9789Z" fill="#C0C6D9"/>
<path d="M68.8673 129.861C73.9245 129.861 78.0242 125.762 78.0242 120.704C78.0242 115.647 73.9245 111.548 68.8673 111.548C63.8101 111.548 59.7104 115.647 59.7104 120.704C59.7104 125.762 63.8101 129.861 68.8673 129.861Z" fill="#C0C6D9"/>
<path d="M60.0797 122.089C54.2276 124.359 50.3345 126.404 50.5631 127.219C50.7918 128.033 55.2163 127.397 61.4206 125.762C63.8925 125.1 66.6115 124.299 69.4541 123.373C72.6489 122.34 75.6337 121.274 78.192 120.268C83.7537 118.071 87.3996 116.144 87.1709 115.35C86.9423 114.556 83.0615 115.092 77.4443 116.508" stroke="#D6DBE7" stroke-width="0.5" stroke-miterlimit="10"/>
<path opacity="0.73" d="M88.049 108.009C88.7475 108.009 89.3138 107.442 89.3138 106.744C89.3138 106.045 88.7475 105.479 88.049 105.479C87.3504 105.479 86.7842 106.045 86.7842 106.744C86.7842 107.442 87.3504 108.009 88.049 108.009Z" fill="#D6DBE7"/>
<path opacity="0.73" d="M145.573 59.9647C146.723 59.9647 147.654 59.033 147.654 57.8836C147.654 56.7342 146.723 55.8025 145.573 55.8025C144.424 55.8025 143.492 56.7342 143.492 57.8836C143.492 59.033 144.424 59.9647 145.573 59.9647Z" fill="#D6DBE7"/>
<path d="M109.23 22.4548C109.914 22.4548 110.469 21.9005 110.469 21.2167C110.469 20.5329 109.914 19.9785 109.23 19.9785C108.547 19.9785 107.992 20.5329 107.992 21.2167C107.992 21.9005 108.547 22.4548 109.23 22.4548Z" fill="#D6DBE7"/>
<path d="M100.58 26.4001L54.7203 42.7935L58.4299 11.4611L73.9131 6.56232C73.8765 6.1598 100.58 26.4001 100.58 26.4001Z" fill="url(#paint0_linear)"/>
<g style="mix-blend-mode:multiply">
<path d="M70.9564 3.99198C68.9376 4.24945 66.947 4.69351 65.0102 5.31846C63.0675 5.92264 61.1843 6.7035 59.384 7.65123C58.9778 6.13976 59.1706 4.5298 59.9222 3.157C60.6739 1.7842 61.9265 0.754526 63.4188 0.282654C64.9111 -0.189219 66.5279 -0.0668698 67.9322 0.624193C69.3365 1.31526 70.4199 2.52169 70.9564 3.99198Z" fill="#D6DBE7"/>
</g>
<path d="M76.6423 4.01015C76.8299 4.60478 75.7733 5.53332 73.9254 6.53961C71.5097 7.80293 68.9815 8.83811 66.3736 9.63168C63.7875 10.4862 61.1277 11.0987 58.4284 11.4613C56.3289 11.7037 54.9293 11.5528 54.7371 10.9582C54.4947 10.1897 56.3381 8.84951 59.3112 7.50016C60.8999 6.77475 62.5295 6.14246 64.1917 5.6065C64.4525 5.51045 64.7178 5.42811 64.9831 5.3412C65.2483 5.2543 65.5091 5.17654 65.7789 5.10335C67.4469 4.58523 69.1437 4.16522 70.8607 3.84548C74.122 3.22799 76.3999 3.22799 76.6423 4.01015Z" fill="#C0C6D9"/>
<path d="M56.5346 10.633C56.7746 10.633 56.9692 10.4384 56.9692 10.1985C56.9692 9.95846 56.7746 9.76392 56.5346 9.76392C56.2946 9.76392 56.1001 9.95846 56.1001 10.1985C56.1001 10.4384 56.2946 10.633 56.5346 10.633Z" fill="#7E89A9"/>
<path d="M60.1983 8.81756C60.4383 8.81756 60.6328 8.62301 60.6328 8.38302C60.6328 8.14304 60.4383 7.94849 60.1983 7.94849C59.9583 7.94849 59.7637 8.14304 59.7637 8.38302C59.7637 8.62301 59.9583 8.81756 60.1983 8.81756Z" fill="#7E89A9"/>
<path d="M64.8277 6.81878C65.0677 6.81878 65.2622 6.62423 65.2622 6.38424C65.2622 6.14426 65.0677 5.94971 64.8277 5.94971C64.5877 5.94971 64.3932 6.14426 64.3932 6.38424C64.3932 6.62423 64.5877 6.81878 64.8277 6.81878Z" fill="#7E89A9"/>
<path d="M70.3478 5.35027C70.5878 5.35027 70.7823 5.15572 70.7823 4.91574C70.7823 4.67575 70.5878 4.4812 70.3478 4.4812C70.1078 4.4812 69.9133 4.67575 69.9133 4.91574C69.9133 5.15572 70.1078 5.35027 70.3478 5.35027Z" fill="#7E89A9"/>
<path d="M74.7532 4.87029C74.9932 4.87029 75.1878 4.67575 75.1878 4.43576C75.1878 4.19577 74.9932 4.00122 74.7532 4.00122C74.5132 4.00122 74.3187 4.19577 74.3187 4.43576C74.3187 4.67575 74.5132 4.87029 74.7532 4.87029Z" fill="#7E89A9"/>
<path d="M73.9117 6.54419C71.5003 7.80515 68.9767 8.83878 66.3737 9.63168C63.7876 10.4862 61.1278 11.0987 58.4285 11.4613C62.9245 8.19791 68.3568 6.47914 73.9117 6.56249V6.54419Z" fill="#7E89A9"/>
<path d="M196.065 100.13C197.758 100.13 199.13 98.7581 199.13 97.0652C199.13 95.3723 197.758 94 196.065 94C194.372 94 193 95.3723 193 97.0652C193 98.7581 194.372 100.13 196.065 100.13Z" fill="#7E89A9"/>
<path d="M32.9402 31.3679C33.7866 31.3679 34.4728 30.6818 34.4728 29.8353C34.4728 28.9889 33.7866 28.3027 32.9402 28.3027C32.0938 28.3027 31.4076 28.9889 31.4076 29.8353C31.4076 30.6818 32.0938 31.3679 32.9402 31.3679Z" fill="#7E89A9"/>
<path d="M91.0652 92.1304C92.7581 92.1304 94.1304 90.7581 94.1304 89.0652C94.1304 87.3723 92.7581 86 91.0652 86C89.3724 86 88 87.3723 88 89.0652C88 90.7581 89.3724 92.1304 91.0652 92.1304Z" fill="#7E89A9"/>
<path d="M203.591 144.581C204.438 144.581 205.124 143.894 205.124 143.048C205.124 142.202 204.438 141.515 203.591 141.515C202.745 141.515 202.059 142.202 202.059 143.048C202.059 143.894 202.745 144.581 203.591 144.581Z" fill="#C0C6D9"/>
<path d="M124.575 65.3463C122.886 65.3446 121.228 65.7994 119.774 66.663C118.118 64.0678 115.681 62.0717 112.818 60.9653C109.954 59.859 106.814 59.7002 103.855 60.5121C102.772 55.6497 100.081 51.2998 96.2205 48.1731C92.3598 45.0465 87.5578 43.3279 82.5994 43.2982C77.6409 43.2686 72.819 44.9296 68.9215 48.0098C65.024 51.0901 62.2814 55.4075 61.1418 60.2566C60.2588 60.0866 59.3616 60.001 58.4624 60.0011C54.8376 59.994 51.3417 61.3522 48.6644 63.8078C45.9871 66.2634 44.3229 69.6379 44 73.2659L133.904 73.2658C133.528 71.0524 132.386 69.0437 130.679 67.5945C128.972 66.1454 126.81 65.3491 124.575 65.3463Z" fill="url(#paint1_linear)"/>
<path d="M210.809 119.221C209.076 119.222 207.376 119.69 205.885 120.576C204.179 117.912 201.673 115.862 198.729 114.725C195.785 113.588 192.558 113.421 189.513 114.251C188.401 109.254 185.634 104.784 181.664 101.572C177.694 98.3592 172.756 96.5937 167.658 96.5639C162.56 96.534 157.602 98.2416 153.595 101.408C149.588 104.574 146.769 109.011 145.599 113.994C144.688 113.821 143.763 113.733 142.836 113.73C139.114 113.73 135.527 115.13 132.781 117.653C130.035 120.176 128.329 123.641 128 127.364H220.401C220.018 125.088 218.844 123.021 217.088 121.531C215.332 120.04 213.108 119.222 210.809 119.221Z" fill="url(#paint2_linear)"/>
<defs>
<filter id="filter0_d" x="-371" y="-381" width="1408" height="632" filterUnits="userSpaceOnUse" color-interpolation-filters="sRGB">
<feFlood flood-opacity="0" result="BackgroundImageFix"/>
<feColorMatrix in="SourceAlpha" type="matrix" values="0 0 0 0 0 0 0 0 0 0 0 0 0 0 0 0 0 0 127 0"/>
<feOffset dy="3"/>
<feGaussianBlur stdDeviation="2"/>
<feColorMatrix type="matrix" values="0 0 0 0 0.313726 0 0 0 0 0.431373 0 0 0 0 0.764706 0 0 0 0.12 0"/>
<feBlend mode="normal" in2="BackgroundImageFix" result="effect1_dropShadow"/>
<feBlend mode="normal" in="SourceGraphic" in2="effect1_dropShadow" result="shape"/>
</filter>
<linearGradient id="paint0_linear" x1="77.8851" y1="35.6233" x2="63.8417" y2="0.365548" gradientUnits="userSpaceOnUse">
<stop stop-color="#C0C6D9" stop-opacity="0"/>
<stop offset="0.515625" stop-color="#C0C6D9" stop-opacity="0.13"/>
<stop offset="0.921875" stop-color="#C0C6D9"/>
</linearGradient>
<linearGradient id="paint1_linear" x1="44.0293" y1="58.2816" x2="143.735" y2="58.5526" gradientUnits="userSpaceOnUse">
<stop offset="0.00520833" stop-color="#7E89A9" stop-opacity="0.48"/>
<stop offset="0.333333" stop-color="#E1E5ED"/>
<stop offset="0.473958" stop-color="white" stop-opacity="0.81"/>
<stop offset="0.885417" stop-color="white" stop-opacity="0.12"/>
</linearGradient>
<linearGradient id="paint2_linear" x1="220.371" y1="111.963" x2="117.896" y2="112.242" gradientUnits="userSpaceOnUse">
<stop offset="0.00520833" stop-color="#7E89A9" stop-opacity="0.48"/>
<stop offset="0.385417" stop-color="#E1E5ED"/>
<stop offset="0.588542" stop-color="white" stop-opacity="0.9"/>
<stop offset="0.979167" stop-color="white" stop-opacity="0"/>
</linearGradient>
</defs>
</svg>
