<svg width="28" height="28" viewBox="0 0 28 28" fill="none" xmlns="http://www.w3.org/2000/svg">
<mask id="mask0" mask-type="alpha" maskUnits="userSpaceOnUse" x="0" y="4" width="28" height="20">
<path d="M26 4H2C0.89543 4 0 4.89543 0 6V22C0 23.1046 0.89543 24 2 24H26C27.1046 24 28 23.1046 28 22V6C28 4.89543 27.1046 4 26 4Z" fill="white"/>
</mask>
<g mask="url(#mask0)">
<path d="M26 4H2C0.89543 4 0 4.89543 0 6V22C0 23.1046 0.89543 24 2 24H26C27.1046 24 28 23.1046 28 22V6C28 4.89543 27.1046 4 26 4Z" fill="white"/>
<path d="M28 4H0V24H28V4Z" fill="#157CBB"/>
<path fill-rule="evenodd" clip-rule="evenodd" d="M0 16H8V24H12V16H28V12H12V4H8V12H0V16Z" fill="#FFD34D"/>
</g>
</svg>
