<svg width="28" height="28" viewBox="0 0 28 28" fill="none" xmlns="http://www.w3.org/2000/svg">
<mask id="mask0" mask-type="alpha" maskUnits="userSpaceOnUse" x="0" y="4" width="28" height="20">
<path d="M26 4H2C0.89543 4 0 4.89543 0 6V22C0 23.1046 0.89543 24 2 24H26C27.1046 24 28 23.1046 28 22V6C28 4.89543 27.1046 4 26 4Z" fill="white"/>
</mask>
<g mask="url(#mask0)">
<path d="M26 4H2C0.89543 4 0 4.89543 0 6V22C0 23.1046 0.89543 24 2 24H26C27.1046 24 28 23.1046 28 22V6C28 4.89543 27.1046 4 26 4Z" fill="white"/>
<path d="M28 4H0V24H28V4Z" fill="#FF0000"/>
<path fill-rule="evenodd" clip-rule="evenodd" d="M12 16H8.34104C8.15269 16 8 15.8481 8 15.659V12.341C8 12.1527 8.15192 12 8.34104 12H12V8.34104C12 8.15269 12.1519 8 12.341 8H15.659C15.8473 8 16 8.15192 16 8.34104V12H19.659C19.8473 12 20 12.1519 20 12.341V15.659C20 15.8473 19.8481 16 19.659 16H16V19.659C16 19.8473 15.8481 20 15.659 20H12.341C12.1527 20 12 19.8481 12 19.659V16Z" fill="white"/>
</g>
</svg>
