<svg width="28" height="28" viewBox="0 0 28 28" fill="none" xmlns="http://www.w3.org/2000/svg">
<mask id="mask0" mask-type="alpha" maskUnits="userSpaceOnUse" x="0" y="4" width="28" height="20">
<path d="M26 4H2C0.89543 4 0 4.89543 0 6V22C0 23.1046 0.89543 24 2 24H26C27.1046 24 28 23.1046 28 22V6C28 4.89543 27.1046 4 26 4Z" fill="white"/>
</mask>
<g mask="url(#mask0)">
<path d="M26 4H2C0.89543 4 0 4.89543 0 6V22C0 23.1046 0.89543 24 2 24H26C27.1046 24 28 23.1046 28 22V6C28 4.89543 27.1046 4 26 4Z" fill="white"/>
<path d="M29.3334 2.66675H-1.33331V25.3334H29.3334V2.66675Z" fill="#FE3030"/>
<path d="M14.6667 2.66675H-1.33331V14.6667H14.6667V2.66675Z" fill="#0909B6"/>
<path fill-rule="evenodd" clip-rule="evenodd" d="M7.33332 10.9999L6.05771 12.4129L6.15481 10.5118L4.25372 10.6089L5.66665 9.33326L4.25372 8.05765L6.15481 8.15475L6.05771 6.25366L7.33332 7.66659L8.60893 6.25366L8.51183 8.15475L10.4129 8.05765L8.99999 9.33326L10.4129 10.6089L8.51183 10.5118L8.60893 12.4129L7.33332 10.9999Z" fill="white"/>
</g>
</svg>
