<svg width="28" height="28" viewBox="0 0 28 28" fill="none" xmlns="http://www.w3.org/2000/svg">
<path fill-rule="evenodd" clip-rule="evenodd" d="M0 5.5C0 4.11929 1.11929 3 2.5 3H25.5C26.8807 3 28 4.11929 28 5.5V21.5C28 22.8807 26.8807 24 25.5 24H2.5C1.11929 24 0 22.8807 0 21.5V5.5Z" fill="#F4F6F7"/>
<path d="M6.69161 6.00049H12.6709C13.5055 6.00049 14.0246 6.6808 13.8299 7.51822L11.0462 19.47C10.8497 20.3045 10.014 20.9854 9.1788 20.9854H3.20014C2.36665 20.9854 1.84637 20.3045 2.04107 19.47L4.826 7.51822C5.02071 6.6808 5.85594 6.00049 6.69161 6.00049Z" fill="#E21836"/>
<path d="M12.1731 6H19.0491C19.8836 6 19.5073 6.68031 19.311 7.51773L16.5277 19.4695C16.3324 20.304 16.3933 20.9849 15.557 20.9849H8.68107C7.84482 20.9849 7.3273 20.304 7.52375 19.4695L10.3069 7.51773C10.5046 6.68031 11.338 6 12.1731 6Z" fill="#00447C"/>
<path d="M18.7764 6H24.7556C25.5914 6 26.1105 6.68031 25.9142 7.51773L23.1309 19.4695C22.9344 20.304 22.0982 20.9849 21.2625 20.9849H15.2861C14.4498 20.9849 13.9311 20.304 14.127 19.4695L16.9108 7.51773C17.1055 6.68031 17.9401 6 18.7764 6Z" fill="#007B84"/>
<path d="M8.25297 9.83018C7.6381 9.83645 7.45651 9.83018 7.3985 9.81649C7.37621 9.92244 6.96129 11.8364 6.96012 11.838C6.87078 12.2253 6.80578 12.5013 6.58499 12.6795C6.45965 12.7832 6.31333 12.8331 6.14369 12.8331C5.87101 12.8331 5.71215 12.6977 5.68548 12.441L5.68038 12.3528C5.68038 12.3528 5.76346 11.8341 5.76346 11.8312C5.76346 11.8312 6.19892 10.087 6.27689 9.85642C6.28097 9.8433 6.28214 9.83645 6.28316 9.83018C5.43554 9.83762 5.28529 9.83018 5.27494 9.81649C5.26925 9.83529 5.24827 9.94342 5.24827 9.94342L4.80362 11.9093L4.76543 12.076L4.69154 12.6214C4.69154 12.7832 4.72331 12.9152 4.78657 13.0268C4.98914 13.3808 5.567 13.4339 5.89389 13.4339C6.31508 13.4339 6.71018 13.3444 6.97717 13.181C7.44062 12.9072 7.56188 12.4791 7.67002 12.0988L7.72015 11.9036C7.72015 11.9036 8.16874 10.0921 8.24496 9.85642C8.24787 9.8433 8.24904 9.83645 8.25297 9.83018ZM9.77926 11.2916C9.67112 11.2916 9.47349 11.3178 9.29598 11.4048C9.23157 11.4379 9.17065 11.4761 9.10638 11.5141L9.16438 11.3047L9.13261 11.2694C8.75617 11.3456 8.67193 11.3558 8.32419 11.4048L8.29505 11.4242C8.25468 11.759 8.21883 12.0106 8.06915 12.6687C8.01217 12.9112 7.953 13.156 7.89368 13.3979L7.90971 13.4287C8.26605 13.4099 8.37418 13.4099 8.68388 13.415L8.70895 13.3877C8.7483 13.1862 8.7534 13.139 8.84055 12.7307C8.8815 12.5372 8.96691 12.1119 9.00902 11.9605C9.08641 11.9247 9.16278 11.8894 9.23565 11.8894C9.40922 11.8894 9.38809 12.0408 9.38139 12.1012C9.37395 12.2024 9.3107 12.5333 9.24585 12.8173L9.20257 13.0007C9.1724 13.136 9.13931 13.2676 9.10915 13.4019L9.12226 13.4287C9.47349 13.4099 9.58061 13.4099 9.88054 13.415L9.91581 13.3877C9.97003 13.0729 9.98591 12.9887 10.0821 12.5304L10.1305 12.3198C10.2245 11.9076 10.2717 11.6986 10.2006 11.5284C10.1254 11.3376 9.94496 11.2916 9.77926 11.2916ZM11.4843 11.7231C11.2976 11.7589 11.1785 11.7828 11.0602 11.7983C10.9429 11.8171 10.8285 11.8341 10.648 11.8592L10.6338 11.8722L10.6206 11.8825C10.6018 12.0169 10.5887 12.1331 10.5638 12.2696C10.5427 12.4108 10.5102 12.5713 10.4573 12.8019C10.4163 12.9783 10.3952 13.0398 10.3719 13.1019C10.3491 13.164 10.3241 13.2243 10.278 13.3979L10.2888 13.414L10.2978 13.4287C10.4664 13.4207 10.5768 13.415 10.6902 13.414C10.8034 13.4099 10.9207 13.414 11.1023 13.415L11.1182 13.402L11.1352 13.3877C11.1615 13.2312 11.1654 13.1891 11.1814 13.1127C11.1973 13.0308 11.2247 12.9174 11.2919 12.6146C11.3237 12.4723 11.3591 12.3305 11.392 12.1854C11.4263 12.0408 11.4621 11.8984 11.4962 11.7562L11.4911 11.739L11.4843 11.7231ZM11.4883 11.1413C11.3186 11.0411 11.0209 11.0729 10.8205 11.2112C10.6207 11.3468 10.5979 11.5391 10.767 11.6406C10.9337 11.7379 11.2326 11.7089 11.4313 11.5695C11.6307 11.431 11.6556 11.2404 11.4883 11.1413ZM12.5142 13.4601C12.8574 13.4601 13.2092 13.3655 13.474 13.0848C13.6778 12.8571 13.7712 12.5184 13.8036 12.379C13.9089 11.9167 13.8269 11.7008 13.7238 11.5694C13.5673 11.369 13.2907 11.3047 13.0037 11.3047C12.8312 11.3047 12.4202 11.3218 12.0991 11.6178C11.8686 11.8313 11.762 12.121 11.6978 12.3988C11.6329 12.6818 11.5583 13.1913 12.0268 13.3809C12.1714 13.443 12.3798 13.4601 12.5142 13.4601ZM12.4874 12.4199C12.5665 12.0698 12.6599 11.776 12.8984 11.776C13.0852 11.776 13.0988 11.9946 13.0157 12.3459C13.0008 12.4238 12.9326 12.7137 12.8404 12.8372C12.7759 12.9283 12.6997 12.9835 12.6155 12.9835C12.5904 12.9835 12.4413 12.9835 12.439 12.7621C12.4378 12.6528 12.4601 12.5412 12.4874 12.4199ZM14.6615 13.415L14.6883 13.3878C14.7264 13.1862 14.7326 13.1389 14.8169 12.7308C14.859 12.5372 14.9461 12.112 14.9871 11.9606C15.0646 11.9246 15.1397 11.8893 15.2149 11.8893C15.3873 11.8893 15.3663 12.0407 15.3595 12.101C15.3532 12.2025 15.2899 12.5332 15.2239 12.8172L15.183 13.0006C15.1516 13.1361 15.1175 13.2675 15.0874 13.4019L15.1005 13.4287C15.4529 13.4099 15.5559 13.4099 15.8576 13.415L15.894 13.3878C15.9469 13.0728 15.9612 12.9886 16.0603 12.5304L16.1075 12.3197C16.202 11.9075 16.2498 11.6987 16.1798 11.5284C16.1024 11.3377 15.9209 11.2916 15.7575 11.2916C15.6492 11.2916 15.4506 11.3177 15.2741 11.4049C15.211 11.4379 15.1477 11.476 15.0856 11.5142L15.1397 11.3047L15.1107 11.2693C14.7344 11.3457 14.6484 11.3559 14.3011 11.4049L14.2744 11.4242C14.2323 11.759 14.1981 12.0105 14.0484 12.6687C13.9914 12.9112 13.9322 13.1561 13.8731 13.398L13.889 13.4287C14.2459 13.4099 14.3524 13.4099 14.6615 13.415ZM17.2506 13.4287C17.2728 13.3205 17.4044 12.6796 17.4056 12.6796C17.4056 12.6796 17.5176 12.2093 17.5245 12.1922C17.5245 12.1922 17.5598 12.1432 17.595 12.1239H17.6469C18.1364 12.1239 18.6892 12.1239 19.1225 11.8051C19.4174 11.5865 19.6189 11.2637 19.7088 10.8714C19.7322 10.7752 19.7493 10.6608 19.7493 10.5464C19.7493 10.3961 19.7192 10.2475 19.632 10.1313C19.4111 9.8222 18.9711 9.81651 18.4632 9.81418C18.4616 9.81418 18.2128 9.81651 18.2128 9.81651C17.5627 9.82453 17.3019 9.8222 17.1948 9.80908C17.1858 9.85645 17.1687 9.94068 17.1687 9.94068C17.1687 9.94068 16.9359 11.02 16.9359 11.0218C16.9359 11.0218 16.3785 13.3166 16.3523 13.4247C16.92 13.4179 17.1527 13.4179 17.2506 13.4287ZM17.6822 11.5113C17.6822 11.5113 17.9298 10.4342 17.9286 10.4382L17.9366 10.383L17.9401 10.3409L18.0391 10.3511C18.0391 10.3511 18.5498 10.395 18.5617 10.3961C18.7633 10.4741 18.8463 10.6751 18.7883 10.9374C18.7354 11.1771 18.5799 11.3787 18.3801 11.476C18.2156 11.5585 18.014 11.5654 17.8064 11.5654H17.672L17.6822 11.5113ZM19.2239 12.4399C19.1584 12.7188 19.0832 13.2283 19.5495 13.4099C19.6981 13.4732 19.8313 13.492 19.9667 13.4851C20.1097 13.4774 20.2421 13.4057 20.3649 13.3025C20.3538 13.3449 20.3427 13.3873 20.3316 13.4299L20.3528 13.4571C20.6881 13.443 20.7922 13.443 21.1555 13.4458L21.1884 13.4207C21.2415 13.1088 21.2915 12.806 21.4293 12.2093C21.4965 11.9235 21.5636 11.6405 21.6325 11.3559L21.6217 11.3245C21.2466 11.394 21.1463 11.4089 20.7855 11.4601L20.7581 11.4824C20.7544 11.5114 20.7506 11.5392 20.7471 11.567C20.691 11.4764 20.6097 11.399 20.4842 11.3508C20.3238 11.2876 19.9469 11.369 19.6229 11.6639C19.3953 11.8745 19.286 12.1631 19.2239 12.4399ZM20.0117 12.4569C20.092 12.1131 20.1843 11.8222 20.4233 11.8222C20.5744 11.8222 20.654 11.9617 20.6378 12.1995C20.625 12.2589 20.6112 12.3214 20.5947 12.3921C20.5708 12.4942 20.5448 12.5955 20.5196 12.6969C20.494 12.7663 20.4641 12.8318 20.4313 12.8753C20.3698 12.9625 20.2235 13.0166 20.1393 13.0166C20.1154 13.0166 19.9679 13.0166 19.9628 12.7991C19.9616 12.6908 19.9839 12.5793 20.0117 12.4569ZM24.126 11.3217L24.097 11.2887C23.7258 11.3639 23.6586 11.3758 23.3176 11.4219L23.2925 11.4469C23.2914 11.451 23.2904 11.4573 23.2886 11.463L23.2874 11.4573C23.0336 12.043 23.041 11.9166 22.8343 12.3778C22.8332 12.3568 22.8332 12.3437 22.832 12.3214L22.7803 11.3217L22.7478 11.2887C22.3589 11.3639 22.3498 11.3758 21.9907 11.4219L21.9627 11.4469C21.9587 11.4589 21.9587 11.472 21.9564 11.4863L21.9587 11.4914C22.0036 11.7208 21.9928 11.6696 22.0379 12.0316C22.0589 12.2093 22.0868 12.388 22.1078 12.5634C22.1432 12.8571 22.1631 13.0017 22.2063 13.4498C21.9638 13.85 21.9064 14.0014 21.6729 14.3527L21.6745 14.3562L21.5102 14.6162C21.4914 14.6436 21.4743 14.6624 21.4504 14.6704C21.4242 14.6834 21.3901 14.6857 21.3427 14.6857H21.2516L21.1162 15.136L21.5807 15.144C21.8534 15.1429 22.0248 15.0154 22.117 14.844L22.4091 14.3435H22.4044L22.4352 14.3082C22.6316 13.8853 24.126 11.3217 24.126 11.3217ZM19.2239 17.2362H19.0268L19.7561 14.8241H19.998L20.0748 14.5756L20.0823 14.8519C20.0732 15.0227 20.2076 15.1741 20.5606 15.1491H20.9688L21.1093 14.6846H20.9557C20.8674 14.6846 20.8264 14.6623 20.8315 14.6145L20.8241 14.3334H20.0681V14.3348C19.8237 14.3399 19.0939 14.3583 18.9461 14.3976C18.7673 14.4437 18.5788 14.5792 18.5788 14.5792L18.6528 14.3305H17.9457L17.7984 14.8241L17.0593 17.2731H16.9159L16.7753 17.7342H18.1837L18.1365 17.8879H18.8305L18.8766 17.7342H19.0713L19.2239 17.2362ZM18.646 15.3142C18.5328 15.3455 18.322 15.4405 18.322 15.4405L18.5094 14.8241H19.0713L18.9357 15.2732C18.9357 15.2732 18.7622 15.2834 18.646 15.3142ZM18.6568 16.1949C18.6568 16.1949 18.4803 16.217 18.3641 16.2433C18.2497 16.278 18.0352 16.3873 18.0352 16.3873L18.2287 15.7457H18.7935L18.6568 16.1949ZM18.342 17.2419H17.7784L17.9418 16.7005H18.5036L18.342 17.2419ZM19.6992 15.7457H20.5115L20.3948 16.1238H19.5717L19.4481 16.5371H20.1683L19.623 17.305C19.5848 17.3614 19.5505 17.3814 19.5125 17.3972C19.4743 17.4166 19.4242 17.4394 19.3662 17.4394H19.1664L19.0291 17.892H19.5517C19.8234 17.892 19.9838 17.7684 20.1023 17.6062L20.4763 17.0944L20.5566 17.6141C20.5736 17.7115 20.6436 17.7684 20.691 17.7906C20.7433 17.8168 20.7973 17.8619 20.8737 17.8686C20.9556 17.8721 21.0148 17.8748 21.0541 17.8748H21.3109L21.4651 17.3682H21.3638C21.3057 17.3682 21.2056 17.3585 21.1885 17.3403C21.1715 17.3181 21.1715 17.284 21.1623 17.2321L21.0808 16.7112H20.7472L20.8935 16.5371H21.7151L21.8414 16.1238H21.0808L21.1993 15.7457H21.9576L22.0982 15.2795H19.8375L19.6992 15.7457ZM12.8381 17.3472L13.0277 16.7164H13.8069L13.9493 16.2473H13.1693L13.2884 15.859H14.0506L14.1918 15.4047H12.2847L12.1464 15.859H12.5797L12.4641 16.2473H12.0296L11.8857 16.7244H12.3188L12.0661 17.5589C12.032 17.6694 12.0821 17.7115 12.1139 17.7628C12.1464 17.8128 12.1793 17.8459 12.2534 17.8647C12.3297 17.8817 12.382 17.8919 12.4532 17.8919H13.3317L13.4882 17.3722L13.0988 17.4257C13.0236 17.4257 12.8153 17.4167 12.8381 17.3472ZM12.9274 14.3276L12.73 14.6845C12.6877 14.7625 12.6497 14.8109 12.6154 14.8332C12.5852 14.852 12.5255 14.8598 12.4389 14.8598H12.3359L12.1982 15.3165H12.5404C12.7049 15.3165 12.8313 15.2561 12.8916 15.2259C12.9564 15.1913 12.9735 15.2111 13.0236 15.1627L13.1392 15.0626H14.2078L14.3496 14.5872H13.5674L13.7039 14.3276H12.9274ZM14.505 17.3563C14.4868 17.3301 14.4999 17.2839 14.5277 17.1877L14.8198 16.221H15.8588C16.0102 16.2188 16.1195 16.2171 16.1906 16.212C16.267 16.204 16.35 16.1767 16.4405 16.1277C16.534 16.0764 16.5818 16.0224 16.6221 15.9603C16.6672 15.8983 16.7395 15.7628 16.8015 15.5538L17.1687 14.3305L16.0905 14.3367C16.0905 14.3367 15.7585 14.3857 15.6123 14.4398C15.4648 14.5001 15.2541 14.6686 15.2541 14.6686L15.3514 14.3332H14.6854L13.753 17.4257C13.7199 17.5458 13.6977 17.6329 13.6926 17.6853C13.6909 17.7417 13.7638 17.7975 13.811 17.8396C13.8668 17.8817 13.9493 17.8749 14.0284 17.8817C14.1116 17.888 14.23 17.8919 14.3933 17.8919H14.9052L15.0623 17.3614L14.6041 17.4047C14.5551 17.4047 14.5197 17.3785 14.505 17.3563ZM15.0082 15.5681H16.0995L16.0301 15.7855C16.0204 15.7906 15.9971 15.7748 15.886 15.7879H14.941L15.0082 15.5681ZM15.2268 14.8388H16.3273L16.2482 15.1007C16.2482 15.1007 15.7295 15.0956 15.6464 15.1109C15.2809 15.1742 15.0674 15.3695 15.0674 15.3695L15.2268 14.8388ZM16.0546 16.5137C16.0455 16.5462 16.0312 16.566 16.0113 16.5809C15.9891 16.5952 15.9533 16.6003 15.8998 16.6003H15.7443L15.7535 16.3355H15.1067L15.0804 17.6301C15.0794 17.7235 15.0885 17.7775 15.1568 17.8208C15.2252 17.8749 15.4358 17.8818 15.7192 17.8818H16.1245L16.2708 17.3972L15.918 17.4166L15.8007 17.4234C15.7847 17.4166 15.7694 17.4103 15.7523 17.3932C15.7374 17.3785 15.7124 17.3876 15.7165 17.2941L15.7192 16.9623L16.0893 16.947C16.2891 16.947 16.3745 16.882 16.4473 16.82C16.5169 16.7607 16.5396 16.6925 16.5658 16.6003L16.6279 16.3065H16.1194L16.0546 16.5137Z" fill="#FEFEFE"/>
</svg>
