<svg width="48" height="48" viewBox="0 0 48 48" fill="none" xmlns="http://www.w3.org/2000/svg">
<path d="M30.0056 30.1312C29.7937 30.1312 29.5797 30.0553 29.3976 29.9013L25.0174 26.1488L20.7952 29.8879C20.3633 30.2697 19.7311 30.1893 19.3913 29.7069C19.0474 29.2245 19.1214 28.523 19.5533 28.1389L24.3855 23.8592C24.7435 23.5399 25.2514 23.5376 25.6177 23.848L30.6176 28.1277C31.0556 28.505 31.1376 29.2021 30.8018 29.6957C30.6019 29.9817 30.3039 30.1313 30.0059 30.1313L30.0056 30.1312Z" fill="black"/>
<path d="M25.0059 48C24.4537 48 24.0057 47.4997 24.0057 46.8831V26.78C24.0057 26.1634 24.4537 25.6631 25.0059 25.6631C25.558 25.6631 26.006 26.1634 26.006 26.78V46.8831C26.006 47.4997 25.558 48 25.0059 48Z" fill="black"/>
<path d="M38.9997 37.9485H30.0056C29.4535 37.9485 29.0055 37.4482 29.0055 36.8315C29.0055 36.2149 29.4535 35.7146 30.0056 35.7146H38.9997C42.8599 35.7146 45.9979 32.2145 45.9979 27.9078C45.9979 25.1003 44.67 22.5717 42.4478 21.1556C42.1156 20.9436 41.9178 20.5345 41.9479 20.1059C41.98 19.6348 41.9978 19.3128 41.9978 18.9823C41.9978 9.74598 35.2698 2.22976 26.9993 2.22976C20.1411 2.22976 14.1695 7.41633 12.4775 14.8477C12.3616 15.3593 11.9274 15.7123 11.4636 15.6876C11.3535 15.6809 11.2477 15.6674 11.1395 15.6472C6.05157 15.6068 1.99545 20.1345 1.99545 25.67C1.99545 31.205 6.0334 35.7081 10.9955 35.7081H20.0059C20.558 35.7081 21.006 36.2107 21.006 36.8251C21.006 37.4417 20.558 37.9487 20.0059 37.9487H10.9998C4.93376 37.9487 0 32.4428 0 25.6754C0 18.9946 4.8081 13.5418 10.7675 13.4039C12.9456 5.46553 19.5071 0 27.002 0C36.3741 0 44.0001 8.51688 44.0001 18.9859C44.0001 19.1893 43.9941 19.3923 43.9841 19.5935C46.4742 21.4543 48 24.5789 48 27.9118C47.998 33.4469 43.962 37.9499 38.9999 37.9499L38.9997 37.9485Z" fill="url(#paint0_linear_10397_22297)"/>
<defs>
<linearGradient id="paint0_linear_10397_22297" x1="2.22974" y1="6.3157" x2="46.8243" y2="6.3157" gradientUnits="userSpaceOnUse">
<stop stop-color="#1BF8EC"/>
<stop offset="1" stop-color="#6933FF"/>
</linearGradient>
</defs>
</svg>
