<svg width="28" height="28" viewBox="0 0 28 28" fill="none" xmlns="http://www.w3.org/2000/svg">
<mask id="mask0" mask-type="alpha" maskUnits="userSpaceOnUse" x="0" y="4" width="28" height="20">
<path d="M26 4H2C0.89543 4 0 4.89543 0 6V22C0 23.1046 0.89543 24 2 24H26C27.1046 24 28 23.1046 28 22V6C28 4.89543 27.1046 4 26 4Z" fill="white"/>
</mask>
<g mask="url(#mask0)">
<path d="M26 4H2C0.89543 4 0 4.89543 0 6V22C0 23.1046 0.89543 24 2 24H26C27.1046 24 28 23.1046 28 22V6C28 4.89543 27.1046 4 26 4Z" fill="white"/>
<path fill-rule="evenodd" clip-rule="evenodd" d="M0 4H28V6H0V4ZM0 8H28V10H0V8ZM0 12H28V14H0V12ZM0 16H28V18H0V16ZM0 20H28V22H0V20Z" fill="#D02F44"/>
<path d="M17 4H0V16H17V4Z" fill="#46467F"/>
</g>
</svg>
