<svg width="28" height="28" viewBox="0 0 28 28" fill="none" xmlns="http://www.w3.org/2000/svg">
<path d="M25.4059 3H2.59407C1.16141 3 0 4.23693 0 5.76277V21.2372C0 22.7631 1.16141 24 2.59407 24H25.4059C26.8386 24 28 22.7631 28 21.2372V5.76277C28 4.23693 26.8386 3 25.4059 3Z" fill="#0066B2"/>
<path d="M12.8034 16.2427H11.3345L12.2526 10.6006H13.7215L12.8034 16.2427Z" fill="white"/>
<path d="M10.0992 10.6003L8.70022 14.4798L8.53497 13.6448L8.04096 11.1092C8.04096 11.1092 7.98063 10.6012 7.34149 10.6012H5.0271L5 10.6965C5.54192 10.8318 6.05998 11.0491 6.53622 11.3409L7.81276 16.2425H9.34373L11.6809 10.6012L10.0992 10.6003Z" fill="white"/>
<path d="M21.6518 16.2423H23L21.824 10.6011H20.6437C20.0981 10.6011 19.9652 11.0208 19.9652 11.0208L17.7793 16.2423H19.3103L19.6163 15.4038H21.4795L21.6518 16.2423ZM20.0351 14.2462L20.8072 12.1355L21.2443 14.2462H20.0351Z" fill="white"/>
<path d="M17.8895 11.9575L18.0993 10.7457C17.6739 10.5939 17.2271 10.511 16.7756 10.5C16.0464 10.5 14.316 10.8191 14.316 12.3676C14.316 13.8251 16.3471 13.8435 16.3471 14.6085C16.3471 15.3736 14.525 15.2372 13.9243 14.7546L13.7057 16.0206C13.7057 16.0206 14.3615 16.3397 15.367 16.3397C16.3725 16.3397 17.8816 15.8204 17.8816 14.4083C17.8816 12.9412 15.8321 12.8048 15.8321 12.1674C15.8321 11.53 17.2608 11.6113 17.8895 11.9575Z" fill="white"/>
<path d="M8.53321 13.6451L8.03921 11.1096C8.03921 11.1096 7.97888 10.6016 7.33974 10.6016H5.0271L5 10.6969C5.79732 10.8997 6.54124 11.2729 7.18061 11.7907C7.78753 12.2783 8.25427 12.9183 8.53321 13.6451Z" fill="#F9A533"/>
</svg>
