<svg width="16" height="16" viewBox="0 0 16 16" fill="none" xmlns="http://www.w3.org/2000/svg">
<path d="M7.33332 2.66666C7.33332 3.1044 7.2471 3.53785 7.07959 3.94227C6.91207 4.34669 6.66654 4.71415 6.35701 5.02368C6.04748 5.33321 5.68002 5.57874 5.2756 5.74626C4.87118 5.91377 4.43773 5.99999 3.99999 5.99999C3.56225 5.99999 3.1288 5.91377 2.72438 5.74625C2.31996 5.57874 1.9525 5.33321 1.64297 5.02368C1.33344 4.71415 1.08791 4.34669 0.920391 3.94227C0.752876 3.53785 0.666656 3.1044 0.666656 2.66666L3.99999 2.66666H7.33332Z" fill="#475872"/>
<path d="M8.00001 13.3333C8.00001 12.8956 8.09485 12.4622 8.27912 12.0577C8.46339 11.6533 8.73347 11.2858 9.07395 10.9763C9.41443 10.6668 9.81864 10.4213 10.2635 10.2537C10.7084 10.0862 11.1852 10 11.6667 10C12.1482 10 12.625 10.0862 13.0698 10.2537C13.5147 10.4213 13.9189 10.6668 14.2594 10.9763C14.5999 11.2859 14.87 11.6533 15.0542 12.0577C15.2385 12.4622 15.3333 12.8956 15.3333 13.3333L11.6667 13.3333L8.00001 13.3333Z" fill="#475872"/>
<path d="M14.6667 2.66666L8 9.99999V2.66666H14.6667Z" fill="#475872"/>
<path d="M1.33334 13.3333L7.33334 5.33334L7.33334 13.3333L1.33334 13.3333Z" fill="#475872"/>
</svg>
