<svg width="48" height="48" viewBox="0 0 48 48" fill="none" xmlns="http://www.w3.org/2000/svg">
<path fill-rule="evenodd" clip-rule="evenodd" d="M6.49091 2.57141C4.83405 2.57141 3.49091 3.91456 3.49091 5.57141V8.69386H3.52404C3.50235 8.86092 3.49119 9.03897 3.49119 9.22874V14.8162H5.23664V8.69386H46.2546V43.6858H5.23664V33.1836H3.49119V44.5571C3.49119 45.0384 3.88192 45.4285 4.36392 45.4285H47.1273C47.6093 45.4285 48 45.0384 48 44.5571V9.22874C48 9.03897 47.9889 8.86092 47.9672 8.69386H47.9997V5.57141C47.9997 3.91456 46.6566 2.57141 44.9997 2.57141H6.49091Z" fill="#7E89A9"/>
<rect opacity="0.2" x="3.49088" y="26.1865" width="35.7816" height="4.37318" rx="1" fill="#7E89A9"/>
<rect x="12.2181" y="22.6322" width="27.0544" height="2.73556" fill="white"/>
<path opacity="0.15" fill-rule="evenodd" clip-rule="evenodd" d="M42.7634 12.1925H8.72723V40.1808H42.7634V12.1925ZM12.2181 14.8162H39.2725V17.4402H12.2181V14.8162ZM12.2181 34.933H39.2725V37.5569H12.2181V34.933Z" fill="#7E89A9"/>
<path fill-rule="evenodd" clip-rule="evenodd" d="M0 18.4403C0 17.888 0.447715 17.4403 1 17.4403H38.2725C38.8248 17.4403 39.2725 17.888 39.2725 18.4403V26.0613C39.2725 26.6136 38.8248 27.0613 38.2725 27.0613H1C0.447718 27.0613 0 26.6136 0 26.0613V18.4403ZM9.59995 20.9387H35.7816V23.5626H9.59995V20.9387ZM4.79996 23.6184C5.52295 23.6184 6.10904 23.006 6.10904 22.2506C6.10904 21.4952 5.52295 20.8828 4.79996 20.8828C4.07697 20.8828 3.49088 21.4952 3.49088 22.2506C3.49088 23.006 4.07697 23.6184 4.79996 23.6184Z" fill="#7E89A9"/>
</svg>
