<svg width="16" height="16" viewBox="0 0 16 16" fill="none" xmlns="http://www.w3.org/2000/svg">
<path fill-rule="evenodd" clip-rule="evenodd" d="M1.66666 2.66667C1.11437 2.66667 0.666656 3.11439 0.666656 3.66667V6.00001H15.3333V3.66667C15.3333 3.11439 14.8856 2.66667 14.3333 2.66667H1.66666ZM15.3333 7.33334H0.666656V12.3333C0.666656 12.8856 1.11437 13.3333 1.66666 13.3333H14.3333C14.8856 13.3333 15.3333 12.8856 15.3333 12.3333V7.33334ZM3.33332 11.3333C3.33332 11.7015 3.03485 12 2.66666 12C2.29847 12 1.99999 11.7015 1.99999 11.3333C1.99999 10.9651 2.29847 10.6667 2.66666 10.6667C3.03485 10.6667 3.33332 10.9651 3.33332 11.3333ZM5.33332 12C5.70151 12 5.99999 11.7015 5.99999 11.3333C5.99999 10.9651 5.70151 10.6667 5.33332 10.6667C4.96513 10.6667 4.66666 10.9651 4.66666 11.3333C4.66666 11.7015 4.96513 12 5.33332 12Z" fill="#394455"/>
</svg>
