<svg width="24" height="24" viewBox="0 0 24 24" fill="none" xmlns="http://www.w3.org/2000/svg">
<path fill-rule="evenodd" clip-rule="evenodd" d="M6.80623 4.61954C6.2024 4.01571 5.22338 4.01571 4.61955 4.61954C4.01571 5.22338 4.01571 6.20239 4.61955 6.80622L9.97999 12.1667L4.61955 17.5271C4.01571 18.1309 4.01571 19.11 4.61955 19.7138C5.22338 20.3176 6.2024 20.3176 6.80623 19.7138L12.1667 14.3533L17.5271 19.7138C18.1309 20.3176 19.11 20.3176 19.7138 19.7138C20.3176 19.11 20.3176 18.1309 19.7138 17.5271L14.3534 12.1667L19.7138 6.80622C20.3176 6.20239 20.3176 5.22338 19.7138 4.61954C19.11 4.01571 18.1309 4.01571 17.5271 4.61954L12.1667 9.97998L6.80623 4.61954Z" fill="#242A35"/>
</svg>
