<svg width="24" height="24" viewBox="0 0 24 24" fill="none" xmlns="http://www.w3.org/2000/svg">
<g clip-path="url(#clip0_11029_22051)">
<path d="M12 0C5.39027 0 0 5.3726 0 12C0 18.6274 5.3726 24 12 24C18.6274 24 24 18.6274 24 12C24 5.3726 18.6274 0 12 0ZM12 22.215C6.36229 22.215 1.7673 17.62 1.7673 11.9823C1.7673 6.34462 6.36229 1.74963 12 1.74963C17.6377 1.74963 22.2327 6.34462 22.2327 11.9823C22.2327 17.62 17.6377 22.215 12 22.215Z" fill="#394455"/>
<path d="M16.6997 5.99999L12 10.6811L7.3003 5.99999L5.99999 7.3003L10.6811 12L5.99999 16.6997L7.3003 18L12 13.3189L16.6997 18L18 16.6997L13.3189 12L18 7.3003L16.6997 5.99999Z" fill="#394455"/>
</g>
<defs>
<clipPath id="clip0_11029_22051">
<rect width="24" height="24" fill="white"/>
</clipPath>
</defs>
</svg>
