<svg width="25" height="25" viewBox="0 0 25 25" fill="none" xmlns="http://www.w3.org/2000/svg">
<path fill-rule="evenodd" clip-rule="evenodd" d="M12.9091 2.90909C7.3864 2.90909 2.90912 7.38637 2.90912 12.9091C2.90912 18.4318 7.3864 22.9091 12.9091 22.9091C18.4318 22.9091 22.9091 18.4318 22.9091 12.9091C22.9091 7.38637 18.4318 2.90909 12.9091 2.90909ZM0.909119 12.9091C0.909119 6.2818 6.28183 0.909088 12.9091 0.909088C19.5364 0.909088 24.9091 6.2818 24.9091 12.9091C24.9091 19.5364 19.5364 24.9091 12.9091 24.9091C6.28183 24.9091 0.909119 19.5364 0.909119 12.9091ZM16.4443 9.37332C16.8348 9.76381 16.8349 10.397 16.4444 10.7875L14.3232 12.9091L16.4442 15.0304C16.8347 15.421 16.8346 16.0542 16.4441 16.4447C16.0535 16.8352 15.4203 16.8351 15.0298 16.4445L12.9091 14.3234L10.7884 16.4445C10.3979 16.8351 9.76475 16.8352 9.37419 16.4447C8.98363 16.0542 8.98358 15.421 9.37407 15.0304L11.495 12.9091L9.37384 10.7875C8.98335 10.397 8.98341 9.76381 9.37397 9.37332C9.76453 8.98283 10.3977 8.98289 10.7882 9.37345L12.9091 11.4948L15.0301 9.37345C15.4206 8.98289 16.0537 8.98283 16.4443 9.37332Z" fill="#242A35"/>
</svg>
