<svg width="24" height="24" viewBox="0 0 24 24" fill="none" xmlns="http://www.w3.org/2000/svg">
<g clip-path="url(#clip0_11029_22031)">
<path d="M12 0C5.39028 0 0 5.37261 0 12C0 18.6274 5.37261 24 12 24C18.6274 24 24 18.6274 24 12C24 5.37261 18.6274 0 12 0ZM12 22.215C6.3623 22.215 1.7673 17.62 1.7673 11.9823C1.7673 6.34462 6.3623 1.74963 12 1.74963C17.6377 1.74963 22.2327 6.34462 22.2327 11.9823C22.2327 17.62 17.6377 22.215 12 22.215Z" fill="#394455"/>
<path d="M10.6392 14.4919L6.3623 11.2931L5.30191 12.7069L10.9043 16.9131L18.8395 7.63476L17.4963 6.48601L10.6392 14.4919Z" fill="#394455"/>
</g>
<defs>
<clipPath id="clip0_11029_22031">
<rect width="24" height="24" fill="white"/>
</clipPath>
</defs>
</svg>
