<svg width="25" height="25" viewBox="0 0 25 25" fill="none" xmlns="http://www.w3.org/2000/svg">
<path fill-rule="evenodd" clip-rule="evenodd" d="M0.909119 12.9091C0.909119 6.2818 6.28183 0.909088 12.9091 0.909088C19.5364 0.909088 24.9091 6.2818 24.9091 12.9091C24.9091 19.5364 19.5364 24.9091 12.9091 24.9091C6.28183 24.9091 0.909119 19.5364 0.909119 12.9091ZM17.4233 8.81958C17.9246 9.15378 18.0601 9.83109 17.7259 10.3324L13.3623 16.8779C13.0281 17.3792 12.3507 17.5146 11.8494 17.1804L8.57672 14.9986C8.07541 14.6644 7.93995 13.9871 8.27415 13.4858C8.60836 12.9845 9.28567 12.849 9.78697 13.1832L12.152 14.7599L15.9105 9.12214C16.2447 8.62084 16.922 8.48538 17.4233 8.81958Z" fill="#242A35"/>
</svg>
