<svg width="24" height="24" viewBox="0 0 24 24" fill="none" xmlns="http://www.w3.org/2000/svg">
<path fill-rule="evenodd" clip-rule="evenodd" d="M11.9963 0.615448C10.1267 0.615448 8.61103 2.13109 8.61103 4.00073C8.61103 5.87037 10.1267 7.38602 11.9963 7.38602C12.2239 7.38602 12.4462 7.36356 12.6612 7.32075L17.1871 15.4011L18.7993 14.498L14.3059 6.47577C14.9678 5.85787 15.3816 4.97763 15.3816 4.00073C15.3816 2.13109 13.866 0.615448 11.9963 0.615448ZM10.4589 4.00073C10.4589 3.15167 11.1472 2.46336 11.9963 2.46336C12.8454 2.46336 13.5337 3.15167 13.5337 4.00073C13.5337 4.8498 12.8454 5.5381 11.9963 5.5381C11.1472 5.5381 10.4589 4.8498 10.4589 4.00073Z" fill="#17294E"/>
<path fill-rule="evenodd" clip-rule="evenodd" d="M0 19.9993C0 18.1296 1.51564 16.614 3.38528 16.614C3.60924 16.614 3.82812 16.6357 4.03992 16.6772L8.49057 8.55791L10.111 9.44616L5.687 17.5169C6.35348 18.1351 6.77057 19.0185 6.77057 19.9993C6.77057 21.8689 5.25493 23.3845 3.38528 23.3845C1.51564 23.3845 0 21.8689 0 19.9993ZM3.38528 18.4619C2.53622 18.4619 1.84792 19.1502 1.84792 19.9993C1.84792 20.8483 2.53622 21.5366 3.38528 21.5366C4.23435 21.5366 4.92265 20.8483 4.92265 19.9993C4.92265 19.1502 4.23435 18.4619 3.38528 18.4619Z" fill="#17294E"/>
<path fill-rule="evenodd" clip-rule="evenodd" d="M17.2637 19.5156C17.4984 17.875 18.9093 16.6139 20.6147 16.6139C22.4843 16.6139 24 18.1296 24 19.9992C24 21.8688 22.4843 23.3845 20.6147 23.3845C19.2305 23.3845 18.0403 22.5537 17.5156 21.3635L8.84265 21.3635V19.5156H17.2637ZM20.6147 18.4618C19.7656 18.4618 19.0773 19.1501 19.0773 19.9992C19.0773 20.8483 19.7656 21.5366 20.6147 21.5366C21.4638 21.5366 22.1521 20.8483 22.1521 19.9992C22.1521 19.1501 21.4638 18.4618 20.6147 18.4618Z" fill="#17294E"/>
</svg>
