<svg width="48" height="48" viewBox="0 0 48 48" fill="none" xmlns="http://www.w3.org/2000/svg">
<path opacity="0.14" d="M27.0782 8.92745C27.7904 7.71006 29.571 7.71006 30.2832 8.92745L44.7054 33.5796C45.4176 34.797 44.5273 36.3188 43.1029 36.3188H14.2585C12.8341 36.3188 11.9438 34.797 12.656 33.5796L27.0782 8.92745Z" fill="#7E89A9"/>
<path fill-rule="evenodd" clip-rule="evenodd" d="M25.6641 3.25774C24.4472 2.87367 23.1328 2.92003 21.9468 3.38884C20.7609 3.85764 19.7775 4.7196 19.1657 5.82648C18.554 6.93337 18.3522 8.216 18.595 9.45383C18.8379 10.6917 19.5101 11.8073 20.4962 12.6089C21.4822 13.4105 22.7203 13.848 23.9978 13.8462C24.7397 13.8459 25.4725 13.6964 26.1519 13.4083L35.5903 28.902C35.6665 29.0271 35.767 29.1363 35.8859 29.2231C36.0049 29.3099 36.14 29.3728 36.2836 29.4081C36.4272 29.4434 36.5764 29.4504 36.7227 29.4288C36.869 29.4072 37.0096 29.3573 37.1364 29.2821C37.2633 29.2069 37.3738 29.1077 37.4618 28.9903C37.5498 28.8729 37.6135 28.7396 37.6492 28.5979C37.685 28.4562 37.6921 28.3089 37.6702 28.1645C37.6483 28.0201 37.5978 27.8814 37.5216 27.7562L28.002 12.1292C28.7986 11.2893 29.306 10.2187 29.446 9.07114C29.5986 7.81937 29.3046 6.55422 28.6144 5.49325C27.9241 4.43228 26.8809 3.6418 25.6641 3.25774ZM21.7014 6.15023C22.3106 5.54915 23.1364 5.21105 23.9978 5.21008C24.6402 5.21019 25.2682 5.39827 25.8023 5.75055C26.3365 6.10287 26.7529 6.60361 26.9987 7.18944C27.2445 7.77528 27.3088 8.41989 27.1834 9.04178C27.058 9.66367 26.7486 10.2349 26.2943 10.6832C25.8399 11.1316 25.2611 11.4369 24.6309 11.5606C24.0007 11.6843 23.3475 11.6208 22.7539 11.3781C22.1603 11.1354 21.653 10.7245 21.296 10.1973C20.9391 9.67017 20.7486 9.05047 20.7485 8.41655C20.7496 7.56639 21.0923 6.75135 21.7014 6.15023ZM10.4785 37.2578C10.0158 36.2904 9.27528 35.4828 8.35389 34.9323L17.951 19.1467C18.1048 18.8938 18.1505 18.5909 18.0781 18.3048C18.0057 18.0187 17.821 17.7727 17.5648 17.6209C17.3085 17.4691 17.0017 17.424 16.7118 17.4955C16.4218 17.5669 16.1725 17.7492 16.0187 18.002L6.33103 33.9366L6.32927 33.9396C6.28238 34.0182 6.24593 34.1017 6.22025 34.188C5.60749 34.1083 4.98439 34.1309 4.37725 34.256C3.62157 34.4117 2.90754 34.7226 2.28159 35.1685C1.65564 35.6144 1.13179 36.1853 0.744099 36.8441C0.356403 37.5029 0.113543 38.2348 0.0313057 38.9923C-0.0509316 39.7498 0.0292949 40.516 0.266772 41.2409C0.504249 41.9658 0.893658 42.6332 1.40968 43.1999C1.92571 43.7665 2.55679 44.2196 3.26191 44.5297C3.96691 44.8398 4.73033 45 5.50218 45C6.74328 45.0009 7.9482 44.5874 8.92095 43.8267C9.89375 43.066 10.5771 42.0029 10.8599 40.8102C11.1427 39.6175 11.0082 38.3655 10.4785 37.2578ZM42.8823 34.153C41.4929 34.057 40.1184 34.4844 39.0359 35.3491C38.0482 36.1381 37.3706 37.2375 37.1119 38.4578H16.9845C16.6857 38.4578 16.3991 38.575 16.1877 38.7835C15.9764 38.9921 15.8577 39.2749 15.8577 39.5699C15.8577 39.8648 15.9764 40.1477 16.1877 40.3562C16.3991 40.5647 16.6857 40.6819 16.9845 40.6819H37.1119C37.3706 41.9022 38.0482 43.0016 39.0359 43.7906C40.1184 44.6553 41.4929 45.0828 42.8823 44.9867C44.2716 44.8906 45.5723 44.2782 46.5221 43.2729C47.4719 42.2676 48 40.9443 48 39.5699C48 38.1954 47.4719 36.8721 46.5221 35.8668C45.5723 34.8615 44.2716 34.2491 42.8823 34.153ZM3.2064 37.3041C3.81551 36.7029 4.64135 36.3648 5.50277 36.3638C6.14514 36.3639 6.77305 36.5519 7.30717 36.9041C7.44918 36.9977 7.58286 37.1019 7.70722 37.2153C8.05073 37.5286 8.32316 37.9128 8.50368 38.3429C8.74957 38.9288 8.8139 39.5734 8.68855 40.1953C8.5632 40.8172 8.2538 41.3885 7.79946 41.8368C7.34857 42.2818 6.77504 42.5859 6.15042 42.7114C6.14564 42.7124 6.14087 42.7133 6.13609 42.7143C5.50591 42.838 4.85271 42.7745 4.25909 42.5318C3.66547 42.2892 3.1581 41.8783 2.80113 41.351C2.44421 40.8239 2.25368 40.2041 2.25363 39.5701C2.25468 38.7201 2.59732 37.9051 3.2064 37.3041ZM40.196 37.3041C40.8051 36.703 41.631 36.3648 42.4924 36.3638C43.1348 36.3639 43.7627 36.5519 44.2968 36.9041C44.8311 37.2564 45.2474 37.7572 45.4933 38.343C45.7392 38.9288 45.8035 39.5734 45.6782 40.1953C45.5528 40.8173 45.2434 41.3885 44.7891 41.8369C44.3348 42.2853 43.7559 42.5906 43.1257 42.7143C42.4955 42.838 41.8423 42.7745 41.2487 42.5319C40.6551 42.2892 40.1477 41.8783 39.7908 41.351C39.4339 40.8239 39.2434 40.2042 39.2433 39.5703C39.2443 38.7202 39.5869 37.9052 40.196 37.3041Z" fill="#7E89A9"/>
</svg>
