<svg width="24" height="24" viewBox="0 0 24 24" fill="none" xmlns="http://www.w3.org/2000/svg">
<path fill-rule="evenodd" clip-rule="evenodd" d="M4.10037 1C1.8429 1 0 2.78833 0 4.99469V14.0796C0 16.2859 1.8429 18 4.10037 18H7.56474H11.0291L17.4969 22.8474C17.6341 22.9485 17.7983 23 17.963 23C18.0797 23 18.3773 23.0227 18.5273 22.95C18.7896 22.823 19 22.5326 19 22.2432V18H19.8996C22.1571 18 24 16.2859 24 14.0796V4.99469C24 2.78832 22.1571 1 19.8996 1H4.10037ZM1.75 4.99469C1.75 3.63037 2.68935 2.8125 4.10037 2.8125H19.8996C21.3106 2.8125 22.2031 3.63037 22.2031 4.99469V14.0796C22.2031 15.4439 21.3106 16.1807 19.8996 16.1807H17.963C17.5392 16.1807 17.1892 16.516 17.1892 16.9375V20.5L11.7545 16.3245C11.6201 16.2254 11.4565 16.1719 11.2884 16.1719H4.10037C2.68935 16.1719 1.75 15.4439 1.75 14.0796V4.99469Z" fill="#17294E"/>
</svg>
