<svg width="25" height="26" viewBox="0 0 25 26" fill="none" xmlns="http://www.w3.org/2000/svg">
<path fill-rule="evenodd" clip-rule="evenodd" d="M3.38584 3.13859C2.77731 3.1366 2.28124 3.62943 2.27925 4.23796L2.24314 15.2678C2.24115 15.8764 2.73399 16.3724 3.34252 16.3744L14.3724 16.4105C14.9809 16.4125 15.477 15.9197 15.479 15.3112L15.5151 4.28129C15.5171 3.67275 15.0242 3.17668 14.4157 3.17469L3.38584 3.13859ZM0.0732752 4.23074C0.0792551 2.40388 1.56621 0.926635 3.39307 0.932615L14.4229 0.968719C16.2498 0.974699 17.727 2.46165 17.7211 4.28851L17.685 15.3184C17.679 17.1452 16.192 18.6225 14.3652 18.6165L3.3353 18.5804C1.50844 18.5744 0.031191 17.0875 0.0371709 15.2606L0.0732752 4.23074Z" fill="#242A35"/>
<path d="M19.6165 7.40408L20.8202 7.40802C22.6471 7.414 24.1243 8.90095 24.1183 10.7278L24.0822 21.7577C24.0763 23.5845 22.5893 25.0618 20.7624 25.0558L9.73258 25.0197C7.90572 25.0137 6.42847 23.5268 6.43445 21.6999L6.43839 20.4967L8.64436 20.5039L8.64042 21.7071C8.63843 22.3157 9.13126 22.8117 9.7398 22.8137L20.7697 22.8498C21.3782 22.8518 21.8743 22.359 21.8763 21.7505L21.9124 10.7206C21.9144 10.1121 21.4215 9.61598 20.813 9.61399L19.6093 9.61005L19.6165 7.40408Z" fill="#242A35"/>
</svg>
