<svg width="24" height="28" viewBox="0 0 24 28" fill="none" xmlns="http://www.w3.org/2000/svg">
  <path d="M21.3683 28H2.66249C2.04468 28 1.45216 27.7553 1.0153 27.3197C0.578435 26.8842 0.333008 26.2933 0.333008 25.6773V7.15389C0.333008 6.96909 0.406636 6.79184 0.537695 6.66117C0.668755 6.53049 0.846508 6.45708 1.03185 6.45708C1.2172 6.45708 1.39495 6.53049 1.52601 6.66117C1.65708 6.79184 1.7307 6.96909 1.7307 7.15389V25.6541C1.73376 25.9077 1.83697 26.15 2.01793 26.3282C2.1989 26.5065 2.44304 26.6064 2.69744 26.6064H21.3333C21.5877 26.6064 21.8318 26.5065 22.0129 26.3282C22.1938 26.15 22.297 25.9077 22.3001 25.6541V2.35752C22.3001 2.10189 22.1983 1.85671 22.0169 1.67594C21.8355 1.49516 21.5897 1.3936 21.3333 1.3936H7.35641C7.17106 1.3936 6.99331 1.3202 6.86225 1.18953C6.73119 1.05885 6.65756 0.881615 6.65756 0.696807C6.65756 0.512002 6.73119 0.334767 6.86225 0.20409C6.99331 0.0734135 7.17106 0 7.35641 0H21.3333C21.9511 0 22.5436 0.24471 22.9805 0.680299C23.4174 1.11589 23.6628 1.70667 23.6628 2.32269V25.5496C23.6802 25.8623 23.6338 26.1752 23.5268 26.4695C23.4196 26.764 23.2538 27.0337 23.0395 27.2626C22.8252 27.4915 22.5667 27.6748 22.2795 27.8015C21.9923 27.9283 21.6823 27.9958 21.3683 28Z" fill="#6933FF"/>
  <path d="M2.8049 5.16824H1.5632C1.37679 5.16824 1.19802 5.09484 1.06621 4.96415C0.9344 4.83347 0.860352 4.65624 0.860352 4.47143C0.860352 4.28663 0.9344 4.10939 1.06621 3.97872C1.19802 3.84804 1.37679 3.77463 1.5632 3.77463H2.8049C3.06073 3.77465 3.30628 3.67469 3.48828 3.49641C3.67029 3.31816 3.77409 3.07595 3.77717 2.82232V1.53324C3.77717 1.44173 3.79535 1.35111 3.83066 1.26658C3.86598 1.18204 3.91777 1.10522 3.98302 1.04052C4.04829 0.975809 4.12577 0.924481 4.21105 0.889464C4.29632 0.854448 4.38771 0.836426 4.48002 0.836426C4.57231 0.836426 4.66371 0.854448 4.74898 0.889464C4.83425 0.924481 4.91174 0.975809 4.977 1.04052C5.04227 1.10522 5.09403 1.18204 5.12935 1.26658C5.16468 1.35111 5.18286 1.44173 5.18286 1.53324V2.82232C5.18602 3.13226 5.12659 3.43966 5.00805 3.72647C4.88952 4.01326 4.71429 4.27363 4.49269 4.49226C4.27108 4.71087 4.00759 4.88331 3.71772 4.99941C3.42785 5.1155 3.11749 5.17291 2.8049 5.16824Z" fill="#6933FF"/>
  <path d="M13.8044 22.1007H6.24874C6.06233 22.1007 5.88356 22.0273 5.75174 21.8966C5.61994 21.7659 5.5459 21.5887 5.5459 21.4039C5.5459 21.2191 5.61994 21.0419 5.75174 20.9111C5.88356 20.7804 6.06233 20.707 6.24874 20.707H13.8044C13.9907 20.707 14.1695 20.7804 14.3013 20.9111C14.4332 21.0419 14.5072 21.2191 14.5072 21.4039C14.5072 21.5887 14.4332 21.7659 14.3013 21.8966C14.1695 22.0273 13.9907 22.1007 13.8044 22.1007Z" fill="#6933FF"/>
  <path d="M18.7126 18.6163H6.24874C6.06233 18.6163 5.88356 18.5429 5.75174 18.4122C5.61994 18.2815 5.5459 18.1042 5.5459 17.9195C5.5459 17.7347 5.61994 17.5575 5.75174 17.4267C5.88356 17.2961 6.06233 17.2227 6.24874 17.2227H18.7126C18.8989 17.2227 19.0777 17.2961 19.2096 17.4267C19.3413 17.5575 19.4154 17.7347 19.4154 17.9195C19.4154 18.1042 19.3413 18.2815 19.2096 18.4122C19.0777 18.5429 18.8989 18.6163 18.7126 18.6163Z" fill="#6933FF"/>
  <path d="M18.7126 15.1326H6.24874C6.06233 15.1326 5.88356 15.0592 5.75174 14.9286C5.61994 14.7978 5.5459 14.6206 5.5459 14.4358C5.5459 14.251 5.61994 14.0738 5.75174 13.9431C5.88356 13.8123 6.06233 13.739 6.24874 13.739H18.7126C18.8989 13.739 19.0777 13.8123 19.2096 13.9431C19.3413 14.0738 19.4154 14.251 19.4154 14.4358C19.4154 14.6206 19.3413 14.7978 19.2096 14.9286C19.0777 15.0592 18.8989 15.1326 18.7126 15.1326Z" fill="#6933FF"/>
  <path d="M18.7126 11.8804H6.24874C6.06233 11.8804 5.88356 11.807 5.75174 11.6764C5.61994 11.5456 5.5459 11.3684 5.5459 11.1836C5.5459 10.9988 5.61994 10.8216 5.75174 10.6909C5.88356 10.5601 6.06233 10.4868 6.24874 10.4868H18.7126C18.8989 10.4868 19.0777 10.5601 19.2096 10.6909C19.3413 10.8216 19.4154 10.9988 19.4154 11.1836C19.4154 11.3684 19.3413 11.5456 19.2096 11.6764C19.0777 11.807 18.8989 11.8804 18.7126 11.8804Z" fill="#6933FF"/>
  <path d="M18.7126 8.39606H6.24874C6.06233 8.39606 5.88356 8.32266 5.75174 8.19201C5.61994 8.06124 5.5459 7.88402 5.5459 7.69925C5.5459 7.51448 5.61994 7.33726 5.75174 7.20649C5.88356 7.07584 6.06233 7.00244 6.24874 7.00244H18.7126C18.8989 7.00244 19.0777 7.07584 19.2096 7.20649C19.3413 7.33726 19.4154 7.51448 19.4154 7.69925C19.4154 7.88402 19.3413 8.06124 19.2096 8.19201C19.0777 8.32266 18.8989 8.39606 18.7126 8.39606Z" fill="#6933FF"/>
</svg>
