<svg width="24" height="24" viewBox="0 0 24 24" fill="none" xmlns="http://www.w3.org/2000/svg">
<path fill-rule="evenodd" clip-rule="evenodd" d="M11.9987 0C12.8272 0 13.4988 0.67161 13.4988 1.50008V12.8794L18.4402 7.93804C19.026 7.35222 19.9758 7.35222 20.5617 7.93804C21.1475 8.52386 21.1475 9.47366 20.5617 10.0595L13.0612 17.5599L13.0503 17.5708C12.7796 17.8369 12.4083 18.001 11.9987 18.001C11.5533 18.001 11.1532 17.8069 10.8785 17.4986L3.43938 10.0595C2.85356 9.47366 2.85356 8.52386 3.43938 7.93804C4.0252 7.35222 4.975 7.35222 5.56082 7.93804L10.4987 12.8759V1.50008C10.4987 0.67161 11.1703 0 11.9987 0ZM4.5 20.9998C3.67153 20.9998 2.99992 21.6714 2.99992 22.4999C2.99992 23.3284 3.67153 24 4.50001 24H19.5008C20.3293 24 21.0009 23.3284 21.0009 22.4999C21.0009 21.6714 20.3293 20.9998 19.5008 20.9998L4.5 20.9998Z" fill="#242A35"/>
</svg>
