<svg width="49" height="48" viewBox="0 0 49 48" fill="none" xmlns="http://www.w3.org/2000/svg">
<path opacity="0.14" d="M11.0769 17.755C11.0769 16.9435 11.7382 16.2856 12.5538 16.2856H42.0923C42.908 16.2856 43.5692 16.9435 43.5692 17.755V35.3877C43.5692 36.1992 42.908 36.8571 42.0923 36.8571H12.5538C11.7382 36.8571 11.0769 36.1992 11.0769 35.3877V17.755Z" fill="#7E89A9"/>
<path opacity="0.16" fill-rule="evenodd" clip-rule="evenodd" d="M28.5607 29.879C29.0948 30.2953 29.8452 30.2961 30.3802 29.8808L43.5692 19.6418V17.755C43.5692 17.6797 43.5635 17.6058 43.5526 17.5335L29.4697 28.4198L13.6436 16.2856H12.5538C12.1832 16.2856 11.8445 16.4214 11.5852 16.6458L28.5607 29.879Z" fill="#7E89A9"/>
<path fill-rule="evenodd" clip-rule="evenodd" d="M48.247 12.8492C48.247 11.9068 47.4791 11.1428 46.5318 11.1428L28.1094 11.1431L10.9538 11.1431C10.252 11.1431 9.94588 12.0255 10.4983 12.4561L28.4711 26.4668C29.0052 26.8832 29.7557 26.8839 30.2906 26.4686L46.5318 13.8602V34.1789H36.0088C35.8529 34.1789 35.8033 34.388 35.9427 34.4573L38.8134 35.8853H46.5318C46.5426 35.8853 46.5533 35.8855 46.564 35.8853H46.6009L46.6014 35.8843C47.5164 35.848 48.247 35.0985 48.247 34.1792V12.8492ZM13.7838 12.8495L29.3801 25.0076L44.9765 12.8495L13.7838 12.8495ZM0 19.6748C0 19.2036 0.38395 18.8216 0.857576 18.8216H10.2909C10.7645 18.8216 11.1485 19.2036 11.1485 19.6748C11.1485 20.146 10.7645 20.528 10.2909 20.528H0.857576C0.38395 20.528 0 20.146 0 19.6748ZM7.83731 25.6471C7.36368 25.6471 6.97973 26.0291 6.97973 26.5003C6.97973 26.9715 7.36368 27.3535 7.83731 27.3535H17.2706C17.7443 27.3535 18.1282 26.9715 18.1282 26.5003C18.1282 26.0291 17.7443 25.6471 17.2706 25.6471H7.83731ZM15.6746 32.4726C15.201 32.4726 14.817 32.8546 14.817 33.3258C14.817 33.797 15.201 34.179 15.6746 34.179H25.1079C25.5815 34.179 25.9655 33.797 25.9655 33.3258C25.9655 32.8546 25.5815 32.4726 25.1079 32.4726H15.6746Z" fill="#7E89A9"/>
</svg>
