<svg width="24" height="24" viewBox="0 0 24 24" fill="none" xmlns="http://www.w3.org/2000/svg">
<g clip-path="url(#clip0_11029_22077)">
<path d="M12.8837 5.21355H11.1163V14.4742H12.8837V5.21355Z" fill="#394455"/>
<path d="M12.8837 16.3122H11.1163V18.7864H12.8837V16.3122Z" fill="#394455"/>
<path d="M12 24C5.39028 24 0 18.6274 0 12C0 5.37261 5.37261 0 12 0C18.6274 0 24 5.37261 24 12C24 18.6274 18.6274 24 12 24ZM12 1.78498C6.3623 1.78498 1.7673 6.37997 1.7673 12.0177C1.7673 17.6554 6.3623 22.2504 12 22.2504C17.6377 22.2504 22.2327 17.6554 22.2327 12.0177C22.2327 6.37997 17.6377 1.78498 12 1.78498Z" fill="#394455"/>
</g>
<defs>
<clipPath id="clip0_11029_22077">
<rect width="24" height="24" fill="white"/>
</clipPath>
</defs>
</svg>
