<svg width="24" height="24" viewBox="0 0 24 24" fill="none" xmlns="http://www.w3.org/2000/svg">
<path d="M2.87437 1.64008L1.64105 2.8734L21.1276 22.3599L22.3609 21.1266L2.87437 1.64008Z" fill="#394455"/>
<path d="M21.157 15.6105L19.9186 14.3895C20.8605 13.4302 21.5581 12.5233 21.9244 12C20.8256 10.4477 16.9535 5.56397 12.0174 5.56397C11.3023 5.56397 10.5698 5.66862 9.81977 5.87792L9.3314 4.2035C10.2209 3.94187 11.1279 3.81978 12 3.81978C18.8023 3.81978 23.5116 11.2326 23.7035 11.5465L24 12L23.7035 12.4709C23.7035 12.4709 22.7442 14.0058 21.157 15.6105Z" fill="#394455"/>
<path d="M12 20.1802C5.19767 20.1802 0.488372 12.7675 0.296512 12.4535L0 12L0.296512 11.5291C0.296512 11.5291 1.25581 10.0116 2.84302 8.37211L4.0814 9.59304C3.13954 10.5523 2.44186 11.4593 2.07558 12C3.17442 13.5523 7.04651 18.4361 11.9826 18.4361C12.6977 18.4361 13.4302 18.3314 14.1802 18.1221L14.6512 19.7965C13.7442 20.0582 12.8547 20.1802 11.9826 20.1802H12Z" fill="#394455"/>
</svg>
