<svg width="24" height="24" viewBox="0 0 24 24" fill="none" xmlns="http://www.w3.org/2000/svg">
<path d="M12 20.1977C5.19767 20.1977 0.488372 12.7849 0.296512 12.4709L0 12L0.296512 11.5291C0.488372 11.2151 5.19767 3.80234 12 3.80234C18.8023 3.80234 23.5116 11.2151 23.7035 11.5291L24 12L23.7035 12.4709C23.5116 12.7849 18.8023 20.1977 12 20.1977ZM2.09302 12.0175C3.19186 13.5698 7.06395 18.4535 12 18.4535C16.936 18.4535 20.8081 13.5698 21.907 12.0175C20.8081 10.4651 16.936 5.58141 12 5.58141C7.06395 5.58141 3.19186 10.4651 2.09302 12.0175Z" fill="#394455"/>
<path d="M12 16.5523C9.50581 16.5523 7.46512 14.5291 7.46512 12.0175C7.46512 9.50583 9.48837 7.48257 12 7.48257C14.5116 7.48257 16.5349 9.50583 16.5349 12.0175C16.5349 14.5291 14.5116 16.5523 12 16.5523ZM12 9.2442C10.4651 9.2442 9.2093 10.5 9.2093 12.0349C9.2093 13.5698 10.4651 14.8256 12 14.8256C13.5349 14.8256 14.7907 13.5698 14.7907 12.0349C14.7907 10.5 13.5349 9.2442 12 9.2442Z" fill="#394455"/>
</svg>
