<svg width="24" height="24" viewBox="0 0 24 24" fill="none" xmlns="http://www.w3.org/2000/svg">
<path fill-rule="evenodd" clip-rule="evenodd" d="M22.1606 11.9825C22.1606 11.2993 22.6336 10.6336 23.4745 10.0905L24 9.75766L23.8599 9.14453C23.562 7.88321 23.0715 6.69197 22.3883 5.60584L22.0555 5.08029L21.4423 5.22044C20.4613 5.44818 19.6555 5.29051 19.1825 4.81752C18.692 4.32701 18.5518 3.52117 18.7796 2.55766L18.9197 1.94453L18.3766 1.61168C17.273 0.928467 16.0818 0.437956 14.838 0.140146L14.2248 0L13.892 0.525548C12.8234 2.22482 11.1766 2.22482 10.108 0.525548L9.77518 0L9.16204 0.140146C7.91825 0.437956 6.72701 0.928467 5.62336 1.61168L5.08029 1.94453L5.22044 2.55766C5.44817 3.53869 5.29051 4.34453 4.81752 4.81752C4.32701 5.30803 3.52117 5.44818 2.55766 5.22044L1.94453 5.08029L1.61168 5.60584C0.928467 6.70949 0.437956 7.90073 0.140146 9.14453L0 9.75766L0.525547 10.0905C1.36642 10.6336 1.83942 11.2993 1.83942 11.9825C1.83942 12.6657 1.36642 13.3489 0.525547 13.8745L0 14.2073L0.140146 14.8204C0.437956 16.0818 0.928467 17.273 1.61168 18.3591L1.94453 18.8847L2.55766 18.7445C3.53869 18.5168 4.34453 18.6745 4.81752 19.1474C5.30803 19.638 5.44817 20.4438 5.22044 21.4073L5.08029 22.0204L5.62336 22.3533C6.72701 23.0365 7.91825 23.527 9.16204 23.8248L9.77518 23.965L10.108 23.4394C11.1766 21.7401 12.8234 21.7401 13.892 23.4394L14.2248 23.965L14.838 23.8248C16.0818 23.527 17.273 23.0365 18.3766 22.3533L18.9022 22.0204L18.762 21.4073C18.5343 20.4263 18.692 19.6204 19.165 19.1474C19.6555 18.6569 20.4613 18.5168 21.4248 18.7445L22.038 18.8847L22.3708 18.3591C23.054 17.2555 23.5445 16.0642 23.8423 14.8204L23.9825 14.2073L23.4569 13.8745C22.6161 13.3314 22.1431 12.6657 22.1431 11.9825H22.1606ZM8.05839 11.9825C8.05839 9.81024 9.82774 8.04089 12 8.04089C14.1723 8.04089 15.9416 9.81024 15.9416 11.9825C15.9416 14.1548 14.1723 15.9241 12 15.9241C9.82774 15.9241 8.05839 14.1548 8.05839 11.9825Z" fill="#394455"/>
</svg>
