<svg width="24" height="24" viewBox="0 0 24 24" fill="none" xmlns="http://www.w3.org/2000/svg">
<path fill-rule="evenodd" clip-rule="evenodd" d="M21.398 9.46044L22.8986 9.78074C23.5287 9.90658 24.0327 10.5243 23.9983 11.1535V12.8122C23.9983 13.4757 23.5058 14.082 22.8643 14.2193L21.3751 14.5396C21.1575 15.3289 20.8367 16.0953 20.4244 16.816L21.2606 18.0972C21.6157 18.6463 21.5355 19.4356 21.0773 19.8932L19.9089 21.0601C19.6454 21.3232 19.2674 21.4719 18.8779 21.4719C18.603 21.4719 18.3281 21.4032 18.1104 21.2545L16.8275 20.4194C16.1058 20.8313 15.3383 21.1516 14.5479 21.3689L14.2272 22.8675C14.0897 23.4967 13.4826 24 12.8297 24H11.1801C10.5157 23.9886 9.89716 23.4967 9.77116 22.8561L9.45042 21.3689C8.64856 21.1516 7.88108 20.8313 7.15941 20.4194L5.87644 21.2545C5.34951 21.5977 4.5362 21.5176 4.08945 21.0715L2.92104 19.9047C2.46284 19.4357 2.38265 18.6463 2.73776 18.1087L3.57398 16.8275C3.16159 16.1182 2.84085 15.3518 2.62321 14.551L1.13405 14.2307C0.504022 14.0934 0 13.4871 0 12.8351V11.1878C0 10.5243 0.492567 9.91802 1.13405 9.78074L2.62321 9.46044C2.84085 8.65968 3.16159 7.89323 3.57398 7.17255L2.73776 5.89132C2.38265 5.34223 2.46284 4.55291 2.92104 4.09533L4.08945 2.9285C4.5362 2.48236 5.34951 2.40229 5.8879 2.74547L7.17086 3.56911C7.90399 3.15729 8.66002 2.83699 9.46187 2.61964L9.78261 1.13251C9.92008 0.503336 10.5386 0 11.1916 0H12.8411C13.4941 0 14.1126 0.491897 14.2501 1.13251L14.5823 2.64252C15.3727 2.85987 16.1402 3.18017 16.8618 3.59199L18.1448 2.75691C18.6717 2.41373 19.4736 2.4938 19.9318 2.93994L21.1002 4.10677C21.5584 4.57579 21.6386 5.36511 21.2835 5.90276L20.4473 7.18398C20.8596 7.90467 21.1804 8.67111 21.398 9.46044ZM12 15.9634C14.2091 15.9634 16 14.1766 16 11.9725C16 9.76845 14.2091 7.98169 12 7.98169C9.79086 7.98169 8 9.76845 8 11.9725C8 14.1766 9.79086 15.9634 12 15.9634Z" fill="#394455"/>
</svg>
