<svg width="24" height="24" viewBox="0 0 24 24" fill="none" xmlns="http://www.w3.org/2000/svg">
<g clip-path="url(#clip0_11029_22323)">
<path d="M22.1606 12.0025C22.1606 11.3193 22.6336 10.6536 23.4745 10.1105L24 9.77765L23.8599 9.16451C23.562 7.9032 23.0715 6.71196 22.3883 5.62583L22.0555 5.10028L21.4423 5.24043C20.4613 5.46816 19.6555 5.3105 19.1825 4.83751C18.692 4.347 18.5518 3.54116 18.7796 2.57765L18.9197 1.96451L18.3766 1.63167C17.273 0.948456 16.0817 0.457945 14.838 0.160135L14.2248 0.019989L13.892 0.545537C12.8234 2.24481 11.1766 2.24481 10.108 0.545537L9.77518 0.019989L9.16204 0.160135C7.91825 0.457945 6.72701 0.948456 5.62336 1.63167L5.08029 1.96451L5.22044 2.57765C5.44817 3.55867 5.29051 4.36451 4.81752 4.83751C4.32701 5.32802 3.52117 5.46816 2.55766 5.24043L1.94453 5.10028L1.61168 5.62583C0.928467 6.72948 0.437956 7.92072 0.140146 9.16451L0 9.77765L0.525547 10.1105C1.36642 10.6536 1.83942 11.3193 1.83942 12.0025C1.83942 12.6857 1.36642 13.3689 0.525547 13.8944L0 14.2273L0.140146 14.8404C0.437956 16.1017 0.928467 17.293 1.61168 18.3791L1.94453 18.9047L2.55766 18.7645C3.53869 18.5368 4.34453 18.6944 4.81752 19.1674C5.30803 19.6579 5.44817 20.4638 5.22044 21.4273L5.08029 22.0404L5.62336 22.3733C6.72701 23.0565 7.91825 23.547 9.16204 23.8448L9.77518 23.985L10.108 23.4594C11.1766 21.7601 12.8234 21.7601 13.892 23.4594L14.2248 23.985L14.838 23.8448C16.0817 23.547 17.273 23.0565 18.3766 22.3733L18.9022 22.0404L18.762 21.4273C18.5343 20.4463 18.692 19.6404 19.165 19.1674C19.6555 18.6769 20.4613 18.5368 21.4248 18.7645L22.038 18.9047L22.3708 18.3791C23.054 17.2755 23.5445 16.0842 23.8423 14.8404L23.9825 14.2273L23.4569 13.8944C22.6161 13.3514 22.1431 12.6857 22.1431 12.0025H22.1606ZM21.1971 16.9601C19.8832 16.8025 18.7445 17.1528 17.9562 17.9412C17.1504 18.747 16.8175 19.8682 16.9752 21.182C16.3445 21.5149 15.6963 21.7952 15.0131 21.9879C13.3664 19.9207 10.6686 19.9207 9.0219 21.9879C8.33869 21.7777 7.69051 21.5149 7.05985 21.182C7.21752 19.8682 6.86715 18.7295 6.07883 17.9412C5.27299 17.1353 4.15182 16.8025 2.83796 16.9601C2.50511 16.3295 2.22482 15.6813 2.03212 14.9981C3.06569 14.1747 3.62628 13.1236 3.62628 12.0025C3.62628 10.8813 3.06569 9.83021 2.03212 9.00685C2.24234 8.32364 2.50511 7.67546 2.83796 7.04481C4.15182 7.20247 5.29051 6.85211 6.07883 6.04627C6.86715 5.24043 7.21752 4.11926 7.05985 2.80539C7.69051 2.47254 8.33869 2.19225 9.0219 1.99955C9.84525 3.03313 10.8963 3.59371 12.0175 3.59371C13.1387 3.59371 14.1898 3.03313 15.0131 1.99955C15.6963 2.20977 16.3445 2.47254 16.9752 2.80539C16.8175 4.11926 17.1679 5.25795 17.9562 6.04627C18.762 6.83459 19.8832 7.18495 21.1971 7.02729C21.5299 7.65794 21.8102 8.30612 22.0029 8.98933C20.9693 9.81269 20.4088 10.8638 20.4088 11.985C20.4088 13.1061 20.9693 14.1572 22.0029 14.9806C21.7927 15.6638 21.5299 16.312 21.1971 16.9426V16.9601Z" fill="#394455"/>
<path d="M12 8.06086C9.82774 8.06086 8.05839 9.83021 8.05839 12.0025C8.05839 14.1747 9.82774 15.9441 12 15.9441C14.1723 15.9441 15.9416 14.1747 15.9416 12.0025C15.9416 9.83021 14.1723 8.06086 12 8.06086ZM12 14.1747C10.7912 14.1747 9.81022 13.1937 9.81022 11.985C9.81022 10.7762 10.7912 9.79517 12 9.79517C13.2088 9.79517 14.1898 10.7762 14.1898 11.985C14.1898 13.1937 13.2088 14.1747 12 14.1747Z" fill="#394455"/>
</g>
<defs>
<clipPath id="clip0_11029_22323">
<rect width="24" height="24" fill="white"/>
</clipPath>
</defs>
</svg>
