<svg width="24" height="24" viewBox="0 0 24 24" fill="none" xmlns="http://www.w3.org/2000/svg">
<g clip-path="url(#clip0_11029_22430)">
<path d="M12 0C5.39085 0 -1.14441e-05 5.37564 -1.14441e-05 12C-1.14441e-05 18.6244 5.37563 24 12 24C18.6244 24 24 18.6244 24 12C24 5.37564 18.6244 0 12 0ZM22.4315 11.1472H16.4924C16.401 7.49239 15.731 3.91371 14.4975 1.84264C18.7919 2.90863 22.0508 6.60914 22.4315 11.1472ZM12 22.4772C10.8274 22.4772 9.15228 18.6701 9.03045 12.6701H14.9695C14.8477 18.6701 13.1726 22.4772 12 22.4772ZM9.03045 11.1472C9.18274 5.25381 10.8426 1.52284 12 1.52284C13.1574 1.52284 14.8173 5.23858 14.9695 11.1472H9.03045ZM9.50253 1.84264C8.28426 3.91371 7.59898 7.47716 7.50761 11.1472H1.56852C1.934 6.62437 5.19288 2.90863 9.50253 1.84264ZM1.56852 12.6701H7.50761C7.58375 16.401 8.2538 20.0558 9.50253 22.1726C5.1472 21.0914 1.85786 17.2995 1.56852 12.6701ZM14.5127 22.1726C15.7614 20.0558 16.4315 16.401 16.5076 12.6701H22.4467C22.1574 17.2843 18.868 21.0914 14.5127 22.1726Z" fill="#394455"/>
</g>
<defs>
<clipPath id="clip0_11029_22430">
<rect width="24" height="24" fill="white"/>
</clipPath>
</defs>
</svg>
