<svg width="24" height="24" viewBox="0 0 24 24" fill="none" xmlns="http://www.w3.org/2000/svg">
<g clip-path="url(#clip0_11029_22125)">
<path fill-rule="evenodd" clip-rule="evenodd" d="M0 12C0 18.6274 5.39028 24 12 24C18.6274 24 24 18.6274 24 12C24 5.37261 18.6274 0 12 0C5.37261 0 0 5.37261 0 12ZM11.293 14.4741H13.0603V13.7849C13.0603 13.2724 13.0603 12.8659 14.1737 11.7525C15.4815 10.4624 16.0294 9.3843 16.0294 8.16486C16.0294 6.68033 14.9867 4.32981 12.1943 4.32981C9.13689 4.32981 7.98814 6.68033 7.98814 8.16486H9.75545C9.75545 7.59932 10.1443 6.09711 12.1943 6.09711C14.2444 6.09711 14.2621 8.14719 14.2621 8.16486C14.2621 8.51832 14.2621 9.17222 12.9189 10.5154C11.4167 12.0176 11.293 12.9012 11.293 13.8026V14.4741ZM11.293 16.3121H13.0603V18.7864H11.293V16.3121Z" fill="#394455"/>
</g>
<defs>
<clipPath id="clip0_11029_22125">
<rect width="24" height="24" fill="white"/>
</clipPath>
</defs>
</svg>
