<svg width="24" height="24" viewBox="0 0 24 24" fill="none" xmlns="http://www.w3.org/2000/svg">
<g clip-path="url(#clip0_11029_22116)">
<path d="M12 24C5.39028 24 0 18.6274 0 12C0 5.37261 5.37261 0 12 0C18.6274 0 24 5.37261 24 12C24 18.6274 18.6274 24 12 24ZM12 1.78498C6.3623 1.78498 1.7673 6.37997 1.7673 12.0177C1.7673 17.6554 6.3623 22.2504 12 22.2504C17.6377 22.2504 22.2327 17.6554 22.2327 12.0177C22.2327 6.37997 17.6377 1.78498 12 1.78498Z" fill="#394455"/>
<path d="M13.0604 16.3122H11.2931V18.7864H13.0604V16.3122Z" fill="#394455"/>
<path d="M13.0604 14.4742H11.2931V13.8027C11.2931 12.9013 11.4168 12.0177 12.919 10.5155C14.2621 9.17231 14.2621 8.51841 14.2621 8.16495C14.2621 8.14727 14.2445 6.0972 12.1944 6.0972C10.1443 6.0972 9.75552 7.59941 9.75552 8.16495H7.98822C7.98822 6.68041 9.13696 4.3299 12.1944 4.3299C14.9867 4.3299 16.0295 6.68041 16.0295 8.16495C16.0295 9.38439 15.4816 10.4624 14.1738 11.7526C13.0604 12.866 13.0604 13.2725 13.0604 13.785V14.4742Z" fill="#394455"/>
</g>
<defs>
<clipPath id="clip0_11029_22116">
<rect width="24" height="24" fill="white"/>
</clipPath>
</defs>
</svg>
