<svg width="24" height="24" viewBox="0 0 24 24" fill="none" xmlns="http://www.w3.org/2000/svg">
<g clip-path="url(#clip0_11029_22093)">
<path d="M12.8837 18.7865H11.1163V9.52577H12.8837V18.7865Z" fill="#394455"/>
<path d="M12.8837 7.68778H11.1163V5.21355H12.8837V7.68778Z" fill="#394455"/>
<path d="M12 0C5.39028 0 0 5.37261 0 12C0 18.6274 5.37261 24 12 24C18.6274 24 24 18.6274 24 12C24 5.37261 18.6274 0 12 0ZM12 22.215C6.3623 22.215 1.7673 17.62 1.7673 11.9823C1.7673 6.34463 6.3623 1.74963 12 1.74963C17.6377 1.74963 22.2327 6.34463 22.2327 11.9823C22.2327 17.62 17.6377 22.215 12 22.215Z" fill="#394455"/>
</g>
<defs>
<clipPath id="clip0_11029_22093">
<rect width="24" height="24" fill="white" transform="matrix(1 0 0 -1 0 24)"/>
</clipPath>
</defs>
</svg>
