<svg width="24" height="24" viewBox="0 0 24 24" fill="none" xmlns="http://www.w3.org/2000/svg">
<g clip-path="url(#clip0_11029_22326)">
<path d="M12 0C5.39026 0 0 5.37259 0 12C0 18.6273 5.37259 23.9999 12 23.9999C18.6273 23.9999 23.9999 18.6273 23.9999 12C23.9999 5.37259 18.6273 0 12 0ZM22.2326 12C22.2326 14.5095 21.3313 16.7893 19.8291 18.5743L5.42561 4.17083C7.21058 2.66862 9.4904 1.7673 12 1.7673C17.6377 1.7673 22.2326 6.36228 22.2326 12ZM1.78497 12C1.78497 9.4904 2.6863 7.21058 4.1885 5.42561L18.592 19.8291C16.807 21.3313 14.5272 22.2326 12.0176 22.2326C6.37995 22.2326 1.78497 17.6377 1.78497 12Z" fill="#394455"/>
</g>
<defs>
<clipPath id="clip0_11029_22326">
<rect width="24" height="24" fill="white"/>
</clipPath>
</defs>
</svg>
