<svg width="24" height="24" viewBox="0 0 24 24" fill="none" xmlns="http://www.w3.org/2000/svg">
<path fill-rule="evenodd" clip-rule="evenodd" d="M7.05092 13.4397C6.96807 13.317 6.89459 13.1876 6.8244 13.0603L6.77532 12.9709C6.72023 12.8703 6.6661 12.7714 6.60691 12.6717L6.60272 12.6647C6.56059 12.587 6.51542 12.5078 6.47016 12.4287C6.39263 12.2934 6.31525 12.1582 6.25424 12.0308L6.2303 11.9888C5.77218 11.1854 5.41921 10.5665 5.22616 9.58934C5.06429 8.97352 5 8.35941 5 7.74896C5 3.49195 8.30162 0 12.3707 0C16.4398 0 19.7415 3.49188 19.7415 7.74896C19.7415 8.35941 19.6773 8.9735 19.5159 9.58929C19.3228 10.5658 18.9702 11.1844 18.5129 11.9867L18.4878 12.0308C18.4268 12.1583 18.3493 12.2935 18.2717 12.4289C18.2265 12.5079 18.1812 12.587 18.1392 12.6646L18.1352 12.6718L18.1306 12.6793C17.9738 12.9435 17.8201 13.2024 17.6975 13.4284L17.6936 13.4356C17.0659 14.4929 16.7134 15.1153 16.7134 16.3506V19.4725C16.7134 20.2815 16.1791 20.9987 15.4238 21.207C15.2661 22.0226 14.9441 22.7067 14.4511 23.1959C13.9269 23.7161 13.2253 24 12.371 24C11.5162 24 10.8222 23.7158 10.3021 23.1953C9.81312 22.706 9.49173 22.0221 9.32084 21.208C8.56636 21.0042 8.02866 20.3163 8.02866 19.4725V16.3506C8.02866 15.1378 7.6894 14.5486 7.08011 13.4904L7.05092 13.4397ZM9.74156 16.9377H15.0314V16.3839C15.0314 16.3012 15.0382 16.2266 15.0451 16.1621H9.73825C9.74159 16.2318 9.74158 16.3015 9.74156 16.3718L9.74156 16.9377ZM9.72538 19.5504C9.72903 19.5546 9.73241 19.5569 9.73533 19.5583C9.73797 19.5595 9.74303 19.5613 9.75237 19.5613H14.9889C15.0092 19.5613 15.0254 19.5525 15.0337 19.5437L15.0312 19.5301V18.6861H9.70999V19.5056C9.70999 19.5242 9.71708 19.5409 9.72538 19.5504ZM17.876 9.22788C17.9982 8.71362 18.0601 8.23037 18.1223 7.73583C18.1156 4.42669 15.5524 1.74839 12.4334 1.74839C9.31025 1.74839 6.74448 4.4338 6.74448 7.7489C6.74448 8.22901 6.80534 8.71003 6.9273 9.19181L6.92958 9.20082C7.08016 9.92977 7.3173 10.3698 7.75858 11.1664C7.85443 11.3347 7.98159 11.5687 8.10712 11.8002L8.11243 11.81C8.17144 11.9342 8.23833 12.0523 8.30854 12.1714L8.35651 12.2523C8.40992 12.3421 8.46471 12.4343 8.51441 12.5256C8.89915 13.149 9.20665 13.7235 9.43102 14.3804H15.3735C15.5937 13.7461 15.9122 13.1877 16.2473 12.6L16.2938 12.5184C16.3523 12.4262 16.4121 12.3167 16.4798 12.191L16.493 12.1665C16.5553 12.0506 16.6235 11.9239 16.6989 11.7967C16.7334 11.7328 16.7667 11.6693 16.7997 11.6063C16.8793 11.4544 16.9575 11.3053 17.0488 11.1606C17.4862 10.4037 17.7246 9.92889 17.8751 9.23212L17.876 9.22788ZM12.3665 22.2845C12.1948 22.2845 11.937 22.2824 11.6814 22.1375C11.4696 22.0174 11.2351 21.7844 11.07 21.3096H13.6939C13.5277 21.7825 13.2877 22.0156 13.0693 22.1364C12.805 22.2824 12.5381 22.2845 12.3665 22.2845Z" fill="#17294E"/>
</svg>
