<svg width="24" height="24" viewBox="0 0 24 24" fill="none" xmlns="http://www.w3.org/2000/svg">
<path d="M12 0C14.3734 2.83022e-08 16.6935 0.703788 18.6668 2.02236C20.6402 3.34094 22.1783 5.21509 23.0866 7.4078C23.9948 9.60051 24.2324 12.0133 23.7694 14.3411C23.3064 16.6689 22.1635 18.8071 20.4853 20.4853C18.8071 22.1635 16.6689 23.3064 14.3411 23.7694C12.0133 24.2324 9.60051 23.9948 7.4078 23.0866C5.21509 22.1783 3.34094 20.6402 2.02236 18.6668C0.703788 16.6935 -5.66044e-08 14.3734 0 12L1.73184 12C1.73184 14.0308 2.33406 16.0161 3.46234 17.7047C4.59062 19.3933 6.19429 20.7094 8.07055 21.4865C9.94681 22.2637 12.0114 22.4671 14.0032 22.0709C15.995 21.6747 17.8247 20.6967 19.2607 19.2607C20.6967 17.8247 21.6747 15.995 22.0709 14.0032C22.4671 12.0114 22.2637 9.94681 21.4865 8.07055C20.7094 6.19429 19.3933 4.59062 17.7047 3.46234C16.0161 2.33406 14.0308 1.73184 12 1.73184L12 0Z" fill="#394455"/>
</svg>
