<svg width="48" height="49" viewBox="0 0 48 49" fill="none" xmlns="http://www.w3.org/2000/svg">
<path opacity="0.15" fill-rule="evenodd" clip-rule="evenodd" d="M8.09727 6.09611C10.8685 2.82107 15.0092 0.674805 20.4238 0.674805C25.8368 0.674805 29.9765 2.82118 32.7472 6.0962C35.497 9.34655 36.8439 13.6407 36.8439 17.8908C36.8439 20.8724 35.8048 24.0185 34.3368 26.9973C32.8618 29.9906 30.9079 32.9063 28.975 35.451C27.0394 37.9992 25.1067 40.1989 23.6591 41.7607C22.9346 42.5423 22.3301 43.1659 21.9053 43.5954C21.6928 43.8101 21.5252 43.9765 21.4099 44.0899C21.3523 44.1466 21.3077 44.1901 21.2771 44.2198L21.2419 44.254L21.2324 44.2632L21.2297 44.2658C21.2297 44.2658 21.2283 44.267 20.4238 43.3973C19.6195 44.2671 19.619 44.2667 19.619 44.2667L19.6154 44.2633L19.6059 44.2541L19.5707 44.2199C19.5401 44.1902 19.4955 44.1467 19.4378 44.09C19.3225 43.9766 19.1549 43.8102 18.9424 43.5955C18.5175 43.166 17.9128 42.5424 17.1881 41.7608C15.7402 40.199 13.807 37.9994 11.8708 35.4511C9.93748 32.9064 7.98311 29.9907 6.50769 26.9974C5.03938 24.0186 4 20.8725 4 17.8908C4 13.6407 5.34692 9.34649 8.09727 6.09611ZM20.4238 43.3973L19.619 44.2667C20.0708 44.7004 20.7766 44.7008 21.2283 44.267L20.4238 43.3973Z" fill="#7E89A9"/>
<path d="M25.677 47.167L25.677 47.167C25.7385 47.2274 25.7857 47.2735 25.8177 47.3046L25.8538 47.3396L25.8552 47.3409L25.8626 47.3481L25.8642 47.3496L25.8654 47.3508L25.8656 47.3509L25.8662 47.3515L25.677 47.167ZM25.677 47.167C25.554 47.046 25.374 46.8674 25.1451 46.6361C24.6874 46.1734 24.034 45.4997 23.2502 44.6543C21.683 42.9639 19.5927 40.5851 17.5015 37.8328C15.4111 35.0816 13.3151 31.9507 11.7405 28.7561C10.1679 25.5657 9.10269 22.2865 9.10269 19.245C9.10269 14.7998 10.513 10.3457 13.3443 6.99973C16.1798 3.64867 20.4243 1.42847 26.0534 1.42847C31.6805 1.42847 35.924 3.6487 38.759 6.99975C41.5897 10.3457 43 14.7998 43 19.245C43 22.2865 41.9351 25.5657 40.3629 28.7561C38.7887 31.9507 36.6932 35.0815 34.6033 37.8328C32.5127 40.5851 30.4228 42.9639 28.856 44.6543C28.0724 45.4997 27.4192 46.1734 26.9616 46.636C26.7328 46.8674 26.5528 47.046 26.4299 47.167L27.1312 47.8798L26.4299 47.167C26.3684 47.2274 26.3212 47.2735 26.2892 47.3046L26.2534 47.3393L26.2516 47.341L26.2436 47.3487L26.2431 47.3492L26.243 47.3493L26.2422 47.35L26.2407 47.3515M25.677 47.167L26.2407 47.3515M26.2407 47.3515C26.1339 47.4541 25.9732 47.4541 25.8663 47.3517L26.2407 47.3515Z" stroke="#7E89A9" stroke-width="2" stroke-linecap="round" stroke-linejoin="round"/>
<ellipse cx="26.0516" cy="18.2901" rx="5.64094" ry="5.74693" fill="white"/>
<path fill-rule="evenodd" clip-rule="evenodd" d="M18.8722 18.7149C18.8722 14.6772 22.0861 11.4004 26.0517 11.4004C30.0151 11.4004 33.2313 14.6771 33.2313 18.7149C33.2313 22.7526 30.0151 26.0293 26.0517 26.0293C22.0861 26.0293 18.8722 22.7525 18.8722 18.7149ZM20.9234 18.7149C20.9234 15.8309 23.2194 13.4902 26.0517 13.4902C28.8822 13.4902 31.18 15.8312 31.18 18.7149C31.18 21.5985 28.8822 23.9395 26.0517 23.9395C23.2194 23.9395 20.9234 21.5988 20.9234 18.7149Z" fill="#7E89A9"/>
<path opacity="0.3" d="M17.9744 3.69373C7.7181 25.2455 18.6157 29.817 25.0259 45.491C15.8377 38.0894 -2.5385 18.7146 17.9744 3.69373Z" fill="#7E89A9"/>
</svg>
