<svg width="48" height="48" viewBox="0 0 48 48" fill="none" xmlns="http://www.w3.org/2000/svg">
<path opacity="0.15" fill-rule="evenodd" clip-rule="evenodd" d="M8.09727 6.09611C10.8685 2.82107 15.0092 0.674805 20.4238 0.674805C25.8368 0.674805 29.9765 2.82118 32.7472 6.0962C35.497 9.34655 36.8439 13.6407 36.8439 17.8908C36.8439 20.8725 35.8048 24.0185 34.3368 26.9973C32.8618 29.9906 30.9079 32.9063 28.975 35.451C27.0394 37.9992 25.1067 40.1989 23.6591 41.7607C22.9346 42.5423 22.3301 43.1659 21.9053 43.5954C21.6928 43.8101 21.5252 43.9765 21.4099 44.0899C21.3523 44.1466 21.3077 44.1901 21.2771 44.2198L21.2419 44.254L21.2324 44.2632L21.2297 44.2658C21.2297 44.2658 21.2283 44.267 20.4238 43.3973C19.6195 44.2671 19.619 44.2667 19.619 44.2667L19.6154 44.2633L19.6059 44.2541L19.5707 44.2199C19.5401 44.1902 19.4955 44.1467 19.4378 44.09C19.3225 43.9766 19.1549 43.8102 18.9424 43.5955C18.5175 43.166 17.9128 42.5424 17.1881 41.7608C15.7402 40.199 13.807 37.9993 11.8708 35.4511C9.93748 32.9064 7.98311 29.9907 6.50769 26.9974C5.03938 24.0186 4 20.8725 4 17.8908C4 13.6407 5.34692 9.34649 8.09727 6.09611ZM20.4238 43.3973L19.619 44.2667C20.0708 44.7004 20.7766 44.7008 21.2283 44.267L20.4238 43.3973Z" fill="#7E89A9"/>
<path fill-rule="evenodd" clip-rule="evenodd" d="M34.3089 36.7142C38.4458 30.9101 42 23.845 42 18C42 8.31952 34.1234 2.5 26 2.5C17.8766 2.5 10 8.31952 10 18C10 23.828 13.6613 30.8843 17.8704 36.7028C19.9379 39.5608 22.0591 42.0126 23.7641 43.7326C24.6201 44.5961 25.3435 45.2471 25.8819 45.6668C25.9476 45.718 26.0084 45.764 26.0642 45.8052C26.1355 45.7567 26.2148 45.7006 26.3022 45.6359C26.8591 45.2243 27.5934 44.5823 28.456 43.7233C30.1738 42.013 32.274 39.5691 34.3089 36.7142ZM25.6329 46.0569C25.6332 46.0564 25.641 46.053 25.6559 46.048C25.6402 46.0549 25.6327 46.0574 25.6329 46.0569ZM26.4828 46.0813C26.5082 46.0912 26.5218 46.0983 26.5222 46.0994C26.5227 46.1005 26.51 46.0955 26.4828 46.0813ZM26 48C28.5 48 44 31 44 18C44 7 35 0.5 26 0.5C17 0.5 8 7 8 18C8 31 24 48 26 48Z" fill="#7E89A9"/>
<ellipse cx="26.0516" cy="18.2901" rx="5.64094" ry="5.74693" fill="white"/>
<path fill-rule="evenodd" clip-rule="evenodd" d="M18.8722 18.7149C18.8722 14.6772 22.0861 11.4004 26.0517 11.4004C30.0151 11.4004 33.2313 14.6771 33.2313 18.7149C33.2313 22.7526 30.0151 26.0293 26.0517 26.0293C22.0861 26.0293 18.8722 22.7525 18.8722 18.7149ZM20.9234 18.7149C20.9234 15.8309 23.2194 13.4902 26.0517 13.4902C28.8822 13.4902 31.18 15.8312 31.18 18.7149C31.18 21.5985 28.8822 23.9395 26.0517 23.9395C23.2194 23.9395 20.9234 21.5988 20.9234 18.7149Z" fill="#7E89A9"/>
<path opacity="0.3" d="M17.9744 3.69373C7.7181 25.2455 18.6157 29.817 25.0259 45.491C15.8377 38.0894 -2.5385 18.7146 17.9744 3.69373Z" fill="#7E89A9"/>
</svg>
