<svg width="24" height="24" viewBox="0 0 24 24" fill="none" xmlns="http://www.w3.org/2000/svg">
<path fill-rule="evenodd" clip-rule="evenodd" d="M8.5882 6.32558C8.5882 4.3385 10.1152 2.72868 12 2.72868C13.8848 2.72868 15.4117 4.3385 15.4117 6.32558V7.99998H8.5882V6.32558ZM5.99997 7.99998V6.32558C5.99997 2.83149 8.68572 0 12 0C15.3142 0 18 2.83149 18 6.32558V7.99998H18.747C20.543 7.99998 22 9.44391 22 11.2239V20.7761C22 22.5561 20.543 24 18.747 24H5.25301C3.45697 24 1.99999 22.5561 1.99999 20.7761V11.2239C1.99999 9.44391 3.45697 7.99998 5.25301 7.99998H5.99997Z" fill="#242A35"/>
</svg>
