<svg width="24" height="24" viewBox="0 0 24 24" fill="none" xmlns="http://www.w3.org/2000/svg">
<path fill-rule="evenodd" clip-rule="evenodd" d="M8.58827 6.32559C8.58827 4.3385 10.1152 2.72868 12 2.72868C13.8848 2.72868 15.4118 4.3385 15.4118 6.32559V7.99999H8.58827V6.32559ZM6.00003 7.99999V6.32559C6.00003 2.83149 8.68578 0 12 0C15.3143 0 18 2.83149 18 6.32559V7.99999H18.747C20.543 7.99999 22 9.44391 22 11.2239V20.7761C22 22.5561 20.543 24 18.747 24H5.253C3.45696 24 1.99999 22.5561 1.99999 20.7761V11.2239C1.99999 9.44391 3.45696 7.99999 5.253 7.99999H6.00003ZM4.65059 11.2239C4.65059 10.8947 4.92085 10.6269 5.253 10.6269H18.747C19.0791 10.6269 19.3494 10.8947 19.3494 11.2239V20.7761C19.3494 21.1053 19.0791 21.3731 18.747 21.3731H5.253C4.92085 21.3731 4.65059 21.1053 4.65059 20.7761V11.2239Z" fill="#242A35"/>
</svg>
