<svg width="24" height="24" viewBox="0 0 24 24" fill="none" xmlns="http://www.w3.org/2000/svg">
<g clip-path="url(#clip0_11029_22022)">
<path d="M18.7864 11.1163H5.21353V12.8836H18.7864V11.1163Z" fill="#394455"/>
<path d="M12 23.9999C5.39026 23.9999 0 18.6273 0 12C0 5.37259 5.37259 0 12 0C18.6273 0 23.9999 5.37259 23.9999 12C23.9999 18.6273 18.6273 23.9999 12 23.9999ZM12 1.78497C6.36228 1.78497 1.7673 6.37995 1.7673 12.0176C1.7673 17.6553 6.36228 22.2503 12 22.2503C17.6377 22.2503 22.2326 17.6553 22.2326 12.0176C22.2326 6.37995 17.6377 1.78497 12 1.78497Z" fill="#394455"/>
</g>
<defs>
<clipPath id="clip0_11029_22022">
<rect width="24" height="24" fill="white"/>
</clipPath>
</defs>
</svg>
