<svg width="48" height="48" viewBox="0 0 48 48" fill="none" xmlns="http://www.w3.org/2000/svg">
<rect opacity="0.15" x="9.26312" y="14.3362" width="34.5261" height="26.8908" fill="#7E89A9"/>
<path opacity="0.19" fill-rule="evenodd" clip-rule="evenodd" d="M39.7122 26.3086C40.0622 26.6143 40.0977 27.1451 39.7914 27.4944L33.8967 34.2171C33.6401 34.5098 33.2157 34.5885 32.8708 34.4074L25.4543 30.5122L16.91 40.1044C16.619 40.4311 16.1256 40.4806 15.7752 40.2182L5.95069 32.8617C5.57869 32.5832 5.50341 32.0564 5.78254 31.6852C6.06167 31.314 6.58952 31.2389 6.96152 31.5174L16.1661 38.4098L24.6336 28.9038C24.8909 28.6149 25.3125 28.5384 25.6552 28.7184L33.067 32.6112L38.5239 26.3877C38.8302 26.0384 39.3622 26.003 39.7122 26.3086Z" fill="#7E89A9"/>
<path fill-rule="evenodd" clip-rule="evenodd" d="M6.73706 7.15506C6.73706 5.55286 8.04056 4.25208 9.64613 4.25208H43.4067C45.0123 4.25208 46.3158 5.55286 46.3158 7.15506V43.7479H6.73706V31.1429H5.05286V44.5882C5.05286 45.0523 5.42988 45.4286 5.89496 45.4286H47.1579C47.623 45.4286 48 45.0523 48 44.5882V7.15506C48 4.62465 45.9424 2.57141 43.4067 2.57141H9.64613C7.1104 2.57141 5.05286 4.62465 5.05286 7.15506V21.8992H6.73706V7.15506Z" fill="#7E89A9"/>
<path fill-rule="evenodd" clip-rule="evenodd" d="M12.5543 9.21753C13.0193 9.21753 13.3964 9.59376 13.3964 10.0579V10.0766C13.3964 10.5407 13.0193 10.9169 12.5543 10.9169C12.0892 10.9169 11.7122 10.5407 11.7122 10.0766V10.0579C11.7122 9.59376 12.0892 9.21753 12.5543 9.21753Z" fill="#7E89A9"/>
<path fill-rule="evenodd" clip-rule="evenodd" d="M20.0576 9.21753C20.5226 9.21753 20.8997 9.59376 20.8997 10.0579V10.0766C20.8997 10.5407 20.5226 10.9169 20.0576 10.9169C19.5925 10.9169 19.2155 10.5407 19.2155 10.0766V10.0579C19.2155 9.59376 19.5925 9.21753 20.0576 9.21753Z" fill="#7E89A9"/>
<path fill-rule="evenodd" clip-rule="evenodd" d="M27.5599 9.21753C28.025 9.21753 28.402 9.59376 28.402 10.0579V10.0766C28.402 10.5407 28.025 10.9169 27.5599 10.9169C27.0948 10.9169 26.7178 10.5407 26.7178 10.0766V10.0579C26.7178 9.59376 27.0948 9.21753 27.5599 9.21753Z" fill="#7E89A9"/>
<path fill-rule="evenodd" clip-rule="evenodd" d="M39.5787 22.7394C40.974 22.7394 42.105 21.6107 42.105 20.2184C42.105 18.8261 40.974 17.6974 39.5787 17.6974C38.1835 17.6974 37.0524 18.8261 37.0524 20.2184C37.0524 20.756 37.2211 21.2543 37.5084 21.6635L34.0741 25.5802C33.7096 25.3766 33.2894 25.2605 32.8419 25.2605C32.2556 25.2605 31.716 25.4598 31.2873 25.7942L27.7633 23.9433C27.7804 23.8247 27.7893 23.7033 27.7893 23.58C27.7893 22.1877 26.6583 21.059 25.263 21.059C23.8678 21.059 22.7367 22.1877 22.7367 23.58C22.7367 24.0219 22.8507 24.4372 23.0508 24.7984L17.1526 31.42C16.807 31.2428 16.4152 31.1428 15.9999 31.1428C15.5469 31.1428 15.1218 31.2618 14.7541 31.4701L6.96152 25.6351C6.62652 25.3843 6.1577 25.4172 5.86125 25.7125L0.247247 31.3034C-0.0819459 31.6312 -0.0824836 32.1633 0.246045 32.4918C0.574574 32.8203 1.10776 32.8209 1.43695 32.493L6.53441 27.4165L13.6475 32.7427C13.5353 33.0281 13.4736 33.3388 13.4736 33.6638C13.4736 35.0561 14.6047 36.1848 15.9999 36.1848C17.3951 36.1848 18.5262 35.0561 18.5262 33.6638C18.5262 33.3022 18.4499 32.9584 18.3125 32.6475L24.3094 25.9152C24.6037 26.035 24.9256 26.101 25.263 26.101C25.9254 26.101 26.5282 25.8466 26.9787 25.4305L30.3793 27.2165C30.3376 27.3981 30.3156 27.5873 30.3156 27.7815C30.3156 29.1738 31.4467 30.3025 32.8419 30.3025C34.2372 30.3025 35.3682 29.1738 35.3682 27.7815C35.3682 27.455 35.306 27.143 35.1928 26.8567L38.8869 22.6437C39.1068 22.706 39.3388 22.7394 39.5787 22.7394ZM40.4208 20.2184C40.4208 20.6825 40.0438 21.0587 39.5787 21.0587C39.1137 21.0587 38.7366 20.6825 38.7366 20.2184C38.7366 19.7543 39.1137 19.3781 39.5787 19.3781C40.0438 19.3781 40.4208 19.7543 40.4208 20.2184ZM16.842 33.6638C16.842 34.1279 16.465 34.5042 15.9999 34.5042C15.5348 34.5042 15.1578 34.1279 15.1578 33.6638C15.1578 33.1997 15.5348 32.8235 15.9999 32.8235C16.465 32.8235 16.842 33.1997 16.842 33.6638ZM32.8419 28.6217C33.307 28.6217 33.684 28.2455 33.684 27.7814C33.684 27.3173 33.307 26.941 32.8419 26.941C32.3768 26.941 31.9998 27.3173 31.9998 27.7814C31.9998 28.2455 32.3768 28.6217 32.8419 28.6217ZM26.1051 23.5798C26.1051 24.0439 25.7281 24.4202 25.263 24.4202C24.798 24.4202 24.4209 24.0439 24.4209 23.5798C24.4209 23.1157 24.798 22.7395 25.263 22.7395C25.7281 22.7395 26.1051 23.1157 26.1051 23.5798Z" fill="#7E89A9"/>
</svg>
