<svg width="24" height="24" viewBox="0 0 24 24" fill="none" xmlns="http://www.w3.org/2000/svg">
<path d="M19.4181 24H1.1256C0.504 24 0 23.496 0 22.8744V4.58073C0 3.9591 0.504 3.45508 1.1256 3.45508H10.272C10.8936 3.45508 11.3976 3.9591 11.3976 4.58073C11.3976 5.20236 10.8936 5.70638 10.272 5.70638H2.2512V21.7482H18.2923V13.7275C18.2923 13.1059 18.7963 12.6019 19.4179 12.6019C20.0395 12.6019 20.5435 13.1059 20.5435 13.7275V22.8744C20.5438 23.4957 20.0398 24 19.4181 24Z" fill="#242A35"/>
<path d="M24.0001 1.12565V6.94858C24.0001 7.56781 23.4934 8.07423 22.8745 8.07423C22.2526 8.07423 21.7489 7.56754 21.7489 6.94858V3.84151L13.8856 11.7075C13.6662 11.9269 13.3763 12.0368 13.0891 12.0368C12.7992 12.0368 12.5123 11.9269 12.2926 11.7075C11.8536 11.2656 11.8536 10.5535 12.2926 10.1146L20.1555 2.2513H17.0515C16.4296 2.2513 15.9259 1.74755 15.9259 1.12565C15.9259 0.503756 16.4296 0 17.0515 0H22.8713C22.9894 0 23.1049 0.0168007 23.2174 0.0536024C23.2483 0.0648029 23.2793 0.0760034 23.3102 0.0901374C23.3385 0.101338 23.3665 0.112538 23.3947 0.129606C23.4286 0.146407 23.4595 0.163474 23.4905 0.185875C23.5214 0.205609 23.5523 0.22801 23.5833 0.253345C23.6115 0.275746 23.6395 0.30108 23.6678 0.329348C23.6931 0.354683 23.7185 0.382951 23.7438 0.410952C23.8198 0.50669 23.8817 0.610694 23.9238 0.723233C23.935 0.751501 23.9462 0.779502 23.9521 0.804836C23.983 0.911775 24.0001 1.01871 24.0001 1.12565Z" fill="#242A35"/>
</svg>
