<svg width="24" height="24" viewBox="0 0 24 24" fill="none" xmlns="http://www.w3.org/2000/svg">
<g clip-path="url(#clip0_11029_22346)">
<path d="M23.1583 23.984H8.12023V0H23.1583V24V23.984ZM9.72344 22.3808H21.5551V1.60321H9.72344V22.3968V22.3808Z" fill="#394455"/>
<path d="M6.11622 23.984H0.841675V4.47295H6.11622V6.07615H2.44488V22.3808H6.11622V23.984Z" fill="#394455"/>
<path d="M14.1964 4.15231H12.5932V6.39679H14.1964V4.15231Z" fill="#394455"/>
<path d="M18.6854 4.15231H17.0822V6.39679H18.6854V4.15231Z" fill="#394455"/>
<path d="M14.1964 8.62525H12.5932V10.8697H14.1964V8.62525Z" fill="#394455"/>
<path d="M5.79558 8.62525H4.19238V10.8697H5.79558V8.62525Z" fill="#394455"/>
<path d="M18.6854 8.62525H17.0822V10.8697H18.6854V8.62525Z" fill="#394455"/>
<path d="M14.1964 13.1142H12.5932V15.3587H14.1964V13.1142Z" fill="#394455"/>
<path d="M5.79558 13.1142H4.19238V15.3587H5.79558V13.1142Z" fill="#394455"/>
<path d="M18.6854 13.1142H17.0822V15.3587H18.6854V13.1142Z" fill="#394455"/>
</g>
<defs>
<clipPath id="clip0_11029_22346">
<rect width="24" height="24" fill="white"/>
</clipPath>
</defs>
</svg>
