<svg width="24" height="24" viewBox="0 0 24 24" fill="none" xmlns="http://www.w3.org/2000/svg">
<path fill-rule="evenodd" clip-rule="evenodd" d="M20.8188 3.18188C19.2431 1.6062 16.688 1.60579 15.1128 3.18216L12.7152 5.57972C12.697 5.5957 12.6792 5.61238 12.6619 5.62975C12.6445 5.64713 12.6278 5.66493 12.6118 5.68314L3.95027 14.3448C3.81587 14.4792 3.7182 14.6458 3.66659 14.8287L2.04178 20.5871C1.93257 20.9742 2.04104 21.3901 2.32539 21.6745C2.60975 21.9589 3.02559 22.0674 3.41267 21.9583L9.17185 20.3343C9.35484 20.2827 9.52152 20.185 9.65596 20.0505L20.819 8.88735C22.3935 7.31173 22.3939 4.75705 20.8188 3.18188ZM13.4492 7.98845L5.72656 15.7112L4.7193 19.2809L8.28967 18.2742L16.0122 10.5515L13.4492 7.98845ZM17.5836 8.98016L19.2471 7.31657C19.9546 6.60832 19.9543 5.46016 19.2474 4.75323C18.5393 4.04506 17.3916 4.04547 16.6847 4.75294L15.0205 6.4171L17.5836 8.98016Z" fill="#242A35"/>
</svg>
