<svg width="24" height="24" viewBox="0 0 24 24" fill="none" xmlns="http://www.w3.org/2000/svg">
<g clip-path="url(#clip0_11029_21999)">
<path d="M12.8836 5.21353H11.1163V11.1163H5.21353V12.8836H11.1163V18.7864H12.8836V12.8836H18.7864V11.1163H12.8836V5.21353Z" fill="#394455"/>
<path d="M12 0C5.39026 0 0 5.37259 0 12C0 18.6273 5.37259 23.9999 12 23.9999C18.6273 23.9999 23.9999 18.6273 23.9999 12C23.9999 5.37259 18.6273 0 12 0ZM12 22.215C6.36228 22.215 1.7673 17.62 1.7673 11.9823C1.7673 6.34461 6.36228 1.74963 12 1.74963C17.6377 1.74963 22.2326 6.34461 22.2326 11.9823C22.2326 17.62 17.6377 22.215 12 22.215Z" fill="#394455"/>
</g>
<defs>
<clipPath id="clip0_11029_21999">
<rect width="24" height="24" fill="white"/>
</clipPath>
</defs>
</svg>
