<svg width="24" height="24" viewBox="0 0 24 24" fill="none" xmlns="http://www.w3.org/2000/svg">
<g clip-path="url(#clip0_11029_22412)">
<path d="M23.2313 22.003L15.4552 14.2268C16.6039 12.7953 17.3285 11.0104 17.3285 9.04865C17.3285 4.47134 13.6172 0.76001 9.03986 0.76001C4.46255 0.76001 0.751221 4.47134 0.751221 9.04865C0.751221 13.626 4.46255 17.3373 9.03986 17.3373C11.0016 17.3373 12.7865 16.6127 14.218 15.4639L21.9942 23.2401L23.2489 21.9853L23.2313 22.003ZM9.02218 15.57C5.41689 15.57 2.50085 12.6363 2.50085 9.04865C2.50085 5.46103 5.43457 2.52731 9.02218 2.52731C12.6098 2.52731 15.5435 5.46103 15.5435 9.04865C15.5435 12.6363 12.6098 15.57 9.02218 15.57Z" fill="#394455"/>
</g>
<defs>
<clipPath id="clip0_11029_22412">
<rect width="24" height="24" fill="white"/>
</clipPath>
</defs>
</svg>
