<svg width="24" height="24" viewBox="0 0 24 24" fill="none" xmlns="http://www.w3.org/2000/svg">
<path fill-rule="evenodd" clip-rule="evenodd" d="M9.81818 2.18182C5.60104 2.18182 2.18182 5.60104 2.18182 9.81818C2.18182 14.0353 5.60104 17.4545 9.81818 17.4545C14.0353 17.4545 17.4545 14.0353 17.4545 9.81818C17.4545 5.60104 14.0353 2.18182 9.81818 2.18182ZM0 9.81818C0 4.39605 4.39605 0 9.81818 0C15.2403 0 19.6364 4.39605 19.6364 9.81818C19.6364 15.2403 15.2403 19.6364 9.81818 19.6364C4.39605 19.6364 0 15.2403 0 9.81818Z" fill="#242A35"/>
<path fill-rule="evenodd" clip-rule="evenodd" d="M15.5922 15.5922C16.0183 15.1662 16.709 15.1662 17.135 15.5922L23.6805 22.1377C24.1065 22.5637 24.1065 23.2544 23.6805 23.6805C23.2545 24.1065 22.5637 24.1065 22.1377 23.6805L15.5922 17.135C15.1662 16.709 15.1662 16.0183 15.5922 15.5922Z" fill="#242A35"/>
</svg>
