<svg width="25" height="24" viewBox="0 0 25 24" fill="none" xmlns="http://www.w3.org/2000/svg">
<path d="M18.8845 23.8466C19.3449 23.8081 19.6894 23.384 19.6508 22.9006C19.6481 22.865 19.6426 22.8295 19.637 22.7939L18.1569 15.2496L23.5897 10.0569C23.9315 9.73074 23.9563 9.17617 23.6449 8.81734C23.507 8.66017 23.3196 8.55936 23.1184 8.53563L15.8056 7.67562L12.7653 0.662147C12.5751 0.220284 12.079 0.0215964 11.6573 0.220287C11.4698 0.309252 11.321 0.466422 11.2355 0.662147L8.19521 7.67562L0.882475 8.53563C0.422155 8.58901 0.0913869 9.02493 0.143759 9.50535C0.16581 9.7159 0.262284 9.91164 0.41113 10.0569L5.844 15.2496L4.36381 22.7939C4.27009 23.2683 4.56227 23.731 5.01708 23.8288C5.21554 23.8703 5.42227 23.8377 5.59868 23.731L11.999 19.9262L18.3994 23.731C18.5483 23.8229 18.7164 23.8615 18.8845 23.8466ZM17.6194 21.2518L12.4153 18.1558C12.1589 18.0016 11.8419 18.0016 11.5856 18.1558L6.3815 21.2518L7.58605 15.1161C7.64669 14.8136 7.54746 14.4993 7.3297 14.2917L2.90567 10.0658L8.8595 9.36597C9.15444 9.33335 9.40803 9.13762 9.53207 8.8559L12.0018 3.1532L14.4743 8.8559C14.5956 9.13762 14.8519 9.33039 15.1469 9.36597L21.1007 10.0658L16.6767 14.2917C16.4589 14.4993 16.3597 14.8136 16.4203 15.1161C16.4176 15.1161 17.6194 21.2518 17.6194 21.2518Z" fill="#242A35"/>
<path d="M18.8184 23.9979C18.6475 23.9979 18.4821 23.9504 18.336 23.8614L12.0018 20.0982L5.66758 23.8614C5.46361 23.983 5.22105 24.0216 4.99226 23.9741C4.73316 23.9178 4.50989 23.7576 4.36656 23.5234C4.22874 23.295 4.17913 23.0252 4.2315 22.7612L5.69515 15.3029L0.320161 10.1667C0.143751 10.0006 0.0334949 9.76927 0.00593091 9.52313C-0.0216331 9.25624 0.047277 8.98934 0.204392 8.77878C0.36702 8.55933 0.601314 8.41996 0.865929 8.3903L8.10424 7.5392L11.1115 0.602844C11.2107 0.374499 11.3844 0.190624 11.6021 0.0897962C12.0928 -0.141515 12.6716 0.0898085 12.8921 0.602844L15.8994 7.5392L23.1349 8.3903C23.3692 8.41699 23.587 8.53562 23.7468 8.71652C23.9232 8.91817 24.0142 9.1821 24.0004 9.45493C23.9894 9.73073 23.8764 9.9828 23.6807 10.1667L18.3057 15.3029L19.7693 22.7612C19.7776 22.8028 19.7831 22.8443 19.7859 22.8858C19.8079 23.1557 19.728 23.4166 19.5654 23.6242C19.3972 23.8377 19.1574 23.9682 18.8928 23.9919C18.868 23.9979 18.8432 23.9979 18.8184 23.9979ZM12.0018 19.7601L18.4683 23.6034C18.5924 23.6776 18.7302 23.7132 18.8735 23.6984C19.0637 23.6835 19.2346 23.5886 19.3559 23.4344C19.4716 23.2861 19.5268 23.1023 19.513 22.9125C19.5102 22.8828 19.5075 22.8532 19.502 22.8235L18.0052 15.1962L18.0659 15.1398L23.4988 9.9472C23.6366 9.81672 23.7165 9.63583 23.7248 9.44308C23.733 9.25032 23.6697 9.06349 23.5429 8.92114C23.4298 8.79066 23.2727 8.70464 23.1018 8.68685L15.7119 7.81499L12.6385 0.727391C12.4787 0.356701 12.0624 0.1936 11.7096 0.359669C11.5525 0.433807 11.4285 0.564287 11.3596 0.727391L8.28616 7.81796L0.896249 8.68685C0.706057 8.71058 0.537917 8.80844 0.419391 8.96561C0.309135 9.11685 0.256764 9.30369 0.278815 9.49052C0.29811 9.66548 0.378045 9.82858 0.502083 9.9472L5.99559 15.1992L4.49887 22.8265C4.46303 23.0133 4.49611 23.2031 4.59534 23.3633C4.69733 23.5293 4.8572 23.645 5.04463 23.6865C5.21278 23.7221 5.38643 23.6924 5.53527 23.6064L12.0018 19.7601ZM6.18579 21.5394L7.45097 15.0865C7.50059 14.8374 7.4179 14.5734 7.23598 14.4014L2.58041 9.95314L8.84296 9.21769C9.08828 9.191 9.30328 9.0279 9.40526 8.79362L12.0018 2.80326L14.5983 8.79362C14.7003 9.0279 14.9153 9.191 15.1606 9.21769L21.4232 9.95314L16.7676 14.3985C16.5857 14.5705 16.503 14.8314 16.5526 15.0835L17.8178 21.5365L12.3491 18.2833C12.1341 18.1558 11.8667 18.1558 11.6545 18.2833L6.18579 21.5394ZM12.0018 17.8948C12.1672 17.8948 12.3353 17.9393 12.4842 18.0283L17.4264 20.9671L16.2852 15.1487C16.2163 14.7958 16.3321 14.4252 16.5857 14.182L20.7782 10.1785L15.1331 9.51425C14.794 9.47569 14.4936 9.24735 14.3503 8.92114L12.0046 3.50609L9.65885 8.92114C9.51552 9.24735 9.21783 9.47569 8.87604 9.51425L3.23092 10.1785L7.42341 14.182C7.677 14.4252 7.79277 14.7958 7.72386 15.1487L6.58271 20.9671L11.5249 18.0283C11.6683 17.9393 11.8337 17.8948 12.0018 17.8948Z" fill="#242A35"/>
</svg>
