<svg width="16" height="16" viewBox="0 0 16 16" fill="none" xmlns="http://www.w3.org/2000/svg">
<path d="M0.666664 6C0.666664 5.63181 0.965141 5.33333 1.33333 5.33333H10V3.38708C10 2.82808 10.6466 2.51729 11.0831 2.8665L15.1826 6.14608C15.6747 6.53976 15.3963 7.33333 14.7661 7.33333H1.33333C0.965141 7.33333 0.666664 7.03485 0.666664 6.66666L0.666664 6Z" fill="#394455"/>
<path d="M15.3333 10C15.3333 10.3682 15.0349 10.6667 14.6667 10.6667L6 10.6667L6 12.6129C6 13.1719 5.35338 13.4827 4.91687 13.1335L0.817392 9.85391C0.3253 9.46024 0.60367 8.66667 1.23385 8.66667L14.6667 8.66667C15.0349 8.66667 15.3333 8.96515 15.3333 9.33334L15.3333 10Z" fill="#394455"/>
</svg>
