<svg width="24" height="24" viewBox="0 0 24 24" fill="none" xmlns="http://www.w3.org/2000/svg">
<g clip-path="url(#clip0_11029_22409)">
<path d="M12 24C5.39029 24 0 18.6274 0 12C0 5.37262 5.37262 0 12 0C18.6274 0 24 5.37262 24 12C24 18.6274 18.6274 24 12 24ZM12 1.78498C6.36231 1.78498 1.76731 6.37998 1.76731 12.0177C1.76731 17.6554 6.36231 22.2504 12 22.2504C17.6377 22.2504 22.2327 17.6554 22.2327 12.0177C22.2327 6.37998 17.6377 1.78498 12 1.78498Z" fill="#394455"/>
<path d="M12.8837 14.1208H5.83212V12.3535H11.1164V5.83212H12.8837V14.1208Z" fill="#394455"/>
</g>
<defs>
<clipPath id="clip0_11029_22409">
<rect width="24" height="24" fill="white"/>
</clipPath>
</defs>
</svg>
