<svg width="24" height="24" viewBox="0 0 24 24" fill="none" xmlns="http://www.w3.org/2000/svg">
<path d="M21.7635 24H2.23645V18.7735C2.23645 15.2144 5.13825 12.3126 8.69737 12.3126H9.03405L9.30659 12.5531L11.4549 14.7976L10.3006 15.9038L8.4088 13.9158C5.84367 14.0922 3.83966 16.1924 3.83966 18.7575V22.3808H20.1603V18.7575C20.1603 16.1764 18.1403 14.0601 15.5912 13.9158L13.6994 15.9038L12.5451 14.7976L14.9178 12.3126H15.2545C18.8617 12.3126 21.7475 15.2144 21.7475 18.7735V24H21.7635Z" fill="#394455"/>
<path d="M12.016 10.5651H11.9359C9.32262 10.5651 7.19036 8.43287 7.19036 5.81964V4.74549C7.19036 2.13226 9.32262 0 11.9359 0C14.5491 0 16.7615 2.13226 16.7615 4.74549V5.81964C16.7615 8.43287 14.6292 10.5651 12.016 10.5651ZM12.016 1.60321C10.2044 1.60321 8.79357 3.01403 8.79357 4.74549V5.81964C8.79357 7.5511 10.2044 8.96192 11.9359 8.96192H12.016C13.7475 8.96192 15.1583 7.5511 15.1583 5.81964V4.74549C15.1583 3.01403 13.7475 1.60321 12.016 1.60321Z" fill="#394455"/>
</svg>
